<svg width="20" height="20" viewBox="0 0 20 20" fill="none" xmlns="http://www.w3.org/2000/svg">
<path d="M16.1011 4.63516C15.9745 4.56975 15.8513 4.49804 15.7319 4.42031C15.3848 4.1908 15.0665 3.92037 14.7839 3.61484C14.0768 2.80586 13.8128 1.98516 13.7155 1.41055H13.7194C13.6382 0.933594 13.6718 0.625 13.6769 0.625H10.4565V13.0773C10.4565 13.2445 10.4565 13.4098 10.4495 13.573C10.4495 13.5934 10.4476 13.6121 10.4464 13.634C10.4464 13.643 10.4464 13.6523 10.4444 13.6617C10.4444 13.6641 10.4444 13.6664 10.4444 13.6688C10.4105 14.1155 10.2673 14.5471 10.0274 14.9256C9.78746 15.304 9.45824 15.6177 9.06865 15.8391C8.66261 16.0701 8.20337 16.1912 7.73623 16.1906C6.23584 16.1906 5.01982 14.9672 5.01982 13.4563C5.01982 11.9453 6.23584 10.7219 7.73623 10.7219C8.02024 10.7216 8.30251 10.7663 8.57255 10.8543L8.57646 7.57539C7.75668 7.4695 6.92385 7.53465 6.13051 7.76673C5.33717 7.99882 4.60054 8.3928 3.96708 8.92383C3.41203 9.40609 2.9454 9.98152 2.58818 10.6242C2.45224 10.8586 1.93935 11.8004 1.87724 13.3289C1.83818 14.1965 2.09873 15.0953 2.22294 15.4668V15.4746C2.30107 15.6934 2.6038 16.4398 3.09716 17.0691C3.49499 17.5739 3.96501 18.0174 4.49208 18.3852V18.3773L4.4999 18.3852C6.05888 19.4445 7.7874 19.375 7.7874 19.375C8.08662 19.3629 9.08896 19.375 10.2272 18.8355C11.4897 18.2375 12.2085 17.3465 12.2085 17.3465C12.6677 16.8141 13.0328 16.2074 13.2882 15.5523C13.5796 14.7863 13.6769 13.8676 13.6769 13.5004V6.89414C13.7159 6.91758 14.2362 7.26172 14.2362 7.26172C14.2362 7.26172 14.9858 7.74219 16.1554 8.05508C16.9944 8.27773 18.1249 8.32461 18.1249 8.32461V5.12773C17.7288 5.1707 16.9245 5.0457 16.1011 4.63516Z" fill="white" fill-opacity="0.75"/>
</svg>
