<svg width="125" height="100" viewBox="0 0 125 100" fill="none" xmlns="http://www.w3.org/2000/svg">
<path d="M0 8C0 3.58172 3.58172 0 8 0H92.8027C97.221 0 100.803 3.58172 100.803 8V92C100.803 96.4183 97.221 100 92.8027 100H8C3.58172 100 0 96.4183 0 92V8Z" fill="#7A23D3" fill-opacity="0.1"/>
<path d="M0.5 8C0.5 3.85786 3.85786 0.5 8 0.5H92.8027C96.9449 0.5 100.303 3.85786 100.303 8V92C100.303 96.1421 96.9449 99.5 92.8027 99.5H8C3.85786 99.5 0.5 96.1421 0.5 92V8Z" stroke="#7A23D3" stroke-opacity="0.3"/>
<path opacity="0.5" d="M59.5849 63.3049L57.8787 65.1049C57.8787 65.1049 53.8174 69.3762 42.7362 57.7099C31.6549 46.0437 35.7162 41.7724 35.7162 41.7724L36.7924 40.6362C39.4399 37.8462 39.6912 33.3687 37.3774 30.0987L32.6524 23.4124C29.7874 19.3624 24.2562 18.8299 20.9749 22.2837L15.0912 28.4749C13.4674 30.1887 12.3799 32.4049 12.5112 34.8687C12.8487 41.1687 15.5412 54.7174 30.5562 70.5312C46.4824 87.2937 61.4262 87.9612 67.535 87.3574C69.47 87.1699 71.1499 86.1237 72.5037 84.6987L77.8287 79.0887C81.4287 75.3012 80.4162 68.8137 75.8112 66.1662L68.6487 62.0412C65.6262 60.3049 61.9474 60.8149 59.5849 63.3012" fill="#7A23D3"/>
<path d="M68.75 50C72.8275 49.9993 76.7936 48.6695 80.0473 46.212C83.3011 43.7546 85.665 40.3034 86.781 36.3816C87.8969 32.4598 87.704 28.2811 86.2315 24.4788C84.759 20.6765 82.0872 17.4578 78.6209 15.3106C75.1546 13.1633 71.0829 12.2045 67.0226 12.5795C62.9624 12.9544 59.1351 14.6427 56.1207 17.3884C53.1063 20.1342 51.0691 23.7877 50.3178 27.7954C49.5666 31.8031 50.1422 35.9464 51.9575 39.5975C52.3007 40.2604 52.39 41.0259 52.2088 41.75L51.0913 45.9238C50.9806 46.337 50.9807 46.7721 51.0914 47.1853C51.2022 47.5985 51.4198 47.9753 51.7222 48.2778C52.0247 48.5803 52.4015 48.7978 52.8147 48.9086C53.2279 49.0194 53.663 49.0194 54.0763 48.9088L58.25 47.7913C58.9742 47.61 59.7396 47.6993 60.4025 48.0425C62.9955 49.3336 65.8534 50.0037 68.75 50Z" fill="#7A23D3"/>
<path d="M85.6824 52.044V64.6811L123.169 62.4512V50L85.6824 52.044Z" fill="#7A23D3"/>
<path d="M124.828 63.0271C124.138 63.4361 123.466 63.826 122.776 64.235C122.459 64.4209 122.347 64.774 122.161 65.0525C121.826 65.5542 121.527 66.0932 121.192 66.6508C121.181 66.6675 121.167 66.681 121.149 66.6897C121.132 66.6984 121.112 66.702 121.093 66.7C121.073 66.6981 121.054 66.6907 121.039 66.6787C121.024 66.6667 121.012 66.6505 121.005 66.6322C120.409 65.2198 119.849 63.8819 119.271 62.5249C118.973 61.7628 118.674 61.0012 118.357 60.2391C118.351 60.2245 118.348 60.2088 118.349 60.1931C118.349 60.1774 118.353 60.162 118.361 60.1479C118.368 60.1339 118.378 60.1215 118.39 60.1116C118.402 60.1017 118.416 60.0945 118.432 60.0905C118.618 60.0346 118.767 60.1832 118.916 60.2391C120.427 60.8526 121.938 61.4656 123.448 62.0973C123.635 62.1718 124.045 62.3204 124.082 62.339C124.138 62.3577 124.567 62.5808 124.828 62.6735C125.163 62.805 124.921 62.9153 124.828 63.0271Z" fill="#0E1C36"/>
<path d="M92.7599 58.1406C92.7362 57.7253 92.8051 57.3508 92.9664 57.0172C93.1275 56.6795 93.3626 56.4119 93.6719 56.2141C93.9849 56.0121 94.3451 55.8996 94.7525 55.8766C95.2517 55.8484 95.6865 55.956 96.0569 56.1995C96.4273 56.443 96.6854 56.789 96.8311 57.2375L95.7049 57.3011C95.6111 57.1301 95.4836 57.0031 95.3227 56.9201C95.1657 56.8368 94.9893 56.8007 94.7937 56.8117C94.4782 56.8296 94.2288 56.9538 94.0456 57.1845C93.8624 57.4153 93.7813 57.7143 93.8022 58.0817C93.8231 58.4491 93.9377 58.7371 94.1459 58.9457C94.3541 59.1543 94.6159 59.2497 94.9314 59.2318C95.1271 59.2208 95.2982 59.165 95.4447 59.0646C95.5953 58.9639 95.7074 58.8234 95.7813 58.6429L96.9075 58.5793C96.8136 59.0413 96.5965 59.4142 96.256 59.6978C95.9154 59.9775 95.4954 60.1314 94.9962 60.1597C94.5889 60.1827 94.2183 60.1135 93.8846 59.952C93.5547 59.7864 93.2907 59.5469 93.0925 59.2336C92.8944 58.9203 92.7835 58.5559 92.7599 58.1406ZM99.141 59.9435C98.8135 59.962 98.514 59.9088 98.2424 59.7839C97.9749 59.6588 97.7579 59.4707 97.5913 59.2197C97.4288 58.9685 97.3376 58.6692 97.3179 58.3217C97.2983 57.9783 97.357 57.6725 97.494 57.4043C97.6308 57.1322 97.827 56.9188 98.0826 56.7641C98.3382 56.6094 98.6298 56.5228 98.9572 56.5043C99.2847 56.4858 99.5842 56.539 99.8557 56.6639C100.127 56.7888 100.346 56.9787 100.513 57.2337C100.68 57.4847 100.773 57.7819 100.792 58.1254C100.812 58.4688 100.751 58.7767 100.611 59.0491C100.474 59.3173 100.275 59.5288 100.016 59.6837C99.76 59.8384 99.4684 59.9249 99.141 59.9435ZM99.0905 59.0569C99.2862 59.0458 99.4478 58.9646 99.5754 58.8131C99.707 58.6615 99.7652 58.4519 99.75 58.1843C99.7347 57.9167 99.6551 57.7149 99.5112 57.5788C99.3712 57.4425 99.2034 57.3798 99.0077 57.3909C98.808 57.4022 98.6464 57.4834 98.5228 57.6347C98.3989 57.7819 98.3447 57.9913 98.3602 58.2628C98.3754 58.5304 98.451 58.7325 98.587 58.869C98.727 59.0053 98.8948 59.0679 99.0905 59.0569ZM103.275 56.2723C103.667 56.2502 103.985 56.3604 104.232 56.6029C104.482 56.8412 104.619 57.182 104.644 57.6252L104.756 59.5781L103.737 59.6356L103.634 57.8206C103.621 57.5969 103.553 57.4265 103.431 57.3092C103.308 57.192 103.148 57.1389 102.953 57.1499C102.757 57.161 102.605 57.2317 102.496 57.362C102.387 57.4924 102.339 57.6694 102.352 57.893L102.455 59.7081L101.431 59.766L101.241 56.4234L102.265 56.3655L102.29 56.8088C102.386 56.6551 102.519 56.5314 102.69 56.4376C102.861 56.3398 103.056 56.2847 103.275 56.2723ZM106.83 59.5089C106.538 59.5254 106.276 59.4902 106.043 59.4032C105.809 59.3162 105.622 59.1906 105.48 59.0263C105.339 58.858 105.254 58.6665 105.225 58.4518L106.238 58.3946C106.256 58.5097 106.316 58.6005 106.415 58.667C106.515 58.7334 106.635 58.7627 106.775 58.7548C106.903 58.7476 106.999 58.7181 107.064 58.6664C107.133 58.6104 107.166 58.5424 107.161 58.4626C107.156 58.3667 107.102 58.2997 106.999 58.2614C106.897 58.2191 106.732 58.1763 106.505 58.1331C106.262 58.0907 106.059 58.0441 105.896 57.9932C105.733 57.9383 105.59 57.8483 105.466 57.723C105.343 57.5938 105.274 57.4154 105.262 57.1877C105.251 56.996 105.293 56.8194 105.388 56.6578C105.486 56.4919 105.635 56.3573 105.833 56.254C106.036 56.1504 106.279 56.0906 106.562 56.0746C106.982 56.0509 107.317 56.1361 107.569 56.3302C107.824 56.5241 107.979 56.7917 108.035 57.1332L107.088 57.1866C107.066 57.0717 107.009 56.9828 106.917 56.9199C106.829 56.8567 106.716 56.8291 106.576 56.837C106.456 56.8438 106.365 56.8729 106.304 56.9245C106.243 56.972 106.214 57.0357 106.219 57.1156C106.224 57.2114 106.278 57.2805 106.381 57.3228C106.488 57.3648 106.65 57.4037 106.868 57.4395C107.12 57.4894 107.325 57.5419 107.484 57.597C107.644 57.6481 107.785 57.7402 107.909 57.8735C108.036 58.0025 108.109 58.1827 108.126 58.4141C108.137 58.6097 108.091 58.7886 107.988 58.9507C107.889 59.1085 107.738 59.2373 107.535 59.3369C107.337 59.4362 107.102 59.4936 106.83 59.5089ZM111.918 55.82L112.109 59.1625L111.084 59.2204L111.058 58.7652C110.963 58.9188 110.828 59.0466 110.653 59.1486C110.483 59.2464 110.289 59.3014 110.074 59.3136C109.818 59.328 109.589 59.2849 109.387 59.1841C109.185 59.0794 109.024 58.9222 108.904 58.7126C108.784 58.5031 108.715 58.2525 108.699 57.961L108.588 56.0082L109.606 55.9506L109.709 57.7657C109.722 57.9893 109.79 58.1598 109.913 58.277C110.036 58.3943 110.195 58.4474 110.39 58.4363C110.59 58.425 110.744 58.3542 110.853 58.2239C110.962 58.0935 111.01 57.9165 110.997 57.6929L110.894 55.8778L111.918 55.82ZM113.616 54.6302L113.869 59.0631L112.844 59.121L112.592 54.6881L113.616 54.6302ZM116.425 58.0472L116.474 58.9158L115.953 58.9453C115.581 58.9663 115.287 58.8928 115.069 58.7248C114.851 58.5528 114.73 58.2612 114.707 57.8499L114.631 56.52L114.224 56.543L114.175 55.6924L114.583 55.6694L114.536 54.8547L115.561 54.7968L115.607 55.6115L116.278 55.5736L116.326 56.4242L115.655 56.4621L115.732 57.804C115.737 57.9038 115.765 57.9743 115.816 58.0155C115.866 58.0568 115.947 58.0742 116.059 58.0679L116.425 58.0472Z" fill="white"/>
</svg>
