<svg width="126" height="100" viewBox="0 0 126 100" fill="none" xmlns="http://www.w3.org/2000/svg">
<path d="M0.5 8C0.5 3.58172 4.08172 0 8.5 0H91.9922C96.4105 0 99.9922 3.58172 99.9922 8V92C99.9922 96.4183 96.4105 100 91.9922 100H8.5C4.08172 100 0.5 96.4183 0.5 92V8Z" fill="#00B428" fill-opacity="0.1"/>
<path d="M1 8C1 3.85786 4.35786 0.5 8.5 0.5H91.9922C96.1343 0.5 99.4922 3.85786 99.4922 8V92C99.4922 96.1421 96.1343 99.5 91.9922 99.5H8.5C4.35787 99.5 1 96.1421 1 92V8Z" stroke="#00B428" stroke-opacity="0.3"/>
<path opacity="0.2" d="M84.25 41.5625V72.5C84.25 73.2459 83.9537 73.9613 83.4262 74.4887C82.8988 75.0162 82.1834 75.3125 81.4375 75.3125H64.5625V41.5625H84.25Z" fill="#00B428"/>
<path d="M15.3438 50C14.5978 50 13.8825 49.7037 13.355 49.1762C12.8276 48.6488 12.5312 47.9334 12.5312 47.1875C12.5312 46.4416 12.8276 45.7262 13.355 45.1988C13.8825 44.6713 14.5978 44.375 15.3438 44.375H25.1875C25.9334 44.375 26.6488 44.0787 27.1762 43.5512C27.7037 43.0238 28 42.3084 28 41.5625C28 40.8166 27.7037 40.1012 27.1762 39.5738C26.6488 39.0463 25.9334 38.75 25.1875 38.75H19.5625C17.3247 38.75 15.1786 37.8611 13.5963 36.2787C12.0139 34.6964 11.125 32.5503 11.125 30.3125C11.125 28.0747 12.0139 25.9286 13.5963 24.3463C15.1786 22.7639 17.3247 21.875 19.5625 21.875C19.5625 21.1291 19.8588 20.4137 20.3863 19.8863C20.9137 19.3588 21.6291 19.0625 22.375 19.0625C23.1209 19.0625 23.8363 19.3588 24.3637 19.8863C24.8912 20.4137 25.1875 21.1291 25.1875 21.875H28C28.7459 21.875 29.4613 22.1713 29.9887 22.6988C30.5162 23.2262 30.8125 23.9416 30.8125 24.6875C30.8125 25.4334 30.5162 26.1488 29.9887 26.6762C29.4613 27.2037 28.7459 27.5 28 27.5H19.5625C18.8166 27.5 18.1012 27.7963 17.5738 28.3238C17.0463 28.8512 16.75 29.5666 16.75 30.3125C16.75 31.0584 17.0463 31.7738 17.5738 32.3012C18.1012 32.8287 18.8166 33.125 19.5625 33.125H25.1875C27.4253 33.125 29.5714 34.0139 31.1537 35.5963C32.7361 37.1786 33.625 39.3247 33.625 41.5625C33.625 43.8003 32.7361 45.9464 31.1537 47.5287C29.5714 49.1111 27.4253 50 25.1875 50C25.1875 50.7459 24.8912 51.4613 24.3637 51.9887C23.8363 52.5162 23.1209 52.8125 22.375 52.8125C21.6291 52.8125 20.9137 52.5162 20.3863 51.9887C19.8588 51.4613 19.5625 50.7459 19.5625 50H15.3438ZM87.0625 24.6875V72.5C87.0625 73.9918 86.4699 75.4226 85.415 76.4775C84.3601 77.5324 82.9293 78.125 81.4375 78.125H19.5625C18.0707 78.125 16.6399 77.5324 15.585 76.4775C14.5301 75.4226 13.9375 73.9918 13.9375 72.5V58.4375C13.9375 57.6916 14.2338 56.9762 14.7613 56.4488C15.2887 55.9213 16.0041 55.625 16.75 55.625C17.4959 55.625 18.2113 55.9213 18.7387 56.4488C19.2662 56.9762 19.5625 57.6916 19.5625 58.4375V72.5H61.75V61.25H33.625C32.8791 61.25 32.1637 60.9537 31.6363 60.4262C31.1088 59.8988 30.8125 59.1834 30.8125 58.4375C30.8125 57.6916 31.1088 56.9762 31.6363 56.4488C32.1637 55.9213 32.8791 55.625 33.625 55.625H61.75V44.375H42.0625C41.3166 44.375 40.6012 44.0787 40.0738 43.5512C39.5463 43.0238 39.25 42.3084 39.25 41.5625C39.25 40.8166 39.5463 40.1012 40.0738 39.5738C40.6012 39.0463 41.3166 38.75 42.0625 38.75H81.4375V27.5H39.25C38.5041 27.5 37.7887 27.2037 37.2613 26.6762C36.7338 26.1488 36.4375 25.4334 36.4375 24.6875C36.4375 23.9416 36.7338 23.2262 37.2613 22.6988C37.7887 22.1713 38.5041 21.875 39.25 21.875H84.25C84.9959 21.875 85.7113 22.1713 86.2387 22.6988C86.7662 23.2262 87.0625 23.9416 87.0625 24.6875ZM67.375 55.625H81.4375V44.375H67.375V55.625ZM81.4375 72.5V61.25H67.375V72.5H81.4375Z" fill="#00B428"/>
<path d="M94.0588 53.5712C95.6672 53.5712 96.9709 52.2567 96.9709 50.6352C96.9709 49.0137 95.6672 47.6992 94.0588 47.6992C92.4505 47.6992 91.1467 49.0137 91.1467 50.6352C91.1467 52.2567 92.4505 53.5712 94.0588 53.5712Z" fill="#00B428"/>
<path d="M116.569 49.4798L98.9131 50.6504C98.8278 50.6567 98.7434 50.629 98.678 50.5734C98.6125 50.5178 98.5712 50.4387 98.5629 50.3528C98.5567 50.2669 98.584 50.1818 98.639 50.1159C98.6941 50.0499 98.7724 50.0082 98.8575 49.9997L116.514 48.829C116.599 48.8227 116.683 48.8503 116.749 48.9058C116.814 48.9613 116.855 49.0403 116.864 49.1261C116.869 49.169 116.865 49.2125 116.852 49.2539C116.84 49.2952 116.819 49.3336 116.792 49.3667C116.764 49.3998 116.73 49.4269 116.692 49.4463C116.654 49.4658 116.612 49.4771 116.569 49.4798Z" fill="#00B428"/>
<path d="M88.0531 56.8748L125.298 54.4219V63.5628L88.0691 66.1269L88.0531 56.8748Z" fill="#E8CCA8"/>
<path d="M94.0588 74.6064C95.6672 74.6064 96.9709 73.2919 96.9709 71.6704C96.9709 70.0489 95.6672 68.7344 94.0588 68.7344C92.4505 68.7344 91.1467 70.0489 91.1467 71.6704C91.1467 73.2919 92.4505 74.6064 94.0588 74.6064Z" fill="#00B428"/>
<path d="M116.569 70.5188L98.9131 71.689C98.8279 71.6952 98.7436 71.6677 98.6781 71.6122C98.6127 71.5567 98.5714 71.4777 98.5629 71.3919C98.5567 71.3059 98.584 71.2209 98.639 71.155C98.6941 71.089 98.7724 71.0473 98.8575 71.0387L116.514 69.8681C116.599 69.8618 116.683 69.8894 116.749 69.9449C116.814 70.0003 116.855 70.0794 116.864 70.1651C116.869 70.2081 116.865 70.2516 116.852 70.2929C116.84 70.3343 116.819 70.3727 116.792 70.4058C116.764 70.4389 116.73 70.466 116.692 70.4854C116.654 70.5048 116.612 70.5162 116.569 70.5188Z" fill="#00B428"/>
<path d="M88.0844 54.7784V67.4155L125.084 65.1856V52.7344L88.0844 54.7784Z" fill="#00B428"/>
<path d="M93.5937 63.7963L93.0138 63.1024C92.8559 63.1434 92.701 63.1683 92.5493 63.177C92.1539 63.1997 91.7854 63.1286 91.4436 62.9639C91.1058 62.7989 90.8299 62.5583 90.6158 62.242C90.4055 61.9215 90.2888 61.5556 90.2657 61.1442C90.2426 60.7329 90.3177 60.358 90.491 60.0195C90.6682 59.6808 90.9155 59.4103 91.2326 59.2078C91.5537 59.0051 91.912 58.8925 92.3073 58.8698C92.7027 58.8472 93.0693 58.9183 93.407 59.0833C93.7488 59.248 94.0227 59.4888 94.2288 59.8055C94.4389 60.122 94.5555 60.4859 94.5786 60.8973C94.5988 61.2567 94.5434 61.5904 94.4125 61.8984C94.2854 62.2022 94.0975 62.4594 93.8489 62.6699L94.8336 63.7253L93.5937 63.7963ZM91.314 61.0842C91.3348 61.4556 91.4514 61.7475 91.6636 61.9597C91.8796 62.1677 92.1574 62.2619 92.4968 62.2425C92.8322 62.2233 93.0935 62.0962 93.2806 61.8611C93.4717 61.6258 93.557 61.3244 93.5363 60.957C93.5155 60.5856 93.397 60.2959 93.181 60.0879C92.9688 59.8757 92.6949 59.7792 92.3595 59.7984C92.02 59.8178 91.7547 59.9432 91.5633 60.1745C91.376 60.4056 91.2929 60.7088 91.314 61.0842ZM98.3918 59.447L98.5796 62.7897L97.5553 62.8483L97.5297 62.3931C97.4341 62.5468 97.2991 62.6747 97.1246 62.7768C96.9538 62.8748 96.7606 62.9299 96.5449 62.9422C96.2893 62.9569 96.0606 62.9139 95.8586 62.8133C95.6564 62.7087 95.4954 62.5516 95.3754 62.3421C95.2555 62.1326 95.1873 61.8821 95.171 61.5906L95.0612 59.6377L96.0796 59.5793L96.1815 61.3945C96.1941 61.6181 96.2618 61.7885 96.3845 61.9057C96.5073 62.0229 96.6665 62.0759 96.8622 62.0647C97.0619 62.0532 97.2161 61.9823 97.325 61.8519C97.4339 61.7214 97.482 61.5444 97.4694 61.3207L97.3675 59.5056L98.3918 59.447ZM100.84 62.7084C100.512 62.7271 100.213 62.6741 99.9412 62.5495C99.6738 62.4245 99.4569 62.2366 99.2906 61.9857C99.1282 61.7346 99.0373 61.4353 99.0178 61.0879C98.9985 60.7444 99.0574 60.4385 99.1946 60.1702C99.3315 59.898 99.5279 59.6844 99.7836 59.5295C100.039 59.3747 100.331 59.2879 100.658 59.2691C100.986 59.2504 101.285 59.3033 101.557 59.428C101.828 59.5527 102.047 59.7425 102.214 59.9974C102.38 60.2483 102.473 60.5455 102.492 60.8889C102.511 61.2324 102.451 61.5404 102.31 61.8129C102.172 62.0811 101.974 62.2928 101.714 62.4479C101.459 62.6028 101.167 62.6896 100.84 62.7084ZM100.79 61.8218C100.985 61.8106 101.147 61.7292 101.275 61.5776C101.406 61.4259 101.465 61.2162 101.45 60.9486C101.435 60.681 101.355 60.4792 101.211 60.3432C101.072 60.207 100.904 60.1445 100.708 60.1557C100.508 60.1671 100.347 60.2485 100.223 60.3998C100.099 60.5472 100.045 60.7566 100.06 61.0282C100.075 61.2958 100.151 61.4978 100.286 61.6342C100.426 61.7705 100.594 61.833 100.79 61.8218ZM104.944 61.5539L104.992 62.4225L104.471 62.4523C104.1 62.4736 103.805 62.4003 103.587 62.2325C103.37 62.0607 103.249 61.7691 103.226 61.3577L103.151 60.0278L102.744 60.0512L102.696 59.2005L103.103 59.1772L103.058 58.3625L104.082 58.3038L104.128 59.1185L104.799 59.0801L104.846 59.9308L104.175 59.9692L104.251 61.3111C104.256 61.4109 104.284 61.4814 104.335 61.5226C104.385 61.5638 104.466 61.5812 104.578 61.5748L104.944 61.5539ZM105.265 60.7241C105.246 60.3807 105.293 60.0755 105.406 59.8086C105.523 59.5415 105.69 59.3316 105.905 59.179C106.121 59.0264 106.367 58.9423 106.642 58.9265C106.878 58.913 107.086 58.9491 107.267 59.0349C107.453 59.1205 107.597 59.2384 107.702 59.3887L107.675 58.9154L108.7 58.8568L108.887 62.1995L107.863 62.2581L107.837 61.7849C107.745 61.9464 107.613 62.0802 107.438 62.1863C107.268 62.2922 107.065 62.3519 106.83 62.3654C106.558 62.3809 106.306 62.3252 106.075 62.1983C105.843 62.0673 105.654 61.8758 105.508 61.6237C105.365 61.3675 105.284 61.0676 105.265 60.7241ZM107.769 60.5868C107.755 60.3312 107.672 60.1336 107.52 59.9941C107.372 59.8543 107.196 59.7903 106.992 59.8019C106.788 59.8136 106.619 59.8974 106.483 60.0534C106.352 60.2052 106.293 60.4089 106.307 60.6645C106.322 60.9201 106.403 61.1197 106.551 61.2635C106.703 61.403 106.881 61.467 107.085 61.4553C107.289 61.4437 107.456 61.3599 107.588 61.2042C107.723 61.0482 107.784 60.8424 107.769 60.5868ZM111.443 61.1818L111.491 62.0504L110.97 62.0802C110.599 62.1015 110.304 62.0282 110.087 61.8604C109.869 61.6886 109.748 61.397 109.725 60.9856L109.65 59.6557L109.243 59.679L109.195 58.8284L109.602 58.8051L109.557 57.9904L110.581 57.9317L110.627 58.7464L111.298 58.708L111.345 59.5587L110.675 59.5971L110.75 60.939C110.756 61.0388 110.784 61.1093 110.834 61.1505C110.884 61.1917 110.965 61.2091 111.077 61.2027L111.443 61.1818ZM112.37 58.298C112.19 58.3083 112.04 58.2649 111.918 58.1677C111.8 58.0662 111.737 57.9377 111.728 57.7819C111.719 57.6221 111.767 57.4872 111.873 57.3769C111.983 57.2625 112.128 57.2001 112.308 57.1898C112.483 57.1797 112.63 57.2254 112.748 57.3268C112.87 57.424 112.935 57.5525 112.944 57.7123C112.953 57.868 112.902 58.0031 112.792 58.1176C112.686 58.2278 112.546 58.288 112.37 58.298ZM112.899 58.6163L113.086 61.9591L112.062 62.0177L111.874 58.675L112.899 58.6163ZM115.353 61.8774C115.025 61.8961 114.726 61.8432 114.455 61.7185C114.187 61.5936 113.97 61.4056 113.804 61.1547C113.642 60.9036 113.551 60.6043 113.531 60.2569C113.512 59.9134 113.571 59.6075 113.708 59.3393C113.845 59.067 114.041 58.8534 114.297 58.6985C114.553 58.5437 114.844 58.4569 115.172 58.4381C115.499 58.4194 115.799 58.4723 116.07 58.597C116.341 58.7217 116.56 58.9115 116.727 59.1664C116.893 59.4173 116.986 59.7145 117.005 60.0579C117.025 60.4014 116.964 60.7094 116.823 60.9819C116.686 61.2502 116.487 61.4618 116.228 61.6169C115.972 61.7718 115.68 61.8586 115.353 61.8774ZM115.303 60.9908C115.499 60.9796 115.66 60.8982 115.788 60.7466C115.92 60.5949 115.978 60.3852 115.963 60.1176C115.948 59.85 115.869 59.6482 115.725 59.5122C115.585 59.376 115.417 59.3135 115.221 59.3247C115.022 59.3361 114.86 59.4175 114.736 59.5688C114.612 59.7162 114.558 59.9256 114.573 60.1972C114.588 60.4648 114.664 60.6668 114.8 60.8032C114.94 60.9395 115.107 61.002 115.303 60.9908ZM119.49 58.2029C119.881 58.1805 120.2 58.2905 120.446 58.5328C120.695 58.7709 120.833 59.1116 120.858 59.5549L120.967 61.5078L119.949 61.5661L119.847 59.751C119.834 59.5274 119.767 59.3569 119.644 59.2398C119.521 59.1226 119.362 59.0696 119.166 59.0808C118.971 59.092 118.818 59.1628 118.71 59.2933C118.601 59.4237 118.553 59.6008 118.565 59.8244L118.667 61.6395L117.643 61.6982L117.455 58.3555L118.479 58.2968L118.504 58.7401C118.6 58.5864 118.733 58.4626 118.904 58.3686C119.075 58.2707 119.27 58.2155 119.49 58.2029Z" fill="white"/>
<path d="M125.322 64.643C124.64 65.0518 123.976 65.4418 123.295 65.8511C122.982 66.037 122.871 66.3902 122.686 66.6685C122.355 67.1703 122.06 67.7073 121.728 68.2667C121.719 68.2844 121.705 68.299 121.687 68.3085C121.67 68.318 121.65 68.322 121.63 68.32C121.61 68.318 121.591 68.3101 121.576 68.2972C121.561 68.2844 121.549 68.2672 121.544 68.248C120.954 66.8358 120.401 65.4979 119.83 64.1413C119.535 63.3794 119.24 62.6175 118.927 61.8561C118.921 61.8415 118.918 61.8258 118.919 61.8101C118.92 61.7944 118.924 61.779 118.931 61.765C118.938 61.751 118.948 61.7386 118.96 61.7287C118.972 61.7188 118.986 61.7116 119.001 61.7076C119.185 61.652 119.333 61.8005 119.48 61.8561C120.974 62.4695 122.468 63.0823 123.959 63.7144C124.143 63.7887 124.549 63.9372 124.585 63.9559C124.64 63.9746 125.064 64.1974 125.322 64.2904C125.672 64.4202 125.414 64.5339 125.322 64.643Z" fill="#0E1C36"/>
</svg>
