<svg width="144" height="35" viewBox="0 0 144 35" fill="none" xmlns="http://www.w3.org/2000/svg">
<path fill-rule="evenodd" clip-rule="evenodd" d="M2.68149 23.9418C1.75303 22.1242 1.19703 20.1426 1.04538 18.1107C0.888668 16.0793 1.13877 14.0366 1.78137 12.0995C2.42398 10.1624 3.44646 8.3689 4.79031 6.82173C7.50767 3.6955 11.3674 1.76166 15.5214 1.44519C17.5783 1.28784 19.6457 1.53278 21.6055 2.16599C23.5652 2.79921 25.3788 3.80829 26.9426 5.13555C28.5057 6.46101 29.7883 8.07893 30.7167 9.89655C30.7416 9.94531 30.7662 9.99419 30.7906 10.0432C32.5246 13.5291 31.3666 17.4676 30.2677 21.2053L30.2481 21.272C29.9911 22.1461 29.8422 22.9575 29.9089 23.6036C29.9197 23.7073 29.9347 23.8105 29.9498 23.9137C29.9691 24.0458 29.9884 24.1779 29.9986 24.311C30.0739 25.3008 30.5225 26.225 31.2535 26.8965L32.2166 27.7812C32.6864 28.2127 33.1045 28.7795 32.9767 29.4043C32.9112 29.7244 32.7678 30.0239 32.5587 30.2769C32.3497 30.5299 32.0814 30.7288 31.7772 30.8562C30.9365 31.2083 30.089 31.541 29.2043 31.7602L28.8202 31.8553C28.2397 31.9991 27.6482 32.0942 27.0519 32.1396L24.7092 32.3179C24.4744 32.3514 24.2417 32.3736 24.0111 32.3868C23.8406 32.3966 23.6698 32.4066 23.4988 32.4165C19.5682 32.6449 15.5297 32.8795 11.793 31.6721C9.83329 31.0389 8.0197 30.0299 6.45584 28.7027C4.89258 27.3774 3.60995 25.7595 2.68149 23.9418ZM17.3055 20.8291C16.6224 21.112 15.8903 21.2576 15.151 21.2576C13.6579 21.2576 12.2259 20.6645 11.1701 19.6087C10.1143 18.5529 9.52119 17.1209 9.52119 15.6278C9.52119 14.1347 10.1143 12.7027 11.1701 11.6469C12.2259 10.5911 13.6579 9.99798 15.151 9.99798C15.8903 9.99798 16.6224 10.1436 17.3055 10.4265C17.9885 10.7094 18.6091 11.1241 19.1319 11.6469C19.6547 12.1697 20.0694 12.7903 20.3523 13.4734C20.6352 14.1564 20.7809 14.8885 20.7809 15.6278C20.7809 16.3671 20.6352 17.0992 20.3523 17.7823C20.0694 18.4653 19.6547 19.0859 19.1319 19.6087C18.6091 20.1315 17.9885 20.5462 17.3055 20.8291ZM15.151 12.8129C14.7814 12.8128 14.4154 12.8855 14.0738 13.0268C13.5594 13.2399 13.1197 13.6007 12.8104 14.0637C12.5011 14.5267 12.336 15.071 12.3361 15.6278C12.3361 15.7522 12.2867 15.8716 12.1987 15.9596C12.1107 16.0475 11.9914 16.097 11.867 16.097C11.7425 16.097 11.6232 16.0475 11.5352 15.9596C11.4472 15.8716 11.3978 15.7522 11.3978 15.6278C11.3978 14.6324 11.7932 13.6777 12.4971 12.9739C13.201 12.27 14.1556 11.8746 15.151 11.8746C15.2754 11.8746 15.3948 11.924 15.4828 12.012C15.5707 12.1 15.6202 12.2193 15.6202 12.3437C15.6202 12.4682 15.5707 12.5875 15.4828 12.6755C15.3948 12.7635 15.2754 12.8129 15.151 12.8129Z" fill="white"/>
<path d="M1.04538 18.1107L1.7933 18.0549L1.79316 18.053L1.04538 18.1107ZM2.68149 23.9418L2.01358 24.283L2.01358 24.283L2.68149 23.9418ZM1.78137 12.0995L1.06952 11.8633L1.06952 11.8633L1.78137 12.0995ZM4.79031 6.82173L4.22425 6.32971L4.22408 6.32991L4.79031 6.82173ZM15.5214 1.44519L15.5784 2.19302L15.5786 2.19301L15.5214 1.44519ZM21.6055 2.16599L21.8361 1.45232L21.8361 1.45232L21.6055 2.16599ZM26.9426 5.13555L26.4573 5.70736L26.4575 5.70758L26.9426 5.13555ZM30.7167 9.89655L31.3846 9.55539L31.3846 9.55538L30.7167 9.89655ZM30.7906 10.0432L31.4621 9.70916L31.4621 9.70916L30.7906 10.0432ZM30.2677 21.2053L30.9872 21.4168L30.9872 21.4168L30.2677 21.2053ZM30.2481 21.272L29.5285 21.0604L29.5285 21.0605L30.2481 21.272ZM29.9089 23.6036L29.1629 23.6807L29.1629 23.6807L29.9089 23.6036ZM29.9498 23.9137L29.2077 24.0222L29.2077 24.0222L29.9498 23.9137ZM29.9986 24.311L29.2507 24.3679L29.2507 24.3679L29.9986 24.311ZM31.2535 26.8965L31.7609 26.3441L31.7609 26.3441L31.2535 26.8965ZM32.2166 27.7812L31.7093 28.3335L31.7093 28.3335L32.2166 27.7812ZM32.9767 29.4043L32.2419 29.254L32.2419 29.254L32.9767 29.4043ZM32.5587 30.2769L31.9805 29.7992L31.9805 29.7992L32.5587 30.2769ZM31.7772 30.8562L31.4875 30.1644L31.4875 30.1644L31.7772 30.8562ZM29.2043 31.7602L29.024 31.0322L29.024 31.0322L29.2043 31.7602ZM28.8202 31.8553L29.0005 32.5833L29.0005 32.5833L28.8202 31.8553ZM27.0519 32.1396L26.995 31.3918L26.995 31.3918L27.0519 32.1396ZM24.7092 32.3179L24.6523 31.5701C24.6359 31.5713 24.6195 31.5731 24.6032 31.5754L24.7092 32.3179ZM24.0111 32.3868L24.0541 33.1356L24.0541 33.1356L24.0111 32.3868ZM23.4988 32.4165L23.5423 33.1652L23.5423 33.1652L23.4988 32.4165ZM11.793 31.6721L11.5624 32.3858L11.5624 32.3858L11.793 31.6721ZM6.45584 28.7027L6.94113 28.1309L6.94085 28.1307L6.45584 28.7027ZM17.3055 20.8291L17.0185 20.1362L17.0185 20.1362L17.3055 20.8291ZM17.3055 10.4265L17.5925 9.73361L17.5925 9.73361L17.3055 10.4265ZM19.1319 11.6469L19.6622 11.1166L19.6622 11.1166L19.1319 11.6469ZM20.3523 13.4734L21.0452 13.1864L21.0452 13.1864L20.3523 13.4734ZM20.3523 17.7823L21.0452 18.0693L21.0452 18.0693L20.3523 17.7823ZM14.0738 13.0268L13.7871 12.3338L13.7868 12.3339L14.0738 13.0268ZM15.151 12.8129L15.1508 13.5629H15.151V12.8129ZM12.3361 15.6278L13.0861 15.6278L13.0861 15.6277L12.3361 15.6278ZM11.5352 15.9596L11.0049 16.4899L11.0049 16.4899L11.5352 15.9596ZM15.4828 12.012L16.0131 11.4817L16.0131 11.4817L15.4828 12.012ZM0.297459 18.1665C0.456546 20.2981 1.03981 22.3767 2.01358 24.283L3.3494 23.6007C2.46624 21.8717 1.93751 19.9871 1.7933 18.0549L0.297459 18.1665ZM1.06952 11.8633C0.395593 13.8948 0.133211 16.0374 0.2976 18.1684L1.79316 18.053C1.64412 16.1211 1.88194 14.1783 2.49323 12.3356L1.06952 11.8633ZM4.22408 6.32991C2.81556 7.95154 1.74344 9.83182 1.06952 11.8633L2.49323 12.3356C3.10452 10.4929 4.07736 8.78626 5.35654 7.31355L4.22408 6.32991ZM15.4644 0.697357C11.115 1.02871 7.07188 3.05361 4.22425 6.32971L5.35636 7.31375C7.94345 4.3374 11.6199 2.4946 15.5784 2.19302L15.4644 0.697357ZM21.8361 1.45232C19.7834 0.78907 17.6182 0.5326 15.4642 0.697375L15.5786 2.19301C17.5385 2.04308 19.5081 2.27648 21.3749 2.87966L21.8361 1.45232ZM27.4279 4.56374C25.789 3.17272 23.8888 2.11558 21.8361 1.45232L21.3749 2.87966C23.2416 3.48284 24.9686 4.44386 26.4573 5.70736L27.4279 4.56374ZM31.3846 9.55538C30.4109 7.64911 29.0661 5.95282 27.4277 4.56352L26.4575 5.70758C27.9454 6.96919 29.1656 8.50876 30.0488 10.2377L31.3846 9.55538ZM31.4621 9.70916C31.4366 9.65777 31.4107 9.60651 31.3846 9.55539L30.0488 10.2377C30.0725 10.2841 30.0959 10.3306 30.1191 10.3772L31.4621 9.70916ZM30.9872 21.4168C31.5329 19.5608 32.1182 17.5774 32.3369 15.6128C32.557 13.635 32.4135 11.6218 31.4621 9.70916L30.1191 10.3772C30.9017 11.9505 31.0461 13.6494 30.8461 15.4468C30.6445 17.2574 30.1013 19.1121 29.5481 20.9937L30.9872 21.4168ZM30.9676 21.4836L30.9872 21.4168L29.5481 20.9937L29.5285 21.0604L30.9676 21.4836ZM30.655 23.5265C30.6037 23.0307 30.7173 22.3349 30.9676 21.4835L29.5285 21.0605C29.2648 21.9573 29.0806 22.8842 29.1629 23.6807L30.655 23.5265ZM30.6919 23.8052C30.6765 23.6995 30.6638 23.6119 30.655 23.5265L29.1629 23.6807C29.1755 23.8028 29.193 23.9216 29.2077 24.0222L30.6919 23.8052ZM30.7464 24.2541C30.734 24.0908 30.7106 23.933 30.6919 23.8052L29.2077 24.0222C29.2276 24.1585 29.2429 24.265 29.2507 24.3679L30.7464 24.2541ZM31.7609 26.3441C31.1699 25.8013 30.8073 25.0542 30.7464 24.2541L29.2507 24.3679C29.3405 25.5474 29.875 26.6486 30.7462 27.4488L31.7609 26.3441ZM32.724 27.2289L31.7609 26.3441L30.7462 27.4488L31.7093 28.3335L32.724 27.2289ZM33.7115 29.5546C33.9268 28.5021 33.2113 27.6765 32.724 27.2289L31.7093 28.3335C31.9116 28.5194 32.0679 28.7038 32.1603 28.8756C32.2485 29.0395 32.2616 29.1577 32.2419 29.254L33.7115 29.5546ZM33.1369 30.7546C33.4238 30.4074 33.6213 29.9955 33.7115 29.5546L32.2419 29.254C32.2012 29.4532 32.1117 29.6404 31.9805 29.7992L33.1369 30.7546ZM32.067 31.5479C32.4827 31.3738 32.8501 31.1018 33.1369 30.7546L31.9805 29.7992C31.8493 29.9581 31.6802 30.0837 31.4875 30.1644L32.067 31.5479ZM29.3846 32.4882C30.3285 32.2543 31.2204 31.9025 32.067 31.5479L31.4875 30.1644C30.6527 30.514 29.8496 30.8276 29.024 31.0322L29.3846 32.4882ZM29.0005 32.5833L29.3846 32.4882L29.024 31.0322L28.6398 31.1273L29.0005 32.5833ZM27.1088 32.8874C27.7467 32.8389 28.3795 32.7371 29.0005 32.5833L28.6398 31.1273C28.0999 31.2611 27.5497 31.3495 26.995 31.3918L27.1088 32.8874ZM24.7661 33.0658L27.1088 32.8874L26.995 31.3918L24.6523 31.5701L24.7661 33.0658ZM24.0541 33.1356C24.3038 33.1213 24.5576 33.0971 24.8151 33.0604L24.6032 31.5754C24.3913 31.6057 24.1797 31.6259 23.9681 31.6381L24.0541 33.1356ZM23.5423 33.1652C23.7133 33.1553 23.8838 33.1454 24.0541 33.1356L23.9681 31.6381C23.7973 31.6479 23.6262 31.6578 23.4553 31.6678L23.5423 33.1652ZM11.5624 32.3858C15.456 33.6439 19.6396 33.392 23.5423 33.1652L23.4553 31.6678C19.4969 31.8977 15.6034 32.1151 12.0236 30.9585L11.5624 32.3858ZM5.97055 29.2746C7.60952 30.6655 9.50972 31.7226 11.5624 32.3858L12.0236 30.9585C10.1569 30.3553 8.42987 29.3943 6.94113 28.1309L5.97055 29.2746ZM2.01358 24.283C2.98733 26.1893 4.33226 27.8856 5.97083 29.2748L6.94085 28.1307C5.4529 26.8692 4.23256 25.3296 3.3494 23.6007L2.01358 24.283ZM15.151 22.0076C15.9888 22.0076 16.8184 21.8426 17.5925 21.522L17.0185 20.1362C16.4264 20.3814 15.7919 20.5076 15.151 20.5076V22.0076ZM10.6398 20.139C11.8362 21.3355 13.459 22.0076 15.151 22.0076V20.5076C13.8568 20.5076 12.6156 19.9935 11.7005 19.0784L10.6398 20.139ZM8.77119 15.6278C8.77119 17.3199 9.44334 18.9426 10.6398 20.139L11.7005 19.0784C10.7853 18.1632 10.2712 16.922 10.2712 15.6278H8.77119ZM10.6398 11.1166C9.44334 12.313 8.77119 13.9358 8.77119 15.6278H10.2712C10.2712 14.3336 10.7853 13.0924 11.7005 12.1772L10.6398 11.1166ZM15.151 9.24798C13.459 9.24798 11.8362 9.92014 10.6398 11.1166L11.7005 12.1772C12.6156 11.2621 13.8568 10.748 15.151 10.748V9.24798ZM17.5925 9.73361C16.8184 9.413 15.9888 9.24798 15.151 9.24798V10.748C15.7919 10.748 16.4264 10.8742 17.0185 11.1194L17.5925 9.73361ZM19.6622 11.1166C19.0698 10.5242 18.3665 10.0542 17.5925 9.73361L17.0185 11.1194C17.6105 11.3647 18.1485 11.7241 18.6016 12.1772L19.6622 11.1166ZM21.0452 13.1864C20.7246 12.4123 20.2547 11.709 19.6622 11.1166L18.6016 12.1772C19.0547 12.6304 19.4142 13.1683 19.6594 13.7604L21.0452 13.1864ZM21.5309 15.6278C21.5309 14.79 21.3658 13.9604 21.0452 13.1864L19.6594 13.7604C19.9046 14.3524 20.0309 14.987 20.0309 15.6278H21.5309ZM21.0452 18.0693C21.3658 17.2952 21.5309 16.4656 21.5309 15.6278H20.0309C20.0309 16.2686 19.9046 16.9032 19.6594 17.4952L21.0452 18.0693ZM19.6622 20.139C20.2547 19.5466 20.7246 18.8433 21.0452 18.0693L19.6594 17.4952C19.4142 18.0873 19.0547 18.6252 18.6016 19.0784L19.6622 20.139ZM17.5925 21.522C18.3665 21.2014 19.0698 20.7315 19.6622 20.139L18.6016 19.0784C18.1485 19.5315 17.6105 19.891 17.0185 20.1362L17.5925 21.522ZM14.3606 13.7198C14.6112 13.6161 14.8797 13.5628 15.1508 13.5629L15.1512 12.0629C14.6831 12.0628 14.2196 12.1548 13.7871 12.3338L14.3606 13.7198ZM13.4341 14.4804C13.661 14.1407 13.9835 13.876 14.3608 13.7197L13.7868 12.3339C13.1354 12.6038 12.5785 13.0607 12.1868 13.6471L13.4341 14.4804ZM13.0861 15.6277C13.0861 15.2193 13.2071 14.82 13.4341 14.4804L12.1868 13.6471C11.7951 14.2334 11.586 14.9227 11.5861 15.6279L13.0861 15.6277ZM12.729 16.4899C12.9577 16.2612 13.0861 15.9512 13.0861 15.6278H11.5861C11.5861 15.5533 11.6157 15.4819 11.6684 15.4292L12.729 16.4899ZM11.867 16.847C12.1903 16.847 12.5004 16.7185 12.729 16.4899L11.6684 15.4292C11.721 15.3766 11.7925 15.347 11.867 15.347V16.847ZM11.0049 16.4899C11.2335 16.7185 11.5436 16.847 11.867 16.847V15.347C11.9414 15.347 12.0129 15.3766 12.0655 15.4292L11.0049 16.4899ZM10.6478 15.6278C10.6478 15.9511 10.7762 16.2612 11.0049 16.4899L12.0655 15.4292C12.1182 15.4819 12.1478 15.5533 12.1478 15.6278H10.6478ZM11.9668 12.4436C11.1222 13.2881 10.6478 14.4335 10.6478 15.6278H12.1478C12.1478 14.8313 12.4642 14.0674 13.0274 13.5042L11.9668 12.4436ZM15.151 11.1246C13.9567 11.1246 12.8113 11.599 11.9668 12.4436L13.0274 13.5042C13.5906 12.941 14.3545 12.6246 15.151 12.6246V11.1246ZM16.0131 11.4817C15.7845 11.253 15.4744 11.1246 15.151 11.1246V12.6246C15.0765 12.6246 15.0051 12.595 14.9524 12.5423L16.0131 11.4817ZM16.3702 12.3437C16.3702 12.0204 16.2417 11.7103 16.0131 11.4817L14.9524 12.5423C14.8998 12.4897 14.8702 12.4182 14.8702 12.3437H16.3702ZM16.0131 13.2058C16.2417 12.9772 16.3702 12.6671 16.3702 12.3437H14.8702C14.8702 12.2693 14.8998 12.1978 14.9524 12.1452L16.0131 13.2058ZM15.151 13.5629C15.4744 13.5629 15.7845 13.4344 16.0131 13.2058L14.9524 12.1452C15.0051 12.0925 15.0765 12.0629 15.151 12.0629V13.5629Z" fill="white"/>
<path fill-rule="evenodd" clip-rule="evenodd" d="M21.6515 19.381C21.6828 19.3276 21.7033 19.2686 21.7116 19.2073C21.72 19.146 21.7162 19.0836 21.7004 19.0238C21.6846 18.964 21.6571 18.9079 21.6195 18.8587C21.5819 18.8096 21.535 18.7684 21.4814 18.7374C21.4278 18.7065 21.3686 18.6864 21.3073 18.6785C21.2459 18.6705 21.1836 18.6747 21.1239 18.691C21.0642 18.7072 21.0083 18.735 20.9594 18.7729C20.9105 18.8108 20.8695 18.858 20.839 18.9118C20.2625 19.9102 19.4334 20.7393 18.435 21.3158C18.3812 21.3464 18.334 21.3873 18.2961 21.4362C18.2582 21.4851 18.2304 21.541 18.2141 21.6007C18.1979 21.6604 18.1937 21.7227 18.2017 21.7841C18.2096 21.8454 18.2297 21.9046 18.2606 21.9582C18.2915 22.0118 18.3328 22.0587 18.3819 22.0963C18.4311 22.1339 18.4872 22.1614 18.547 22.1772C18.6068 22.193 18.6692 22.1968 18.7305 22.1884C18.7918 22.1801 18.8508 22.1596 18.9042 22.1283C19.3362 21.8791 19.7423 21.5874 20.1165 21.2576L22.7944 23.9365C22.838 23.9801 22.8898 24.0147 22.9468 24.0383C23.0038 24.0619 23.0649 24.074 23.1266 24.074C23.1882 24.074 23.2493 24.0619 23.3063 24.0383C23.3633 24.0147 23.4151 23.9801 23.4587 23.9365C23.5023 23.8928 23.5369 23.8411 23.5605 23.7841C23.5842 23.7271 23.5963 23.666 23.5963 23.6043C23.5963 23.5426 23.5842 23.4815 23.5605 23.4245C23.5369 23.3675 23.5023 23.3158 23.4587 23.2721L20.7799 20.5942C21.1107 20.2199 21.4033 19.8135 21.6534 19.381" fill="#7A23D3" fill-opacity="0.75"/>
<path d="M64.428 29.06C64.124 29.06 63.908 28.9 63.78 28.58C63.66 28.26 63.6 27.748 63.6 27.044C63.6 26.004 63.748 25.016 64.044 24.08C64.116 23.848 64.232 23.68 64.392 23.576C64.56 23.464 64.792 23.408 65.088 23.408C65.248 23.408 65.36 23.428 65.424 23.468C65.488 23.508 65.52 23.584 65.52 23.696C65.52 23.824 65.46 24.112 65.34 24.56C65.26 24.88 65.196 25.16 65.148 25.4C65.1 25.632 65.06 25.924 65.028 26.276C65.244 25.652 65.5 25.124 65.796 24.692C66.1 24.26 66.408 23.94 66.72 23.732C67.04 23.516 67.34 23.408 67.62 23.408C67.9 23.408 68.096 23.472 68.208 23.6C68.328 23.728 68.388 23.924 68.388 24.188C68.388 24.444 68.312 24.908 68.16 25.58C68.096 25.868 68.052 26.084 68.028 26.228C68.428 25.244 68.872 24.528 69.36 24.08C69.848 23.632 70.304 23.408 70.728 23.408C71.248 23.408 71.508 23.668 71.508 24.188C71.508 24.5 71.42 25.064 71.244 25.88C71.092 26.576 71.016 27.036 71.016 27.26C71.016 27.58 71.132 27.74 71.364 27.74C71.524 27.74 71.712 27.644 71.928 27.452C72.152 27.252 72.448 26.932 72.816 26.492C72.912 26.38 73.02 26.324 73.14 26.324C73.244 26.324 73.324 26.372 73.38 26.468C73.444 26.564 73.476 26.696 73.476 26.864C73.476 27.184 73.4 27.432 73.248 27.608C72.904 28.032 72.532 28.38 72.132 28.652C71.74 28.924 71.292 29.06 70.788 29.06C70.38 29.06 70.072 28.944 69.864 28.712C69.656 28.472 69.552 28.128 69.552 27.68C69.552 27.456 69.608 27.056 69.72 26.48C69.824 25.976 69.876 25.628 69.876 25.436C69.876 25.308 69.832 25.244 69.744 25.244C69.64 25.244 69.492 25.38 69.3 25.652C69.108 25.916 68.916 26.268 68.724 26.708C68.532 27.148 68.376 27.612 68.256 28.1C68.168 28.484 68.064 28.74 67.944 28.868C67.832 28.996 67.648 29.06 67.392 29.06C67.128 29.06 66.928 28.936 66.792 28.688C66.664 28.432 66.6 28.124 66.6 27.764C66.6 27.46 66.64 27.02 66.72 26.444C66.784 25.932 66.816 25.596 66.816 25.436C66.816 25.308 66.772 25.244 66.684 25.244C66.564 25.244 66.412 25.388 66.228 25.676C66.044 25.964 65.864 26.332 65.688 26.78C65.52 27.228 65.384 27.668 65.28 28.1C65.192 28.476 65.088 28.732 64.968 28.868C64.856 28.996 64.676 29.06 64.428 29.06ZM77.8577 26.324C77.9617 26.324 78.0417 26.372 78.0977 26.468C78.1617 26.564 78.1937 26.696 78.1937 26.864C78.1937 27.184 78.1177 27.432 77.9657 27.608C77.6697 27.968 77.2497 28.3 76.7057 28.604C76.1697 28.908 75.5937 29.06 74.9777 29.06C74.1377 29.06 73.4857 28.832 73.0217 28.376C72.5577 27.92 72.3257 27.296 72.3257 26.504C72.3257 25.952 72.4417 25.44 72.6737 24.968C72.9057 24.488 73.2257 24.108 73.6337 23.828C74.0497 23.548 74.5177 23.408 75.0377 23.408C75.5017 23.408 75.8737 23.548 76.1537 23.828C76.4337 24.1 76.5737 24.472 76.5737 24.944C76.5737 25.496 76.3737 25.972 75.9737 26.372C75.5817 26.764 74.9137 27.076 73.9697 27.308C74.1697 27.676 74.5497 27.86 75.1097 27.86C75.4697 27.86 75.8777 27.736 76.3337 27.488C76.7977 27.232 77.1977 26.9 77.5337 26.492C77.6297 26.38 77.7377 26.324 77.8577 26.324ZM74.8337 24.584C74.5377 24.584 74.2857 24.756 74.0777 25.1C73.8777 25.444 73.7777 25.86 73.7777 26.348V26.372C74.2497 26.26 74.6217 26.092 74.8937 25.868C75.1657 25.644 75.3017 25.384 75.3017 25.088C75.3017 24.936 75.2577 24.816 75.1697 24.728C75.0897 24.632 74.9777 24.584 74.8337 24.584ZM79.4486 29.324C79.0326 29.324 78.7126 29.228 78.4886 29.036C78.2726 28.844 78.1646 28.628 78.1646 28.388C78.1646 28.18 78.2406 28 78.3926 27.848C78.5446 27.696 78.7686 27.62 79.0646 27.62C79.1686 27.62 79.2886 27.632 79.4246 27.656C79.5686 27.672 79.6766 27.684 79.7486 27.692C79.7406 27.484 79.6926 27.288 79.6046 27.104C79.5246 26.92 79.4206 26.744 79.2926 26.576C79.1646 26.4 79.0446 26.248 78.9326 26.12C78.6846 26.592 78.4366 26.984 78.1886 27.296C77.9486 27.608 77.6846 27.904 77.3966 28.184C77.2526 28.328 77.1006 28.4 76.9406 28.4C76.8126 28.4 76.7086 28.356 76.6286 28.268C76.5486 28.172 76.5086 28.056 76.5086 27.92C76.5086 27.76 76.5646 27.612 76.6766 27.476L76.8326 27.284C77.2726 26.74 77.6046 26.292 77.8286 25.94C77.9646 25.708 78.1246 25.4 78.3086 25.016C78.4926 24.624 78.6726 24.22 78.8486 23.804C79.0006 23.452 79.3166 23.276 79.7966 23.276C80.0206 23.276 80.1766 23.296 80.2646 23.336C80.3526 23.376 80.3966 23.44 80.3966 23.528C80.3966 23.576 80.3806 23.652 80.3486 23.756C80.3166 23.86 80.2726 23.964 80.2166 24.068C80.0726 24.356 80.0006 24.6 80.0006 24.8C80.0006 24.92 80.0406 25.052 80.1206 25.196C80.2086 25.34 80.3406 25.52 80.5166 25.736C80.7726 26.072 80.9646 26.36 81.0926 26.6C81.2286 26.832 81.2966 27.088 81.2966 27.368C81.2966 27.448 81.2886 27.56 81.2726 27.704C81.6646 27.552 82.1246 27.148 82.6526 26.492C82.7486 26.38 82.8566 26.324 82.9766 26.324C83.0806 26.324 83.1606 26.372 83.2166 26.468C83.2806 26.564 83.3126 26.696 83.3126 26.864C83.3126 27.168 83.2366 27.416 83.0846 27.608C82.6846 28.104 82.3006 28.444 81.9326 28.628C81.5726 28.804 81.1246 28.9 80.5886 28.916C80.2686 29.188 79.8886 29.324 79.4486 29.324ZM84.5697 29.324C84.1537 29.324 83.8337 29.228 83.6097 29.036C83.3937 28.844 83.2857 28.628 83.2857 28.388C83.2857 28.18 83.3617 28 83.5137 27.848C83.6657 27.696 83.8897 27.62 84.1857 27.62C84.2897 27.62 84.4097 27.632 84.5457 27.656C84.6897 27.672 84.7977 27.684 84.8697 27.692C84.8617 27.484 84.8137 27.288 84.7257 27.104C84.6457 26.92 84.5417 26.744 84.4137 26.576C84.2857 26.4 84.1657 26.248 84.0537 26.12C83.8057 26.592 83.5577 26.984 83.3097 27.296C83.0697 27.608 82.8057 27.904 82.5177 28.184C82.3737 28.328 82.2217 28.4 82.0617 28.4C81.9337 28.4 81.8297 28.356 81.7497 28.268C81.6697 28.172 81.6297 28.056 81.6297 27.92C81.6297 27.76 81.6857 27.612 81.7977 27.476L81.9537 27.284C82.3937 26.74 82.7257 26.292 82.9497 25.94C83.0937 25.708 83.2377 25.432 83.3817 25.112C83.5337 24.792 83.7297 24.356 83.9697 23.804C84.1217 23.452 84.4377 23.276 84.9177 23.276C85.1417 23.276 85.2977 23.296 85.3857 23.336C85.4737 23.376 85.5177 23.44 85.5177 23.528C85.5177 23.576 85.5017 23.652 85.4697 23.756C85.4377 23.86 85.3937 23.964 85.3377 24.068C85.1937 24.356 85.1217 24.6 85.1217 24.8C85.1217 24.92 85.1617 25.052 85.2417 25.196C85.3297 25.34 85.4617 25.52 85.6377 25.736C85.8937 26.072 86.0857 26.36 86.2137 26.6C86.3497 26.832 86.4177 27.088 86.4177 27.368C86.4177 27.704 86.3377 28.024 86.1777 28.328C86.0257 28.624 85.8097 28.864 85.5297 29.048C85.2497 29.232 84.9297 29.324 84.5697 29.324ZM95.5882 26.324C95.6922 26.324 95.7722 26.372 95.8282 26.468C95.8922 26.564 95.9242 26.696 95.9242 26.864C95.9242 27.184 95.8482 27.432 95.6962 27.608C95.3522 28.032 94.9762 28.38 94.5682 28.652C94.1602 28.924 93.6922 29.06 93.1642 29.06C91.5322 29.06 90.7162 27.912 90.7162 25.616C90.7162 25.264 90.7282 24.908 90.7522 24.548H90.2842C90.0442 24.548 89.8802 24.504 89.7922 24.416C89.7122 24.328 89.6722 24.188 89.6722 23.996C89.6722 23.548 89.8522 23.324 90.2122 23.324H90.8962C91.0322 22.444 91.2402 21.64 91.5202 20.912C91.8002 20.184 92.1362 19.604 92.5282 19.172C92.9282 18.74 93.3562 18.524 93.8122 18.524C94.1482 18.524 94.4122 18.672 94.6042 18.968C94.7962 19.264 94.8922 19.636 94.8922 20.084C94.8922 21.324 94.3722 22.404 93.3322 23.324H94.6762C94.8042 23.324 94.8962 23.352 94.9522 23.408C95.0082 23.464 95.0362 23.568 95.0362 23.72C95.0362 24.272 94.5842 24.548 93.6802 24.548H92.2162C92.2002 24.948 92.1922 25.26 92.1922 25.484C92.1922 26.316 92.2882 26.9 92.4802 27.236C92.6802 27.572 92.9922 27.74 93.4162 27.74C93.7602 27.74 94.0642 27.636 94.3282 27.428C94.5922 27.22 94.9042 26.908 95.2642 26.492C95.3602 26.38 95.4682 26.324 95.5882 26.324ZM93.4882 19.676C93.3682 19.676 93.2322 19.828 93.0802 20.132C92.9362 20.428 92.7962 20.844 92.6602 21.38C92.5322 21.908 92.4242 22.496 92.3362 23.144C92.8082 22.736 93.1602 22.28 93.3922 21.776C93.6322 21.264 93.7522 20.8 93.7522 20.384C93.7522 19.912 93.6642 19.676 93.4882 19.676ZM96.9751 29.06C96.5031 29.06 96.0991 28.944 95.7631 28.712C95.4351 28.472 95.1871 28.16 95.0191 27.776C94.8511 27.392 94.7671 26.98 94.7671 26.54C94.7671 25.932 94.8791 25.392 95.1031 24.92C95.3351 24.44 95.6471 24.068 96.0391 23.804C96.4311 23.532 96.8711 23.396 97.3591 23.396C97.8311 23.396 98.2351 23.516 98.5711 23.756C98.9071 23.988 99.1591 24.296 99.3271 24.68C99.4951 25.064 99.5791 25.476 99.5791 25.916C99.5791 26.524 99.4631 27.068 99.2311 27.548C98.9991 28.02 98.6831 28.392 98.2831 28.664C97.8911 28.928 97.4551 29.06 96.9751 29.06ZM97.1071 27.764C97.3791 27.764 97.6071 27.616 97.7911 27.32C97.9831 27.024 98.0791 26.592 98.0791 26.024C98.0791 25.584 97.9991 25.252 97.8391 25.028C97.6791 24.804 97.4871 24.692 97.2631 24.692C96.9751 24.692 96.7351 24.84 96.5431 25.136C96.3591 25.424 96.2671 25.856 96.2671 26.432C96.2671 26.888 96.3471 27.224 96.5071 27.44C96.6671 27.656 96.8671 27.764 97.1071 27.764ZM109.704 26.348C109.808 26.348 109.888 26.4 109.944 26.504C110.008 26.6 110.04 26.724 110.04 26.876C110.04 27.06 110.012 27.204 109.956 27.308C109.9 27.412 109.812 27.504 109.692 27.584L107.388 29.132C107.084 30.788 106.684 32.088 106.188 33.032C105.7 33.984 105.076 34.46 104.316 34.46C103.908 34.46 103.576 34.332 103.32 34.076C103.064 33.828 102.936 33.5 102.936 33.092C102.936 32.716 103.02 32.332 103.188 31.94C103.364 31.548 103.684 31.096 104.148 30.584C104.62 30.08 105.284 29.5 106.14 28.844L106.176 28.568C106.232 28.272 106.296 27.848 106.368 27.296C106.208 27.872 105.984 28.312 105.696 28.616C105.408 28.912 105.104 29.06 104.784 29.06C104.424 29.06 104.128 28.896 103.896 28.568C103.672 28.232 103.56 27.816 103.56 27.32C103.56 26.72 103.6 26.172 103.68 25.676C103.76 25.172 103.892 24.64 104.076 24.08C104.156 23.84 104.268 23.668 104.412 23.564C104.556 23.46 104.784 23.408 105.096 23.408C105.272 23.408 105.392 23.436 105.456 23.492C105.528 23.548 105.564 23.632 105.564 23.744C105.564 23.808 105.52 24.024 105.432 24.392C105.352 24.688 105.288 24.956 105.24 25.196C105.176 25.524 105.12 25.84 105.072 26.144C105.024 26.44 105 26.684 105 26.876C105 27.18 105.084 27.332 105.252 27.332C105.372 27.332 105.52 27.212 105.696 26.972C105.88 26.732 106.072 26.368 106.272 25.88C106.48 25.392 106.68 24.792 106.872 24.08C106.936 23.84 107.032 23.668 107.16 23.564C107.296 23.46 107.496 23.408 107.76 23.408C107.944 23.408 108.072 23.432 108.144 23.48C108.216 23.528 108.252 23.608 108.252 23.72C108.252 23.92 108.148 24.608 107.94 25.784L107.628 27.716C108.244 27.252 108.844 26.828 109.428 26.444C109.532 26.38 109.624 26.348 109.704 26.348ZM104.448 33.296C104.648 33.296 104.872 33.064 105.12 32.6C105.368 32.136 105.616 31.364 105.864 30.284C105.248 30.804 104.8 31.276 104.52 31.7C104.248 32.132 104.112 32.508 104.112 32.828C104.112 32.964 104.136 33.076 104.184 33.164C104.24 33.252 104.328 33.296 104.448 33.296ZM114.655 26.324C114.759 26.324 114.839 26.372 114.895 26.468C114.959 26.564 114.991 26.696 114.991 26.864C114.991 27.184 114.915 27.432 114.763 27.608C114.467 27.968 114.047 28.3 113.503 28.604C112.967 28.908 112.391 29.06 111.775 29.06C110.935 29.06 110.283 28.832 109.819 28.376C109.355 27.92 109.123 27.296 109.123 26.504C109.123 25.952 109.239 25.44 109.471 24.968C109.703 24.488 110.023 24.108 110.431 23.828C110.847 23.548 111.315 23.408 111.835 23.408C112.299 23.408 112.671 23.548 112.951 23.828C113.231 24.1 113.371 24.472 113.371 24.944C113.371 25.496 113.171 25.972 112.771 26.372C112.379 26.764 111.711 27.076 110.767 27.308C110.967 27.676 111.347 27.86 111.907 27.86C112.267 27.86 112.675 27.736 113.131 27.488C113.595 27.232 113.995 26.9 114.331 26.492C114.427 26.38 114.535 26.324 114.655 26.324ZM111.631 24.584C111.335 24.584 111.083 24.756 110.875 25.1C110.675 25.444 110.575 25.86 110.575 26.348V26.372C111.047 26.26 111.419 26.092 111.691 25.868C111.963 25.644 112.099 25.384 112.099 25.088C112.099 24.936 112.055 24.816 111.967 24.728C111.887 24.632 111.775 24.584 111.631 24.584ZM116.246 29.324C115.83 29.324 115.51 29.228 115.286 29.036C115.07 28.844 114.962 28.628 114.962 28.388C114.962 28.18 115.038 28 115.19 27.848C115.342 27.696 115.566 27.62 115.862 27.62C115.966 27.62 116.086 27.632 116.222 27.656C116.366 27.672 116.474 27.684 116.546 27.692C116.538 27.484 116.49 27.288 116.402 27.104C116.322 26.92 116.218 26.744 116.09 26.576C115.962 26.4 115.842 26.248 115.73 26.12C115.482 26.592 115.234 26.984 114.986 27.296C114.746 27.608 114.482 27.904 114.194 28.184C114.05 28.328 113.898 28.4 113.738 28.4C113.61 28.4 113.506 28.356 113.425 28.268C113.345 28.172 113.305 28.056 113.305 27.92C113.305 27.76 113.361 27.612 113.474 27.476L113.63 27.284C114.07 26.74 114.402 26.292 114.626 25.94C114.762 25.708 114.922 25.4 115.106 25.016C115.29 24.624 115.47 24.22 115.646 23.804C115.798 23.452 116.114 23.276 116.594 23.276C116.818 23.276 116.974 23.296 117.062 23.336C117.15 23.376 117.194 23.44 117.194 23.528C117.194 23.576 117.178 23.652 117.146 23.756C117.114 23.86 117.07 23.964 117.014 24.068C116.87 24.356 116.798 24.6 116.798 24.8C116.798 24.92 116.838 25.052 116.918 25.196C117.006 25.34 117.138 25.52 117.314 25.736C117.57 26.072 117.762 26.36 117.89 26.6C118.026 26.832 118.094 27.088 118.094 27.368C118.094 27.448 118.086 27.56 118.07 27.704C118.462 27.552 118.922 27.148 119.45 26.492C119.546 26.38 119.654 26.324 119.773 26.324C119.878 26.324 119.958 26.372 120.014 26.468C120.078 26.564 120.11 26.696 120.11 26.864C120.11 27.168 120.034 27.416 119.882 27.608C119.482 28.104 119.098 28.444 118.73 28.628C118.37 28.804 117.922 28.9 117.386 28.916C117.066 29.188 116.686 29.324 116.246 29.324ZM121.367 29.324C120.951 29.324 120.631 29.228 120.407 29.036C120.191 28.844 120.083 28.628 120.083 28.388C120.083 28.18 120.159 28 120.311 27.848C120.463 27.696 120.687 27.62 120.983 27.62C121.087 27.62 121.207 27.632 121.343 27.656C121.487 27.672 121.595 27.684 121.667 27.692C121.659 27.484 121.611 27.288 121.523 27.104C121.443 26.92 121.339 26.744 121.211 26.576C121.083 26.4 120.963 26.248 120.851 26.12C120.603 26.592 120.355 26.984 120.107 27.296C119.867 27.608 119.603 27.904 119.315 28.184C119.171 28.328 119.019 28.4 118.859 28.4C118.731 28.4 118.627 28.356 118.547 28.268C118.467 28.172 118.427 28.056 118.427 27.92C118.427 27.76 118.483 27.612 118.595 27.476L118.751 27.284C119.191 26.74 119.523 26.292 119.747 25.94C119.891 25.708 120.035 25.432 120.179 25.112C120.331 24.792 120.527 24.356 120.767 23.804C120.919 23.452 121.235 23.276 121.715 23.276C121.939 23.276 122.095 23.296 122.183 23.336C122.271 23.376 122.315 23.44 122.315 23.528C122.315 23.576 122.299 23.652 122.267 23.756C122.235 23.86 122.191 23.964 122.135 24.068C121.991 24.356 121.919 24.6 121.919 24.8C121.919 24.92 121.959 25.052 122.039 25.196C122.127 25.34 122.259 25.52 122.435 25.736C122.691 26.072 122.883 26.36 123.011 26.6C123.147 26.832 123.215 27.088 123.215 27.368C123.215 27.704 123.135 28.024 122.975 28.328C122.823 28.624 122.607 28.864 122.327 29.048C122.047 29.232 121.727 29.324 121.367 29.324Z" fill="white"/>
<path d="M41.516 8.812C41.516 7.996 41.7 7.264 42.068 6.616C42.436 5.96 42.936 5.448 43.568 5.08C44.208 4.712 44.916 4.528 45.692 4.528C46.604 4.528 47.4 4.748 48.08 5.188C48.76 5.628 49.256 6.252 49.568 7.06H48.26C48.028 6.556 47.692 6.168 47.252 5.896C46.82 5.624 46.3 5.488 45.692 5.488C45.108 5.488 44.584 5.624 44.12 5.896C43.656 6.168 43.292 6.556 43.028 7.06C42.764 7.556 42.632 8.14 42.632 8.812C42.632 9.476 42.764 10.06 43.028 10.564C43.292 11.06 43.656 11.444 44.12 11.716C44.584 11.988 45.108 12.124 45.692 12.124C46.3 12.124 46.82 11.992 47.252 11.728C47.692 11.456 48.028 11.068 48.26 10.564H49.568C49.256 11.364 48.76 11.984 48.08 12.424C47.4 12.856 46.604 13.072 45.692 13.072C44.916 13.072 44.208 12.892 43.568 12.532C42.936 12.164 42.436 11.656 42.068 11.008C41.7 10.36 41.516 9.628 41.516 8.812ZM52.2855 4.12V13H51.1935V4.12H52.2855ZM59.9787 6.424V13H58.8867V12.028C58.6787 12.364 58.3867 12.628 58.0107 12.82C57.6427 13.004 57.2347 13.096 56.7867 13.096C56.2747 13.096 55.8147 12.992 55.4067 12.784C54.9987 12.568 54.6747 12.248 54.4347 11.824C54.2027 11.4 54.0867 10.884 54.0867 10.276V6.424H55.1667V10.132C55.1667 10.78 55.3307 11.28 55.6587 11.632C55.9867 11.976 56.4347 12.148 57.0027 12.148C57.5867 12.148 58.0467 11.968 58.3827 11.608C58.7187 11.248 58.8867 10.724 58.8867 10.036V6.424H59.9787ZM63.1544 7.324V11.2C63.1544 11.52 63.2224 11.748 63.3584 11.884C63.4944 12.012 63.7304 12.076 64.0664 12.076H64.8704V13H63.8864C63.2784 13 62.8224 12.86 62.5184 12.58C62.2144 12.3 62.0624 11.84 62.0624 11.2V7.324H61.2104V6.424H62.0624V4.768H63.1544V6.424H64.8704V7.324H63.1544ZM67.5255 7.324V11.2C67.5255 11.52 67.5935 11.748 67.7295 11.884C67.8655 12.012 68.1015 12.076 68.4375 12.076H69.2415V13H68.2575C67.6495 13 67.1935 12.86 66.8895 12.58C66.5855 12.3 66.4335 11.84 66.4335 11.2V7.324H65.5815V6.424H66.4335V4.768H67.5255V6.424H69.2415V7.324H67.5255ZM76.5646 9.46C76.5646 9.668 76.5526 9.888 76.5286 10.12H71.2726C71.3126 10.768 71.5326 11.276 71.9326 11.644C72.3406 12.004 72.8326 12.184 73.4086 12.184C73.8806 12.184 74.2726 12.076 74.5846 11.86C74.9046 11.636 75.1286 11.34 75.2566 10.972H76.4326C76.2566 11.604 75.9046 12.12 75.3766 12.52C74.8486 12.912 74.1926 13.108 73.4086 13.108C72.7846 13.108 72.2246 12.968 71.7286 12.688C71.2406 12.408 70.8566 12.012 70.5766 11.5C70.2966 10.98 70.1566 10.38 70.1566 9.7C70.1566 9.02 70.2926 8.424 70.5646 7.912C70.8366 7.4 71.2166 7.008 71.7046 6.736C72.2006 6.456 72.7686 6.316 73.4086 6.316C74.0326 6.316 74.5846 6.452 75.0646 6.724C75.5446 6.996 75.9126 7.372 76.1686 7.852C76.4326 8.324 76.5646 8.86 76.5646 9.46ZM75.4366 9.232C75.4366 8.816 75.3446 8.46 75.1606 8.164C74.9766 7.86 74.7246 7.632 74.4046 7.48C74.0926 7.32 73.7446 7.24 73.3606 7.24C72.8086 7.24 72.3366 7.416 71.9446 7.768C71.5606 8.12 71.3406 8.608 71.2846 9.232H75.4366ZM79.098 7.492C79.29 7.116 79.562 6.824 79.914 6.616C80.274 6.408 80.71 6.304 81.222 6.304V7.432H80.934C79.71 7.432 79.098 8.096 79.098 9.424V13H78.006V6.424H79.098V7.492ZM90.4098 4.636V5.524H86.7738V8.344H89.7258V9.232H86.7738V13H85.6818V4.636H90.4098ZM92.8207 7.492C93.0127 7.116 93.2847 6.824 93.6367 6.616C93.9967 6.408 94.4327 6.304 94.9447 6.304V7.432H94.6567C93.4327 7.432 92.8207 8.096 92.8207 9.424V13H91.7287V6.424H92.8207V7.492ZM102.205 9.46C102.205 9.668 102.193 9.888 102.169 10.12H96.9133C96.9533 10.768 97.1733 11.276 97.5733 11.644C97.9813 12.004 98.4733 12.184 99.0493 12.184C99.5213 12.184 99.9133 12.076 100.225 11.86C100.545 11.636 100.769 11.34 100.897 10.972H102.073C101.897 11.604 101.545 12.12 101.017 12.52C100.489 12.912 99.8333 13.108 99.0493 13.108C98.4253 13.108 97.8653 12.968 97.3693 12.688C96.8813 12.408 96.4973 12.012 96.2173 11.5C95.9373 10.98 95.7973 10.38 95.7973 9.7C95.7973 9.02 95.9333 8.424 96.2053 7.912C96.4773 7.4 96.8573 7.008 97.3453 6.736C97.8413 6.456 98.4093 6.316 99.0493 6.316C99.6733 6.316 100.225 6.452 100.705 6.724C101.185 6.996 101.553 7.372 101.809 7.852C102.073 8.324 102.205 8.86 102.205 9.46ZM101.077 9.232C101.077 8.816 100.985 8.46 100.801 8.164C100.617 7.86 100.365 7.632 100.045 7.48C99.7333 7.32 99.3853 7.24 99.0013 7.24C98.4493 7.24 97.9773 7.416 97.5853 7.768C97.2013 8.12 96.9813 8.608 96.9253 9.232H101.077ZM109.647 9.46C109.647 9.668 109.635 9.888 109.611 10.12H104.355C104.395 10.768 104.615 11.276 105.015 11.644C105.423 12.004 105.915 12.184 106.491 12.184C106.963 12.184 107.355 12.076 107.667 11.86C107.987 11.636 108.211 11.34 108.339 10.972H109.515C109.339 11.604 108.987 12.12 108.459 12.52C107.931 12.912 107.275 13.108 106.491 13.108C105.867 13.108 105.307 12.968 104.811 12.688C104.323 12.408 103.939 12.012 103.659 11.5C103.379 10.98 103.239 10.38 103.239 9.7C103.239 9.02 103.375 8.424 103.647 7.912C103.919 7.4 104.299 7.008 104.787 6.736C105.283 6.456 105.851 6.316 106.491 6.316C107.115 6.316 107.667 6.452 108.147 6.724C108.627 6.996 108.995 7.372 109.251 7.852C109.515 8.324 109.647 8.86 109.647 9.46ZM108.519 9.232C108.519 8.816 108.427 8.46 108.243 8.164C108.059 7.86 107.807 7.632 107.487 7.48C107.175 7.32 106.827 7.24 106.443 7.24C105.891 7.24 105.419 7.416 105.027 7.768C104.643 8.12 104.423 8.608 104.367 9.232H108.519ZM119.015 4.636V5.524H115.379V8.344H118.331V9.232H115.379V13H114.287V4.636H119.015ZM120.898 5.356C120.69 5.356 120.514 5.284 120.37 5.14C120.226 4.996 120.154 4.82 120.154 4.612C120.154 4.404 120.226 4.228 120.37 4.084C120.514 3.94 120.69 3.868 120.898 3.868C121.098 3.868 121.266 3.94 121.402 4.084C121.546 4.228 121.618 4.404 121.618 4.612C121.618 4.82 121.546 4.996 121.402 5.14C121.266 5.284 121.098 5.356 120.898 5.356ZM121.426 6.424V13H120.334V6.424H121.426ZM126.491 6.304C127.291 6.304 127.939 6.548 128.435 7.036C128.931 7.516 129.179 8.212 129.179 9.124V13H128.099V9.28C128.099 8.624 127.935 8.124 127.607 7.78C127.279 7.428 126.831 7.252 126.263 7.252C125.687 7.252 125.227 7.432 124.883 7.792C124.547 8.152 124.379 8.676 124.379 9.364V13H123.287V6.424H124.379V7.36C124.595 7.024 124.887 6.764 125.255 6.58C125.631 6.396 126.043 6.304 126.491 6.304ZM130.555 9.688C130.555 9.016 130.691 8.428 130.963 7.924C131.235 7.412 131.607 7.016 132.079 6.736C132.559 6.456 133.095 6.316 133.687 6.316C134.199 6.316 134.675 6.436 135.115 6.676C135.555 6.908 135.891 7.216 136.123 7.6V4.12H137.227V13H136.123V11.764C135.907 12.156 135.587 12.48 135.163 12.736C134.739 12.984 134.243 13.108 133.675 13.108C133.091 13.108 132.559 12.964 132.079 12.676C131.607 12.388 131.235 11.984 130.963 11.464C130.691 10.944 130.555 10.352 130.555 9.688ZM136.123 9.7C136.123 9.204 136.023 8.772 135.823 8.404C135.623 8.036 135.351 7.756 135.007 7.564C134.671 7.364 134.299 7.264 133.891 7.264C133.483 7.264 133.111 7.36 132.775 7.552C132.439 7.744 132.171 8.024 131.971 8.392C131.771 8.76 131.671 9.192 131.671 9.688C131.671 10.192 131.771 10.632 131.971 11.008C132.171 11.376 132.439 11.66 132.775 11.86C133.111 12.052 133.483 12.148 133.891 12.148C134.299 12.148 134.671 12.052 135.007 11.86C135.351 11.66 135.623 11.376 135.823 11.008C136.023 10.632 136.123 10.196 136.123 9.7ZM141.4 13.108C140.896 13.108 140.444 13.024 140.044 12.856C139.644 12.68 139.328 12.44 139.096 12.136C138.864 11.824 138.736 11.468 138.712 11.068H139.84C139.872 11.396 140.024 11.664 140.296 11.872C140.576 12.08 140.94 12.184 141.388 12.184C141.804 12.184 142.132 12.092 142.372 11.908C142.612 11.724 142.732 11.492 142.732 11.212C142.732 10.924 142.604 10.712 142.348 10.576C142.092 10.432 141.696 10.292 141.16 10.156C140.672 10.028 140.272 9.9 139.96 9.772C139.656 9.636 139.392 9.44 139.168 9.184C138.952 8.92 138.844 8.576 138.844 8.152C138.844 7.816 138.944 7.508 139.144 7.228C139.344 6.948 139.628 6.728 139.996 6.568C140.364 6.4 140.784 6.316 141.256 6.316C141.984 6.316 142.572 6.5 143.02 6.868C143.468 7.236 143.708 7.74 143.74 8.38H142.648C142.624 8.036 142.484 7.76 142.228 7.552C141.98 7.344 141.644 7.24 141.22 7.24C140.828 7.24 140.516 7.324 140.284 7.492C140.052 7.66 139.936 7.88 139.936 8.152C139.936 8.368 140.004 8.548 140.14 8.692C140.284 8.828 140.46 8.94 140.668 9.028C140.884 9.108 141.18 9.2 141.556 9.304C142.028 9.432 142.412 9.56 142.708 9.688C143.004 9.808 143.256 9.992 143.464 10.24C143.68 10.488 143.792 10.812 143.8 11.212C143.8 11.572 143.7 11.896 143.5 12.184C143.3 12.472 143.016 12.7 142.648 12.868C142.288 13.028 141.872 13.108 141.4 13.108Z" fill="white"/>
</svg>
