<svg width="143" height="36" viewBox="0 0 143 36" fill="none" xmlns="http://www.w3.org/2000/svg">
<path d="M22.1021 11.5615C22.7372 15.698 20.1223 19.2501 15.9839 19.8727C11.8455 20.4953 7.9771 17.6476 7.34201 13.5111C6.70693 9.3746 9.3218 5.82244 13.4602 5.19986C14.2879 5.07535 14.8568 4.30248 14.7298 3.47518C14.6028 2.64788 13.8276 2.07722 12.9999 2.20174C7.20613 3.07334 3.45619 8.16744 4.34531 13.9585C5.23443 19.7496 10.6495 23.7358 16.4432 22.8642C22.237 21.9926 25.9869 16.8985 25.0978 11.1074C24.9708 10.2801 24.1956 9.70945 23.3679 9.83396C22.5402 9.95848 21.9713 10.7314 22.0983 11.5586L22.1021 11.5615Z" fill="#7A23D3"/>
<path fill-rule="evenodd" clip-rule="evenodd" d="M16.6295 18.4919C17.4001 18.2855 18.1224 17.9292 18.7553 17.4436C19.3882 16.958 19.9193 16.3524 20.3182 15.6615C20.717 14.9707 20.9759 14.208 21.0801 13.4171C21.1842 12.6262 21.1315 11.8225 20.925 11.0519C20.7186 10.2813 20.3623 9.55899 19.8767 8.9261C19.3911 8.2932 18.7855 7.76216 18.0946 7.36328C17.4038 6.96441 16.6411 6.70552 15.8502 6.60139C15.0593 6.49726 14.2556 6.54994 13.485 6.75641C11.9288 7.1734 10.6019 8.19152 9.79638 9.5868C8.99082 10.9821 8.77252 12.6402 9.18951 14.1964C9.6065 15.7527 10.6246 17.0795 12.0199 17.8851C13.4152 18.6906 15.0733 18.9089 16.6295 18.4919ZM13.2082 10.2141C13.5247 9.9714 13.8859 9.79341 14.2711 9.69029C14.4008 9.65554 14.5114 9.5707 14.5785 9.45443C14.6457 9.33815 14.6638 9.19998 14.6291 9.07029C14.5943 8.94061 14.5095 8.83004 14.3932 8.76291C14.277 8.69577 14.1388 8.67758 14.0091 8.71233C12.9716 8.99033 12.0871 9.66907 11.55 10.5993C11.013 11.5294 10.8674 12.6349 11.1454 13.6723C11.1802 13.802 11.265 13.9126 11.3813 13.9797C11.4976 14.0469 11.6357 14.0651 11.7654 14.0303C11.8951 13.9956 12.0057 13.9107 12.0728 13.7944C12.1399 13.6782 12.1581 13.54 12.1234 13.4103C11.9678 12.83 11.9879 12.2166 12.181 11.6476C12.374 11.0787 12.7315 10.5798 13.2082 10.2141Z" fill="#7A23D3"/>
<path fill-rule="evenodd" clip-rule="evenodd" d="M26.4771 21.7553C26.5977 21.6419 26.6947 21.5059 26.7625 21.3549C26.8302 21.204 26.8675 21.0411 26.8721 20.8757C26.8767 20.7103 26.8485 20.5456 26.7892 20.3912C26.7299 20.2367 26.6406 20.0955 26.5265 19.9756C26.4124 19.8558 26.2757 19.7597 26.1243 19.6929C25.9729 19.6262 25.8098 19.59 25.6444 19.5865C25.4789 19.583 25.3145 19.6122 25.1604 19.6726C25.0063 19.7329 24.8657 19.8231 24.7466 19.938C22.5138 22.0643 19.7606 23.5654 16.7638 24.2905C16.6028 24.3283 16.4507 24.3976 16.3166 24.4945C16.1824 24.5913 16.0687 24.7137 15.982 24.8547C15.8953 24.9956 15.8374 25.1523 15.8115 25.3158C15.7856 25.4792 15.7924 25.6462 15.8313 25.807C15.8702 25.9678 15.9405 26.1194 16.0382 26.2529C16.136 26.3864 16.2591 26.4993 16.4007 26.5851C16.5422 26.6708 16.6993 26.7277 16.8629 26.7525C17.0265 26.7773 17.1934 26.7694 17.3539 26.7295C18.6505 26.4162 19.9127 25.9744 21.1217 25.4108L25.9695 34.3058C26.0485 34.4507 26.1552 34.5785 26.2836 34.6821C26.412 34.7857 26.5595 34.863 26.7178 34.9096C26.8761 34.9562 27.042 34.9712 27.206 34.9536C27.3701 34.9361 27.529 34.8864 27.6739 34.8074C27.8187 34.7285 27.9466 34.6217 28.0502 34.4933C28.1538 34.3649 28.2311 34.2174 28.2777 34.0591C28.3243 33.9009 28.3392 33.735 28.3217 33.5709C28.3041 33.4069 28.2545 33.2479 28.1755 33.103L23.3246 24.2097C24.4561 23.4992 25.5137 22.6774 26.4819 21.7567" fill="#7A23D3"/>
<path d="M63.428 29.6921C63.124 29.6921 62.908 29.5321 62.78 29.2121C62.66 28.8921 62.6 28.3801 62.6 27.6761C62.6 26.6361 62.748 25.6481 63.044 24.7121C63.116 24.4801 63.232 24.3121 63.392 24.2081C63.56 24.0961 63.792 24.0401 64.088 24.0401C64.248 24.0401 64.36 24.0601 64.424 24.1001C64.488 24.1401 64.52 24.2161 64.52 24.3281C64.52 24.4561 64.46 24.7441 64.34 25.1921C64.26 25.5121 64.196 25.7921 64.148 26.0321C64.1 26.2641 64.06 26.5561 64.028 26.9081C64.244 26.2841 64.5 25.7561 64.796 25.3241C65.1 24.8921 65.408 24.5721 65.72 24.3641C66.04 24.1481 66.34 24.0401 66.62 24.0401C66.9 24.0401 67.096 24.1041 67.208 24.2321C67.328 24.3601 67.388 24.5561 67.388 24.8201C67.388 25.0761 67.312 25.5401 67.16 26.2121C67.096 26.5001 67.052 26.7161 67.028 26.8601C67.428 25.8761 67.872 25.1601 68.36 24.7121C68.848 24.2641 69.304 24.0401 69.728 24.0401C70.248 24.0401 70.508 24.3001 70.508 24.8201C70.508 25.1321 70.42 25.6961 70.244 26.5121C70.092 27.2081 70.016 27.6681 70.016 27.8921C70.016 28.2121 70.132 28.3721 70.364 28.3721C70.524 28.3721 70.712 28.2761 70.928 28.0841C71.152 27.8841 71.448 27.5641 71.816 27.1241C71.912 27.0121 72.02 26.9561 72.14 26.9561C72.244 26.9561 72.324 27.0041 72.38 27.1001C72.444 27.1961 72.476 27.3281 72.476 27.4961C72.476 27.8161 72.4 28.0641 72.248 28.2401C71.904 28.6641 71.532 29.0121 71.132 29.2841C70.74 29.5561 70.292 29.6921 69.788 29.6921C69.38 29.6921 69.072 29.5761 68.864 29.3441C68.656 29.1041 68.552 28.7601 68.552 28.3121C68.552 28.0881 68.608 27.6881 68.72 27.1121C68.824 26.6081 68.876 26.2601 68.876 26.0681C68.876 25.9401 68.832 25.8761 68.744 25.8761C68.64 25.8761 68.492 26.0121 68.3 26.2841C68.108 26.5481 67.916 26.9001 67.724 27.3401C67.532 27.7801 67.376 28.2441 67.256 28.7321C67.168 29.1161 67.064 29.3721 66.944 29.5001C66.832 29.6281 66.648 29.6921 66.392 29.6921C66.128 29.6921 65.928 29.5681 65.792 29.3201C65.664 29.0641 65.6 28.7561 65.6 28.3961C65.6 28.0921 65.64 27.6521 65.72 27.0761C65.784 26.5641 65.816 26.2281 65.816 26.0681C65.816 25.9401 65.772 25.8761 65.684 25.8761C65.564 25.8761 65.412 26.0201 65.228 26.3081C65.044 26.5961 64.864 26.9641 64.688 27.4121C64.52 27.8601 64.384 28.3001 64.28 28.7321C64.192 29.1081 64.088 29.3641 63.968 29.5001C63.856 29.6281 63.676 29.6921 63.428 29.6921ZM76.8577 26.9561C76.9617 26.9561 77.0417 27.0041 77.0977 27.1001C77.1617 27.1961 77.1937 27.3281 77.1937 27.4961C77.1937 27.8161 77.1177 28.0641 76.9657 28.2401C76.6697 28.6001 76.2497 28.9321 75.7057 29.2361C75.1697 29.5401 74.5937 29.6921 73.9777 29.6921C73.1377 29.6921 72.4857 29.4641 72.0217 29.0081C71.5577 28.5521 71.3257 27.9281 71.3257 27.1361C71.3257 26.5841 71.4417 26.0721 71.6737 25.6001C71.9057 25.1201 72.2257 24.7401 72.6337 24.4601C73.0497 24.1801 73.5177 24.0401 74.0377 24.0401C74.5017 24.0401 74.8737 24.1801 75.1537 24.4601C75.4337 24.7321 75.5737 25.1041 75.5737 25.5761C75.5737 26.1281 75.3737 26.6041 74.9737 27.0041C74.5817 27.3961 73.9137 27.7081 72.9697 27.9401C73.1697 28.3081 73.5497 28.4921 74.1097 28.4921C74.4697 28.4921 74.8777 28.3681 75.3337 28.1201C75.7977 27.8641 76.1977 27.5321 76.5337 27.1241C76.6297 27.0121 76.7377 26.9561 76.8577 26.9561ZM73.8337 25.2161C73.5377 25.2161 73.2857 25.3881 73.0777 25.7321C72.8777 26.0761 72.7777 26.4921 72.7777 26.9801V27.0041C73.2497 26.8921 73.6217 26.7241 73.8937 26.5001C74.1657 26.2761 74.3017 26.0161 74.3017 25.7201C74.3017 25.5681 74.2577 25.4481 74.1697 25.3601C74.0897 25.2641 73.9777 25.2161 73.8337 25.2161ZM78.4486 29.9561C78.0326 29.9561 77.7126 29.8601 77.4886 29.6681C77.2726 29.4761 77.1646 29.2601 77.1646 29.0201C77.1646 28.8121 77.2406 28.6321 77.3926 28.4801C77.5446 28.3281 77.7686 28.2521 78.0646 28.2521C78.1686 28.2521 78.2886 28.2641 78.4246 28.2881C78.5686 28.3041 78.6766 28.3161 78.7486 28.3241C78.7406 28.1161 78.6926 27.9201 78.6046 27.7361C78.5246 27.5521 78.4206 27.3761 78.2926 27.2081C78.1646 27.0321 78.0446 26.8801 77.9326 26.7521C77.6846 27.2241 77.4366 27.6161 77.1886 27.9281C76.9486 28.2401 76.6846 28.5361 76.3966 28.8161C76.2526 28.9601 76.1006 29.0321 75.9406 29.0321C75.8126 29.0321 75.7086 28.9881 75.6286 28.9001C75.5486 28.8041 75.5086 28.6881 75.5086 28.5521C75.5086 28.3921 75.5646 28.2441 75.6766 28.1081L75.8326 27.9161C76.2726 27.3721 76.6046 26.9241 76.8286 26.5721C76.9646 26.3401 77.1246 26.0321 77.3086 25.6481C77.4926 25.2561 77.6726 24.8521 77.8486 24.4361C78.0006 24.0841 78.3166 23.9081 78.7966 23.9081C79.0206 23.9081 79.1766 23.9281 79.2646 23.9681C79.3526 24.0081 79.3966 24.0721 79.3966 24.1601C79.3966 24.2081 79.3806 24.2841 79.3486 24.3881C79.3166 24.4921 79.2726 24.5961 79.2166 24.7001C79.0726 24.9881 79.0006 25.2321 79.0006 25.4321C79.0006 25.5521 79.0406 25.6841 79.1206 25.8281C79.2086 25.9721 79.3406 26.1521 79.5166 26.3681C79.7726 26.7041 79.9646 26.9921 80.0926 27.2321C80.2286 27.4641 80.2966 27.7201 80.2966 28.0001C80.2966 28.0801 80.2886 28.1921 80.2726 28.3361C80.6646 28.1841 81.1246 27.7801 81.6526 27.1241C81.7486 27.0121 81.8566 26.9561 81.9766 26.9561C82.0806 26.9561 82.1606 27.0041 82.2166 27.1001C82.2806 27.1961 82.3126 27.3281 82.3126 27.4961C82.3126 27.8001 82.2366 28.0481 82.0846 28.2401C81.6846 28.7361 81.3006 29.0761 80.9326 29.2601C80.5726 29.4361 80.1246 29.5321 79.5886 29.5481C79.2686 29.8201 78.8886 29.9561 78.4486 29.9561ZM83.5697 29.9561C83.1537 29.9561 82.8337 29.8601 82.6097 29.6681C82.3937 29.4761 82.2857 29.2601 82.2857 29.0201C82.2857 28.8121 82.3617 28.6321 82.5137 28.4801C82.6657 28.3281 82.8897 28.2521 83.1857 28.2521C83.2897 28.2521 83.4097 28.2641 83.5457 28.2881C83.6897 28.3041 83.7977 28.3161 83.8697 28.3241C83.8617 28.1161 83.8137 27.9201 83.7257 27.7361C83.6457 27.5521 83.5417 27.3761 83.4137 27.2081C83.2857 27.0321 83.1657 26.8801 83.0537 26.7521C82.8057 27.2241 82.5577 27.6161 82.3097 27.9281C82.0697 28.2401 81.8057 28.5361 81.5177 28.8161C81.3737 28.9601 81.2217 29.0321 81.0617 29.0321C80.9337 29.0321 80.8297 28.9881 80.7497 28.9001C80.6697 28.8041 80.6297 28.6881 80.6297 28.5521C80.6297 28.3921 80.6857 28.2441 80.7977 28.1081L80.9537 27.9161C81.3937 27.3721 81.7257 26.9241 81.9497 26.5721C82.0937 26.3401 82.2377 26.0641 82.3817 25.7441C82.5337 25.4241 82.7297 24.9881 82.9697 24.4361C83.1217 24.0841 83.4377 23.9081 83.9177 23.9081C84.1417 23.9081 84.2977 23.9281 84.3857 23.9681C84.4737 24.0081 84.5177 24.0721 84.5177 24.1601C84.5177 24.2081 84.5017 24.2841 84.4697 24.3881C84.4377 24.4921 84.3937 24.5961 84.3377 24.7001C84.1937 24.9881 84.1217 25.2321 84.1217 25.4321C84.1217 25.5521 84.1617 25.6841 84.2417 25.8281C84.3297 25.9721 84.4617 26.1521 84.6377 26.3681C84.8937 26.7041 85.0857 26.9921 85.2137 27.2321C85.3497 27.4641 85.4177 27.7201 85.4177 28.0001C85.4177 28.3361 85.3377 28.6561 85.1777 28.9601C85.0257 29.2561 84.8097 29.4961 84.5297 29.6801C84.2497 29.8641 83.9297 29.9561 83.5697 29.9561ZM94.5882 26.9561C94.6922 26.9561 94.7722 27.0041 94.8282 27.1001C94.8922 27.1961 94.9242 27.3281 94.9242 27.4961C94.9242 27.8161 94.8482 28.0641 94.6962 28.2401C94.3522 28.6641 93.9762 29.0121 93.5682 29.2841C93.1602 29.5561 92.6922 29.6921 92.1642 29.6921C90.5322 29.6921 89.7162 28.5441 89.7162 26.2481C89.7162 25.8961 89.7282 25.5401 89.7522 25.1801H89.2842C89.0442 25.1801 88.8802 25.1361 88.7922 25.0481C88.7122 24.9601 88.6722 24.8201 88.6722 24.6281C88.6722 24.1801 88.8522 23.9561 89.2122 23.9561H89.8962C90.0322 23.0761 90.2402 22.2721 90.5202 21.5441C90.8002 20.8161 91.1362 20.2361 91.5282 19.8041C91.9282 19.3721 92.3562 19.1561 92.8122 19.1561C93.1482 19.1561 93.4122 19.3041 93.6042 19.6001C93.7962 19.8961 93.8922 20.2681 93.8922 20.7161C93.8922 21.9561 93.3722 23.0361 92.3322 23.9561H93.6762C93.8042 23.9561 93.8962 23.9841 93.9522 24.0401C94.0082 24.0961 94.0362 24.2001 94.0362 24.3521C94.0362 24.9041 93.5842 25.1801 92.6802 25.1801H91.2162C91.2002 25.5801 91.1922 25.8921 91.1922 26.1161C91.1922 26.9481 91.2882 27.5321 91.4802 27.8681C91.6802 28.2041 91.9922 28.3721 92.4162 28.3721C92.7602 28.3721 93.0642 28.2681 93.3282 28.0601C93.5922 27.8521 93.9042 27.5401 94.2642 27.1241C94.3602 27.0121 94.4682 26.9561 94.5882 26.9561ZM92.4882 20.3081C92.3682 20.3081 92.2322 20.4601 92.0802 20.7641C91.9362 21.0601 91.7962 21.4761 91.6602 22.0121C91.5322 22.5401 91.4242 23.1281 91.3362 23.7761C91.8082 23.3681 92.1602 22.9121 92.3922 22.4081C92.6322 21.8961 92.7522 21.4321 92.7522 21.0161C92.7522 20.5441 92.6642 20.3081 92.4882 20.3081ZM95.9751 29.6921C95.5031 29.6921 95.0991 29.5761 94.7631 29.3441C94.4351 29.1041 94.1871 28.7921 94.0191 28.4081C93.8511 28.0241 93.7671 27.6121 93.7671 27.1721C93.7671 26.5641 93.8791 26.0241 94.1031 25.5521C94.3351 25.0721 94.6471 24.7001 95.0391 24.4361C95.4311 24.1641 95.8711 24.0281 96.3591 24.0281C96.8311 24.0281 97.2351 24.1481 97.5711 24.3881C97.9071 24.6201 98.1591 24.9281 98.3271 25.3121C98.4951 25.6961 98.5791 26.1081 98.5791 26.5481C98.5791 27.1561 98.4631 27.7001 98.2311 28.1801C97.9991 28.6521 97.6831 29.0241 97.2831 29.2961C96.8911 29.5601 96.4551 29.6921 95.9751 29.6921ZM96.1071 28.3961C96.3791 28.3961 96.6071 28.2481 96.7911 27.9521C96.9831 27.6561 97.0791 27.2241 97.0791 26.6561C97.0791 26.2161 96.9991 25.8841 96.8391 25.6601C96.6791 25.4361 96.4871 25.3241 96.2631 25.3241C95.9751 25.3241 95.7351 25.4721 95.5431 25.7681C95.3591 26.0561 95.2671 26.4881 95.2671 27.0641C95.2671 27.5201 95.3471 27.8561 95.5071 28.0721C95.6671 28.2881 95.8671 28.3961 96.1071 28.3961ZM108.704 26.9801C108.808 26.9801 108.888 27.0321 108.944 27.1361C109.008 27.2321 109.04 27.3561 109.04 27.5081C109.04 27.6921 109.012 27.8361 108.956 27.9401C108.9 28.0441 108.812 28.1361 108.692 28.2161L106.388 29.7641C106.084 31.4201 105.684 32.7201 105.188 33.6641C104.7 34.6161 104.076 35.0921 103.316 35.0921C102.908 35.0921 102.576 34.9641 102.32 34.7081C102.064 34.4601 101.936 34.1321 101.936 33.7241C101.936 33.3481 102.02 32.9641 102.188 32.5721C102.364 32.1801 102.684 31.7281 103.148 31.2161C103.62 30.7121 104.284 30.1321 105.14 29.4761L105.176 29.2001C105.232 28.9041 105.296 28.4801 105.368 27.9281C105.208 28.5041 104.984 28.9441 104.696 29.2481C104.408 29.5441 104.104 29.6921 103.784 29.6921C103.424 29.6921 103.128 29.5281 102.896 29.2001C102.672 28.8641 102.56 28.4481 102.56 27.9521C102.56 27.3521 102.6 26.8041 102.68 26.3081C102.76 25.8041 102.892 25.2721 103.076 24.7121C103.156 24.4721 103.268 24.3001 103.412 24.1961C103.556 24.0921 103.784 24.0401 104.096 24.0401C104.272 24.0401 104.392 24.0681 104.456 24.1241C104.528 24.1801 104.564 24.2641 104.564 24.3761C104.564 24.4401 104.52 24.6561 104.432 25.0241C104.352 25.3201 104.288 25.5881 104.24 25.8281C104.176 26.1561 104.12 26.4721 104.072 26.7761C104.024 27.0721 104 27.3161 104 27.5081C104 27.8121 104.084 27.9641 104.252 27.9641C104.372 27.9641 104.52 27.8441 104.696 27.6041C104.88 27.3641 105.072 27.0001 105.272 26.5121C105.48 26.0241 105.68 25.4241 105.872 24.7121C105.936 24.4721 106.032 24.3001 106.16 24.1961C106.296 24.0921 106.496 24.0401 106.76 24.0401C106.944 24.0401 107.072 24.0641 107.144 24.1121C107.216 24.1601 107.252 24.2401 107.252 24.3521C107.252 24.5521 107.148 25.2401 106.94 26.4161L106.628 28.3481C107.244 27.8841 107.844 27.4601 108.428 27.0761C108.532 27.0121 108.624 26.9801 108.704 26.9801ZM103.448 33.9281C103.648 33.9281 103.872 33.6961 104.12 33.2321C104.368 32.7681 104.616 31.9961 104.864 30.9161C104.248 31.4361 103.8 31.9081 103.52 32.3321C103.248 32.7641 103.112 33.1401 103.112 33.4601C103.112 33.5961 103.136 33.7081 103.184 33.7961C103.24 33.8841 103.328 33.9281 103.448 33.9281ZM113.655 26.9561C113.759 26.9561 113.839 27.0041 113.895 27.1001C113.959 27.1961 113.991 27.3281 113.991 27.4961C113.991 27.8161 113.915 28.0641 113.763 28.2401C113.467 28.6001 113.047 28.9321 112.503 29.2361C111.967 29.5401 111.391 29.6921 110.775 29.6921C109.935 29.6921 109.283 29.4641 108.819 29.0081C108.355 28.5521 108.123 27.9281 108.123 27.1361C108.123 26.5841 108.239 26.0721 108.471 25.6001C108.703 25.1201 109.023 24.7401 109.431 24.4601C109.847 24.1801 110.315 24.0401 110.835 24.0401C111.299 24.0401 111.671 24.1801 111.951 24.4601C112.231 24.7321 112.371 25.1041 112.371 25.5761C112.371 26.1281 112.171 26.6041 111.771 27.0041C111.379 27.3961 110.711 27.7081 109.767 27.9401C109.967 28.3081 110.347 28.4921 110.907 28.4921C111.267 28.4921 111.675 28.3681 112.131 28.1201C112.595 27.8641 112.995 27.5321 113.331 27.1241C113.427 27.0121 113.535 26.9561 113.655 26.9561ZM110.631 25.2161C110.335 25.2161 110.083 25.3881 109.875 25.7321C109.675 26.0761 109.575 26.4921 109.575 26.9801V27.0041C110.047 26.8921 110.419 26.7241 110.691 26.5001C110.963 26.2761 111.099 26.0161 111.099 25.7201C111.099 25.5681 111.055 25.4481 110.967 25.3601C110.887 25.2641 110.775 25.2161 110.631 25.2161ZM115.246 29.9561C114.83 29.9561 114.51 29.8601 114.286 29.6681C114.07 29.4761 113.962 29.2601 113.962 29.0201C113.962 28.8121 114.038 28.6321 114.19 28.4801C114.342 28.3281 114.566 28.2521 114.862 28.2521C114.966 28.2521 115.086 28.2641 115.222 28.2881C115.366 28.3041 115.474 28.3161 115.546 28.3241C115.538 28.1161 115.49 27.9201 115.402 27.7361C115.322 27.5521 115.218 27.3761 115.09 27.2081C114.962 27.0321 114.842 26.8801 114.73 26.7521C114.482 27.2241 114.234 27.6161 113.986 27.9281C113.746 28.2401 113.482 28.5361 113.194 28.8161C113.05 28.9601 112.898 29.0321 112.738 29.0321C112.61 29.0321 112.506 28.9881 112.425 28.9001C112.345 28.8041 112.305 28.6881 112.305 28.5521C112.305 28.3921 112.361 28.2441 112.474 28.1081L112.63 27.9161C113.07 27.3721 113.402 26.9241 113.626 26.5721C113.762 26.3401 113.922 26.0321 114.106 25.6481C114.29 25.2561 114.47 24.8521 114.646 24.4361C114.798 24.0841 115.114 23.9081 115.594 23.9081C115.818 23.9081 115.974 23.9281 116.062 23.9681C116.15 24.0081 116.194 24.0721 116.194 24.1601C116.194 24.2081 116.178 24.2841 116.146 24.3881C116.114 24.4921 116.07 24.5961 116.014 24.7001C115.87 24.9881 115.798 25.2321 115.798 25.4321C115.798 25.5521 115.838 25.6841 115.918 25.8281C116.006 25.9721 116.138 26.1521 116.314 26.3681C116.57 26.7041 116.762 26.9921 116.89 27.2321C117.026 27.4641 117.094 27.7201 117.094 28.0001C117.094 28.0801 117.086 28.1921 117.07 28.3361C117.462 28.1841 117.922 27.7801 118.45 27.1241C118.546 27.0121 118.654 26.9561 118.773 26.9561C118.878 26.9561 118.958 27.0041 119.014 27.1001C119.078 27.1961 119.11 27.3281 119.11 27.4961C119.11 27.8001 119.034 28.0481 118.882 28.2401C118.482 28.7361 118.098 29.0761 117.73 29.2601C117.37 29.4361 116.922 29.5321 116.386 29.5481C116.066 29.8201 115.686 29.9561 115.246 29.9561ZM120.367 29.9561C119.951 29.9561 119.631 29.8601 119.407 29.6681C119.191 29.4761 119.083 29.2601 119.083 29.0201C119.083 28.8121 119.159 28.6321 119.311 28.4801C119.463 28.3281 119.687 28.2521 119.983 28.2521C120.087 28.2521 120.207 28.2641 120.343 28.2881C120.487 28.3041 120.595 28.3161 120.667 28.3241C120.659 28.1161 120.611 27.9201 120.523 27.7361C120.443 27.5521 120.339 27.3761 120.211 27.2081C120.083 27.0321 119.963 26.8801 119.851 26.7521C119.603 27.2241 119.355 27.6161 119.107 27.9281C118.867 28.2401 118.603 28.5361 118.315 28.8161C118.171 28.9601 118.019 29.0321 117.859 29.0321C117.731 29.0321 117.627 28.9881 117.547 28.9001C117.467 28.8041 117.427 28.6881 117.427 28.5521C117.427 28.3921 117.483 28.2441 117.595 28.1081L117.751 27.9161C118.191 27.3721 118.523 26.9241 118.747 26.5721C118.891 26.3401 119.035 26.0641 119.179 25.7441C119.331 25.4241 119.527 24.9881 119.767 24.4361C119.919 24.0841 120.235 23.9081 120.715 23.9081C120.939 23.9081 121.095 23.9281 121.183 23.9681C121.271 24.0081 121.315 24.0721 121.315 24.1601C121.315 24.2081 121.299 24.2841 121.267 24.3881C121.235 24.4921 121.191 24.5961 121.135 24.7001C120.991 24.9881 120.919 25.2321 120.919 25.4321C120.919 25.5521 120.959 25.6841 121.039 25.8281C121.127 25.9721 121.259 26.1521 121.435 26.3681C121.691 26.7041 121.883 26.9921 122.011 27.2321C122.147 27.4641 122.215 27.7201 122.215 28.0001C122.215 28.3361 122.135 28.6561 121.975 28.9601C121.823 29.2561 121.607 29.4961 121.327 29.6801C121.047 29.8641 120.727 29.9561 120.367 29.9561Z" fill="#0E1C36"/>
<path d="M40.576 9.43214C40.576 8.60814 40.756 7.87214 41.116 7.22414C41.476 6.56814 41.968 6.06014 42.592 5.70014C43.216 5.33214 43.912 5.14814 44.68 5.14814C45.616 5.14814 46.416 5.37214 47.08 5.82014C47.752 6.26014 48.24 6.88414 48.544 7.69214H47.56C47.32 7.12414 46.952 6.68014 46.456 6.36014C45.968 6.04014 45.376 5.88014 44.68 5.88014C44.064 5.88014 43.508 6.02414 43.012 6.31214C42.524 6.60014 42.14 7.01614 41.86 7.56014C41.58 8.09614 41.44 8.72014 41.44 9.43214C41.44 10.1441 41.58 10.7681 41.86 11.3041C42.14 11.8401 42.524 12.2521 43.012 12.5401C43.508 12.8281 44.064 12.9721 44.68 12.9721C45.376 12.9721 45.968 12.8161 46.456 12.5041C46.952 12.1841 47.32 11.7441 47.56 11.1841H48.544C48.24 11.9841 47.752 12.6041 47.08 13.0441C46.408 13.4841 45.608 13.7041 44.68 13.7041C43.912 13.7041 43.216 13.5241 42.592 13.1641C41.968 12.7961 41.476 12.2881 41.116 11.6401C40.756 10.9921 40.576 10.2561 40.576 9.43214ZM51.0578 4.75214V13.6321H50.2178V4.75214H51.0578ZM58.636 7.08014V13.6321H57.796V12.4801C57.604 12.8881 57.308 13.2001 56.908 13.4161C56.508 13.6321 56.06 13.7401 55.564 13.7401C54.78 13.7401 54.14 13.5001 53.644 13.0201C53.148 12.5321 52.9 11.8281 52.9 10.9081V7.08014H53.728V10.8121C53.728 11.5241 53.904 12.0681 54.256 12.4441C54.616 12.8201 55.104 13.0081 55.72 13.0081C56.352 13.0081 56.856 12.8081 57.232 12.4081C57.608 12.0081 57.796 11.4201 57.796 10.6441V7.08014H58.636ZM61.6458 7.78814V11.8561C61.6458 12.2561 61.7218 12.5321 61.8738 12.6841C62.0258 12.8361 62.2938 12.9121 62.6777 12.9121H63.4458V13.6321H62.5458C61.9538 13.6321 61.5138 13.4961 61.2258 13.2241C60.9378 12.9441 60.7938 12.4881 60.7938 11.8561V7.78814H59.8818V7.08014H60.7938V5.43614H61.6458V7.08014H63.4458V7.78814H61.6458ZM65.9231 7.78814V11.8561C65.9231 12.2561 65.9991 12.5321 66.1511 12.6841C66.3031 12.8361 66.5711 12.9121 66.9551 12.9121H67.7231V13.6321H66.8231C66.2311 13.6321 65.7911 13.4961 65.5031 13.2241C65.2151 12.9441 65.0711 12.4881 65.0711 11.8561V7.78814H64.1591V7.08014H65.0711V5.43614H65.9231V7.08014H67.7231V7.78814H65.9231ZM75.0364 10.0201C75.0364 10.3081 75.0284 10.5281 75.0124 10.6801H69.5764C69.6004 11.1761 69.7204 11.6001 69.9364 11.9521C70.1524 12.3041 70.4364 12.5721 70.7884 12.7561C71.1404 12.9321 71.5244 13.0201 71.9404 13.0201C72.4844 13.0201 72.9404 12.8881 73.3084 12.6241C73.6844 12.3601 73.9324 12.0041 74.0524 11.5561H74.9404C74.7804 12.1961 74.4364 12.7201 73.9084 13.1281C73.3884 13.5281 72.7324 13.7281 71.9404 13.7281C71.3244 13.7281 70.7724 13.5921 70.2844 13.3201C69.7964 13.0401 69.4124 12.6481 69.1324 12.1441C68.8604 11.6321 68.7244 11.0361 68.7244 10.3561C68.7244 9.67614 68.8604 9.08014 69.1324 8.56814C69.4044 8.05614 69.7844 7.66414 70.2724 7.39214C70.7604 7.12014 71.3164 6.98414 71.9404 6.98414C72.5644 6.98414 73.1084 7.12014 73.5724 7.39214C74.0444 7.66414 74.4044 8.03214 74.6524 8.49614C74.9084 8.95214 75.0364 9.46014 75.0364 10.0201ZM74.1844 9.99614C74.1924 9.50814 74.0924 9.09214 73.8844 8.74814C73.6844 8.40414 73.4084 8.14414 73.0564 7.96814C72.7044 7.79214 72.3204 7.70414 71.9044 7.70414C71.2804 7.70414 70.7484 7.90414 70.3084 8.30414C69.8684 8.70414 69.6244 9.26814 69.5764 9.99614H74.1844ZM77.4133 8.24414C77.5973 7.83614 77.8773 7.52014 78.2533 7.29614C78.6373 7.07214 79.1053 6.96014 79.6573 6.96014V7.83614H79.4293C78.8213 7.83614 78.3333 8.00014 77.9653 8.32814C77.5973 8.65614 77.4133 9.20414 77.4133 9.97214V13.6321H76.5733V7.08014H77.4133V8.24414ZM88.7499 5.24414V5.94014H85.0539V9.07214H88.1739V9.76814H85.0539V13.6321H84.2139V5.24414H88.7499ZM90.9719 8.24414C91.1559 7.83614 91.4359 7.52014 91.8119 7.29614C92.1959 7.07214 92.6639 6.96014 93.2159 6.96014V7.83614H92.9879C92.3799 7.83614 91.8919 8.00014 91.5239 8.32814C91.1559 8.65614 90.9719 9.20414 90.9719 9.97214V13.6321H90.1319V7.08014H90.9719V8.24414ZM100.408 10.0201C100.408 10.3081 100.4 10.5281 100.384 10.6801H94.9475C94.9715 11.1761 95.0915 11.6001 95.3075 11.9521C95.5235 12.3041 95.8075 12.5721 96.1595 12.7561C96.5115 12.9321 96.8955 13.0201 97.3115 13.0201C97.8555 13.0201 98.3115 12.8881 98.6795 12.6241C99.0555 12.3601 99.3035 12.0041 99.4235 11.5561H100.312C100.152 12.1961 99.8075 12.7201 99.2795 13.1281C98.7595 13.5281 98.1035 13.7281 97.3115 13.7281C96.6955 13.7281 96.1435 13.5921 95.6555 13.3201C95.1675 13.0401 94.7835 12.6481 94.5035 12.1441C94.2315 11.6321 94.0955 11.0361 94.0955 10.3561C94.0955 9.67614 94.2315 9.08014 94.5035 8.56814C94.7755 8.05614 95.1555 7.66414 95.6435 7.39214C96.1315 7.12014 96.6875 6.98414 97.3115 6.98414C97.9355 6.98414 98.4795 7.12014 98.9435 7.39214C99.4155 7.66414 99.7755 8.03214 100.024 8.49614C100.28 8.95214 100.408 9.46014 100.408 10.0201ZM99.5555 9.99614C99.5635 9.50814 99.4635 9.09214 99.2555 8.74814C99.0555 8.40414 98.7795 8.14414 98.4275 7.96814C98.0755 7.79214 97.6915 7.70414 97.2755 7.70414C96.6515 7.70414 96.1195 7.90414 95.6795 8.30414C95.2395 8.70414 94.9955 9.26814 94.9475 9.99614H99.5555ZM107.872 10.0201C107.872 10.3081 107.864 10.5281 107.848 10.6801H102.412C102.436 11.1761 102.556 11.6001 102.772 11.9521C102.988 12.3041 103.272 12.5721 103.624 12.7561C103.976 12.9321 104.36 13.0201 104.776 13.0201C105.32 13.0201 105.776 12.8881 106.144 12.6241C106.52 12.3601 106.768 12.0041 106.888 11.5561H107.776C107.616 12.1961 107.272 12.7201 106.744 13.1281C106.224 13.5281 105.568 13.7281 104.776 13.7281C104.16 13.7281 103.608 13.5921 103.12 13.3201C102.632 13.0401 102.248 12.6481 101.968 12.1441C101.696 11.6321 101.56 11.0361 101.56 10.3561C101.56 9.67614 101.696 9.08014 101.968 8.56814C102.24 8.05614 102.62 7.66414 103.108 7.39214C103.596 7.12014 104.152 6.98414 104.776 6.98414C105.4 6.98414 105.944 7.12014 106.408 7.39214C106.88 7.66414 107.24 8.03214 107.488 8.49614C107.744 8.95214 107.872 9.46014 107.872 10.0201ZM107.02 9.99614C107.028 9.50814 106.928 9.09214 106.72 8.74814C106.52 8.40414 106.244 8.14414 105.892 7.96814C105.54 7.79214 105.156 7.70414 104.74 7.70414C104.116 7.70414 103.584 7.90414 103.144 8.30414C102.704 8.70414 102.46 9.26814 102.412 9.99614H107.02ZM117.238 5.24414V5.94014H113.542V9.07214H116.662V9.76814H113.542V13.6321H112.702V5.24414H117.238ZM119.04 5.84414C118.872 5.84414 118.728 5.78414 118.608 5.66414C118.488 5.54414 118.428 5.39614 118.428 5.22014C118.428 5.04414 118.488 4.90014 118.608 4.78814C118.728 4.66814 118.872 4.60814 119.04 4.60814C119.208 4.60814 119.352 4.66814 119.472 4.78814C119.592 4.90014 119.652 5.04414 119.652 5.22014C119.652 5.39614 119.592 5.54414 119.472 5.66414C119.352 5.78414 119.208 5.84414 119.04 5.84414ZM119.46 7.08014V13.6321H118.62V7.08014H119.46ZM124.434 6.96014C125.218 6.96014 125.858 7.20414 126.354 7.69214C126.85 8.17214 127.098 8.87214 127.098 9.79214V13.6321H126.27V9.88814C126.27 9.17614 126.09 8.63214 125.73 8.25614C125.378 7.88014 124.894 7.69214 124.278 7.69214C123.646 7.69214 123.142 7.89214 122.766 8.29214C122.39 8.69214 122.202 9.28014 122.202 10.0561V13.6321H121.362V7.08014H122.202V8.19614C122.41 7.79614 122.71 7.49214 123.102 7.28414C123.494 7.06814 123.938 6.96014 124.434 6.96014ZM128.572 10.3441C128.572 9.67214 128.708 9.08414 128.98 8.58014C129.252 8.06814 129.624 7.67614 130.096 7.40414C130.576 7.12414 131.116 6.98414 131.716 6.98414C132.292 6.98414 132.812 7.12414 133.276 7.40414C133.74 7.68414 134.08 8.04814 134.296 8.49614V4.75214H135.136V13.6321H134.296V12.1681C134.096 12.6241 133.768 13.0001 133.312 13.2961C132.856 13.5841 132.32 13.7281 131.704 13.7281C131.104 13.7281 130.564 13.5881 130.084 13.3081C129.612 13.0281 129.24 12.6321 128.968 12.1201C128.704 11.6081 128.572 11.0161 128.572 10.3441ZM134.296 10.3561C134.296 9.82814 134.188 9.36414 133.972 8.96414C133.756 8.56414 133.46 8.25614 133.084 8.04014C132.716 7.82414 132.308 7.71614 131.86 7.71614C131.396 7.71614 130.98 7.82014 130.612 8.02814C130.244 8.23614 129.952 8.54014 129.736 8.94014C129.528 9.33214 129.424 9.80014 129.424 10.3441C129.424 10.8801 129.528 11.3521 129.736 11.7601C129.952 12.1601 130.244 12.4681 130.612 12.6841C130.98 12.8921 131.396 12.9961 131.86 12.9961C132.308 12.9961 132.716 12.8881 133.084 12.6721C133.46 12.4561 133.756 12.1481 133.972 11.7481C134.188 11.3481 134.296 10.8841 134.296 10.3561ZM139.31 13.7281C138.558 13.7281 137.942 13.5561 137.462 13.2121C136.99 12.8601 136.726 12.3841 136.67 11.7841H137.534C137.574 12.1521 137.746 12.4521 138.05 12.6841C138.362 12.9081 138.778 13.0201 139.298 13.0201C139.754 13.0201 140.11 12.9121 140.366 12.6961C140.63 12.4801 140.762 12.2121 140.762 11.8921C140.762 11.6681 140.69 11.4841 140.546 11.3401C140.402 11.1961 140.218 11.0841 139.994 11.0041C139.778 10.9161 139.482 10.8241 139.106 10.7281C138.618 10.6001 138.222 10.4721 137.918 10.3441C137.614 10.2161 137.354 10.0281 137.138 9.78014C136.93 9.52414 136.826 9.18414 136.826 8.76014C136.826 8.44014 136.922 8.14414 137.114 7.87214C137.306 7.60014 137.578 7.38414 137.93 7.22414C138.282 7.06414 138.682 6.98414 139.13 6.98414C139.834 6.98414 140.402 7.16414 140.834 7.52414C141.266 7.87614 141.498 8.36414 141.53 8.98814H140.69C140.666 8.60414 140.514 8.29614 140.234 8.06414C139.962 7.82414 139.586 7.70414 139.106 7.70414C138.682 7.70414 138.338 7.80414 138.074 8.00414C137.81 8.20414 137.678 8.45214 137.678 8.74814C137.678 9.00414 137.754 9.21614 137.906 9.38414C138.066 9.54414 138.262 9.67214 138.494 9.76814C138.726 9.85614 139.038 9.95614 139.43 10.0681C139.902 10.1961 140.278 10.3201 140.558 10.4401C140.838 10.5601 141.078 10.7361 141.278 10.9681C141.478 11.2001 141.582 11.5081 141.59 11.8921C141.59 12.2441 141.494 12.5601 141.302 12.8401C141.11 13.1121 140.842 13.3281 140.498 13.4881C140.154 13.6481 139.758 13.7281 139.31 13.7281Z" fill="#0E1C36"/>
</svg>
