<svg width="143" height="36" fill="none" xmlns="http://www.w3.org/2000/svg"><path d="M22.102 11.562c.635 4.136-1.98 7.688-6.118 8.31a7.603 7.603 0 0 1-8.642-6.36c-.635-4.137 1.98-7.69 6.118-8.312a1.512 1.512 0 0 0 1.27-1.725A1.523 1.523 0 0 0 13 2.202c-5.794.871-9.544 5.965-8.655 11.756.89 5.792 6.304 9.778 12.098 8.906 5.794-.871 9.544-5.966 8.655-11.757a1.523 1.523 0 0 0-1.73-1.273 1.512 1.512 0 0 0-1.27 1.725l.004.003Z" fill="#7A23D3"/><path fill-rule="evenodd" clip-rule="evenodd" d="M16.63 18.492a6.074 6.074 0 1 0-3.144-11.734 6.074 6.074 0 0 0 3.143 11.734Zm-3.422-8.278c.317-.243.678-.42 1.063-.524a.506.506 0 1 0-.262-.978 4.05 4.05 0 0 0-2.864 4.96.506.506 0 0 0 .978-.262 3.037 3.037 0 0 1 1.085-3.196Zm13.269 11.541a1.255 1.255 0 1 0-1.73-1.817 17.566 17.566 0 0 1-7.983 4.353 1.252 1.252 0 0 0-.933 1.516 1.255 1.255 0 0 0 1.523.923 20.08 20.08 0 0 0 3.768-1.32l4.848 8.896a1.256 1.256 0 1 0 2.206-1.203l-4.851-8.893a20.069 20.069 0 0 0 3.157-2.453" fill="#7A23D3"/><path d="M63.428 29.692c-.304 0-.52-.16-.648-.48-.12-.32-.18-.832-.18-1.536 0-1.04.148-2.028.444-2.964.072-.232.188-.4.348-.504.168-.112.4-.168.696-.168.16 0 .272.02.336.06.064.04.096.116.096.228 0 .128-.06.416-.18.864-.08.32-.144.6-.192.84a8.035 8.035 0 0 0-.12.876c.216-.624.472-1.152.768-1.584.304-.432.612-.752.924-.96.32-.216.62-.324.9-.324s.476.064.588.192c.12.128.18.324.18.588 0 .256-.076.72-.228 1.392a13.55 13.55 0 0 0-.132.648c.4-.984.844-1.7 1.332-2.148.488-.448.944-.672 1.368-.672.52 0 .78.26.78.78 0 .312-.088.876-.264 1.692-.152.696-.228 1.156-.228 1.38 0 .32.116.48.348.48.16 0 .348-.096.564-.288.224-.2.52-.52.888-.96.096-.112.204-.168.324-.168.104 0 .184.048.24.144a.707.707 0 0 1 .096.396c0 .32-.076.568-.228.744a5.239 5.239 0 0 1-1.116 1.044 2.3 2.3 0 0 1-1.344.408c-.408 0-.716-.116-.924-.348-.208-.24-.312-.584-.312-1.032 0-.224.056-.624.168-1.2.104-.504.156-.852.156-1.044 0-.128-.044-.192-.132-.192-.104 0-.252.136-.444.408a5.686 5.686 0 0 0-.576 1.056 8.62 8.62 0 0 0-.468 1.392c-.088.384-.192.64-.312.768-.112.128-.296.192-.552.192-.264 0-.464-.124-.6-.372-.128-.256-.192-.564-.192-.924 0-.304.04-.744.12-1.32.064-.512.096-.848.096-1.008 0-.128-.044-.192-.132-.192-.12 0-.272.144-.456.432a6.465 6.465 0 0 0-.54 1.104c-.168.448-.304.888-.408 1.32-.088.376-.192.632-.312.768-.112.128-.292.192-.54.192Zm13.43-2.736c.104 0 .184.048.24.144a.707.707 0 0 1 .096.396c0 .32-.076.568-.228.744-.296.36-.716.692-1.26.996a3.446 3.446 0 0 1-1.728.456c-.84 0-1.492-.228-1.956-.684-.464-.456-.696-1.08-.696-1.872 0-.552.116-1.064.348-1.536.232-.48.552-.86.96-1.14.416-.28.884-.42 1.404-.42.464 0 .836.14 1.116.42.28.272.42.644.42 1.116 0 .552-.2 1.028-.6 1.428-.392.392-1.06.704-2.004.936.2.368.58.552 1.14.552.36 0 .768-.124 1.224-.372a4.117 4.117 0 0 0 1.2-.996c.096-.112.204-.168.324-.168Zm-3.024-1.74c-.296 0-.548.172-.756.516-.2.344-.3.76-.3 1.248v.024c.472-.112.844-.28 1.116-.504.272-.224.408-.484.408-.78a.486.486 0 0 0-.132-.36.413.413 0 0 0-.336-.144Zm4.615 4.74c-.416 0-.736-.096-.96-.288-.216-.192-.324-.408-.324-.648 0-.208.076-.388.228-.54.152-.152.376-.228.672-.228.104 0 .224.012.36.036l.324.036a1.48 1.48 0 0 0-.144-.588 2.544 2.544 0 0 0-.312-.528 6.526 6.526 0 0 0-.36-.456 7.522 7.522 0 0 1-.744 1.176c-.24.312-.504.608-.792.888-.144.144-.296.216-.456.216a.402.402 0 0 1-.312-.132.526.526 0 0 1-.12-.348c0-.16.056-.308.168-.444l.156-.192c.44-.544.772-.992.996-1.344.136-.232.296-.54.48-.924.184-.392.364-.796.54-1.212.152-.352.468-.528.948-.528.224 0 .38.02.468.06.088.04.132.104.132.192a.883.883 0 0 1-.048.228 1.734 1.734 0 0 1-.132.312c-.144.288-.216.532-.216.732 0 .12.04.252.12.396.088.144.22.324.396.54.256.336.448.624.576.864.136.232.204.488.204.768 0 .08-.008.192-.024.336.392-.152.852-.556 1.38-1.212.096-.112.204-.168.324-.168.104 0 .184.048.24.144a.707.707 0 0 1 .096.396c0 .304-.076.552-.228.744-.4.496-.784.836-1.152 1.02-.36.176-.808.272-1.344.288-.32.272-.7.408-1.14.408Zm5.12 0c-.415 0-.735-.096-.96-.288-.215-.192-.323-.408-.323-.648 0-.208.076-.388.228-.54.152-.152.376-.228.672-.228.104 0 .224.012.36.036l.324.036a1.48 1.48 0 0 0-.144-.588 2.544 2.544 0 0 0-.312-.528 6.526 6.526 0 0 0-.36-.456 7.522 7.522 0 0 1-.744 1.176c-.24.312-.504.608-.792.888-.144.144-.296.216-.456.216a.402.402 0 0 1-.312-.132.526.526 0 0 1-.12-.348c0-.16.056-.308.168-.444l.156-.192c.44-.544.772-.992.996-1.344.144-.232.288-.508.432-.828.152-.32.348-.756.588-1.308.152-.352.468-.528.948-.528.224 0 .38.02.468.06.088.04.132.104.132.192a.883.883 0 0 1-.048.228 1.734 1.734 0 0 1-.132.312c-.144.288-.216.532-.216.732 0 .12.04.252.12.396.088.144.22.324.396.54.256.336.448.624.576.864.136.232.204.488.204.768 0 .336-.08.656-.24.96a1.871 1.871 0 0 1-.648.72c-.28.184-.6.276-.96.276Zm11.02-3c.103 0 .183.048.24.144a.707.707 0 0 1 .095.396c0 .32-.076.568-.228.744-.344.424-.72.772-1.128 1.044a2.472 2.472 0 0 1-1.404.408c-1.632 0-2.448-1.148-2.448-3.444 0-.352.012-.708.036-1.068h-.468c-.24 0-.404-.044-.492-.132-.08-.088-.12-.228-.12-.42 0-.448.18-.672.54-.672h.684c.136-.88.344-1.684.624-2.412s.616-1.308 1.008-1.74c.4-.432.828-.648 1.284-.648.336 0 .6.148.792.444.192.296.288.668.288 1.116 0 1.24-.52 2.32-1.56 3.24h1.344c.128 0 .22.028.276.084.056.056.084.16.084.312 0 .552-.452.828-1.356.828h-1.464c-.016.4-.024.712-.024.936 0 .832.096 1.416.288 1.752.2.336.512.504.936.504.344 0 .648-.104.912-.312.264-.208.576-.52.936-.936.096-.112.204-.168.324-.168Zm-2.1-6.648c-.12 0-.257.152-.409.456-.144.296-.284.712-.42 1.248a17.545 17.545 0 0 0-.324 1.764 4.047 4.047 0 0 0 1.056-1.368c.24-.512.36-.976.36-1.392 0-.472-.088-.708-.264-.708Zm3.486 9.384c-.472 0-.876-.116-1.212-.348a2.258 2.258 0 0 1-.744-.936 3.05 3.05 0 0 1-.252-1.236c0-.608.112-1.148.336-1.62.232-.48.544-.852.936-1.116a2.262 2.262 0 0 1 1.32-.408c.472 0 .876.12 1.212.36.336.232.588.54.756.924.168.384.252.796.252 1.236 0 .608-.116 1.152-.348 1.632a2.822 2.822 0 0 1-.948 1.116 2.29 2.29 0 0 1-1.308.396Zm.132-1.296c.272 0 .5-.148.684-.444.192-.296.288-.728.288-1.296 0-.44-.08-.772-.24-.996-.16-.224-.352-.336-.576-.336-.288 0-.528.148-.72.444-.184.288-.276.72-.276 1.296 0 .456.08.792.24 1.008.16.216.36.324.6.324Zm12.597-1.416c.104 0 .184.052.24.156.064.096.096.22.096.372a.92.92 0 0 1-.084.432.783.783 0 0 1-.264.276l-2.304 1.548c-.304 1.656-.704 2.956-1.2 3.9-.488.952-1.112 1.428-1.872 1.428-.408 0-.74-.128-.996-.384-.256-.248-.384-.576-.384-.984 0-.376.084-.76.252-1.152.176-.392.496-.844.96-1.356.472-.504 1.136-1.084 1.992-1.74l.036-.276c.056-.296.12-.72.192-1.272-.16.576-.384 1.016-.672 1.32-.288.296-.592.444-.912.444-.36 0-.656-.164-.888-.492-.224-.336-.336-.752-.336-1.248 0-.6.04-1.148.12-1.644.08-.504.212-1.036.396-1.596.08-.24.192-.412.336-.516.144-.104.372-.156.684-.156.176 0 .296.028.36.084.072.056.108.14.108.252 0 .064-.044.28-.132.648-.08.296-.144.564-.192.804-.064.328-.12.644-.168.948-.048.296-.072.54-.072.732 0 .304.084.456.252.456.12 0 .268-.12.444-.36.184-.24.376-.604.576-1.092.208-.488.408-1.088.6-1.8.064-.24.16-.412.288-.516.136-.104.336-.156.6-.156.184 0 .312.024.384.072.072.048.108.128.108.24 0 .2-.104.888-.312 2.064l-.312 1.932a34.54 34.54 0 0 1 1.8-1.272.545.545 0 0 1 .276-.096Zm-5.256 6.948c.2 0 .424-.232.672-.696.248-.464.496-1.236.744-2.316-.616.52-1.064.992-1.344 1.416-.272.432-.408.808-.408 1.128 0 .136.024.248.072.336.056.088.144.132.264.132Zm10.207-6.972c.104 0 .184.048.24.144a.707.707 0 0 1 .096.396c0 .32-.076.568-.228.744-.296.36-.716.692-1.26.996a3.446 3.446 0 0 1-1.728.456c-.84 0-1.492-.228-1.956-.684-.464-.456-.696-1.08-.696-1.872 0-.552.116-1.064.348-1.536.232-.48.552-.86.96-1.14.416-.28.884-.42 1.404-.42.464 0 .836.14 1.116.42.28.272.42.644.42 1.116 0 .552-.2 1.028-.6 1.428-.392.392-1.06.704-2.004.936.2.368.58.552 1.14.552.36 0 .768-.124 1.224-.372a4.117 4.117 0 0 0 1.2-.996c.096-.112.204-.168.324-.168Zm-3.024-1.74c-.296 0-.548.172-.756.516-.2.344-.3.76-.3 1.248v.024c.472-.112.844-.28 1.116-.504.272-.224.408-.484.408-.78a.486.486 0 0 0-.132-.36.413.413 0 0 0-.336-.144Zm4.615 4.74c-.416 0-.736-.096-.96-.288-.216-.192-.324-.408-.324-.648 0-.208.076-.388.228-.54.152-.152.376-.228.672-.228.104 0 .224.012.36.036l.324.036a1.48 1.48 0 0 0-.144-.588 2.544 2.544 0 0 0-.312-.528 6.526 6.526 0 0 0-.36-.456 7.522 7.522 0 0 1-.744 1.176c-.24.312-.504.608-.792.888-.144.144-.296.216-.456.216a.406.406 0 0 1-.313-.132.526.526 0 0 1-.12-.348.68.68 0 0 1 .169-.444l.156-.192c.44-.544.772-.992.996-1.344.136-.232.296-.54.48-.924.184-.392.364-.796.54-1.212.152-.352.468-.528.948-.528.224 0 .38.02.468.06.088.04.132.104.132.192a.883.883 0 0 1-.048.228 1.734 1.734 0 0 1-.132.312c-.144.288-.216.532-.216.732 0 .12.04.252.12.396.088.144.22.324.396.54.256.336.448.624.576.864.136.232.204.488.204.768 0 .08-.008.192-.024.336.392-.152.852-.556 1.38-1.212.096-.112.204-.168.323-.168.105 0 .185.048.241.144a.707.707 0 0 1 .096.396c0 .304-.076.552-.228.744-.4.496-.784.836-1.152 1.02-.36.176-.808.272-1.344.288-.32.272-.7.408-1.14.408Zm5.121 0c-.416 0-.736-.096-.96-.288-.216-.192-.324-.408-.324-.648 0-.208.076-.388.228-.54.152-.152.376-.228.672-.228.104 0 .224.012.36.036l.324.036a1.48 1.48 0 0 0-.144-.588 2.544 2.544 0 0 0-.312-.528 6.526 6.526 0 0 0-.36-.456 7.522 7.522 0 0 1-.744 1.176c-.24.312-.504.608-.792.888-.144.144-.296.216-.456.216a.402.402 0 0 1-.312-.132.526.526 0 0 1-.12-.348c0-.16.056-.308.168-.444l.156-.192c.44-.544.772-.992.996-1.344.144-.232.288-.508.432-.828.152-.32.348-.756.588-1.308.152-.352.468-.528.948-.528.224 0 .38.02.468.06.088.04.132.104.132.192a.883.883 0 0 1-.048.228 1.734 1.734 0 0 1-.132.312c-.144.288-.216.532-.216.732 0 .12.04.252.12.396.088.144.22.324.396.54.256.336.448.624.576.864.136.232.204.488.204.768 0 .336-.08.656-.24.96a1.871 1.871 0 0 1-.648.72c-.28.184-.6.276-.96.276ZM40.576 9.432c0-.824.18-1.56.54-2.208A3.867 3.867 0 0 1 42.592 5.7a4.033 4.033 0 0 1 2.088-.552c.936 0 1.736.224 2.4.672.672.44 1.16 1.064 1.464 1.872h-.984a2.874 2.874 0 0 0-1.104-1.332c-.488-.32-1.08-.48-1.776-.48a3.26 3.26 0 0 0-1.668.432A3.005 3.005 0 0 0 41.86 7.56c-.28.536-.42 1.16-.42 1.872 0 .712.14 1.336.42 1.872.28.536.664.948 1.152 1.236a3.26 3.26 0 0 0 1.668.432c.696 0 1.288-.156 1.776-.468.496-.32.864-.76 1.104-1.32h.984c-.304.8-.792 1.42-1.464 1.86-.672.44-1.472.66-2.4.66-.768 0-1.464-.18-2.088-.54a3.975 3.975 0 0 1-1.476-1.524c-.36-.648-.54-1.384-.54-2.208Zm10.482-4.68v8.88h-.84v-8.88h.84Zm7.578 2.328v6.552h-.84V12.48c-.192.408-.488.72-.888.936-.4.216-.848.324-1.344.324-.784 0-1.424-.24-1.92-.72-.496-.488-.744-1.192-.744-2.112V7.08h.828v3.732c0 .712.176 1.256.528 1.632.36.376.848.564 1.464.564.632 0 1.136-.2 1.512-.6.376-.4.564-.988.564-1.764V7.08h.84Zm3.01.708v4.068c0 .4.076.676.228.828.152.152.42.228.804.228h.768v.72h-.9c-.592 0-1.032-.136-1.32-.408-.288-.28-.432-.736-.432-1.368V7.788h-.912V7.08h.912V5.436h.852V7.08h1.8v.708h-1.8Zm4.277 0v4.068c0 .4.076.676.228.828.152.152.42.228.804.228h.768v.72h-.9c-.592 0-1.032-.136-1.32-.408-.288-.28-.432-.736-.432-1.368V7.788h-.912V7.08h.912V5.436h.852V7.08h1.8v.708h-1.8Zm9.113 2.232c0 .288-.008.508-.024.66h-5.436c.024.496.144.92.36 1.272s.5.62.852.804a2.54 2.54 0 0 0 1.152.264c.544 0 1-.132 1.368-.396a1.85 1.85 0 0 0 .744-1.068h.888a2.792 2.792 0 0 1-1.032 1.572c-.52.4-1.176.6-1.968.6a3.343 3.343 0 0 1-1.656-.408 3.016 3.016 0 0 1-1.152-1.176c-.272-.512-.408-1.108-.408-1.788 0-.68.136-1.276.408-1.788a2.836 2.836 0 0 1 1.14-1.176c.488-.272 1.044-.408 1.668-.408.624 0 1.168.136 1.632.408.472.272.832.64 1.08 1.104.256.456.384.964.384 1.524Zm-.852-.024c.008-.488-.092-.904-.3-1.248a1.947 1.947 0 0 0-.828-.78 2.54 2.54 0 0 0-1.152-.264c-.624 0-1.156.2-1.596.6-.44.4-.684.964-.732 1.692h4.608Zm3.23-1.752c.183-.408.463-.724.84-.948.383-.224.851-.336 1.403-.336v.876h-.228c-.608 0-1.096.164-1.464.492-.368.328-.552.876-.552 1.644v3.66h-.84V7.08h.84v1.164Zm11.336-3v.696h-3.696v3.132h3.12v.696h-3.12v3.864h-.84V5.244h4.536Zm2.222 3c.184-.408.464-.724.84-.948.384-.224.852-.336 1.404-.336v.876h-.228c-.608 0-1.096.164-1.464.492-.368.328-.552.876-.552 1.644v3.66h-.84V7.08h.84v1.164Zm9.436 1.776c0 .288-.008.508-.024.66h-5.436c.024.496.144.92.36 1.272.215.352.5.62.851.804a2.54 2.54 0 0 0 1.152.264c.544 0 1-.132 1.368-.396a1.85 1.85 0 0 0 .745-1.068h.888a2.792 2.792 0 0 1-1.032 1.572c-.52.4-1.177.6-1.969.6a3.343 3.343 0 0 1-1.656-.408 3.016 3.016 0 0 1-1.151-1.176c-.273-.512-.409-1.108-.409-1.788 0-.68.136-1.276.409-1.788a2.836 2.836 0 0 1 1.14-1.176c.487-.272 1.043-.408 1.667-.408.624 0 1.168.136 1.632.408.472.272.832.64 1.081 1.104.256.456.384.964.384 1.524Zm-.853-.024c.008-.488-.092-.904-.3-1.248a1.947 1.947 0 0 0-.828-.78 2.54 2.54 0 0 0-1.152-.264c-.624 0-1.156.2-1.596.6-.44.4-.683.964-.731 1.692h4.608Zm8.317.024c0 .288-.008.508-.024.66h-5.436c.024.496.144.92.36 1.272s.5.62.852.804a2.54 2.54 0 0 0 1.152.264c.544 0 1-.132 1.368-.396a1.85 1.85 0 0 0 .744-1.068h.888a2.792 2.792 0 0 1-1.032 1.572c-.52.4-1.176.6-1.968.6a3.343 3.343 0 0 1-1.656-.408 3.016 3.016 0 0 1-1.152-1.176c-.272-.512-.408-1.108-.408-1.788 0-.68.136-1.276.408-1.788a2.836 2.836 0 0 1 1.14-1.176c.488-.272 1.044-.408 1.668-.408.624 0 1.168.136 1.632.408.472.272.832.64 1.08 1.104.256.456.384.964.384 1.524Zm-.852-.024c.008-.488-.092-.904-.3-1.248a1.947 1.947 0 0 0-.828-.78 2.54 2.54 0 0 0-1.152-.264c-.624 0-1.156.2-1.596.6-.44.4-.684.964-.732 1.692h4.608Zm10.218-4.752v.696h-3.696v3.132h3.12v.696h-3.12v3.864h-.84V5.244h4.536Zm1.802.6a.59.59 0 0 1-.432-.18.603.603 0 0 1-.18-.444c0-.176.06-.32.18-.432a.59.59 0 0 1 .432-.18.59.59 0 0 1 .432.18c.12.112.18.256.18.432s-.06.324-.18.444a.59.59 0 0 1-.432.18Zm.42 1.236v6.552h-.84V7.08h.84Zm4.974-.12c.784 0 1.424.244 1.92.732.496.48.744 1.18.744 2.1v3.84h-.828V9.888c0-.712-.18-1.256-.54-1.632-.352-.376-.836-.564-1.452-.564-.632 0-1.136.2-1.512.6-.376.4-.564.988-.564 1.764v3.576h-.84V7.08h.84v1.116c.208-.4.508-.704.9-.912a2.714 2.714 0 0 1 1.332-.324Zm4.138 3.384c0-.672.136-1.26.408-1.764a2.881 2.881 0 0 1 1.116-1.176c.48-.28 1.02-.42 1.62-.42.576 0 1.096.14 1.56.42.464.28.804.644 1.02 1.092V4.752h.84v8.88h-.84v-1.464a2.56 2.56 0 0 1-.984 1.128c-.456.288-.992.432-1.608.432-.6 0-1.14-.14-1.62-.42a2.964 2.964 0 0 1-1.116-1.188c-.264-.512-.396-1.104-.396-1.776Zm5.724.012c0-.528-.108-.992-.324-1.392a2.3 2.3 0 0 0-.888-.924 2.373 2.373 0 0 0-1.224-.324c-.464 0-.88.104-1.248.312-.368.208-.66.512-.876.912-.208.392-.312.86-.312 1.404 0 .536.104 1.008.312 1.416.216.4.508.708.876.924.368.208.784.312 1.248.312.448 0 .856-.108 1.224-.324a2.3 2.3 0 0 0 .888-.924c.216-.4.324-.864.324-1.392Zm5.014 3.372c-.752 0-1.368-.172-1.848-.516-.472-.352-.736-.828-.792-1.428h.864c.04.368.212.668.516.9.312.224.728.336 1.248.336.456 0 .812-.108 1.068-.324.264-.216.396-.484.396-.804a.748.748 0 0 0-.216-.552 1.462 1.462 0 0 0-.552-.336 7.128 7.128 0 0 0-.888-.276 9.09 9.09 0 0 1-1.188-.384 2.104 2.104 0 0 1-.78-.564c-.208-.256-.312-.596-.312-1.02 0-.32.096-.616.288-.888.192-.272.464-.488.816-.648a2.87 2.87 0 0 1 1.2-.24c.704 0 1.272.18 1.704.54.432.352.664.84.696 1.464h-.84a1.248 1.248 0 0 0-.456-.924c-.272-.24-.648-.36-1.128-.36-.424 0-.768.1-1.032.3-.264.2-.396.448-.396.744 0 .256.076.468.228.636.16.16.356.288.588.384.232.088.544.188.936.3a8.84 8.84 0 0 1 1.128.372c.28.12.52.296.72.528.2.232.304.54.312.924 0 .352-.096.668-.288.948-.192.272-.46.488-.804.648-.344.16-.74.24-1.188.24Z" fill="#0E1C36"/></svg>