<svg width="143" height="35" viewBox="0 0 143 35" fill="none" xmlns="http://www.w3.org/2000/svg">
<path d="M1.38867 17.957C1.53268 19.8865 2.06065 21.7683 2.94232 23.4943C3.82399 25.2204 5.04198 26.7567 6.52645 28.0153C8.01149 29.2756 9.73368 30.2337 11.5946 30.835V30.835C15.2973 32.0314 19.3121 31.7367 23.1969 31.5137C23.416 31.5011 23.6369 31.4801 23.8598 31.4482L26.0845 31.2789C26.6507 31.2358 27.2124 31.1455 27.7637 31.009L28.1284 30.9186C28.9686 30.7105 29.7733 30.3945 30.5717 30.0602V30.0602C30.8605 29.9392 31.1153 29.7504 31.3138 29.5101C31.5123 29.2698 31.6485 28.9854 31.7107 28.6815V28.6815C31.832 28.0881 31.435 27.5499 30.9889 27.1402L30.0743 26.3C29.3801 25.6624 28.9542 24.7848 28.8826 23.8449V23.8449C28.8655 23.6197 28.8207 23.3978 28.7975 23.1731C28.7341 22.5596 28.8755 21.7891 29.1195 20.959C30.1685 17.3909 31.2911 13.6261 29.6348 10.2961C29.6116 10.2496 29.5882 10.2032 29.5646 10.1569C28.6829 8.43089 27.465 6.89451 25.9807 5.63585C24.4957 4.37548 22.7735 3.41726 20.9125 2.81596C19.0516 2.21466 17.0884 1.98206 15.1351 2.13148C11.1905 2.432 7.52526 4.26838 4.94486 7.23705C3.66874 8.70625 2.69779 10.4093 2.08757 12.2488C1.47735 14.0883 1.23986 16.028 1.38867 17.957Z" fill="#7A23D3" stroke="#7A23D3" stroke-width="1.5" stroke-linecap="round" stroke-linejoin="round"/>
<path fill-rule="evenodd" clip-rule="evenodd" d="M14.4828 20.9656C15.2028 20.9656 15.9158 20.8238 16.581 20.5482C17.2462 20.2727 17.8506 19.8688 18.3597 19.3597C18.8688 18.8506 19.2727 18.2462 19.5482 17.581C19.8238 16.9158 19.9656 16.2028 19.9656 15.4828C19.9656 14.7628 19.8238 14.0498 19.5482 13.3846C19.2727 12.7194 18.8688 12.115 18.3597 11.6059C17.8506 11.0967 17.2462 10.6929 16.581 10.4174C15.9158 10.1418 15.2028 10 14.4828 10C13.0287 10 11.6341 10.5776 10.6059 11.6059C9.57765 12.6341 9 14.0287 9 15.4828C9 16.9369 9.57765 18.3315 10.6059 19.3597C11.6341 20.3879 13.0287 20.9656 14.4828 20.9656ZM13.4337 12.9497C13.7664 12.8121 14.1228 12.7413 14.4828 12.7414C14.604 12.7414 14.7202 12.6933 14.8059 12.6076C14.8916 12.5219 14.9397 12.4057 14.9397 12.2845C14.9397 12.1633 14.8916 12.0471 14.8059 11.9614C14.7202 11.8757 14.604 11.8276 14.4828 11.8276C13.5134 11.8276 12.5837 12.2127 11.8982 12.8982C11.2127 13.5837 10.8276 14.5134 10.8276 15.4828C10.8276 15.604 10.8757 15.7202 10.9614 15.8059C11.0471 15.8916 11.1633 15.9397 11.2845 15.9397C11.4057 15.9397 11.5219 15.8916 11.6076 15.8059C11.6933 15.7202 11.7414 15.604 11.7414 15.4828C11.7413 14.9405 11.9021 14.4104 12.2033 13.9596C12.5046 13.5087 12.9328 13.1572 13.4337 12.9497Z" fill="white"/>
<path fill-rule="evenodd" clip-rule="evenodd" d="M20.8135 19.1379C20.844 19.0859 20.8639 19.0284 20.8721 18.9687C20.8802 18.909 20.8765 18.8483 20.8611 18.7901C20.8457 18.7318 20.8189 18.6772 20.7823 18.6293C20.7457 18.5814 20.7 18.5413 20.6478 18.5112C20.5956 18.481 20.538 18.4615 20.4783 18.4538C20.4185 18.446 20.3578 18.4501 20.2997 18.4659C20.2415 18.4817 20.1871 18.5088 20.1394 18.5458C20.0918 18.5827 20.052 18.6286 20.0222 18.681C19.4608 19.6533 18.6533 20.4608 17.681 21.0222C17.6286 21.052 17.5827 21.0918 17.5458 21.1394C17.5088 21.1871 17.4817 21.2415 17.4659 21.2997C17.4501 21.3578 17.446 21.4185 17.4538 21.4783C17.4615 21.538 17.481 21.5956 17.5112 21.6478C17.5413 21.7 17.5814 21.7457 17.6293 21.7823C17.6772 21.8189 17.7318 21.8457 17.7901 21.8611C17.8483 21.8765 17.909 21.8802 17.9687 21.8721C18.0284 21.8639 18.0859 21.844 18.1379 21.8135C18.5587 21.5708 18.9542 21.2867 19.3186 20.9655L21.9265 23.5744C21.969 23.6169 22.0194 23.6506 22.0749 23.6736C22.1305 23.6966 22.1899 23.7084 22.25 23.7084C22.3101 23.7084 22.3696 23.6966 22.4251 23.6736C22.4806 23.6506 22.531 23.6169 22.5735 23.5744C22.616 23.5319 22.6497 23.4815 22.6727 23.426C22.6957 23.3705 22.7075 23.311 22.7075 23.2509C22.7075 23.1909 22.6957 23.1314 22.6727 23.0759C22.6497 23.0204 22.616 22.9699 22.5735 22.9274L19.9646 20.3195C20.2868 19.9549 20.5718 19.5591 20.8154 19.1379" fill="white" fill-opacity="0.25"/>
<path d="M63.428 29.06C63.124 29.06 62.908 28.9 62.78 28.58C62.66 28.26 62.6 27.748 62.6 27.044C62.6 26.004 62.748 25.016 63.044 24.08C63.116 23.848 63.232 23.68 63.392 23.576C63.56 23.464 63.792 23.408 64.088 23.408C64.248 23.408 64.36 23.428 64.424 23.468C64.488 23.508 64.52 23.584 64.52 23.696C64.52 23.824 64.46 24.112 64.34 24.56C64.26 24.88 64.196 25.16 64.148 25.4C64.1 25.632 64.06 25.924 64.028 26.276C64.244 25.652 64.5 25.124 64.796 24.692C65.1 24.26 65.408 23.94 65.72 23.732C66.04 23.516 66.34 23.408 66.62 23.408C66.9 23.408 67.096 23.472 67.208 23.6C67.328 23.728 67.388 23.924 67.388 24.188C67.388 24.444 67.312 24.908 67.16 25.58C67.096 25.868 67.052 26.084 67.028 26.228C67.428 25.244 67.872 24.528 68.36 24.08C68.848 23.632 69.304 23.408 69.728 23.408C70.248 23.408 70.508 23.668 70.508 24.188C70.508 24.5 70.42 25.064 70.244 25.88C70.092 26.576 70.016 27.036 70.016 27.26C70.016 27.58 70.132 27.74 70.364 27.74C70.524 27.74 70.712 27.644 70.928 27.452C71.152 27.252 71.448 26.932 71.816 26.492C71.912 26.38 72.02 26.324 72.14 26.324C72.244 26.324 72.324 26.372 72.38 26.468C72.444 26.564 72.476 26.696 72.476 26.864C72.476 27.184 72.4 27.432 72.248 27.608C71.904 28.032 71.532 28.38 71.132 28.652C70.74 28.924 70.292 29.06 69.788 29.06C69.38 29.06 69.072 28.944 68.864 28.712C68.656 28.472 68.552 28.128 68.552 27.68C68.552 27.456 68.608 27.056 68.72 26.48C68.824 25.976 68.876 25.628 68.876 25.436C68.876 25.308 68.832 25.244 68.744 25.244C68.64 25.244 68.492 25.38 68.3 25.652C68.108 25.916 67.916 26.268 67.724 26.708C67.532 27.148 67.376 27.612 67.256 28.1C67.168 28.484 67.064 28.74 66.944 28.868C66.832 28.996 66.648 29.06 66.392 29.06C66.128 29.06 65.928 28.936 65.792 28.688C65.664 28.432 65.6 28.124 65.6 27.764C65.6 27.46 65.64 27.02 65.72 26.444C65.784 25.932 65.816 25.596 65.816 25.436C65.816 25.308 65.772 25.244 65.684 25.244C65.564 25.244 65.412 25.388 65.228 25.676C65.044 25.964 64.864 26.332 64.688 26.78C64.52 27.228 64.384 27.668 64.28 28.1C64.192 28.476 64.088 28.732 63.968 28.868C63.856 28.996 63.676 29.06 63.428 29.06ZM76.8577 26.324C76.9617 26.324 77.0417 26.372 77.0977 26.468C77.1617 26.564 77.1937 26.696 77.1937 26.864C77.1937 27.184 77.1177 27.432 76.9657 27.608C76.6697 27.968 76.2497 28.3 75.7057 28.604C75.1697 28.908 74.5937 29.06 73.9777 29.06C73.1377 29.06 72.4857 28.832 72.0217 28.376C71.5577 27.92 71.3257 27.296 71.3257 26.504C71.3257 25.952 71.4417 25.44 71.6737 24.968C71.9057 24.488 72.2257 24.108 72.6337 23.828C73.0497 23.548 73.5177 23.408 74.0377 23.408C74.5017 23.408 74.8737 23.548 75.1537 23.828C75.4337 24.1 75.5737 24.472 75.5737 24.944C75.5737 25.496 75.3737 25.972 74.9737 26.372C74.5817 26.764 73.9137 27.076 72.9697 27.308C73.1697 27.676 73.5497 27.86 74.1097 27.86C74.4697 27.86 74.8777 27.736 75.3337 27.488C75.7977 27.232 76.1977 26.9 76.5337 26.492C76.6297 26.38 76.7377 26.324 76.8577 26.324ZM73.8337 24.584C73.5377 24.584 73.2857 24.756 73.0777 25.1C72.8777 25.444 72.7777 25.86 72.7777 26.348V26.372C73.2497 26.26 73.6217 26.092 73.8937 25.868C74.1657 25.644 74.3017 25.384 74.3017 25.088C74.3017 24.936 74.2577 24.816 74.1697 24.728C74.0897 24.632 73.9777 24.584 73.8337 24.584ZM78.4486 29.324C78.0326 29.324 77.7126 29.228 77.4886 29.036C77.2726 28.844 77.1646 28.628 77.1646 28.388C77.1646 28.18 77.2406 28 77.3926 27.848C77.5446 27.696 77.7686 27.62 78.0646 27.62C78.1686 27.62 78.2886 27.632 78.4246 27.656C78.5686 27.672 78.6766 27.684 78.7486 27.692C78.7406 27.484 78.6926 27.288 78.6046 27.104C78.5246 26.92 78.4206 26.744 78.2926 26.576C78.1646 26.4 78.0446 26.248 77.9326 26.12C77.6846 26.592 77.4366 26.984 77.1886 27.296C76.9486 27.608 76.6846 27.904 76.3966 28.184C76.2526 28.328 76.1006 28.4 75.9406 28.4C75.8126 28.4 75.7086 28.356 75.6286 28.268C75.5486 28.172 75.5086 28.056 75.5086 27.92C75.5086 27.76 75.5646 27.612 75.6766 27.476L75.8326 27.284C76.2726 26.74 76.6046 26.292 76.8286 25.94C76.9646 25.708 77.1246 25.4 77.3086 25.016C77.4926 24.624 77.6726 24.22 77.8486 23.804C78.0006 23.452 78.3166 23.276 78.7966 23.276C79.0206 23.276 79.1766 23.296 79.2646 23.336C79.3526 23.376 79.3966 23.44 79.3966 23.528C79.3966 23.576 79.3806 23.652 79.3486 23.756C79.3166 23.86 79.2726 23.964 79.2166 24.068C79.0726 24.356 79.0006 24.6 79.0006 24.8C79.0006 24.92 79.0406 25.052 79.1206 25.196C79.2086 25.34 79.3406 25.52 79.5166 25.736C79.7726 26.072 79.9646 26.36 80.0926 26.6C80.2286 26.832 80.2966 27.088 80.2966 27.368C80.2966 27.448 80.2886 27.56 80.2726 27.704C80.6646 27.552 81.1246 27.148 81.6526 26.492C81.7486 26.38 81.8566 26.324 81.9766 26.324C82.0806 26.324 82.1606 26.372 82.2166 26.468C82.2806 26.564 82.3126 26.696 82.3126 26.864C82.3126 27.168 82.2366 27.416 82.0846 27.608C81.6846 28.104 81.3006 28.444 80.9326 28.628C80.5726 28.804 80.1246 28.9 79.5886 28.916C79.2686 29.188 78.8886 29.324 78.4486 29.324ZM83.5697 29.324C83.1537 29.324 82.8337 29.228 82.6097 29.036C82.3937 28.844 82.2857 28.628 82.2857 28.388C82.2857 28.18 82.3617 28 82.5137 27.848C82.6657 27.696 82.8897 27.62 83.1857 27.62C83.2897 27.62 83.4097 27.632 83.5457 27.656C83.6897 27.672 83.7977 27.684 83.8697 27.692C83.8617 27.484 83.8137 27.288 83.7257 27.104C83.6457 26.92 83.5417 26.744 83.4137 26.576C83.2857 26.4 83.1657 26.248 83.0537 26.12C82.8057 26.592 82.5577 26.984 82.3097 27.296C82.0697 27.608 81.8057 27.904 81.5177 28.184C81.3737 28.328 81.2217 28.4 81.0617 28.4C80.9337 28.4 80.8297 28.356 80.7497 28.268C80.6697 28.172 80.6297 28.056 80.6297 27.92C80.6297 27.76 80.6857 27.612 80.7977 27.476L80.9537 27.284C81.3937 26.74 81.7257 26.292 81.9497 25.94C82.0937 25.708 82.2377 25.432 82.3817 25.112C82.5337 24.792 82.7297 24.356 82.9697 23.804C83.1217 23.452 83.4377 23.276 83.9177 23.276C84.1417 23.276 84.2977 23.296 84.3857 23.336C84.4737 23.376 84.5177 23.44 84.5177 23.528C84.5177 23.576 84.5017 23.652 84.4697 23.756C84.4377 23.86 84.3937 23.964 84.3377 24.068C84.1937 24.356 84.1217 24.6 84.1217 24.8C84.1217 24.92 84.1617 25.052 84.2417 25.196C84.3297 25.34 84.4617 25.52 84.6377 25.736C84.8937 26.072 85.0857 26.36 85.2137 26.6C85.3497 26.832 85.4177 27.088 85.4177 27.368C85.4177 27.704 85.3377 28.024 85.1777 28.328C85.0257 28.624 84.8097 28.864 84.5297 29.048C84.2497 29.232 83.9297 29.324 83.5697 29.324ZM94.5882 26.324C94.6922 26.324 94.7722 26.372 94.8282 26.468C94.8922 26.564 94.9242 26.696 94.9242 26.864C94.9242 27.184 94.8482 27.432 94.6962 27.608C94.3522 28.032 93.9762 28.38 93.5682 28.652C93.1602 28.924 92.6922 29.06 92.1642 29.06C90.5322 29.06 89.7162 27.912 89.7162 25.616C89.7162 25.264 89.7282 24.908 89.7522 24.548H89.2842C89.0442 24.548 88.8802 24.504 88.7922 24.416C88.7122 24.328 88.6722 24.188 88.6722 23.996C88.6722 23.548 88.8522 23.324 89.2122 23.324H89.8962C90.0322 22.444 90.2402 21.64 90.5202 20.912C90.8002 20.184 91.1362 19.604 91.5282 19.172C91.9282 18.74 92.3562 18.524 92.8122 18.524C93.1482 18.524 93.4122 18.672 93.6042 18.968C93.7962 19.264 93.8922 19.636 93.8922 20.084C93.8922 21.324 93.3722 22.404 92.3322 23.324H93.6762C93.8042 23.324 93.8962 23.352 93.9522 23.408C94.0082 23.464 94.0362 23.568 94.0362 23.72C94.0362 24.272 93.5842 24.548 92.6802 24.548H91.2162C91.2002 24.948 91.1922 25.26 91.1922 25.484C91.1922 26.316 91.2882 26.9 91.4802 27.236C91.6802 27.572 91.9922 27.74 92.4162 27.74C92.7602 27.74 93.0642 27.636 93.3282 27.428C93.5922 27.22 93.9042 26.908 94.2642 26.492C94.3602 26.38 94.4682 26.324 94.5882 26.324ZM92.4882 19.676C92.3682 19.676 92.2322 19.828 92.0802 20.132C91.9362 20.428 91.7962 20.844 91.6602 21.38C91.5322 21.908 91.4242 22.496 91.3362 23.144C91.8082 22.736 92.1602 22.28 92.3922 21.776C92.6322 21.264 92.7522 20.8 92.7522 20.384C92.7522 19.912 92.6642 19.676 92.4882 19.676ZM95.9751 29.06C95.5031 29.06 95.0991 28.944 94.7631 28.712C94.4351 28.472 94.1871 28.16 94.0191 27.776C93.8511 27.392 93.7671 26.98 93.7671 26.54C93.7671 25.932 93.8791 25.392 94.1031 24.92C94.3351 24.44 94.6471 24.068 95.0391 23.804C95.4311 23.532 95.8711 23.396 96.3591 23.396C96.8311 23.396 97.2351 23.516 97.5711 23.756C97.9071 23.988 98.1591 24.296 98.3271 24.68C98.4951 25.064 98.5791 25.476 98.5791 25.916C98.5791 26.524 98.4631 27.068 98.2311 27.548C97.9991 28.02 97.6831 28.392 97.2831 28.664C96.8911 28.928 96.4551 29.06 95.9751 29.06ZM96.1071 27.764C96.3791 27.764 96.6071 27.616 96.7911 27.32C96.9831 27.024 97.0791 26.592 97.0791 26.024C97.0791 25.584 96.9991 25.252 96.8391 25.028C96.6791 24.804 96.4871 24.692 96.2631 24.692C95.9751 24.692 95.7351 24.84 95.5431 25.136C95.3591 25.424 95.2671 25.856 95.2671 26.432C95.2671 26.888 95.3471 27.224 95.5071 27.44C95.6671 27.656 95.8671 27.764 96.1071 27.764ZM108.704 26.348C108.808 26.348 108.888 26.4 108.944 26.504C109.008 26.6 109.04 26.724 109.04 26.876C109.04 27.06 109.012 27.204 108.956 27.308C108.9 27.412 108.812 27.504 108.692 27.584L106.388 29.132C106.084 30.788 105.684 32.088 105.188 33.032C104.7 33.984 104.076 34.46 103.316 34.46C102.908 34.46 102.576 34.332 102.32 34.076C102.064 33.828 101.936 33.5 101.936 33.092C101.936 32.716 102.02 32.332 102.188 31.94C102.364 31.548 102.684 31.096 103.148 30.584C103.62 30.08 104.284 29.5 105.14 28.844L105.176 28.568C105.232 28.272 105.296 27.848 105.368 27.296C105.208 27.872 104.984 28.312 104.696 28.616C104.408 28.912 104.104 29.06 103.784 29.06C103.424 29.06 103.128 28.896 102.896 28.568C102.672 28.232 102.56 27.816 102.56 27.32C102.56 26.72 102.6 26.172 102.68 25.676C102.76 25.172 102.892 24.64 103.076 24.08C103.156 23.84 103.268 23.668 103.412 23.564C103.556 23.46 103.784 23.408 104.096 23.408C104.272 23.408 104.392 23.436 104.456 23.492C104.528 23.548 104.564 23.632 104.564 23.744C104.564 23.808 104.52 24.024 104.432 24.392C104.352 24.688 104.288 24.956 104.24 25.196C104.176 25.524 104.12 25.84 104.072 26.144C104.024 26.44 104 26.684 104 26.876C104 27.18 104.084 27.332 104.252 27.332C104.372 27.332 104.52 27.212 104.696 26.972C104.88 26.732 105.072 26.368 105.272 25.88C105.48 25.392 105.68 24.792 105.872 24.08C105.936 23.84 106.032 23.668 106.16 23.564C106.296 23.46 106.496 23.408 106.76 23.408C106.944 23.408 107.072 23.432 107.144 23.48C107.216 23.528 107.252 23.608 107.252 23.72C107.252 23.92 107.148 24.608 106.94 25.784L106.628 27.716C107.244 27.252 107.844 26.828 108.428 26.444C108.532 26.38 108.624 26.348 108.704 26.348ZM103.448 33.296C103.648 33.296 103.872 33.064 104.12 32.6C104.368 32.136 104.616 31.364 104.864 30.284C104.248 30.804 103.8 31.276 103.52 31.7C103.248 32.132 103.112 32.508 103.112 32.828C103.112 32.964 103.136 33.076 103.184 33.164C103.24 33.252 103.328 33.296 103.448 33.296ZM113.655 26.324C113.759 26.324 113.839 26.372 113.895 26.468C113.959 26.564 113.991 26.696 113.991 26.864C113.991 27.184 113.915 27.432 113.763 27.608C113.467 27.968 113.047 28.3 112.503 28.604C111.967 28.908 111.391 29.06 110.775 29.06C109.935 29.06 109.283 28.832 108.819 28.376C108.355 27.92 108.123 27.296 108.123 26.504C108.123 25.952 108.239 25.44 108.471 24.968C108.703 24.488 109.023 24.108 109.431 23.828C109.847 23.548 110.315 23.408 110.835 23.408C111.299 23.408 111.671 23.548 111.951 23.828C112.231 24.1 112.371 24.472 112.371 24.944C112.371 25.496 112.171 25.972 111.771 26.372C111.379 26.764 110.711 27.076 109.767 27.308C109.967 27.676 110.347 27.86 110.907 27.86C111.267 27.86 111.675 27.736 112.131 27.488C112.595 27.232 112.995 26.9 113.331 26.492C113.427 26.38 113.535 26.324 113.655 26.324ZM110.631 24.584C110.335 24.584 110.083 24.756 109.875 25.1C109.675 25.444 109.575 25.86 109.575 26.348V26.372C110.047 26.26 110.419 26.092 110.691 25.868C110.963 25.644 111.099 25.384 111.099 25.088C111.099 24.936 111.055 24.816 110.967 24.728C110.887 24.632 110.775 24.584 110.631 24.584ZM115.246 29.324C114.83 29.324 114.51 29.228 114.286 29.036C114.07 28.844 113.962 28.628 113.962 28.388C113.962 28.18 114.038 28 114.19 27.848C114.342 27.696 114.566 27.62 114.862 27.62C114.966 27.62 115.086 27.632 115.222 27.656C115.366 27.672 115.474 27.684 115.546 27.692C115.538 27.484 115.49 27.288 115.402 27.104C115.322 26.92 115.218 26.744 115.09 26.576C114.962 26.4 114.842 26.248 114.73 26.12C114.482 26.592 114.234 26.984 113.986 27.296C113.746 27.608 113.482 27.904 113.194 28.184C113.05 28.328 112.898 28.4 112.738 28.4C112.61 28.4 112.506 28.356 112.425 28.268C112.345 28.172 112.305 28.056 112.305 27.92C112.305 27.76 112.361 27.612 112.474 27.476L112.63 27.284C113.07 26.74 113.402 26.292 113.626 25.94C113.762 25.708 113.922 25.4 114.106 25.016C114.29 24.624 114.47 24.22 114.646 23.804C114.798 23.452 115.114 23.276 115.594 23.276C115.818 23.276 115.974 23.296 116.062 23.336C116.15 23.376 116.194 23.44 116.194 23.528C116.194 23.576 116.178 23.652 116.146 23.756C116.114 23.86 116.07 23.964 116.014 24.068C115.87 24.356 115.798 24.6 115.798 24.8C115.798 24.92 115.838 25.052 115.918 25.196C116.006 25.34 116.138 25.52 116.314 25.736C116.57 26.072 116.762 26.36 116.89 26.6C117.026 26.832 117.094 27.088 117.094 27.368C117.094 27.448 117.086 27.56 117.07 27.704C117.462 27.552 117.922 27.148 118.45 26.492C118.546 26.38 118.654 26.324 118.773 26.324C118.878 26.324 118.958 26.372 119.014 26.468C119.078 26.564 119.11 26.696 119.11 26.864C119.11 27.168 119.034 27.416 118.882 27.608C118.482 28.104 118.098 28.444 117.73 28.628C117.37 28.804 116.922 28.9 116.386 28.916C116.066 29.188 115.686 29.324 115.246 29.324ZM120.367 29.324C119.951 29.324 119.631 29.228 119.407 29.036C119.191 28.844 119.083 28.628 119.083 28.388C119.083 28.18 119.159 28 119.311 27.848C119.463 27.696 119.687 27.62 119.983 27.62C120.087 27.62 120.207 27.632 120.343 27.656C120.487 27.672 120.595 27.684 120.667 27.692C120.659 27.484 120.611 27.288 120.523 27.104C120.443 26.92 120.339 26.744 120.211 26.576C120.083 26.4 119.963 26.248 119.851 26.12C119.603 26.592 119.355 26.984 119.107 27.296C118.867 27.608 118.603 27.904 118.315 28.184C118.171 28.328 118.019 28.4 117.859 28.4C117.731 28.4 117.627 28.356 117.547 28.268C117.467 28.172 117.427 28.056 117.427 27.92C117.427 27.76 117.483 27.612 117.595 27.476L117.751 27.284C118.191 26.74 118.523 26.292 118.747 25.94C118.891 25.708 119.035 25.432 119.179 25.112C119.331 24.792 119.527 24.356 119.767 23.804C119.919 23.452 120.235 23.276 120.715 23.276C120.939 23.276 121.095 23.296 121.183 23.336C121.271 23.376 121.315 23.44 121.315 23.528C121.315 23.576 121.299 23.652 121.267 23.756C121.235 23.86 121.191 23.964 121.135 24.068C120.991 24.356 120.919 24.6 120.919 24.8C120.919 24.92 120.959 25.052 121.039 25.196C121.127 25.34 121.259 25.52 121.435 25.736C121.691 26.072 121.883 26.36 122.011 26.6C122.147 26.832 122.215 27.088 122.215 27.368C122.215 27.704 122.135 28.024 121.975 28.328C121.823 28.624 121.607 28.864 121.327 29.048C121.047 29.232 120.727 29.324 120.367 29.324Z" fill="#0E1C36"/>
<path d="M40.516 8.812C40.516 7.996 40.7 7.264 41.068 6.616C41.436 5.96 41.936 5.448 42.568 5.08C43.208 4.712 43.916 4.528 44.692 4.528C45.604 4.528 46.4 4.748 47.08 5.188C47.76 5.628 48.256 6.252 48.568 7.06H47.26C47.028 6.556 46.692 6.168 46.252 5.896C45.82 5.624 45.3 5.488 44.692 5.488C44.108 5.488 43.584 5.624 43.12 5.896C42.656 6.168 42.292 6.556 42.028 7.06C41.764 7.556 41.632 8.14 41.632 8.812C41.632 9.476 41.764 10.06 42.028 10.564C42.292 11.06 42.656 11.444 43.12 11.716C43.584 11.988 44.108 12.124 44.692 12.124C45.3 12.124 45.82 11.992 46.252 11.728C46.692 11.456 47.028 11.068 47.26 10.564H48.568C48.256 11.364 47.76 11.984 47.08 12.424C46.4 12.856 45.604 13.072 44.692 13.072C43.916 13.072 43.208 12.892 42.568 12.532C41.936 12.164 41.436 11.656 41.068 11.008C40.7 10.36 40.516 9.628 40.516 8.812ZM51.2855 4.12V13H50.1935V4.12H51.2855ZM58.9787 6.424V13H57.8867V12.028C57.6787 12.364 57.3867 12.628 57.0107 12.82C56.6427 13.004 56.2347 13.096 55.7867 13.096C55.2747 13.096 54.8147 12.992 54.4067 12.784C53.9987 12.568 53.6747 12.248 53.4347 11.824C53.2027 11.4 53.0867 10.884 53.0867 10.276V6.424H54.1667V10.132C54.1667 10.78 54.3307 11.28 54.6587 11.632C54.9867 11.976 55.4347 12.148 56.0027 12.148C56.5867 12.148 57.0467 11.968 57.3827 11.608C57.7187 11.248 57.8867 10.724 57.8867 10.036V6.424H58.9787ZM62.1544 7.324V11.2C62.1544 11.52 62.2224 11.748 62.3584 11.884C62.4944 12.012 62.7304 12.076 63.0664 12.076H63.8704V13H62.8864C62.2784 13 61.8224 12.86 61.5184 12.58C61.2144 12.3 61.0624 11.84 61.0624 11.2V7.324H60.2104V6.424H61.0624V4.768H62.1544V6.424H63.8704V7.324H62.1544ZM66.5255 7.324V11.2C66.5255 11.52 66.5935 11.748 66.7295 11.884C66.8655 12.012 67.1015 12.076 67.4375 12.076H68.2415V13H67.2575C66.6495 13 66.1935 12.86 65.8895 12.58C65.5855 12.3 65.4335 11.84 65.4335 11.2V7.324H64.5815V6.424H65.4335V4.768H66.5255V6.424H68.2415V7.324H66.5255ZM75.5646 9.46C75.5646 9.668 75.5526 9.888 75.5286 10.12H70.2726C70.3126 10.768 70.5326 11.276 70.9326 11.644C71.3406 12.004 71.8326 12.184 72.4086 12.184C72.8806 12.184 73.2726 12.076 73.5846 11.86C73.9046 11.636 74.1286 11.34 74.2566 10.972H75.4326C75.2566 11.604 74.9046 12.12 74.3766 12.52C73.8486 12.912 73.1926 13.108 72.4086 13.108C71.7846 13.108 71.2246 12.968 70.7286 12.688C70.2406 12.408 69.8566 12.012 69.5766 11.5C69.2966 10.98 69.1566 10.38 69.1566 9.7C69.1566 9.02 69.2926 8.424 69.5646 7.912C69.8366 7.4 70.2166 7.008 70.7046 6.736C71.2006 6.456 71.7686 6.316 72.4086 6.316C73.0326 6.316 73.5846 6.452 74.0646 6.724C74.5446 6.996 74.9126 7.372 75.1686 7.852C75.4326 8.324 75.5646 8.86 75.5646 9.46ZM74.4366 9.232C74.4366 8.816 74.3446 8.46 74.1606 8.164C73.9766 7.86 73.7246 7.632 73.4046 7.48C73.0926 7.32 72.7446 7.24 72.3606 7.24C71.8086 7.24 71.3366 7.416 70.9446 7.768C70.5606 8.12 70.3406 8.608 70.2846 9.232H74.4366ZM78.098 7.492C78.29 7.116 78.562 6.824 78.914 6.616C79.274 6.408 79.71 6.304 80.222 6.304V7.432H79.934C78.71 7.432 78.098 8.096 78.098 9.424V13H77.006V6.424H78.098V7.492ZM89.4098 4.636V5.524H85.7738V8.344H88.7258V9.232H85.7738V13H84.6818V4.636H89.4098ZM91.8207 7.492C92.0127 7.116 92.2847 6.824 92.6367 6.616C92.9967 6.408 93.4327 6.304 93.9447 6.304V7.432H93.6567C92.4327 7.432 91.8207 8.096 91.8207 9.424V13H90.7287V6.424H91.8207V7.492ZM101.205 9.46C101.205 9.668 101.193 9.888 101.169 10.12H95.9133C95.9533 10.768 96.1733 11.276 96.5733 11.644C96.9813 12.004 97.4733 12.184 98.0493 12.184C98.5213 12.184 98.9133 12.076 99.2253 11.86C99.5453 11.636 99.7693 11.34 99.8973 10.972H101.073C100.897 11.604 100.545 12.12 100.017 12.52C99.4893 12.912 98.8333 13.108 98.0493 13.108C97.4253 13.108 96.8653 12.968 96.3693 12.688C95.8813 12.408 95.4973 12.012 95.2173 11.5C94.9373 10.98 94.7973 10.38 94.7973 9.7C94.7973 9.02 94.9333 8.424 95.2053 7.912C95.4773 7.4 95.8573 7.008 96.3453 6.736C96.8413 6.456 97.4093 6.316 98.0493 6.316C98.6733 6.316 99.2253 6.452 99.7053 6.724C100.185 6.996 100.553 7.372 100.809 7.852C101.073 8.324 101.205 8.86 101.205 9.46ZM100.077 9.232C100.077 8.816 99.9853 8.46 99.8013 8.164C99.6173 7.86 99.3653 7.632 99.0453 7.48C98.7333 7.32 98.3853 7.24 98.0013 7.24C97.4493 7.24 96.9773 7.416 96.5853 7.768C96.2013 8.12 95.9813 8.608 95.9253 9.232H100.077ZM108.647 9.46C108.647 9.668 108.635 9.888 108.611 10.12H103.355C103.395 10.768 103.615 11.276 104.015 11.644C104.423 12.004 104.915 12.184 105.491 12.184C105.963 12.184 106.355 12.076 106.667 11.86C106.987 11.636 107.211 11.34 107.339 10.972H108.515C108.339 11.604 107.987 12.12 107.459 12.52C106.931 12.912 106.275 13.108 105.491 13.108C104.867 13.108 104.307 12.968 103.811 12.688C103.323 12.408 102.939 12.012 102.659 11.5C102.379 10.98 102.239 10.38 102.239 9.7C102.239 9.02 102.375 8.424 102.647 7.912C102.919 7.4 103.299 7.008 103.787 6.736C104.283 6.456 104.851 6.316 105.491 6.316C106.115 6.316 106.667 6.452 107.147 6.724C107.627 6.996 107.995 7.372 108.251 7.852C108.515 8.324 108.647 8.86 108.647 9.46ZM107.519 9.232C107.519 8.816 107.427 8.46 107.243 8.164C107.059 7.86 106.807 7.632 106.487 7.48C106.175 7.32 105.827 7.24 105.443 7.24C104.891 7.24 104.419 7.416 104.027 7.768C103.643 8.12 103.423 8.608 103.367 9.232H107.519ZM118.015 4.636V5.524H114.379V8.344H117.331V9.232H114.379V13H113.287V4.636H118.015ZM119.898 5.356C119.69 5.356 119.514 5.284 119.37 5.14C119.226 4.996 119.154 4.82 119.154 4.612C119.154 4.404 119.226 4.228 119.37 4.084C119.514 3.94 119.69 3.868 119.898 3.868C120.098 3.868 120.266 3.94 120.402 4.084C120.546 4.228 120.618 4.404 120.618 4.612C120.618 4.82 120.546 4.996 120.402 5.14C120.266 5.284 120.098 5.356 119.898 5.356ZM120.426 6.424V13H119.334V6.424H120.426ZM125.491 6.304C126.291 6.304 126.939 6.548 127.435 7.036C127.931 7.516 128.179 8.212 128.179 9.124V13H127.099V9.28C127.099 8.624 126.935 8.124 126.607 7.78C126.279 7.428 125.831 7.252 125.263 7.252C124.687 7.252 124.227 7.432 123.883 7.792C123.547 8.152 123.379 8.676 123.379 9.364V13H122.287V6.424H123.379V7.36C123.595 7.024 123.887 6.764 124.255 6.58C124.631 6.396 125.043 6.304 125.491 6.304ZM129.555 9.688C129.555 9.016 129.691 8.428 129.963 7.924C130.235 7.412 130.607 7.016 131.079 6.736C131.559 6.456 132.095 6.316 132.687 6.316C133.199 6.316 133.675 6.436 134.115 6.676C134.555 6.908 134.891 7.216 135.123 7.6V4.12H136.227V13H135.123V11.764C134.907 12.156 134.587 12.48 134.163 12.736C133.739 12.984 133.243 13.108 132.675 13.108C132.091 13.108 131.559 12.964 131.079 12.676C130.607 12.388 130.235 11.984 129.963 11.464C129.691 10.944 129.555 10.352 129.555 9.688ZM135.123 9.7C135.123 9.204 135.023 8.772 134.823 8.404C134.623 8.036 134.351 7.756 134.007 7.564C133.671 7.364 133.299 7.264 132.891 7.264C132.483 7.264 132.111 7.36 131.775 7.552C131.439 7.744 131.171 8.024 130.971 8.392C130.771 8.76 130.671 9.192 130.671 9.688C130.671 10.192 130.771 10.632 130.971 11.008C131.171 11.376 131.439 11.66 131.775 11.86C132.111 12.052 132.483 12.148 132.891 12.148C133.299 12.148 133.671 12.052 134.007 11.86C134.351 11.66 134.623 11.376 134.823 11.008C135.023 10.632 135.123 10.196 135.123 9.7ZM140.4 13.108C139.896 13.108 139.444 13.024 139.044 12.856C138.644 12.68 138.328 12.44 138.096 12.136C137.864 11.824 137.736 11.468 137.712 11.068H138.84C138.872 11.396 139.024 11.664 139.296 11.872C139.576 12.08 139.94 12.184 140.388 12.184C140.804 12.184 141.132 12.092 141.372 11.908C141.612 11.724 141.732 11.492 141.732 11.212C141.732 10.924 141.604 10.712 141.348 10.576C141.092 10.432 140.696 10.292 140.16 10.156C139.672 10.028 139.272 9.9 138.96 9.772C138.656 9.636 138.392 9.44 138.168 9.184C137.952 8.92 137.844 8.576 137.844 8.152C137.844 7.816 137.944 7.508 138.144 7.228C138.344 6.948 138.628 6.728 138.996 6.568C139.364 6.4 139.784 6.316 140.256 6.316C140.984 6.316 141.572 6.5 142.02 6.868C142.468 7.236 142.708 7.74 142.74 8.38H141.648C141.624 8.036 141.484 7.76 141.228 7.552C140.98 7.344 140.644 7.24 140.22 7.24C139.828 7.24 139.516 7.324 139.284 7.492C139.052 7.66 138.936 7.88 138.936 8.152C138.936 8.368 139.004 8.548 139.14 8.692C139.284 8.828 139.46 8.94 139.668 9.028C139.884 9.108 140.18 9.2 140.556 9.304C141.028 9.432 141.412 9.56 141.708 9.688C142.004 9.808 142.256 9.992 142.464 10.24C142.68 10.488 142.792 10.812 142.8 11.212C142.8 11.572 142.7 11.896 142.5 12.184C142.3 12.472 142.016 12.7 141.648 12.868C141.288 13.028 140.872 13.108 140.4 13.108Z" fill="#0E1C36"/>
</svg>
