<svg width="144" height="35" viewBox="0 0 144 35" fill="none" xmlns="http://www.w3.org/2000/svg">
<path fill-rule="evenodd" clip-rule="evenodd" d="M2.68149 23.9418C1.75303 22.1242 1.19703 20.1426 1.04538 18.1107C0.888668 16.0793 1.13877 14.0366 1.78137 12.0995C2.42398 10.1624 3.44646 8.3689 4.79031 6.82173C7.50767 3.6955 11.3674 1.76166 15.5214 1.44519C17.5783 1.28784 19.6457 1.53278 21.6055 2.16599C23.5652 2.79921 25.3788 3.80829 26.9426 5.13555C28.5057 6.46101 29.7883 8.07893 30.7167 9.89655C30.7416 9.94531 30.7662 9.99419 30.7906 10.0432C32.5246 13.5291 31.3666 17.4676 30.2677 21.2053L30.2481 21.272C29.9911 22.1461 29.8422 22.9575 29.9089 23.6036C29.9197 23.7073 29.9347 23.8105 29.9498 23.9137C29.9691 24.0458 29.9884 24.1779 29.9986 24.311C30.0739 25.3008 30.5225 26.225 31.2535 26.8965L32.2166 27.7812C32.6864 28.2127 33.1045 28.7795 32.9767 29.4043C32.9112 29.7244 32.7678 30.0239 32.5587 30.2769C32.3497 30.5299 32.0814 30.7288 31.7772 30.8562C30.9365 31.2083 30.089 31.541 29.2043 31.7602L28.8202 31.8553C28.2397 31.9991 27.6482 32.0942 27.0519 32.1396L24.7092 32.3179C24.4744 32.3514 24.2417 32.3736 24.0111 32.3868C23.8406 32.3966 23.6698 32.4066 23.4988 32.4165C19.5682 32.6449 15.5297 32.8795 11.793 31.6721C9.83329 31.0389 8.0197 30.0299 6.45584 28.7027C4.89258 27.3774 3.60995 25.7595 2.68149 23.9418ZM17.5952 21.106C16.8947 21.3962 16.1439 21.5455 15.3856 21.5455C13.8543 21.5455 12.3857 20.9372 11.303 19.8544C10.2202 18.7716 9.61185 17.3031 9.61185 15.7718C9.61185 14.2405 10.2202 12.7719 11.303 11.6891C12.3857 10.6063 13.8543 9.99798 15.3856 9.99798C16.1439 9.99798 16.8947 10.1473 17.5952 10.4375C18.2957 10.7276 18.9322 11.1529 19.4683 11.6891C20.0045 12.2252 20.4298 12.8617 20.7199 13.5622C21.0101 14.2627 21.1594 15.0135 21.1594 15.7718C21.1594 16.53 21.0101 17.2808 20.7199 17.9813C20.4298 18.6818 20.0045 19.3183 19.4683 19.8544C18.9322 20.3906 18.2957 20.8159 17.5952 21.106ZM15.3856 12.8849C15.0066 12.8848 14.6312 12.9593 14.2809 13.1043C13.7533 13.3228 13.3024 13.6929 12.9852 14.1677C12.668 14.6425 12.4987 15.2007 12.4987 15.7718C12.4987 15.8994 12.448 16.0218 12.3578 16.112C12.2676 16.2022 12.1452 16.2529 12.0176 16.2529C11.89 16.2529 11.7676 16.2022 11.6774 16.112C11.5871 16.0218 11.5364 15.8994 11.5364 15.7718C11.5364 14.7509 11.942 13.7718 12.6638 13.05C13.3857 12.3281 14.3648 11.9226 15.3856 11.9226C15.5132 11.9226 15.6356 11.9733 15.7259 12.0635C15.8161 12.1537 15.8668 12.2761 15.8668 12.4037C15.8668 12.5313 15.8161 12.6537 15.7259 12.7439C15.6356 12.8342 15.5132 12.8849 15.3856 12.8849Z" fill="#7A23D3"/>
<path d="M1.04538 18.1107L1.7933 18.0549L1.79316 18.053L1.04538 18.1107ZM2.68149 23.9418L2.01358 24.283L2.01358 24.283L2.68149 23.9418ZM1.78137 12.0995L1.06952 11.8633L1.06952 11.8633L1.78137 12.0995ZM4.79031 6.82173L4.22425 6.32971L4.22408 6.32991L4.79031 6.82173ZM15.5214 1.44519L15.5784 2.19302L15.5786 2.19301L15.5214 1.44519ZM21.6055 2.16599L21.8361 1.45232L21.8361 1.45232L21.6055 2.16599ZM26.9426 5.13555L26.4573 5.70736L26.4575 5.70758L26.9426 5.13555ZM30.7167 9.89655L31.3846 9.55539L31.3846 9.55538L30.7167 9.89655ZM30.7906 10.0432L31.4621 9.70916L31.4621 9.70916L30.7906 10.0432ZM30.2677 21.2053L30.9872 21.4168L30.9872 21.4168L30.2677 21.2053ZM30.2481 21.272L29.5285 21.0604L29.5285 21.0605L30.2481 21.272ZM29.9089 23.6036L29.1629 23.6807L29.1629 23.6807L29.9089 23.6036ZM29.9498 23.9137L29.2077 24.0222L29.2077 24.0222L29.9498 23.9137ZM29.9986 24.311L29.2507 24.3679L29.2507 24.3679L29.9986 24.311ZM31.2535 26.8965L31.7609 26.3441L31.7609 26.3441L31.2535 26.8965ZM32.2166 27.7812L31.7093 28.3335L31.7093 28.3335L32.2166 27.7812ZM32.9767 29.4043L32.2419 29.254L32.2419 29.254L32.9767 29.4043ZM32.5587 30.2769L31.9805 29.7992L31.9805 29.7992L32.5587 30.2769ZM31.7772 30.8562L31.4875 30.1644L31.4875 30.1644L31.7772 30.8562ZM29.2043 31.7602L29.024 31.0322L29.024 31.0322L29.2043 31.7602ZM28.8202 31.8553L29.0005 32.5833L29.0005 32.5833L28.8202 31.8553ZM27.0519 32.1396L26.995 31.3918L26.995 31.3918L27.0519 32.1396ZM24.7092 32.3179L24.6523 31.5701C24.6359 31.5713 24.6195 31.5731 24.6032 31.5754L24.7092 32.3179ZM24.0111 32.3868L24.0541 33.1356L24.0541 33.1356L24.0111 32.3868ZM23.4988 32.4165L23.5423 33.1652L23.5423 33.1652L23.4988 32.4165ZM11.793 31.6721L11.5624 32.3858L11.5624 32.3858L11.793 31.6721ZM6.45584 28.7027L6.94113 28.1309L6.94085 28.1307L6.45584 28.7027ZM11.303 19.8544L11.8333 19.3241L11.8333 19.3241L11.303 19.8544ZM11.303 11.6891L11.8333 12.2194L11.8333 12.2194L11.303 11.6891ZM17.5952 10.4375L17.8822 9.74457L17.8822 9.74457L17.5952 10.4375ZM19.4683 11.6891L18.938 12.2194L18.938 12.2194L19.4683 11.6891ZM20.7199 13.5622L21.4128 13.2752L21.4128 13.2752L20.7199 13.5622ZM14.2809 13.1043L13.9941 12.4113L13.9939 12.4114L14.2809 13.1043ZM15.3856 12.8849L15.3854 13.6349H15.3856V12.8849ZM12.9852 14.1677L13.6088 14.5843L13.6088 14.5843L12.9852 14.1677ZM12.4987 15.7718L13.2487 15.7718L13.2487 15.7717L12.4987 15.7718ZM12.6638 13.05L12.1335 12.5196L12.1335 12.5196L12.6638 13.05ZM0.297459 18.1665C0.456546 20.2981 1.03981 22.3767 2.01358 24.283L3.3494 23.6007C2.46624 21.8717 1.93751 19.9871 1.7933 18.0549L0.297459 18.1665ZM1.06952 11.8633C0.395593 13.8948 0.133211 16.0374 0.2976 18.1684L1.79316 18.053C1.64412 16.1211 1.88194 14.1783 2.49323 12.3356L1.06952 11.8633ZM4.22408 6.32991C2.81556 7.95154 1.74344 9.83182 1.06952 11.8633L2.49323 12.3356C3.10452 10.4929 4.07736 8.78626 5.35654 7.31355L4.22408 6.32991ZM15.4644 0.697357C11.115 1.02871 7.07188 3.05361 4.22425 6.32971L5.35636 7.31375C7.94345 4.3374 11.6199 2.4946 15.5784 2.19302L15.4644 0.697357ZM21.8361 1.45232C19.7834 0.78907 17.6182 0.5326 15.4642 0.697375L15.5786 2.19301C17.5385 2.04308 19.5081 2.27648 21.3749 2.87966L21.8361 1.45232ZM27.4279 4.56374C25.789 3.17272 23.8888 2.11558 21.8361 1.45232L21.3749 2.87966C23.2416 3.48284 24.9686 4.44386 26.4573 5.70736L27.4279 4.56374ZM31.3846 9.55538C30.4109 7.64911 29.0661 5.95282 27.4277 4.56352L26.4575 5.70758C27.9454 6.96919 29.1656 8.50876 30.0488 10.2377L31.3846 9.55538ZM31.4621 9.70916C31.4366 9.65777 31.4107 9.60651 31.3846 9.55539L30.0488 10.2377C30.0725 10.2841 30.0959 10.3306 30.1191 10.3772L31.4621 9.70916ZM30.9872 21.4168C31.5329 19.5608 32.1182 17.5774 32.3369 15.6128C32.557 13.635 32.4135 11.6218 31.4621 9.70916L30.1191 10.3772C30.9017 11.9505 31.0461 13.6494 30.8461 15.4468C30.6445 17.2574 30.1013 19.1121 29.5481 20.9937L30.9872 21.4168ZM30.9676 21.4836L30.9872 21.4168L29.5481 20.9937L29.5285 21.0604L30.9676 21.4836ZM30.655 23.5265C30.6037 23.0307 30.7173 22.3349 30.9676 21.4835L29.5285 21.0605C29.2648 21.9573 29.0806 22.8842 29.1629 23.6807L30.655 23.5265ZM30.6919 23.8052C30.6765 23.6995 30.6638 23.6119 30.655 23.5265L29.1629 23.6807C29.1755 23.8028 29.193 23.9216 29.2077 24.0222L30.6919 23.8052ZM30.7464 24.2541C30.734 24.0908 30.7106 23.933 30.6919 23.8052L29.2077 24.0222C29.2276 24.1585 29.2429 24.265 29.2507 24.3679L30.7464 24.2541ZM31.7609 26.3441C31.1699 25.8013 30.8073 25.0542 30.7464 24.2541L29.2507 24.3679C29.3405 25.5474 29.875 26.6486 30.7462 27.4488L31.7609 26.3441ZM32.724 27.2289L31.7609 26.3441L30.7462 27.4488L31.7093 28.3335L32.724 27.2289ZM33.7115 29.5546C33.9268 28.5021 33.2113 27.6765 32.724 27.2289L31.7093 28.3335C31.9116 28.5194 32.0679 28.7038 32.1603 28.8756C32.2485 29.0395 32.2616 29.1577 32.2419 29.254L33.7115 29.5546ZM33.1369 30.7546C33.4238 30.4074 33.6213 29.9955 33.7115 29.5546L32.2419 29.254C32.2012 29.4532 32.1117 29.6404 31.9805 29.7992L33.1369 30.7546ZM32.067 31.5479C32.4827 31.3738 32.8501 31.1018 33.1369 30.7546L31.9805 29.7992C31.8493 29.9581 31.6802 30.0837 31.4875 30.1644L32.067 31.5479ZM29.3846 32.4882C30.3285 32.2543 31.2204 31.9025 32.067 31.5479L31.4875 30.1644C30.6527 30.514 29.8496 30.8276 29.024 31.0322L29.3846 32.4882ZM29.0005 32.5833L29.3846 32.4882L29.024 31.0322L28.6398 31.1273L29.0005 32.5833ZM27.1088 32.8874C27.7467 32.8389 28.3795 32.7371 29.0005 32.5833L28.6398 31.1273C28.0999 31.2611 27.5497 31.3495 26.995 31.3918L27.1088 32.8874ZM24.7661 33.0658L27.1088 32.8874L26.995 31.3918L24.6523 31.5701L24.7661 33.0658ZM24.0541 33.1356C24.3038 33.1213 24.5576 33.0971 24.8151 33.0604L24.6032 31.5754C24.3913 31.6057 24.1797 31.6259 23.9681 31.6381L24.0541 33.1356ZM23.5423 33.1652C23.7133 33.1553 23.8838 33.1454 24.0541 33.1356L23.9681 31.6381C23.7973 31.6479 23.6262 31.6578 23.4553 31.6678L23.5423 33.1652ZM11.5624 32.3858C15.456 33.6439 19.6396 33.392 23.5423 33.1652L23.4553 31.6678C19.4969 31.8977 15.6034 32.1151 12.0236 30.9585L11.5624 32.3858ZM5.97055 29.2746C7.60952 30.6655 9.50972 31.7226 11.5624 32.3858L12.0236 30.9585C10.1569 30.3553 8.42987 29.3943 6.94113 28.1309L5.97055 29.2746ZM2.01358 24.283C2.98733 26.1893 4.33226 27.8856 5.97083 29.2748L6.94085 28.1307C5.4529 26.8692 4.23256 25.3296 3.3494 23.6007L2.01358 24.283ZM15.3856 22.2955C16.2424 22.2955 17.0907 22.1268 17.8822 21.799L17.3082 20.4131C16.6986 20.6656 16.0454 20.7955 15.3856 20.7955V22.2955ZM10.7726 20.3848C11.9961 21.6082 13.6554 22.2955 15.3856 22.2955V20.7955C14.0532 20.7955 12.7754 20.2663 11.8333 19.3241L10.7726 20.3848ZM8.86185 15.7718C8.86185 17.502 9.54918 19.1613 10.7726 20.3848L11.8333 19.3241C10.8911 18.382 10.3619 17.1042 10.3619 15.7718H8.86185ZM10.7726 11.1587C9.54918 12.3822 8.86185 14.0415 8.86185 15.7718H10.3619C10.3619 14.4394 10.8911 13.1616 11.8333 12.2194L10.7726 11.1587ZM15.3856 9.24798C13.6554 9.24798 11.9961 9.9353 10.7726 11.1587L11.8333 12.2194C12.7754 11.2773 14.0532 10.748 15.3856 10.748V9.24798ZM17.8822 9.74457C17.0907 9.41672 16.2424 9.24798 15.3856 9.24798V10.748C16.0454 10.748 16.6986 10.8779 17.3082 11.1304L17.8822 9.74457ZM19.9986 11.1587C19.3929 10.553 18.6737 10.0724 17.8822 9.74457L17.3082 11.1304C17.9177 11.3829 18.4715 11.7529 18.938 12.2194L19.9986 11.1587ZM21.4128 13.2752C21.085 12.4837 20.6044 11.7645 19.9986 11.1587L18.938 12.2194C19.4045 12.6859 19.7745 13.2397 20.027 13.8492L21.4128 13.2752ZM21.9094 15.7718C21.9094 14.915 21.7407 14.0667 21.4128 13.2752L20.027 13.8492C20.2795 14.4588 20.4094 15.112 20.4094 15.7718H21.9094ZM21.4128 18.2683C21.7407 17.4768 21.9094 16.6285 21.9094 15.7718H20.4094C20.4094 16.4315 20.2795 17.0848 20.027 17.6943L21.4128 18.2683ZM19.9986 20.3848C20.6044 19.779 21.085 19.0598 21.4128 18.2683L20.027 17.6943C19.7745 18.3038 19.4045 18.8576 18.938 19.3241L19.9986 20.3848ZM17.8822 21.799C18.6737 21.4711 19.3929 20.9906 19.9986 20.3848L18.938 19.3241C18.4715 19.7906 17.9177 20.1607 17.3082 20.4131L17.8822 21.799ZM14.5677 13.7973C14.827 13.69 15.1048 13.6348 15.3854 13.6349L15.3858 12.1349C14.9083 12.1347 14.4354 12.2287 13.9941 12.4113L14.5677 13.7973ZM13.6088 14.5843C13.8436 14.2329 14.1774 13.9589 14.5679 13.7972L13.9939 12.4114C13.3293 12.6866 12.7612 13.1529 12.3616 13.751L13.6088 14.5843ZM13.2487 15.7717C13.2487 15.349 13.374 14.9358 13.6088 14.5843L12.3616 13.751C11.9619 14.3492 11.7487 15.0525 11.7487 15.7718L13.2487 15.7717ZM12.8881 16.6423C13.119 16.4114 13.2487 16.0983 13.2487 15.7718H11.7487C11.7487 15.7005 11.7771 15.6321 11.8275 15.5817L12.8881 16.6423ZM12.0176 17.0029C12.3441 17.0029 12.6573 16.8732 12.8881 16.6423L11.8275 15.5817C11.8779 15.5312 11.9463 15.5029 12.0176 15.5029V17.0029ZM11.147 16.6423C11.3779 16.8732 11.6911 17.0029 12.0176 17.0029V15.5029C12.0889 15.5029 12.1573 15.5312 12.2077 15.5817L11.147 16.6423ZM10.7864 15.7718C10.7864 16.0983 10.9162 16.4114 11.147 16.6423L12.2077 15.5817C12.2581 15.6321 12.2864 15.7005 12.2864 15.7718H10.7864ZM12.1335 12.5196C11.271 13.3822 10.7864 14.552 10.7864 15.7718H12.2864C12.2864 14.9498 12.613 14.1615 13.1942 13.5803L12.1335 12.5196ZM15.3856 11.1726C14.1659 11.1726 12.996 11.6571 12.1335 12.5196L13.1942 13.5803C13.7754 12.9991 14.5637 12.6726 15.3856 12.6726V11.1726ZM16.2562 11.5332C16.0253 11.3023 15.7122 11.1726 15.3856 11.1726V12.6726C15.3143 12.6726 15.2459 12.6442 15.1955 12.5938L16.2562 11.5332ZM16.6168 12.4037C16.6168 12.0772 16.4871 11.7641 16.2562 11.5332L15.1955 12.5938C15.1451 12.5434 15.1168 12.475 15.1168 12.4037H16.6168ZM16.2562 13.2743C16.4871 13.0434 16.6168 12.7302 16.6168 12.4037H15.1168C15.1168 12.3324 15.1451 12.264 15.1955 12.2136L16.2562 13.2743ZM15.3856 13.6349C15.7122 13.6349 16.0253 13.5052 16.2562 13.2743L15.1955 12.2136C15.2459 12.1632 15.3143 12.1349 15.3856 12.1349V13.6349Z" fill="#7A23D3"/>
<path fill-rule="evenodd" clip-rule="evenodd" d="M22.0523 19.621C22.0844 19.5662 22.1054 19.5057 22.114 19.4428C22.1226 19.3799 22.1187 19.316 22.1024 19.2547C22.0862 19.1933 22.058 19.1358 22.0195 19.0854C21.9809 19.035 21.9328 18.9927 21.8778 18.9609C21.8229 18.9292 21.7622 18.9087 21.6993 18.9005C21.6364 18.8923 21.5724 18.8967 21.5112 18.9133C21.45 18.9299 21.3926 18.9585 21.3425 18.9974C21.2923 19.0362 21.2504 19.0847 21.219 19.1398C20.6278 20.1638 19.7775 21.014 18.7536 21.6052C18.6984 21.6366 18.65 21.6786 18.6111 21.7287C18.5723 21.7789 18.5437 21.8362 18.5271 21.8974C18.5104 21.9587 18.5061 22.0226 18.5143 22.0855C18.5224 22.1484 18.543 22.2091 18.5747 22.2641C18.6064 22.319 18.6487 22.3672 18.6991 22.4057C18.7495 22.4443 18.8071 22.4724 18.8684 22.4887C18.9298 22.5049 18.9937 22.5088 19.0566 22.5002C19.1195 22.4916 19.18 22.4707 19.2347 22.4386C19.6778 22.1829 20.0943 21.8838 20.478 21.5456L23.2244 24.2929C23.2692 24.3377 23.3223 24.3731 23.3807 24.3974C23.4392 24.4216 23.5018 24.434 23.5651 24.434C23.6283 24.434 23.691 24.4216 23.7494 24.3974C23.8079 24.3731 23.861 24.3377 23.9057 24.2929C23.9505 24.2482 23.986 24.1951 24.0102 24.1366C24.0344 24.0782 24.0468 24.0155 24.0468 23.9523C24.0468 23.889 24.0344 23.8264 24.0102 23.7679C23.986 23.7095 23.9505 23.6564 23.9057 23.6116L21.1584 20.8652C21.4977 20.4813 21.7978 20.0645 22.0543 19.621" fill="white" fill-opacity="0.75"/>
<path d="M64.428 29.06C64.124 29.06 63.908 28.9 63.78 28.58C63.66 28.26 63.6 27.748 63.6 27.044C63.6 26.004 63.748 25.016 64.044 24.08C64.116 23.848 64.232 23.68 64.392 23.576C64.56 23.464 64.792 23.408 65.088 23.408C65.248 23.408 65.36 23.428 65.424 23.468C65.488 23.508 65.52 23.584 65.52 23.696C65.52 23.824 65.46 24.112 65.34 24.56C65.26 24.88 65.196 25.16 65.148 25.4C65.1 25.632 65.06 25.924 65.028 26.276C65.244 25.652 65.5 25.124 65.796 24.692C66.1 24.26 66.408 23.94 66.72 23.732C67.04 23.516 67.34 23.408 67.62 23.408C67.9 23.408 68.096 23.472 68.208 23.6C68.328 23.728 68.388 23.924 68.388 24.188C68.388 24.444 68.312 24.908 68.16 25.58C68.096 25.868 68.052 26.084 68.028 26.228C68.428 25.244 68.872 24.528 69.36 24.08C69.848 23.632 70.304 23.408 70.728 23.408C71.248 23.408 71.508 23.668 71.508 24.188C71.508 24.5 71.42 25.064 71.244 25.88C71.092 26.576 71.016 27.036 71.016 27.26C71.016 27.58 71.132 27.74 71.364 27.74C71.524 27.74 71.712 27.644 71.928 27.452C72.152 27.252 72.448 26.932 72.816 26.492C72.912 26.38 73.02 26.324 73.14 26.324C73.244 26.324 73.324 26.372 73.38 26.468C73.444 26.564 73.476 26.696 73.476 26.864C73.476 27.184 73.4 27.432 73.248 27.608C72.904 28.032 72.532 28.38 72.132 28.652C71.74 28.924 71.292 29.06 70.788 29.06C70.38 29.06 70.072 28.944 69.864 28.712C69.656 28.472 69.552 28.128 69.552 27.68C69.552 27.456 69.608 27.056 69.72 26.48C69.824 25.976 69.876 25.628 69.876 25.436C69.876 25.308 69.832 25.244 69.744 25.244C69.64 25.244 69.492 25.38 69.3 25.652C69.108 25.916 68.916 26.268 68.724 26.708C68.532 27.148 68.376 27.612 68.256 28.1C68.168 28.484 68.064 28.74 67.944 28.868C67.832 28.996 67.648 29.06 67.392 29.06C67.128 29.06 66.928 28.936 66.792 28.688C66.664 28.432 66.6 28.124 66.6 27.764C66.6 27.46 66.64 27.02 66.72 26.444C66.784 25.932 66.816 25.596 66.816 25.436C66.816 25.308 66.772 25.244 66.684 25.244C66.564 25.244 66.412 25.388 66.228 25.676C66.044 25.964 65.864 26.332 65.688 26.78C65.52 27.228 65.384 27.668 65.28 28.1C65.192 28.476 65.088 28.732 64.968 28.868C64.856 28.996 64.676 29.06 64.428 29.06ZM77.8577 26.324C77.9617 26.324 78.0417 26.372 78.0977 26.468C78.1617 26.564 78.1937 26.696 78.1937 26.864C78.1937 27.184 78.1177 27.432 77.9657 27.608C77.6697 27.968 77.2497 28.3 76.7057 28.604C76.1697 28.908 75.5937 29.06 74.9777 29.06C74.1377 29.06 73.4857 28.832 73.0217 28.376C72.5577 27.92 72.3257 27.296 72.3257 26.504C72.3257 25.952 72.4417 25.44 72.6737 24.968C72.9057 24.488 73.2257 24.108 73.6337 23.828C74.0497 23.548 74.5177 23.408 75.0377 23.408C75.5017 23.408 75.8737 23.548 76.1537 23.828C76.4337 24.1 76.5737 24.472 76.5737 24.944C76.5737 25.496 76.3737 25.972 75.9737 26.372C75.5817 26.764 74.9137 27.076 73.9697 27.308C74.1697 27.676 74.5497 27.86 75.1097 27.86C75.4697 27.86 75.8777 27.736 76.3337 27.488C76.7977 27.232 77.1977 26.9 77.5337 26.492C77.6297 26.38 77.7377 26.324 77.8577 26.324ZM74.8337 24.584C74.5377 24.584 74.2857 24.756 74.0777 25.1C73.8777 25.444 73.7777 25.86 73.7777 26.348V26.372C74.2497 26.26 74.6217 26.092 74.8937 25.868C75.1657 25.644 75.3017 25.384 75.3017 25.088C75.3017 24.936 75.2577 24.816 75.1697 24.728C75.0897 24.632 74.9777 24.584 74.8337 24.584ZM79.4486 29.324C79.0326 29.324 78.7126 29.228 78.4886 29.036C78.2726 28.844 78.1646 28.628 78.1646 28.388C78.1646 28.18 78.2406 28 78.3926 27.848C78.5446 27.696 78.7686 27.62 79.0646 27.62C79.1686 27.62 79.2886 27.632 79.4246 27.656C79.5686 27.672 79.6766 27.684 79.7486 27.692C79.7406 27.484 79.6926 27.288 79.6046 27.104C79.5246 26.92 79.4206 26.744 79.2926 26.576C79.1646 26.4 79.0446 26.248 78.9326 26.12C78.6846 26.592 78.4366 26.984 78.1886 27.296C77.9486 27.608 77.6846 27.904 77.3966 28.184C77.2526 28.328 77.1006 28.4 76.9406 28.4C76.8126 28.4 76.7086 28.356 76.6286 28.268C76.5486 28.172 76.5086 28.056 76.5086 27.92C76.5086 27.76 76.5646 27.612 76.6766 27.476L76.8326 27.284C77.2726 26.74 77.6046 26.292 77.8286 25.94C77.9646 25.708 78.1246 25.4 78.3086 25.016C78.4926 24.624 78.6726 24.22 78.8486 23.804C79.0006 23.452 79.3166 23.276 79.7966 23.276C80.0206 23.276 80.1766 23.296 80.2646 23.336C80.3526 23.376 80.3966 23.44 80.3966 23.528C80.3966 23.576 80.3806 23.652 80.3486 23.756C80.3166 23.86 80.2726 23.964 80.2166 24.068C80.0726 24.356 80.0006 24.6 80.0006 24.8C80.0006 24.92 80.0406 25.052 80.1206 25.196C80.2086 25.34 80.3406 25.52 80.5166 25.736C80.7726 26.072 80.9646 26.36 81.0926 26.6C81.2286 26.832 81.2966 27.088 81.2966 27.368C81.2966 27.448 81.2886 27.56 81.2726 27.704C81.6646 27.552 82.1246 27.148 82.6526 26.492C82.7486 26.38 82.8566 26.324 82.9766 26.324C83.0806 26.324 83.1606 26.372 83.2166 26.468C83.2806 26.564 83.3126 26.696 83.3126 26.864C83.3126 27.168 83.2366 27.416 83.0846 27.608C82.6846 28.104 82.3006 28.444 81.9326 28.628C81.5726 28.804 81.1246 28.9 80.5886 28.916C80.2686 29.188 79.8886 29.324 79.4486 29.324ZM84.5697 29.324C84.1537 29.324 83.8337 29.228 83.6097 29.036C83.3937 28.844 83.2857 28.628 83.2857 28.388C83.2857 28.18 83.3617 28 83.5137 27.848C83.6657 27.696 83.8897 27.62 84.1857 27.62C84.2897 27.62 84.4097 27.632 84.5457 27.656C84.6897 27.672 84.7977 27.684 84.8697 27.692C84.8617 27.484 84.8137 27.288 84.7257 27.104C84.6457 26.92 84.5417 26.744 84.4137 26.576C84.2857 26.4 84.1657 26.248 84.0537 26.12C83.8057 26.592 83.5577 26.984 83.3097 27.296C83.0697 27.608 82.8057 27.904 82.5177 28.184C82.3737 28.328 82.2217 28.4 82.0617 28.4C81.9337 28.4 81.8297 28.356 81.7497 28.268C81.6697 28.172 81.6297 28.056 81.6297 27.92C81.6297 27.76 81.6857 27.612 81.7977 27.476L81.9537 27.284C82.3937 26.74 82.7257 26.292 82.9497 25.94C83.0937 25.708 83.2377 25.432 83.3817 25.112C83.5337 24.792 83.7297 24.356 83.9697 23.804C84.1217 23.452 84.4377 23.276 84.9177 23.276C85.1417 23.276 85.2977 23.296 85.3857 23.336C85.4737 23.376 85.5177 23.44 85.5177 23.528C85.5177 23.576 85.5017 23.652 85.4697 23.756C85.4377 23.86 85.3937 23.964 85.3377 24.068C85.1937 24.356 85.1217 24.6 85.1217 24.8C85.1217 24.92 85.1617 25.052 85.2417 25.196C85.3297 25.34 85.4617 25.52 85.6377 25.736C85.8937 26.072 86.0857 26.36 86.2137 26.6C86.3497 26.832 86.4177 27.088 86.4177 27.368C86.4177 27.704 86.3377 28.024 86.1777 28.328C86.0257 28.624 85.8097 28.864 85.5297 29.048C85.2497 29.232 84.9297 29.324 84.5697 29.324ZM95.5882 26.324C95.6922 26.324 95.7722 26.372 95.8282 26.468C95.8922 26.564 95.9242 26.696 95.9242 26.864C95.9242 27.184 95.8482 27.432 95.6962 27.608C95.3522 28.032 94.9762 28.38 94.5682 28.652C94.1602 28.924 93.6922 29.06 93.1642 29.06C91.5322 29.06 90.7162 27.912 90.7162 25.616C90.7162 25.264 90.7282 24.908 90.7522 24.548H90.2842C90.0442 24.548 89.8802 24.504 89.7922 24.416C89.7122 24.328 89.6722 24.188 89.6722 23.996C89.6722 23.548 89.8522 23.324 90.2122 23.324H90.8962C91.0322 22.444 91.2402 21.64 91.5202 20.912C91.8002 20.184 92.1362 19.604 92.5282 19.172C92.9282 18.74 93.3562 18.524 93.8122 18.524C94.1482 18.524 94.4122 18.672 94.6042 18.968C94.7962 19.264 94.8922 19.636 94.8922 20.084C94.8922 21.324 94.3722 22.404 93.3322 23.324H94.6762C94.8042 23.324 94.8962 23.352 94.9522 23.408C95.0082 23.464 95.0362 23.568 95.0362 23.72C95.0362 24.272 94.5842 24.548 93.6802 24.548H92.2162C92.2002 24.948 92.1922 25.26 92.1922 25.484C92.1922 26.316 92.2882 26.9 92.4802 27.236C92.6802 27.572 92.9922 27.74 93.4162 27.74C93.7602 27.74 94.0642 27.636 94.3282 27.428C94.5922 27.22 94.9042 26.908 95.2642 26.492C95.3602 26.38 95.4682 26.324 95.5882 26.324ZM93.4882 19.676C93.3682 19.676 93.2322 19.828 93.0802 20.132C92.9362 20.428 92.7962 20.844 92.6602 21.38C92.5322 21.908 92.4242 22.496 92.3362 23.144C92.8082 22.736 93.1602 22.28 93.3922 21.776C93.6322 21.264 93.7522 20.8 93.7522 20.384C93.7522 19.912 93.6642 19.676 93.4882 19.676ZM96.9751 29.06C96.5031 29.06 96.0991 28.944 95.7631 28.712C95.4351 28.472 95.1871 28.16 95.0191 27.776C94.8511 27.392 94.7671 26.98 94.7671 26.54C94.7671 25.932 94.8791 25.392 95.1031 24.92C95.3351 24.44 95.6471 24.068 96.0391 23.804C96.4311 23.532 96.8711 23.396 97.3591 23.396C97.8311 23.396 98.2351 23.516 98.5711 23.756C98.9071 23.988 99.1591 24.296 99.3271 24.68C99.4951 25.064 99.5791 25.476 99.5791 25.916C99.5791 26.524 99.4631 27.068 99.2311 27.548C98.9991 28.02 98.6831 28.392 98.2831 28.664C97.8911 28.928 97.4551 29.06 96.9751 29.06ZM97.1071 27.764C97.3791 27.764 97.6071 27.616 97.7911 27.32C97.9831 27.024 98.0791 26.592 98.0791 26.024C98.0791 25.584 97.9991 25.252 97.8391 25.028C97.6791 24.804 97.4871 24.692 97.2631 24.692C96.9751 24.692 96.7351 24.84 96.5431 25.136C96.3591 25.424 96.2671 25.856 96.2671 26.432C96.2671 26.888 96.3471 27.224 96.5071 27.44C96.6671 27.656 96.8671 27.764 97.1071 27.764ZM109.704 26.348C109.808 26.348 109.888 26.4 109.944 26.504C110.008 26.6 110.04 26.724 110.04 26.876C110.04 27.06 110.012 27.204 109.956 27.308C109.9 27.412 109.812 27.504 109.692 27.584L107.388 29.132C107.084 30.788 106.684 32.088 106.188 33.032C105.7 33.984 105.076 34.46 104.316 34.46C103.908 34.46 103.576 34.332 103.32 34.076C103.064 33.828 102.936 33.5 102.936 33.092C102.936 32.716 103.02 32.332 103.188 31.94C103.364 31.548 103.684 31.096 104.148 30.584C104.62 30.08 105.284 29.5 106.14 28.844L106.176 28.568C106.232 28.272 106.296 27.848 106.368 27.296C106.208 27.872 105.984 28.312 105.696 28.616C105.408 28.912 105.104 29.06 104.784 29.06C104.424 29.06 104.128 28.896 103.896 28.568C103.672 28.232 103.56 27.816 103.56 27.32C103.56 26.72 103.6 26.172 103.68 25.676C103.76 25.172 103.892 24.64 104.076 24.08C104.156 23.84 104.268 23.668 104.412 23.564C104.556 23.46 104.784 23.408 105.096 23.408C105.272 23.408 105.392 23.436 105.456 23.492C105.528 23.548 105.564 23.632 105.564 23.744C105.564 23.808 105.52 24.024 105.432 24.392C105.352 24.688 105.288 24.956 105.24 25.196C105.176 25.524 105.12 25.84 105.072 26.144C105.024 26.44 105 26.684 105 26.876C105 27.18 105.084 27.332 105.252 27.332C105.372 27.332 105.52 27.212 105.696 26.972C105.88 26.732 106.072 26.368 106.272 25.88C106.48 25.392 106.68 24.792 106.872 24.08C106.936 23.84 107.032 23.668 107.16 23.564C107.296 23.46 107.496 23.408 107.76 23.408C107.944 23.408 108.072 23.432 108.144 23.48C108.216 23.528 108.252 23.608 108.252 23.72C108.252 23.92 108.148 24.608 107.94 25.784L107.628 27.716C108.244 27.252 108.844 26.828 109.428 26.444C109.532 26.38 109.624 26.348 109.704 26.348ZM104.448 33.296C104.648 33.296 104.872 33.064 105.12 32.6C105.368 32.136 105.616 31.364 105.864 30.284C105.248 30.804 104.8 31.276 104.52 31.7C104.248 32.132 104.112 32.508 104.112 32.828C104.112 32.964 104.136 33.076 104.184 33.164C104.24 33.252 104.328 33.296 104.448 33.296ZM114.655 26.324C114.759 26.324 114.839 26.372 114.895 26.468C114.959 26.564 114.991 26.696 114.991 26.864C114.991 27.184 114.915 27.432 114.763 27.608C114.467 27.968 114.047 28.3 113.503 28.604C112.967 28.908 112.391 29.06 111.775 29.06C110.935 29.06 110.283 28.832 109.819 28.376C109.355 27.92 109.123 27.296 109.123 26.504C109.123 25.952 109.239 25.44 109.471 24.968C109.703 24.488 110.023 24.108 110.431 23.828C110.847 23.548 111.315 23.408 111.835 23.408C112.299 23.408 112.671 23.548 112.951 23.828C113.231 24.1 113.371 24.472 113.371 24.944C113.371 25.496 113.171 25.972 112.771 26.372C112.379 26.764 111.711 27.076 110.767 27.308C110.967 27.676 111.347 27.86 111.907 27.86C112.267 27.86 112.675 27.736 113.131 27.488C113.595 27.232 113.995 26.9 114.331 26.492C114.427 26.38 114.535 26.324 114.655 26.324ZM111.631 24.584C111.335 24.584 111.083 24.756 110.875 25.1C110.675 25.444 110.575 25.86 110.575 26.348V26.372C111.047 26.26 111.419 26.092 111.691 25.868C111.963 25.644 112.099 25.384 112.099 25.088C112.099 24.936 112.055 24.816 111.967 24.728C111.887 24.632 111.775 24.584 111.631 24.584ZM116.246 29.324C115.83 29.324 115.51 29.228 115.286 29.036C115.07 28.844 114.962 28.628 114.962 28.388C114.962 28.18 115.038 28 115.19 27.848C115.342 27.696 115.566 27.62 115.862 27.62C115.966 27.62 116.086 27.632 116.222 27.656C116.366 27.672 116.474 27.684 116.546 27.692C116.538 27.484 116.49 27.288 116.402 27.104C116.322 26.92 116.218 26.744 116.09 26.576C115.962 26.4 115.842 26.248 115.73 26.12C115.482 26.592 115.234 26.984 114.986 27.296C114.746 27.608 114.482 27.904 114.194 28.184C114.05 28.328 113.898 28.4 113.738 28.4C113.61 28.4 113.506 28.356 113.425 28.268C113.345 28.172 113.305 28.056 113.305 27.92C113.305 27.76 113.361 27.612 113.474 27.476L113.63 27.284C114.07 26.74 114.402 26.292 114.626 25.94C114.762 25.708 114.922 25.4 115.106 25.016C115.29 24.624 115.47 24.22 115.646 23.804C115.798 23.452 116.114 23.276 116.594 23.276C116.818 23.276 116.974 23.296 117.062 23.336C117.15 23.376 117.194 23.44 117.194 23.528C117.194 23.576 117.178 23.652 117.146 23.756C117.114 23.86 117.07 23.964 117.014 24.068C116.87 24.356 116.798 24.6 116.798 24.8C116.798 24.92 116.838 25.052 116.918 25.196C117.006 25.34 117.138 25.52 117.314 25.736C117.57 26.072 117.762 26.36 117.89 26.6C118.026 26.832 118.094 27.088 118.094 27.368C118.094 27.448 118.086 27.56 118.07 27.704C118.462 27.552 118.922 27.148 119.45 26.492C119.546 26.38 119.654 26.324 119.773 26.324C119.878 26.324 119.958 26.372 120.014 26.468C120.078 26.564 120.11 26.696 120.11 26.864C120.11 27.168 120.034 27.416 119.882 27.608C119.482 28.104 119.098 28.444 118.73 28.628C118.37 28.804 117.922 28.9 117.386 28.916C117.066 29.188 116.686 29.324 116.246 29.324ZM121.367 29.324C120.951 29.324 120.631 29.228 120.407 29.036C120.191 28.844 120.083 28.628 120.083 28.388C120.083 28.18 120.159 28 120.311 27.848C120.463 27.696 120.687 27.62 120.983 27.62C121.087 27.62 121.207 27.632 121.343 27.656C121.487 27.672 121.595 27.684 121.667 27.692C121.659 27.484 121.611 27.288 121.523 27.104C121.443 26.92 121.339 26.744 121.211 26.576C121.083 26.4 120.963 26.248 120.851 26.12C120.603 26.592 120.355 26.984 120.107 27.296C119.867 27.608 119.603 27.904 119.315 28.184C119.171 28.328 119.019 28.4 118.859 28.4C118.731 28.4 118.627 28.356 118.547 28.268C118.467 28.172 118.427 28.056 118.427 27.92C118.427 27.76 118.483 27.612 118.595 27.476L118.751 27.284C119.191 26.74 119.523 26.292 119.747 25.94C119.891 25.708 120.035 25.432 120.179 25.112C120.331 24.792 120.527 24.356 120.767 23.804C120.919 23.452 121.235 23.276 121.715 23.276C121.939 23.276 122.095 23.296 122.183 23.336C122.271 23.376 122.315 23.44 122.315 23.528C122.315 23.576 122.299 23.652 122.267 23.756C122.235 23.86 122.191 23.964 122.135 24.068C121.991 24.356 121.919 24.6 121.919 24.8C121.919 24.92 121.959 25.052 122.039 25.196C122.127 25.34 122.259 25.52 122.435 25.736C122.691 26.072 122.883 26.36 123.011 26.6C123.147 26.832 123.215 27.088 123.215 27.368C123.215 27.704 123.135 28.024 122.975 28.328C122.823 28.624 122.607 28.864 122.327 29.048C122.047 29.232 121.727 29.324 121.367 29.324Z" fill="#0E1C36"/>
<path d="M41.576 8.8C41.576 7.976 41.756 7.24 42.116 6.592C42.476 5.936 42.968 5.428 43.592 5.068C44.216 4.7 44.912 4.516 45.68 4.516C46.616 4.516 47.416 4.74 48.08 5.188C48.752 5.628 49.24 6.252 49.544 7.06H48.56C48.32 6.492 47.952 6.048 47.456 5.728C46.968 5.408 46.376 5.248 45.68 5.248C45.064 5.248 44.508 5.392 44.012 5.68C43.524 5.968 43.14 6.384 42.86 6.928C42.58 7.464 42.44 8.088 42.44 8.8C42.44 9.512 42.58 10.136 42.86 10.672C43.14 11.208 43.524 11.62 44.012 11.908C44.508 12.196 45.064 12.34 45.68 12.34C46.376 12.34 46.968 12.184 47.456 11.872C47.952 11.552 48.32 11.112 48.56 10.552H49.544C49.24 11.352 48.752 11.972 48.08 12.412C47.408 12.852 46.608 13.072 45.68 13.072C44.912 13.072 44.216 12.892 43.592 12.532C42.968 12.164 42.476 11.656 42.116 11.008C41.756 10.36 41.576 9.624 41.576 8.8ZM52.0578 4.12V13H51.2178V4.12H52.0578ZM59.636 6.448V13H58.796V11.848C58.604 12.256 58.308 12.568 57.908 12.784C57.508 13 57.06 13.108 56.564 13.108C55.78 13.108 55.14 12.868 54.644 12.388C54.148 11.9 53.9 11.196 53.9 10.276V6.448H54.728V10.18C54.728 10.892 54.904 11.436 55.256 11.812C55.616 12.188 56.104 12.376 56.72 12.376C57.352 12.376 57.856 12.176 58.232 11.776C58.608 11.376 58.796 10.788 58.796 10.012V6.448H59.636ZM62.6458 7.156V11.224C62.6458 11.624 62.7218 11.9 62.8738 12.052C63.0258 12.204 63.2938 12.28 63.6777 12.28H64.4458V13H63.5458C62.9538 13 62.5138 12.864 62.2258 12.592C61.9378 12.312 61.7938 11.856 61.7938 11.224V7.156H60.8818V6.448H61.7938V4.804H62.6458V6.448H64.4458V7.156H62.6458ZM66.9231 7.156V11.224C66.9231 11.624 66.9991 11.9 67.1511 12.052C67.3031 12.204 67.5711 12.28 67.9551 12.28H68.7231V13H67.8231C67.2311 13 66.7911 12.864 66.5031 12.592C66.2151 12.312 66.0711 11.856 66.0711 11.224V7.156H65.1591V6.448H66.0711V4.804H66.9231V6.448H68.7231V7.156H66.9231ZM76.0364 9.388C76.0364 9.676 76.0284 9.896 76.0124 10.048H70.5764C70.6004 10.544 70.7204 10.968 70.9364 11.32C71.1524 11.672 71.4364 11.94 71.7884 12.124C72.1404 12.3 72.5244 12.388 72.9404 12.388C73.4844 12.388 73.9404 12.256 74.3084 11.992C74.6844 11.728 74.9324 11.372 75.0524 10.924H75.9404C75.7804 11.564 75.4364 12.088 74.9084 12.496C74.3884 12.896 73.7324 13.096 72.9404 13.096C72.3244 13.096 71.7724 12.96 71.2844 12.688C70.7964 12.408 70.4124 12.016 70.1324 11.512C69.8604 11 69.7244 10.404 69.7244 9.724C69.7244 9.044 69.8604 8.448 70.1324 7.936C70.4044 7.424 70.7844 7.032 71.2724 6.76C71.7604 6.488 72.3164 6.352 72.9404 6.352C73.5644 6.352 74.1084 6.488 74.5724 6.76C75.0444 7.032 75.4044 7.4 75.6524 7.864C75.9084 8.32 76.0364 8.828 76.0364 9.388ZM75.1844 9.364C75.1924 8.876 75.0924 8.46 74.8844 8.116C74.6844 7.772 74.4084 7.512 74.0564 7.336C73.7044 7.16 73.3204 7.072 72.9044 7.072C72.2804 7.072 71.7484 7.272 71.3084 7.672C70.8684 8.072 70.6244 8.636 70.5764 9.364H75.1844ZM78.4133 7.612C78.5973 7.204 78.8773 6.888 79.2533 6.664C79.6373 6.44 80.1053 6.328 80.6573 6.328V7.204H80.4293C79.8213 7.204 79.3333 7.368 78.9653 7.696C78.5973 8.024 78.4133 8.572 78.4133 9.34V13H77.5733V6.448H78.4133V7.612ZM89.7499 4.612V5.308H86.0539V8.44H89.1739V9.136H86.0539V13H85.2139V4.612H89.7499ZM91.9719 7.612C92.1559 7.204 92.4359 6.888 92.8119 6.664C93.1959 6.44 93.6639 6.328 94.2159 6.328V7.204H93.9879C93.3799 7.204 92.8919 7.368 92.5239 7.696C92.1559 8.024 91.9719 8.572 91.9719 9.34V13H91.1319V6.448H91.9719V7.612ZM101.408 9.388C101.408 9.676 101.4 9.896 101.384 10.048H95.9475C95.9715 10.544 96.0915 10.968 96.3075 11.32C96.5235 11.672 96.8075 11.94 97.1595 12.124C97.5115 12.3 97.8955 12.388 98.3115 12.388C98.8555 12.388 99.3115 12.256 99.6795 11.992C100.056 11.728 100.304 11.372 100.424 10.924H101.312C101.152 11.564 100.808 12.088 100.28 12.496C99.7595 12.896 99.1035 13.096 98.3115 13.096C97.6955 13.096 97.1435 12.96 96.6555 12.688C96.1675 12.408 95.7835 12.016 95.5035 11.512C95.2315 11 95.0955 10.404 95.0955 9.724C95.0955 9.044 95.2315 8.448 95.5035 7.936C95.7755 7.424 96.1555 7.032 96.6435 6.76C97.1315 6.488 97.6875 6.352 98.3115 6.352C98.9355 6.352 99.4795 6.488 99.9435 6.76C100.416 7.032 100.776 7.4 101.024 7.864C101.28 8.32 101.408 8.828 101.408 9.388ZM100.556 9.364C100.564 8.876 100.464 8.46 100.256 8.116C100.056 7.772 99.7795 7.512 99.4275 7.336C99.0755 7.16 98.6915 7.072 98.2755 7.072C97.6515 7.072 97.1195 7.272 96.6795 7.672C96.2395 8.072 95.9955 8.636 95.9475 9.364H100.556ZM108.872 9.388C108.872 9.676 108.864 9.896 108.848 10.048H103.412C103.436 10.544 103.556 10.968 103.772 11.32C103.988 11.672 104.272 11.94 104.624 12.124C104.976 12.3 105.36 12.388 105.776 12.388C106.32 12.388 106.776 12.256 107.144 11.992C107.52 11.728 107.768 11.372 107.888 10.924H108.776C108.616 11.564 108.272 12.088 107.744 12.496C107.224 12.896 106.568 13.096 105.776 13.096C105.16 13.096 104.608 12.96 104.12 12.688C103.632 12.408 103.248 12.016 102.968 11.512C102.696 11 102.56 10.404 102.56 9.724C102.56 9.044 102.696 8.448 102.968 7.936C103.24 7.424 103.62 7.032 104.108 6.76C104.596 6.488 105.152 6.352 105.776 6.352C106.4 6.352 106.944 6.488 107.408 6.76C107.88 7.032 108.24 7.4 108.488 7.864C108.744 8.32 108.872 8.828 108.872 9.388ZM108.02 9.364C108.028 8.876 107.928 8.46 107.72 8.116C107.52 7.772 107.244 7.512 106.892 7.336C106.54 7.16 106.156 7.072 105.74 7.072C105.116 7.072 104.584 7.272 104.144 7.672C103.704 8.072 103.46 8.636 103.412 9.364H108.02ZM118.238 4.612V5.308H114.542V8.44H117.662V9.136H114.542V13H113.702V4.612H118.238ZM120.04 5.212C119.872 5.212 119.728 5.152 119.608 5.032C119.488 4.912 119.428 4.764 119.428 4.588C119.428 4.412 119.488 4.268 119.608 4.156C119.728 4.036 119.872 3.976 120.04 3.976C120.208 3.976 120.352 4.036 120.472 4.156C120.592 4.268 120.652 4.412 120.652 4.588C120.652 4.764 120.592 4.912 120.472 5.032C120.352 5.152 120.208 5.212 120.04 5.212ZM120.46 6.448V13H119.62V6.448H120.46ZM125.434 6.328C126.218 6.328 126.858 6.572 127.354 7.06C127.85 7.54 128.098 8.24 128.098 9.16V13H127.27V9.256C127.27 8.544 127.09 8 126.73 7.624C126.378 7.248 125.894 7.06 125.278 7.06C124.646 7.06 124.142 7.26 123.766 7.66C123.39 8.06 123.202 8.648 123.202 9.424V13H122.362V6.448H123.202V7.564C123.41 7.164 123.71 6.86 124.102 6.652C124.494 6.436 124.938 6.328 125.434 6.328ZM129.572 9.712C129.572 9.04 129.708 8.452 129.98 7.948C130.252 7.436 130.624 7.044 131.096 6.772C131.576 6.492 132.116 6.352 132.716 6.352C133.292 6.352 133.812 6.492 134.276 6.772C134.74 7.052 135.08 7.416 135.296 7.864V4.12H136.136V13H135.296V11.536C135.096 11.992 134.768 12.368 134.312 12.664C133.856 12.952 133.32 13.096 132.704 13.096C132.104 13.096 131.564 12.956 131.084 12.676C130.612 12.396 130.24 12 129.968 11.488C129.704 10.976 129.572 10.384 129.572 9.712ZM135.296 9.724C135.296 9.196 135.188 8.732 134.972 8.332C134.756 7.932 134.46 7.624 134.084 7.408C133.716 7.192 133.308 7.084 132.86 7.084C132.396 7.084 131.98 7.188 131.612 7.396C131.244 7.604 130.952 7.908 130.736 8.308C130.528 8.7 130.424 9.168 130.424 9.712C130.424 10.248 130.528 10.72 130.736 11.128C130.952 11.528 131.244 11.836 131.612 12.052C131.98 12.26 132.396 12.364 132.86 12.364C133.308 12.364 133.716 12.256 134.084 12.04C134.46 11.824 134.756 11.516 134.972 11.116C135.188 10.716 135.296 10.252 135.296 9.724ZM140.31 13.096C139.558 13.096 138.942 12.924 138.462 12.58C137.99 12.228 137.726 11.752 137.67 11.152H138.534C138.574 11.52 138.746 11.82 139.05 12.052C139.362 12.276 139.778 12.388 140.298 12.388C140.754 12.388 141.11 12.28 141.366 12.064C141.63 11.848 141.762 11.58 141.762 11.26C141.762 11.036 141.69 10.852 141.546 10.708C141.402 10.564 141.218 10.452 140.994 10.372C140.778 10.284 140.482 10.192 140.106 10.096C139.618 9.968 139.222 9.84 138.918 9.712C138.614 9.584 138.354 9.396 138.138 9.148C137.93 8.892 137.826 8.552 137.826 8.128C137.826 7.808 137.922 7.512 138.114 7.24C138.306 6.968 138.578 6.752 138.93 6.592C139.282 6.432 139.682 6.352 140.13 6.352C140.834 6.352 141.402 6.532 141.834 6.892C142.266 7.244 142.498 7.732 142.53 8.356H141.69C141.666 7.972 141.514 7.664 141.234 7.432C140.962 7.192 140.586 7.072 140.106 7.072C139.682 7.072 139.338 7.172 139.074 7.372C138.81 7.572 138.678 7.82 138.678 8.116C138.678 8.372 138.754 8.584 138.906 8.752C139.066 8.912 139.262 9.04 139.494 9.136C139.726 9.224 140.038 9.324 140.43 9.436C140.902 9.564 141.278 9.688 141.558 9.808C141.838 9.928 142.078 10.104 142.278 10.336C142.478 10.568 142.582 10.876 142.59 11.26C142.59 11.612 142.494 11.928 142.302 12.208C142.11 12.48 141.842 12.696 141.498 12.856C141.154 13.016 140.758 13.096 140.31 13.096Z" fill="#0E1C36"/>
</svg>
