<svg width="76" height="38" viewBox="0 0 76 38" fill="none" xmlns="http://www.w3.org/2000/svg">
<path d="M27.7802 12.0646H28.988C28.7631 10.7402 28.3131 9.3796 27.6381 7.98289C26.9631 6.57415 26.0513 5.26774 24.9027 4.06369C23.7541 2.84759 22.3627 1.86629 20.7286 1.11977C19.0944 0.373258 17.2057 0 15.0624 0C12.0784 0 9.45545 0.794677 7.19372 2.38403C4.93199 3.97338 3.16761 6.19487 1.90056 9.04848C0.633521 11.9021 0 15.2193 0 19C0 22.7807 0.633521 26.0979 1.90056 28.9515C3.16761 31.8051 4.93199 34.0266 7.19372 35.616C9.45545 37.2053 12.0784 38 15.0624 38C17.2057 38 19.0944 37.6267 20.7286 36.8802C22.3627 36.1217 23.7541 35.1343 24.9027 33.9183C26.0513 32.7022 26.9631 31.3958 27.6381 29.9991C28.3131 28.5903 28.7631 27.2357 28.988 25.9354H27.7802C27.5552 27.1755 27.1171 28.4398 26.4658 29.7281C25.8145 31.0044 24.9501 32.1844 23.8725 33.2681C22.7949 34.3397 21.522 35.2066 20.0536 35.8688C18.5853 36.519 16.9215 36.8441 15.0624 36.8441C12.5757 36.8441 10.2725 36.1638 8.15289 34.8032C6.0451 33.4427 4.34584 31.4379 3.05511 28.789C1.77623 26.1401 1.13679 22.8771 1.13679 19C1.13679 15.1711 1.77623 11.9322 3.05511 9.28327C4.34584 6.62231 6.0451 4.60551 8.15289 3.23289C10.2725 1.84823 12.5757 1.15589 15.0624 1.15589C16.9215 1.15589 18.5853 1.48701 20.0536 2.14924C21.522 2.81147 22.7949 3.68441 23.8725 4.76806C24.9501 5.85171 25.8145 7.03169 26.4658 8.30799C27.1171 9.58428 27.5552 10.8365 27.7802 12.0646Z" fill="#1C1B1F"/>
<path d="M32.7046 0.505704V37.4943H33.8414V19.5779H50.538V18.4221H33.8414V1.6616H52.2431V0.505704H32.7046Z" fill="#1C1B1F"/>
<path fill-rule="evenodd" clip-rule="evenodd" d="M56.4615 0.505704V37.4943H57.5983V21.5202C57.8047 21.8688 58.0603 22.1979 58.3649 22.5077C59.3081 23.4668 60.4333 23.946 61.7404 23.9456C63.0475 23.9451 64.173 23.465 65.1168 22.5052C65.5057 22.1098 65.8281 21.6363 66.0839 21.0848C66.3112 20.5948 66.4537 20.0925 66.5114 19.5779H74.2948V18.4221H66.4955C66.4355 17.9978 66.3086 17.5638 66.1146 17.1201C65.869 16.5582 65.5364 16.0639 65.1168 15.6373C64.173 14.6775 63.0466 14.1982 61.7379 14.1995C60.4291 14.2007 59.3031 14.6808 58.3599 15.6398C58.0575 15.9474 57.8036 16.274 57.5983 16.6198V1.6616H76V0.505704H56.4615ZM57.5983 19.7435C57.7306 20.6185 58.1286 21.3933 58.7923 22.0682C59.6212 22.911 60.6037 23.3325 61.7396 23.3325C62.8756 23.3325 63.8581 22.911 64.687 22.0682C65.3923 21.3511 65.7975 20.521 65.9027 19.5779H57.5983V19.7435ZM65.8844 18.4221H57.5983V18.3989C57.7306 17.524 58.1286 16.7491 58.7923 16.0743C59.6212 15.2314 60.6037 14.81 61.7396 14.81C62.8756 14.81 63.8581 15.2314 64.687 16.0743C65.3565 16.7551 65.7557 17.5377 65.8844 18.4221Z" fill="#1C1B1F"/>
</svg>
