<svg width="143" height="35" fill="none" xmlns="http://www.w3.org/2000/svg"><path d="M22.102 10.93c.635 4.136-1.98 7.688-6.118 8.31a7.603 7.603 0 0 1-8.642-6.361c-.635-4.137 1.98-7.689 6.118-8.311a1.512 1.512 0 0 0 1.27-1.725A1.523 1.523 0 0 0 13 1.57c-5.794.871-9.544 5.965-8.655 11.756.89 5.791 6.304 9.778 12.098 8.906 5.794-.872 9.544-5.966 8.655-11.757a1.523 1.523 0 0 0-1.73-1.273 1.512 1.512 0 0 0-1.27 1.725l.004.002Z" fill="#fff"/><path fill-rule="evenodd" clip-rule="evenodd" d="M16.63 17.86a6.075 6.075 0 1 0-3.146-11.737A6.075 6.075 0 0 0 16.63 17.86Zm-3.422-8.278c.317-.243.678-.42 1.063-.524a.506.506 0 1 0-.262-.978 4.05 4.05 0 0 0-2.864 4.96.506.506 0 1 0 .978-.262 3.037 3.037 0 0 1 1.085-3.196Zm13.269 11.541a1.254 1.254 0 1 0-1.73-1.817 17.567 17.567 0 0 1-7.983 4.352 1.256 1.256 0 0 0-.726 1.963 1.254 1.254 0 0 0 1.316.476 20.08 20.08 0 0 0 3.768-1.318l4.848 8.895a1.256 1.256 0 1 0 2.206-1.203l-4.851-8.893a20.074 20.074 0 0 0 3.157-2.453" fill="#fff"/><path d="M63.428 29.06c-.304 0-.52-.16-.648-.48-.12-.32-.18-.832-.18-1.536 0-1.04.148-2.028.444-2.964.072-.232.188-.4.348-.504.168-.112.4-.168.696-.168.16 0 .272.02.336.06.064.04.096.116.096.228 0 .128-.06.416-.18.864-.08.32-.144.6-.192.84a8.035 8.035 0 0 0-.12.876c.216-.624.472-1.152.768-1.584.304-.432.612-.752.924-.96.32-.216.62-.324.9-.324s.476.064.588.192c.12.128.18.324.18.588 0 .256-.076.72-.228 1.392a13.55 13.55 0 0 0-.132.648c.4-.984.844-1.7 1.332-2.148.488-.448.944-.672 1.368-.672.52 0 .78.26.78.78 0 .312-.088.876-.264 1.692-.152.696-.228 1.156-.228 1.38 0 .32.116.48.348.48.16 0 .348-.096.564-.288.224-.2.52-.52.888-.96.096-.112.204-.168.324-.168.104 0 .184.048.24.144a.707.707 0 0 1 .096.396c0 .32-.076.568-.228.744a5.239 5.239 0 0 1-1.116 1.044 2.3 2.3 0 0 1-1.344.408c-.408 0-.716-.116-.924-.348-.208-.24-.312-.584-.312-1.032 0-.224.056-.624.168-1.2.104-.504.156-.852.156-1.044 0-.128-.044-.192-.132-.192-.104 0-.252.136-.444.408a5.686 5.686 0 0 0-.576 1.056 8.62 8.62 0 0 0-.468 1.392c-.088.384-.192.64-.312.768-.112.128-.296.192-.552.192-.264 0-.464-.124-.6-.372-.128-.256-.192-.564-.192-.924 0-.304.04-.744.12-1.32.064-.512.096-.848.096-1.008 0-.128-.044-.192-.132-.192-.12 0-.272.144-.456.432a6.465 6.465 0 0 0-.54 1.104c-.168.448-.304.888-.408 1.32-.088.376-.192.632-.312.768-.112.128-.292.192-.54.192Zm13.43-2.736c.104 0 .184.048.24.144a.707.707 0 0 1 .096.396c0 .32-.076.568-.228.744-.296.36-.716.692-1.26.996a3.446 3.446 0 0 1-1.728.456c-.84 0-1.492-.228-1.956-.684-.464-.456-.696-1.08-.696-1.872 0-.552.116-1.064.348-1.536.232-.48.552-.86.96-1.14.416-.28.884-.42 1.404-.42.464 0 .836.14 1.116.42.28.272.42.644.42 1.116 0 .552-.2 1.028-.6 1.428-.392.392-1.06.704-2.004.936.2.368.58.552 1.14.552.36 0 .768-.124 1.224-.372a4.117 4.117 0 0 0 1.2-.996c.096-.112.204-.168.324-.168Zm-3.024-1.74c-.296 0-.548.172-.756.516-.2.344-.3.76-.3 1.248v.024c.472-.112.844-.28 1.116-.504.272-.224.408-.484.408-.78a.486.486 0 0 0-.132-.36.413.413 0 0 0-.336-.144Zm4.615 4.74c-.416 0-.736-.096-.96-.288-.216-.192-.324-.408-.324-.648 0-.208.076-.388.228-.54.152-.152.376-.228.672-.228.104 0 .224.012.36.036l.324.036a1.48 1.48 0 0 0-.144-.588 2.544 2.544 0 0 0-.312-.528 6.526 6.526 0 0 0-.36-.456 7.522 7.522 0 0 1-.744 1.176c-.24.312-.504.608-.792.888-.144.144-.296.216-.456.216a.402.402 0 0 1-.312-.132.526.526 0 0 1-.12-.348c0-.16.056-.308.168-.444l.156-.192c.44-.544.772-.992.996-1.344.136-.232.296-.54.48-.924.184-.392.364-.796.54-1.212.152-.352.468-.528.948-.528.224 0 .38.02.468.06.088.04.132.104.132.192a.883.883 0 0 1-.048.228 1.734 1.734 0 0 1-.132.312c-.144.288-.216.532-.216.732 0 .12.04.252.12.396.088.144.22.324.396.54.256.336.448.624.576.864.136.232.204.488.204.768 0 .08-.008.192-.024.336.392-.152.852-.556 1.38-1.212.096-.112.204-.168.324-.168.104 0 .184.048.24.144a.707.707 0 0 1 .096.396c0 .304-.076.552-.228.744-.4.496-.784.836-1.152 1.02-.36.176-.808.272-1.344.288-.32.272-.7.408-1.14.408Zm5.12 0c-.415 0-.735-.096-.96-.288-.215-.192-.323-.408-.323-.648 0-.208.076-.388.228-.54.152-.152.376-.228.672-.228.104 0 .224.012.36.036l.324.036a1.48 1.48 0 0 0-.144-.588 2.544 2.544 0 0 0-.312-.528 6.526 6.526 0 0 0-.36-.456 7.522 7.522 0 0 1-.744 1.176c-.24.312-.504.608-.792.888-.144.144-.296.216-.456.216a.402.402 0 0 1-.312-.132.526.526 0 0 1-.12-.348c0-.16.056-.308.168-.444l.156-.192c.44-.544.772-.992.996-1.344.144-.232.288-.508.432-.828.152-.32.348-.756.588-1.308.152-.352.468-.528.948-.528.224 0 .38.02.468.06.088.04.132.104.132.192a.883.883 0 0 1-.048.228 1.734 1.734 0 0 1-.132.312c-.144.288-.216.532-.216.732 0 .12.04.252.12.396.088.144.22.324.396.54.256.336.448.624.576.864.136.232.204.488.204.768 0 .336-.08.656-.24.96a1.871 1.871 0 0 1-.648.72c-.28.184-.6.276-.96.276Zm11.02-3c.103 0 .183.048.24.144a.707.707 0 0 1 .095.396c0 .32-.076.568-.228.744-.344.424-.72.772-1.128 1.044a2.472 2.472 0 0 1-1.404.408c-1.632 0-2.448-1.148-2.448-3.444 0-.352.012-.708.036-1.068h-.468c-.24 0-.404-.044-.492-.132-.08-.088-.12-.228-.12-.42 0-.448.18-.672.54-.672h.684c.136-.88.344-1.684.624-2.412s.616-1.308 1.008-1.74c.4-.432.828-.648 1.284-.648.336 0 .6.148.792.444.192.296.288.668.288 1.116 0 1.24-.52 2.32-1.56 3.24h1.344c.128 0 .22.028.276.084.056.056.084.16.084.312 0 .552-.452.828-1.356.828h-1.464c-.016.4-.024.712-.024.936 0 .832.096 1.416.288 1.752.2.336.512.504.936.504.344 0 .648-.104.912-.312.264-.208.576-.52.936-.936.096-.112.204-.168.324-.168Zm-2.1-6.648c-.12 0-.257.152-.409.456-.144.296-.284.712-.42 1.248a17.545 17.545 0 0 0-.324 1.764 4.047 4.047 0 0 0 1.056-1.368c.24-.512.36-.976.36-1.392 0-.472-.088-.708-.264-.708Zm3.486 9.384c-.472 0-.876-.116-1.212-.348a2.258 2.258 0 0 1-.744-.936 3.05 3.05 0 0 1-.252-1.236c0-.608.112-1.148.336-1.62.232-.48.544-.852.936-1.116a2.262 2.262 0 0 1 1.32-.408c.472 0 .876.12 1.212.36.336.232.588.54.756.924.168.384.252.796.252 1.236 0 .608-.116 1.152-.348 1.632a2.822 2.822 0 0 1-.948 1.116 2.29 2.29 0 0 1-1.308.396Zm.132-1.296c.272 0 .5-.148.684-.444.192-.296.288-.728.288-1.296 0-.44-.08-.772-.24-.996-.16-.224-.352-.336-.576-.336-.288 0-.528.148-.72.444-.184.288-.276.72-.276 1.296 0 .456.08.792.24 1.008.16.216.36.324.6.324Zm12.597-1.416c.104 0 .184.052.24.156.064.096.096.22.096.372a.92.92 0 0 1-.084.432.783.783 0 0 1-.264.276l-2.304 1.548c-.304 1.656-.704 2.956-1.2 3.9-.488.952-1.112 1.428-1.872 1.428-.408 0-.74-.128-.996-.384-.256-.248-.384-.576-.384-.984 0-.376.084-.76.252-1.152.176-.392.496-.844.96-1.356.472-.504 1.136-1.084 1.992-1.74l.036-.276c.056-.296.12-.72.192-1.272-.16.576-.384 1.016-.672 1.32-.288.296-.592.444-.912.444-.36 0-.656-.164-.888-.492-.224-.336-.336-.752-.336-1.248 0-.6.04-1.148.12-1.644.08-.504.212-1.036.396-1.596.08-.24.192-.412.336-.516.144-.104.372-.156.684-.156.176 0 .296.028.36.084.072.056.108.14.108.252 0 .064-.044.28-.132.648-.08.296-.144.564-.192.804-.064.328-.12.644-.168.948-.048.296-.072.54-.072.732 0 .304.084.456.252.456.12 0 .268-.12.444-.36.184-.24.376-.604.576-1.092.208-.488.408-1.088.6-1.8.064-.24.16-.412.288-.516.136-.104.336-.156.6-.156.184 0 .312.024.384.072.072.048.108.128.108.24 0 .2-.104.888-.312 2.064l-.312 1.932a34.54 34.54 0 0 1 1.8-1.272.545.545 0 0 1 .276-.096Zm-5.256 6.948c.2 0 .424-.232.672-.696.248-.464.496-1.236.744-2.316-.616.52-1.064.992-1.344 1.416-.272.432-.408.808-.408 1.128 0 .136.024.248.072.336.056.088.144.132.264.132Zm10.207-6.972c.104 0 .184.048.24.144a.707.707 0 0 1 .096.396c0 .32-.076.568-.228.744-.296.36-.716.692-1.26.996a3.446 3.446 0 0 1-1.728.456c-.84 0-1.492-.228-1.956-.684-.464-.456-.696-1.08-.696-1.872 0-.552.116-1.064.348-1.536.232-.48.552-.86.96-1.14.416-.28.884-.42 1.404-.42.464 0 .836.14 1.116.42.28.272.42.644.42 1.116 0 .552-.2 1.028-.6 1.428-.392.392-1.06.704-2.004.936.2.368.58.552 1.14.552.36 0 .768-.124 1.224-.372a4.117 4.117 0 0 0 1.2-.996c.096-.112.204-.168.324-.168Zm-3.024-1.74c-.296 0-.548.172-.756.516-.2.344-.3.76-.3 1.248v.024c.472-.112.844-.28 1.116-.504.272-.224.408-.484.408-.78a.486.486 0 0 0-.132-.36.413.413 0 0 0-.336-.144Zm4.615 4.74c-.416 0-.736-.096-.96-.288-.216-.192-.324-.408-.324-.648 0-.208.076-.388.228-.54.152-.152.376-.228.672-.228.104 0 .224.012.36.036l.324.036a1.48 1.48 0 0 0-.144-.588 2.544 2.544 0 0 0-.312-.528 6.526 6.526 0 0 0-.36-.456 7.522 7.522 0 0 1-.744 1.176c-.24.312-.504.608-.792.888-.144.144-.296.216-.456.216a.406.406 0 0 1-.313-.132.526.526 0 0 1-.12-.348.68.68 0 0 1 .169-.444l.156-.192c.44-.544.772-.992.996-1.344.136-.232.296-.54.48-.924.184-.392.364-.796.54-1.212.152-.352.468-.528.948-.528.224 0 .38.02.468.06.088.04.132.104.132.192a.883.883 0 0 1-.048.228 1.734 1.734 0 0 1-.132.312c-.144.288-.216.532-.216.732 0 .12.04.252.12.396.088.144.22.324.396.54.256.336.448.624.576.864.136.232.204.488.204.768 0 .08-.008.192-.024.336.392-.152.852-.556 1.38-1.212.096-.112.204-.168.323-.168.105 0 .185.048.241.144a.707.707 0 0 1 .096.396c0 .304-.076.552-.228.744-.4.496-.784.836-1.152 1.02-.36.176-.808.272-1.344.288-.32.272-.7.408-1.14.408Zm5.121 0c-.416 0-.736-.096-.96-.288-.216-.192-.324-.408-.324-.648 0-.208.076-.388.228-.54.152-.152.376-.228.672-.228.104 0 .224.012.36.036l.324.036a1.48 1.48 0 0 0-.144-.588 2.544 2.544 0 0 0-.312-.528 6.526 6.526 0 0 0-.36-.456 7.522 7.522 0 0 1-.744 1.176c-.24.312-.504.608-.792.888-.144.144-.296.216-.456.216a.402.402 0 0 1-.312-.132.526.526 0 0 1-.12-.348c0-.16.056-.308.168-.444l.156-.192c.44-.544.772-.992.996-1.344.144-.232.288-.508.432-.828.152-.32.348-.756.588-1.308.152-.352.468-.528.948-.528.224 0 .38.02.468.06.088.04.132.104.132.192a.883.883 0 0 1-.048.228 1.734 1.734 0 0 1-.132.312c-.144.288-.216.532-.216.732 0 .12.04.252.12.396.088.144.22.324.396.54.256.336.448.624.576.864.136.232.204.488.204.768 0 .336-.08.656-.24.96a1.871 1.871 0 0 1-.648.72c-.28.184-.6.276-.96.276ZM40.516 8.812c0-.816.184-1.548.552-2.196a4.012 4.012 0 0 1 1.5-1.536 4.185 4.185 0 0 1 2.124-.552c.912 0 1.708.22 2.388.66.68.44 1.176 1.064 1.488 1.872H47.26a2.614 2.614 0 0 0-1.008-1.164c-.432-.272-.952-.408-1.56-.408a3.05 3.05 0 0 0-1.572.408c-.464.272-.828.66-1.092 1.164-.264.496-.396 1.08-.396 1.752 0 .664.132 1.248.396 1.752.264.496.628.88 1.092 1.152a3.05 3.05 0 0 0 1.572.408c.608 0 1.128-.132 1.56-.396.44-.272.776-.66 1.008-1.164h1.308c-.312.8-.808 1.42-1.488 1.86-.68.432-1.476.648-2.388.648-.776 0-1.484-.18-2.124-.54a4.035 4.035 0 0 1-1.5-1.524c-.368-.648-.552-1.38-.552-2.196Zm10.77-4.692V13h-1.093V4.12h1.093Zm7.693 2.304V13h-1.092v-.972c-.208.336-.5.6-.876.792a2.698 2.698 0 0 1-1.224.276c-.512 0-.972-.104-1.38-.312a2.388 2.388 0 0 1-.972-.96c-.232-.424-.348-.94-.348-1.548V6.424h1.08v3.708c0 .648.164 1.148.492 1.5.328.344.776.516 1.344.516.584 0 1.044-.18 1.38-.54.336-.36.504-.884.504-1.572V6.424h1.092Zm3.175.9V11.2c0 .32.068.548.204.684.136.128.372.192.708.192h.804V13h-.984c-.608 0-1.064-.14-1.368-.42-.304-.28-.456-.74-.456-1.38V7.324h-.852v-.9h.852V4.768h1.092v1.656h1.716v.9h-1.716Zm4.371 0V11.2c0 .32.069.548.204.684.136.128.373.192.709.192h.803V13h-.984c-.608 0-1.064-.14-1.368-.42-.303-.28-.456-.74-.456-1.38V7.324h-.852v-.9h.852V4.768h1.092v1.656h1.716v.9h-1.716Zm9.04 2.136c0 .208-.012.428-.036.66h-5.256c.04.648.26 1.156.66 1.524.408.36.9.54 1.476.54.472 0 .864-.108 1.176-.324.32-.224.544-.52.672-.888h1.176a2.856 2.856 0 0 1-1.056 1.548c-.528.392-1.184.588-1.968.588-.624 0-1.184-.14-1.68-.42a2.995 2.995 0 0 1-1.152-1.188c-.28-.52-.42-1.12-.42-1.8 0-.68.136-1.276.408-1.788a2.836 2.836 0 0 1 1.14-1.176c.496-.28 1.064-.42 1.704-.42.624 0 1.176.136 1.656.408.48.272.848.648 1.104 1.128.264.472.396 1.008.396 1.608Zm-1.128-.228c0-.416-.092-.772-.276-1.068a1.737 1.737 0 0 0-.756-.684c-.312-.16-.66-.24-1.044-.24-.552 0-1.024.176-1.416.528-.384.352-.604.84-.66 1.464h4.152Zm3.661-1.74c.192-.376.464-.668.816-.876.36-.208.796-.312 1.308-.312v1.128h-.288c-1.224 0-1.836.664-1.836 1.992V13h-1.092V6.424h1.092v1.068ZM89.41 4.636v.888h-3.636v2.82h2.952v.888h-2.952V13h-1.092V4.636h4.728Zm2.41 2.856c.193-.376.465-.668.817-.876.36-.208.796-.312 1.308-.312v1.128h-.288c-1.224 0-1.836.664-1.836 1.992V13h-1.092V6.424h1.092v1.068Zm9.385 1.968c0 .208-.012.428-.036.66h-5.256c.04.648.26 1.156.66 1.524.408.36.9.54 1.476.54.472 0 .864-.108 1.176-.324.32-.224.544-.52.672-.888h1.176a2.856 2.856 0 0 1-1.056 1.548c-.528.392-1.184.588-1.968.588-.624 0-1.184-.14-1.68-.42a2.995 2.995 0 0 1-1.152-1.188c-.28-.52-.42-1.12-.42-1.8 0-.68.136-1.276.408-1.788a2.836 2.836 0 0 1 1.14-1.176c.496-.28 1.064-.42 1.704-.42.624 0 1.176.136 1.656.408.48.272.848.648 1.104 1.128.264.472.396 1.008.396 1.608Zm-1.128-.228c0-.416-.092-.772-.276-1.068a1.737 1.737 0 0 0-.756-.684c-.312-.16-.66-.24-1.044-.24-.552 0-1.024.176-1.416.528-.384.352-.604.84-.66 1.464h4.152Zm8.57.228c0 .208-.012.428-.036.66h-5.256c.04.648.26 1.156.66 1.524.408.36.9.54 1.476.54.472 0 .864-.108 1.176-.324.32-.224.544-.52.672-.888h1.176a2.856 2.856 0 0 1-1.056 1.548c-.528.392-1.184.588-1.968.588-.624 0-1.184-.14-1.68-.42a2.995 2.995 0 0 1-1.152-1.188c-.28-.52-.42-1.12-.42-1.8 0-.68.136-1.276.408-1.788a2.836 2.836 0 0 1 1.14-1.176c.496-.28 1.064-.42 1.704-.42.624 0 1.176.136 1.656.408.48.272.848.648 1.104 1.128.264.472.396 1.008.396 1.608Zm-1.128-.228c0-.416-.092-.772-.276-1.068a1.737 1.737 0 0 0-.756-.684c-.312-.16-.66-.24-1.044-.24-.552 0-1.024.176-1.416.528-.384.352-.604.84-.66 1.464h4.152Zm10.496-4.596v.888h-3.636v2.82h2.952v.888h-2.952V13h-1.092V4.636h4.728Zm1.883.72a.718.718 0 0 1-.528-.216.718.718 0 0 1-.216-.528c0-.208.072-.384.216-.528a.718.718 0 0 1 .528-.216c.2 0 .368.072.504.216.144.144.216.32.216.528a.718.718 0 0 1-.216.528.666.666 0 0 1-.504.216Zm.528 1.068V13h-1.092V6.424h1.092Zm5.065-.12c.8 0 1.448.244 1.944.732.496.48.744 1.176.744 2.088V13h-1.08V9.28c0-.656-.164-1.156-.492-1.5-.328-.352-.776-.528-1.344-.528-.576 0-1.036.18-1.38.54-.336.36-.504.884-.504 1.572V13h-1.092V6.424h1.092v.936c.216-.336.508-.596.876-.78a2.774 2.774 0 0 1 1.236-.276Zm4.064 3.384c0-.672.136-1.26.408-1.764a2.964 2.964 0 0 1 1.116-1.188c.48-.28 1.016-.42 1.608-.42.512 0 .988.12 1.428.36.44.232.776.54 1.008.924V4.12h1.104V13h-1.104v-1.236a2.598 2.598 0 0 1-.96.972c-.424.248-.92.372-1.488.372a3.043 3.043 0 0 1-1.596-.432 3.03 3.03 0 0 1-1.116-1.212c-.272-.52-.408-1.112-.408-1.776Zm5.568.012c0-.496-.1-.928-.3-1.296a2.065 2.065 0 0 0-.816-.84 2.14 2.14 0 0 0-1.116-.3c-.408 0-.78.096-1.116.288a2.09 2.09 0 0 0-.804.84c-.2.368-.3.8-.3 1.296 0 .504.1.944.3 1.32.2.368.468.652.804.852a2.21 2.21 0 0 0 1.116.288c.408 0 .78-.096 1.116-.288.344-.2.616-.484.816-.852.2-.376.3-.812.3-1.308Zm5.277 3.408c-.504 0-.956-.084-1.356-.252a2.356 2.356 0 0 1-.948-.72 1.946 1.946 0 0 1-.384-1.068h1.128c.032.328.184.596.456.804.28.208.644.312 1.092.312.416 0 .744-.092.984-.276.24-.184.36-.416.36-.696 0-.288-.128-.5-.384-.636-.256-.144-.652-.284-1.188-.42a9.777 9.777 0 0 1-1.2-.384 2.279 2.279 0 0 1-.792-.588c-.216-.264-.324-.608-.324-1.032 0-.336.1-.644.3-.924.2-.28.484-.5.852-.66a3.003 3.003 0 0 1 1.26-.252c.728 0 1.316.184 1.764.552.448.368.688.872.72 1.512h-1.092a1.12 1.12 0 0 0-.42-.828c-.248-.208-.584-.312-1.008-.312-.392 0-.704.084-.936.252a.779.779 0 0 0-.348.66c0 .216.068.396.204.54.144.136.32.248.528.336.216.08.512.172.888.276.472.128.856.256 1.152.384.296.12.548.304.756.552.216.248.328.572.336.972 0 .36-.1.684-.3.972-.2.288-.484.516-.852.684-.36.16-.776.24-1.248.24Z" fill="#fff"/></svg>