<svg width="125" height="100" viewBox="0 0 125 100" fill="none" xmlns="http://www.w3.org/2000/svg">
<path d="M0 8C0 3.58172 3.58172 0 8 0H93.1006C97.5188 0 101.101 3.58172 101.101 8V92C101.101 96.4183 97.5188 100 93.1006 100H8C3.58172 100 0 96.4183 0 92V8Z" fill="#F1CD0E" fill-opacity="0.1"/>
<path d="M0.5 8C0.5 3.85786 3.85786 0.5 8 0.5H93.1006C97.2427 0.5 100.601 3.85786 100.601 8V92C100.601 96.1421 97.2427 99.5 93.1006 99.5H8C3.85786 99.5 0.5 96.1421 0.5 92V8Z" stroke="#F1CD0E" stroke-opacity="0.3"/>
<path opacity="0.4" d="M87.4615 27.5748C87.5365 28.4748 87.4615 29.4123 87.2365 30.3498L74.5991 81.0872C73.6991 84.8747 70.3241 87.4998 66.4241 87.4998H17.149C11.4865 87.4998 7.47408 81.9498 9.12408 76.5123L24.9115 25.7747C25.999 22.2497 29.2616 19.8499 32.9366 19.8499H79.0616C82.6616 19.8499 85.5866 21.9873 86.8241 24.9873C87.1991 25.7748 87.3865 26.6748 87.4615 27.5748Z" fill="#F1CD0E"/>
<path d="M91.2125 78.575C91.5875 83.4125 87.7625 87.5 82.925 87.5H66.425C70.325 87.5 73.7 84.8749 74.6 81.0874L87.2375 30.35C87.4625 29.4125 87.5375 28.4751 87.4625 27.5751L87.5 27.5L91.2125 78.575Z" fill="#F1CD0E"/>
<path d="M41.3 31.7374C41.075 31.7374 40.85 31.6999 40.625 31.6624C39.125 31.2874 38.1876 29.7875 38.5626 28.25L42.4625 12.0499C42.8375 10.5499 44.3375 9.64999 45.875 9.98749C47.375 10.3625 48.3126 11.8624 47.9376 13.3999L44.0375 29.5999C43.7375 30.8749 42.575 31.7374 41.3 31.7374Z" fill="#F1CD0E"/>
<path d="M66.425 31.775C66.2375 31.775 66.0125 31.7749 65.825 31.6999C64.325 31.3624 63.3501 29.8624 63.6501 28.3624L67.175 12.0875C67.5125 10.55 69.0125 9.61242 70.5125 9.91242C72.0125 10.2499 72.9875 11.75 72.6875 13.25L69.1624 29.5249C68.8999 30.8749 67.7375 31.775 66.425 31.775Z" fill="#F1CD0E"/>
<path d="M63.875 52.8125H33.875C32.3375 52.8125 31.0625 51.5375 31.0625 50C31.0625 48.4625 32.3375 47.1875 33.875 47.1875H63.875C65.4125 47.1875 66.6875 48.4625 66.6875 50C66.6875 51.5375 65.4125 52.8125 63.875 52.8125Z" fill="#F1CD0E"/>
<path d="M60.125 67.8125H30.125C28.5875 67.8125 27.3125 66.5375 27.3125 65C27.3125 63.4625 28.5875 62.1875 30.125 62.1875H60.125C61.6625 62.1875 62.9375 63.4625 62.9375 65C62.9375 66.5375 61.6625 67.8125 60.125 67.8125Z" fill="#F1CD0E"/>
<path d="M86.9465 52.3704V61.0704L124.796 58.8687V50.3516L86.9465 52.3704Z" fill="#F1CD0E"/>
<path d="M124.817 60.3888C124.125 60.7928 123.45 61.1778 122.757 61.5817C122.439 61.7656 122.326 62.1142 122.139 62.3892C121.802 62.8848 121.503 63.4173 121.166 63.9677C121.155 63.9841 121.141 63.9972 121.123 64.0058C121.105 64.0143 121.086 64.0178 121.066 64.0159C121.047 64.0139 121.028 64.0067 121.013 63.9949C120.997 63.9831 120.985 63.9673 120.979 63.9493C120.379 62.5546 119.817 61.2331 119.237 59.8932C118.938 59.1405 118.638 58.3879 118.32 57.6357C118.314 57.6213 118.311 57.6058 118.311 57.5903C118.312 57.5748 118.316 57.5595 118.323 57.5456C118.33 57.5317 118.34 57.5195 118.353 57.5097C118.365 57.4999 118.379 57.4928 118.395 57.4888C118.582 57.4335 118.732 57.5805 118.882 57.6357C120.397 58.2414 121.916 58.8472 123.432 59.4713C123.619 59.5445 124.032 59.6914 124.069 59.7099C124.125 59.7283 124.556 59.9485 124.818 60.0401C125.175 60.1681 124.913 60.2787 124.817 60.3888Z" fill="#0E1C36"/>
<path d="M101.897 55.9078C102.143 55.9462 102.346 56.0571 102.505 56.2405C102.663 56.42 102.75 56.6316 102.764 56.8751C102.784 57.2266 102.677 57.513 102.441 57.7344C102.209 57.9516 101.874 58.0724 101.434 58.0968L99.4753 58.2057L99.232 54.0007L101.125 53.8955C101.552 53.8718 101.892 53.9511 102.142 54.1334C102.397 54.3155 102.535 54.5743 102.554 54.9098C102.568 55.1574 102.514 55.3667 102.392 55.5377C102.274 55.7086 102.109 55.8319 101.897 55.9078ZM100.355 55.6449L101.026 55.6077C101.194 55.5983 101.319 55.5553 101.403 55.4785C101.49 55.3975 101.53 55.2852 101.522 55.1414C101.513 54.9977 101.461 54.8904 101.365 54.8196C101.273 54.7486 101.143 54.7178 100.975 54.7271L100.304 54.7644L100.355 55.6449ZM101.207 57.2802C101.378 57.2706 101.508 57.2254 101.596 57.1444C101.687 57.0592 101.728 56.9427 101.72 56.795C101.711 56.6472 101.654 56.5342 101.55 56.4559C101.449 56.3774 101.313 56.3429 101.141 56.3524L100.398 56.3937L100.452 57.3221L101.207 57.2802ZM104.949 57.9495C104.621 57.9677 104.322 57.9143 104.05 57.7892C103.782 57.6638 103.565 57.4756 103.398 57.2245C103.235 56.9731 103.144 56.6737 103.124 56.3263C103.104 55.9829 103.162 55.6772 103.299 55.4092C103.436 55.1372 103.632 54.924 103.887 54.7696C104.143 54.6151 104.434 54.5288 104.762 54.5106C105.089 54.4924 105.389 54.5459 105.66 54.671C105.932 54.7961 106.152 54.9862 106.319 55.2414C106.485 55.4925 106.579 55.7898 106.599 56.1332C106.618 56.4766 106.558 56.7844 106.418 57.0567C106.281 57.3247 106.083 57.536 105.823 57.6906C105.568 57.845 105.276 57.9313 104.949 57.9495ZM104.897 57.063C105.093 57.0522 105.255 56.9711 105.382 56.8198C105.514 56.6682 105.572 56.4587 105.556 56.1911C105.541 55.9236 105.461 55.7217 105.317 55.5855C105.177 55.449 105.009 55.3863 104.813 55.3971C104.613 55.4082 104.452 55.4893 104.328 55.6404C104.205 55.7875 104.151 55.9968 104.166 56.2684C104.182 56.5359 104.258 56.738 104.394 56.8747C104.534 57.0111 104.702 57.0739 104.897 57.063ZM108.763 57.7375C108.436 57.7557 108.136 57.7023 107.864 57.5772C107.597 57.4518 107.379 57.2636 107.213 57.0125C107.05 56.7611 106.958 56.4617 106.938 56.1143C106.918 55.7709 106.977 55.4652 107.114 55.1972C107.25 54.9252 107.446 54.712 107.702 54.5575C107.957 54.4031 108.249 54.3168 108.576 54.2986C108.904 54.2804 109.203 54.3339 109.475 54.459C109.747 54.5841 109.966 54.7742 110.133 55.0293C110.3 55.2805 110.393 55.5777 110.413 55.9212C110.433 56.2646 110.372 56.5724 110.232 56.8446C110.095 57.1126 109.897 57.324 109.638 57.4786C109.382 57.633 109.091 57.7193 108.763 57.7375ZM108.712 56.851C108.908 56.8401 109.069 56.759 109.197 56.6077C109.328 56.4562 109.386 56.2467 109.371 55.9791C109.355 55.7116 109.275 55.5097 109.131 55.3735C108.991 55.237 108.823 55.1743 108.627 55.1851C108.428 55.1962 108.266 55.2773 108.143 55.4284C108.019 55.5755 107.965 55.7848 107.981 56.0564C107.996 56.3239 108.072 56.526 108.208 56.6627C108.348 56.7991 108.516 56.8619 108.712 56.851ZM113.096 57.4486L111.996 56.1036L112.078 57.5052L111.053 57.5622L110.797 53.1296L111.821 53.0726L111.963 55.5225L112.897 54.1065L114.161 54.0363L112.868 55.7907L114.366 57.378L113.096 57.4486Z" fill="white"/>
</svg>
