<svg width="125" height="100" viewBox="0 0 125 100" fill="none" xmlns="http://www.w3.org/2000/svg">
<g clip-path="url(#clip0_2722_2601)">
<path d="M0.5 8C0.5 3.58172 4.08172 0 8.5 0H83.8964C88.3147 0 91.8964 3.58172 91.8964 8V92C91.8964 96.4183 88.3147 100 83.8964 100H8.49999C4.08172 100 0.5 96.4183 0.5 92V8Z" fill="#EB0F26" fill-opacity="0.1"/>
<path opacity="0.4" d="M61.7875 60.3124V87.4624L16.7875 87.5375V60.3124L16.75 54.6874V31.5125C16.75 29 18.0251 26.6748 20.0876 25.2873L35.0876 15.2749C37.6001 13.5874 40.8999 13.5874 43.4124 15.2749L58.4124 25.2873C60.5124 26.6748 61.75 29 61.75 31.5125V54.6874L61.7875 60.3124Z" fill="#EB0F26"/>
<path d="M88 84.6875H83.2374V73.4375C86.7999 72.275 89.3875 68.9375 89.3875 65V57.5C89.3875 52.5875 85.375 48.575 80.4625 48.575C75.55 48.575 71.5374 52.5875 71.5374 57.5V65C71.5374 68.9 74.0874 72.1999 77.5749 73.3999V84.6875H13C11.4625 84.6875 10.1875 85.9625 10.1875 87.5C10.1875 89.0375 11.4625 90.3125 13 90.3125H80.2375C80.3125 90.3125 80.3499 90.35 80.4249 90.35C80.4999 90.35 80.5376 90.3125 80.6126 90.3125H88C89.5375 90.3125 90.8125 89.0375 90.8125 87.5C90.8125 85.9625 89.5375 84.6875 88 84.6875Z" fill="#EB0F26"/>
<path d="M61.7875 60.3125H16.7875L16.75 54.6875H61.75L61.7875 60.3125Z" fill="#EB0F26"/>
<path d="M39.25 90.3125C37.7125 90.3125 36.4375 89.0375 36.4375 87.5V73.4375C36.4375 71.9 37.7125 70.625 39.25 70.625C40.7875 70.625 42.0625 71.9 42.0625 73.4375V87.5C42.0625 89.0375 40.7875 90.3125 39.25 90.3125Z" fill="#EB0F26"/>
<path d="M39.25 45.3125C42.8744 45.3125 45.8125 42.3744 45.8125 38.75C45.8125 35.1256 42.8744 32.1875 39.25 32.1875C35.6256 32.1875 32.6875 35.1256 32.6875 38.75C32.6875 42.3744 35.6256 45.3125 39.25 45.3125Z" fill="#EB0F26"/>
</g>
<path d="M1 8C1 3.85786 4.35786 0.5 8.5 0.5H83.8964C88.0385 0.5 91.3964 3.85786 91.3964 8V92C91.3964 96.1421 88.0385 99.5 83.8964 99.5H8.49999C4.35786 99.5 1 96.1421 1 92V8Z" stroke="#EB0F26" stroke-opacity="0.3"/>
<path d="M80.929 35.8146V48L123.885 46.0185V34L80.929 35.8146Z" fill="#EB0F26"/>
<path d="M88.7214 43.7392C88.3302 43.7633 87.9661 43.6935 87.6291 43.5299C87.2921 43.3663 87.0193 43.1286 86.8107 42.8168C86.6019 42.501 86.4868 42.1374 86.4653 41.726C86.444 41.3185 86.5207 40.9472 86.6954 40.6118C86.8699 40.2725 87.116 40.0009 87.4338 39.797C87.7515 39.5931 88.1061 39.4792 88.4973 39.4551C88.8926 39.4308 89.2567 39.5006 89.5897 39.6644C89.9267 39.8281 90.1976 40.0679 90.4024 40.3839C90.6109 40.6957 90.7259 41.0553 90.7472 41.4627C90.7687 41.8742 90.6922 42.2495 90.5177 42.5889C90.347 42.924 90.1028 43.1935 89.785 43.3973C89.4672 43.6012 89.1127 43.7152 88.7214 43.7392ZM88.6823 42.9903C88.9338 42.9748 89.1524 42.9053 89.3382 42.7816C89.5238 42.654 89.665 42.481 89.7617 42.2627C89.8584 42.0443 89.8994 41.7954 89.8848 41.5157C89.8702 41.2361 89.8035 40.9958 89.6849 40.7947C89.566 40.5896 89.4078 40.437 89.2103 40.337C89.0129 40.2369 88.7883 40.1946 88.5368 40.2101C88.2853 40.2255 88.0646 40.2952 87.8749 40.4191C87.6891 40.5427 87.5478 40.7137 87.4511 40.932C87.3542 41.1464 87.313 41.3934 87.3276 41.673C87.3423 41.9526 87.409 42.1949 87.5279 42.4C87.6468 42.6051 87.8051 42.7597 88.0028 42.8637C88.2042 42.9636 88.4307 43.0057 88.6823 42.9903ZM92.1727 40.6718C92.2713 40.4894 92.4038 40.343 92.5703 40.2326C92.7407 40.1219 92.9377 40.0597 93.1613 40.046L93.2074 40.9267L92.9858 40.9404C92.7223 40.9566 92.5259 41.0308 92.3967 41.1629C92.2714 41.2949 92.2168 41.5146 92.2329 41.8222L92.3194 43.4759L91.481 43.5275L91.3073 40.208L92.1457 40.1565L92.1727 40.6718ZM95.0253 39.9253C95.2728 39.9101 95.493 39.9467 95.6859 40.035C95.8785 40.1193 96.0328 40.2361 96.1488 40.3852L96.124 39.9119L96.9684 39.86L97.1433 43.2034C97.1594 43.511 97.1118 43.7884 97.0006 44.0357C96.8896 44.287 96.714 44.4901 96.4738 44.6451C96.2337 44.8042 95.9381 44.8945 95.5867 44.9161C95.1156 44.945 94.7226 44.859 94.4077 44.658C94.0968 44.4567 93.9114 44.1675 93.8516 43.7905L94.6841 43.7393C94.7359 43.8884 94.836 44.0025 94.9843 44.0815C95.1369 44.1643 95.3169 44.1993 95.5245 44.1865C95.7681 44.1716 95.9618 44.0855 96.1058 43.9284C96.25 43.7753 96.3144 43.5509 96.2989 43.2553L96.272 42.74C96.1723 42.9024 96.0294 43.0415 95.8432 43.1571C95.661 43.2725 95.4481 43.3377 95.2045 43.3526C94.9251 43.3698 94.6658 43.3136 94.4267 43.1841C94.1876 43.0545 93.9934 42.8641 93.8441 42.6128C93.6986 42.3572 93.6169 42.0597 93.5991 41.7202C93.5816 41.3846 93.6319 41.083 93.7501 40.8152C93.8722 40.5472 94.0434 40.3363 94.2637 40.1825C94.4879 40.0285 94.7418 39.9428 95.0253 39.9253ZM96.2108 41.5716C96.2002 41.3679 96.1512 41.1966 96.0638 41.0577C95.9762 40.9148 95.8626 40.8096 95.7228 40.742C95.5829 40.6705 95.4351 40.6395 95.2794 40.6491C95.1237 40.6586 94.982 40.7054 94.8542 40.7894C94.7264 40.8734 94.6244 40.9919 94.5483 41.1449C94.476 41.2936 94.4451 41.4678 94.4555 41.6675C94.466 41.8672 94.5151 42.0405 94.6029 42.1874C94.6944 42.3301 94.8082 42.4373 94.9441 42.5091C95.0841 42.5806 95.2299 42.6117 95.3816 42.6024C95.5373 42.5928 95.681 42.5459 95.8128 42.4617C95.9444 42.3734 96.0463 42.255 96.1186 42.1063C96.1908 41.9535 96.2215 41.7753 96.2108 41.5716ZM97.6579 41.4706C97.6403 41.1351 97.6906 40.8334 97.8088 40.5657C97.931 40.2977 98.1022 40.0868 98.3224 39.933C98.5467 39.779 98.8005 39.6932 99.084 39.6758C99.3315 39.6606 99.5497 39.6972 99.7386 39.7858C99.9315 39.8741 100.088 39.9908 100.208 40.1357L100.183 39.6623L101.027 39.6104L101.201 42.9299L100.356 42.9818L100.331 42.4965C100.231 42.6589 100.088 42.7979 99.9022 42.9135C99.7198 43.0249 99.5048 43.0882 99.2573 43.1035C98.9778 43.1206 98.7185 43.0645 98.4795 42.9349C98.2444 42.8051 98.0522 42.6145 97.9028 42.3632C97.7573 42.1077 97.6756 41.8102 97.6579 41.4706ZM100.27 41.3221C100.259 41.1183 100.21 40.947 100.123 40.8081C100.035 40.6652 99.9213 40.56 99.7816 40.4925C99.6417 40.4209 99.4938 40.3899 99.3381 40.3995C99.1824 40.4091 99.0407 40.4559 98.9129 40.5399C98.7851 40.6239 98.6832 40.7423 98.6071 40.8953C98.5348 41.044 98.5038 41.2182 98.5143 41.418C98.5247 41.6177 98.5738 41.791 98.6616 41.9379C98.7532 42.0805 98.8669 42.1877 99.0029 42.2595C99.1428 42.3311 99.2886 42.3622 99.4403 42.3528C99.596 42.3433 99.7398 42.2964 99.8715 42.2121C100.003 42.1239 100.105 42.0054 100.177 41.8567C100.25 41.704 100.28 41.5258 100.27 41.3221ZM103.682 39.3991C104.077 39.3748 104.403 39.481 104.66 39.7177C104.916 39.9503 105.056 40.2904 105.08 40.7378L105.182 42.6851L104.343 42.7367L104.247 40.9032C104.234 40.6395 104.157 40.4418 104.018 40.3101C103.879 40.1744 103.695 40.1136 103.468 40.1276C103.236 40.1418 103.056 40.225 102.928 40.3772C102.804 40.5251 102.748 40.7308 102.762 40.9945L102.858 42.828L102.02 42.8795L101.846 39.5601L102.684 39.5085L102.706 39.9219C102.81 39.7713 102.946 39.6507 103.114 39.5603C103.285 39.4656 103.474 39.4119 103.682 39.3991ZM106.21 38.895C106.062 38.9041 105.936 38.8658 105.831 38.78C105.73 38.6901 105.676 38.5752 105.669 38.4354C105.662 38.2956 105.704 38.1768 105.795 38.079C105.889 37.977 106.011 37.9214 106.158 37.9124C106.306 37.9033 106.43 37.9437 106.531 38.0337C106.636 38.1194 106.692 38.2322 106.699 38.372C106.706 38.5118 106.663 38.6327 106.568 38.7347C106.477 38.8325 106.358 38.8859 106.21 38.895ZM106.644 39.2651L106.817 42.5845L105.979 42.6361L105.805 39.3166L106.644 39.2651ZM108.376 41.7974L109.855 41.7065L109.892 42.3955L107.46 42.545L107.425 41.8679L108.772 39.8255L107.328 39.9142L107.292 39.2252L109.7 39.0772L109.735 39.7542L108.376 41.7974ZM110.772 38.6145C110.624 38.6236 110.498 38.5853 110.393 38.4996C110.292 38.4096 110.238 38.2947 110.231 38.1549C110.223 38.0151 110.265 37.8963 110.356 37.7985C110.451 37.6965 110.572 37.641 110.72 37.6319C110.868 37.6228 110.992 37.6633 111.093 37.7532C111.198 37.839 111.254 37.9517 111.261 38.0916C111.268 38.2314 111.224 38.3523 111.13 38.4543C111.039 38.552 110.919 38.6055 110.772 38.6145ZM111.205 38.9846L111.379 42.3041L110.541 42.3556L110.367 39.0361L111.205 38.9846ZM113.87 38.7727C114.265 38.7484 114.591 38.8546 114.848 39.0913C115.104 39.3239 115.244 39.664 115.268 40.1114L115.369 42.0587L114.531 42.1103L114.435 40.2768C114.421 40.0131 114.345 39.8155 114.206 39.6837C114.067 39.548 113.883 39.4872 113.656 39.5012C113.424 39.5154 113.244 39.5986 113.116 39.7508C112.991 39.8987 112.936 40.1044 112.95 40.3681L113.046 42.2016L112.207 42.2531L112.034 38.9337L112.872 38.8821L112.894 39.2956C112.998 39.1449 113.134 39.0243 113.301 38.9339C113.473 38.8392 113.662 38.7855 113.87 38.7727ZM117.29 38.5564C117.537 38.5412 117.758 38.5777 117.95 38.6661C118.143 38.7504 118.297 38.8671 118.413 39.0163L118.389 38.5429L119.233 38.491L119.408 41.8345C119.424 42.142 119.376 42.4195 119.265 42.6667C119.154 42.918 118.979 43.1212 118.738 43.2762C118.498 43.4352 118.203 43.5255 117.851 43.5471C117.38 43.5761 116.987 43.4901 116.672 43.289C116.361 43.0877 116.176 42.7986 116.116 42.4216L116.949 42.3704C117.001 42.5195 117.101 42.6335 117.249 42.7126C117.401 42.7954 117.582 42.8304 117.789 42.8176C118.033 42.8026 118.226 42.7166 118.37 42.5595C118.515 42.4063 118.579 42.182 118.564 41.8864L118.537 41.3711C118.437 41.5335 118.294 41.6725 118.108 41.7882C117.926 41.9036 117.713 41.9687 117.469 41.9837C117.19 42.0009 116.93 41.9447 116.691 41.8151C116.452 41.6856 116.258 41.4951 116.109 41.2438C115.963 40.9883 115.881 40.6908 115.864 40.3512C115.846 40.0157 115.896 39.714 116.015 39.4463C116.137 39.1783 116.308 38.9674 116.528 38.8136C116.753 38.6596 117.006 38.5738 117.29 38.5564ZM118.475 40.2027C118.465 39.999 118.416 39.8276 118.328 39.6888C118.241 39.5459 118.127 39.4406 117.987 39.3731C117.848 39.3015 117.7 39.2706 117.544 39.2801C117.388 39.2897 117.247 39.3365 117.119 39.4205C116.991 39.5045 116.889 39.623 116.813 39.7759C116.741 39.9246 116.71 40.0989 116.72 40.2986C116.731 40.4983 116.78 40.6716 116.867 40.8185C116.959 40.9611 117.073 41.0684 117.209 41.1401C117.349 41.2117 117.494 41.2428 117.646 41.2335C117.802 41.2239 117.946 41.177 118.077 41.0927C118.209 41.0045 118.311 40.886 118.383 40.7373C118.455 40.5846 118.486 40.4064 118.475 40.2027Z" fill="white"/>
<path d="M124.342 46.9538C123.709 47.3635 123.094 47.7539 122.461 48.1636C122.17 48.3498 122.068 48.7035 121.897 48.9825C121.589 49.485 121.316 50.0248 121.008 50.5833C120.999 50.6 120.985 50.6135 120.969 50.6223C120.953 50.631 120.935 50.6346 120.917 50.6326C120.899 50.6307 120.882 50.6233 120.868 50.6112C120.854 50.5992 120.843 50.583 120.837 50.5646C120.29 49.15 119.777 47.81 119.247 46.4508C118.973 45.6874 118.699 44.9246 118.409 44.1612C118.403 44.1466 118.401 44.1309 118.401 44.1152C118.402 44.0994 118.406 44.084 118.412 44.0699C118.419 44.0559 118.428 44.0434 118.439 44.0335C118.45 44.0236 118.463 44.0164 118.477 44.0124C118.648 43.9564 118.785 44.1052 118.922 44.1612C120.307 44.7757 121.692 45.3897 123.077 46.0224C123.248 46.0971 123.625 46.2459 123.658 46.2646C123.71 46.2832 124.103 46.5068 124.342 46.5996C124.65 46.7313 124.428 46.8418 124.342 46.9538Z" fill="#0E1C36"/>
<defs>
<clipPath id="clip0_2722_2601">
<path d="M0.5 8C0.5 3.58172 4.08172 0 8.5 0H83.8964C88.3147 0 91.8964 3.58172 91.8964 8V92C91.8964 96.4183 88.3147 100 83.8964 100H8.49999C4.08172 100 0.5 96.4183 0.5 92V8Z" fill="white"/>
</clipPath>
</defs>
</svg>
