<svg width="42" height="42" viewBox="0 0 42 42" fill="none" xmlns="http://www.w3.org/2000/svg">
<path fill-rule="evenodd" clip-rule="evenodd" d="M16.4038 3.62865C17.3062 3.25488 18.2733 3.0625 19.25 3.0625C20.2267 3.0625 21.1938 3.25488 22.0962 3.62865C22.9986 4.00242 23.8185 4.55026 24.5091 5.24089C25.1997 5.93153 25.7476 6.75143 26.1214 7.65379C26.4951 8.55615 26.6875 9.52329 26.6875 10.5C26.6875 11.2249 26.0999 11.8125 25.375 11.8125C24.6501 11.8125 24.0625 11.2249 24.0625 10.5C24.0625 9.86801 23.938 9.24222 23.6962 8.65834C23.4543 8.07446 23.0998 7.54393 22.653 7.09705C22.2061 6.65017 21.6755 6.29568 21.0917 6.05383C20.5078 5.81198 19.882 5.6875 19.25 5.6875C18.618 5.6875 17.9922 5.81198 17.4083 6.05383C16.8245 6.29568 16.2939 6.65017 15.847 7.09705C15.4002 7.54393 15.0457 8.07446 14.8038 8.65834C14.562 9.24222 14.4375 9.86801 14.4375 10.5C14.4375 11.2249 13.8499 11.8125 13.125 11.8125C12.4001 11.8125 11.8125 11.2249 11.8125 10.5C11.8125 9.52329 12.0049 8.55615 12.3786 7.65379C12.7524 6.75143 13.3003 5.93153 13.9909 5.24089C14.6815 4.55026 15.5014 4.00242 16.4038 3.62865Z" fill="#7A23D3"/>
<path fill-rule="evenodd" clip-rule="evenodd" d="M5.25 18.1758C5.25 13.5849 8.97163 9.86328 13.5625 9.86328H24.8243C29.4152 9.86328 33.1368 13.5849 33.1368 18.1758V30.1908C33.1368 34.7817 29.4152 38.5033 24.8243 38.5033H13.5625C8.97164 38.5033 5.25 34.7817 5.25 30.1908V18.1758Z" fill="#7A23D3" fill-opacity="0.6"/>
<path fill-rule="evenodd" clip-rule="evenodd" d="M19.25 28.1355C19.25 25.1633 21.6604 22.75 24.6418 22.75C25.9151 22.75 27.0821 23.1917 28.0006 23.9272C28.9213 23.1914 30.091 22.75 31.3582 22.75C34.3396 22.75 36.75 25.1633 36.75 28.1355C36.75 31.1614 35.3355 33.5348 33.6873 35.2139C32.0555 36.8765 30.1234 37.9365 28.8565 38.3675C28.5636 38.4691 28.2529 38.5 28 38.5C27.7471 38.5 27.4364 38.4691 27.1435 38.3675C25.8766 37.9365 23.9445 36.8765 22.3127 35.2139C20.6645 33.5348 19.25 31.1614 19.25 28.1355Z" fill="#7A23D3"/>
</svg>
