<svg width="42" height="43" viewBox="0 0 42 43" fill="none" xmlns="http://www.w3.org/2000/svg">
<g clip-path="url(#clip0_2667_1838)">
<path d="M3.98459 10.073C4.0307 9.90678 4.10911 9.75129 4.21535 9.61541C4.32159 9.47952 4.45357 9.36592 4.60375 9.28108C4.75392 9.19624 4.91935 9.14183 5.09057 9.12097C5.26178 9.1001 5.43544 9.11319 5.60159 9.15948L8.58184 9.98548C9.37169 10.2 10.0925 10.6155 10.674 11.1915C11.2555 11.7674 11.6778 12.4842 11.8998 13.272L15.6641 26.8975L15.9406 27.8547C17.0567 28.2661 17.9972 29.049 18.6041 30.072L19.1466 29.904L34.6691 25.8702C34.8359 25.8268 35.0097 25.8167 35.1805 25.8404C35.3512 25.8641 35.5157 25.9212 35.6643 26.0085C35.813 26.0957 35.9431 26.2114 36.0471 26.349C36.151 26.4865 36.2269 26.6431 36.2703 26.81C36.3138 26.9768 36.3239 27.1506 36.3002 27.3214C36.2765 27.4921 36.2194 27.6565 36.1321 27.8052C36.0448 27.9539 35.9291 28.084 35.7916 28.188C35.6541 28.2919 35.4974 28.3678 35.3306 28.4112L19.8658 32.4292L19.2883 32.6077C19.2778 34.8302 17.7431 36.8637 15.4208 37.4657C12.6383 38.1902 9.77709 36.5872 9.03159 33.8887C8.28609 31.1885 9.93809 28.413 12.7206 27.6902C12.8577 27.6549 12.996 27.6245 13.1353 27.5992L9.36934 13.9702C9.26796 13.6201 9.07769 13.3021 8.81703 13.0473C8.55637 12.7925 8.23419 12.6094 7.88184 12.516L4.89984 11.6882C4.73367 11.6423 4.57817 11.5641 4.44223 11.458C4.3063 11.352 4.19258 11.2202 4.10759 11.0702C4.0226 10.9202 3.96799 10.7549 3.94688 10.5838C3.92578 10.4127 3.93859 10.2391 3.98459 10.073Z" fill="#7A23D3"/>
<path opacity="0.5" d="M16.7369 16.169L17.6382 19.4292C18.4869 22.5005 18.9104 24.037 20.1582 24.7352C21.4059 25.4352 22.9897 25.0222 26.1572 24.1997L29.5172 23.3247C32.6847 22.5022 34.2684 22.091 34.9894 20.8817C35.7104 19.6707 35.2869 18.1342 34.4364 15.063L33.5369 11.8045C32.6882 8.73148 32.2629 7.19498 31.0169 6.49673C29.7674 5.79673 28.1837 6.20973 25.0162 7.03398L21.6562 7.90548C18.4887 8.72798 16.9049 9.14098 16.1857 10.352C15.4647 11.5612 15.8882 13.0977 16.7369 16.169Z" fill="#7A23D3"/>
</g>
<defs>
<clipPath id="clip0_2667_1838">
<rect width="42" height="42" fill="white" transform="translate(0 0.890625)"/>
</clipPath>
</defs>
</svg>
