<svg width="43" height="43" viewBox="0 0 43 43" fill="none" xmlns="http://www.w3.org/2000/svg">
<g clip-path="url(#clip0_2667_1869)">
<path d="M8.94093 17.7154C8.94093 17.0119 9.50618 16.4414 10.2044 16.4414H16.9524C17.6524 16.4414 18.2177 17.0119 18.2177 17.7154C18.2184 17.8823 18.1862 18.0476 18.123 18.202C18.0598 18.3564 17.9668 18.4969 17.8493 18.6153C17.7318 18.7338 17.5921 18.828 17.4382 18.8924C17.2843 18.9569 17.1193 18.9905 16.9524 18.9912H10.2044C9.86777 18.9893 9.54562 18.8539 9.30872 18.6147C9.07181 18.3755 8.93953 18.0521 8.94093 17.7154Z" fill="#7A23D3"/>
<path fill-rule="evenodd" clip-rule="evenodd" d="M37.4589 18.3976C37.3504 18.3906 37.2314 18.3906 37.1089 18.3906H32.2561C28.2819 18.3906 24.8799 21.4286 24.8799 25.3906C24.8799 29.3526 28.2819 32.3906 32.2561 32.3906H37.1089C37.2314 32.3906 37.3504 32.3906 37.4589 32.3836C39.0741 32.2856 40.5021 31.0589 40.6229 29.3439C40.6299 29.2319 40.6299 29.1111 40.6299 28.9991V21.7821C40.6299 21.6701 40.6299 21.5494 40.6229 21.4374C40.5021 19.7224 39.0741 18.4974 37.4589 18.3976ZM31.8291 27.2579C32.8511 27.2579 33.6806 26.4214 33.6806 25.3906C33.6806 24.3581 32.8511 23.5234 31.8291 23.5234C30.8054 23.5234 29.9741 24.3599 29.9741 25.3906C29.9741 26.4231 30.8054 27.2579 31.8291 27.2579Z" fill="#7A23D3"/>
<path opacity="0.5" d="M37.3749 18.3941C37.3749 16.3274 37.2979 14.1101 35.9784 12.5229C35.8494 12.3674 35.7133 12.2179 35.5706 12.0749C34.2599 10.7659 32.5991 10.1849 30.5481 9.90837C28.5531 9.64062 26.0069 9.64062 22.7904 9.64062H19.0944C15.8779 9.64062 13.3299 9.64062 11.3349 9.90837C9.28388 10.1849 7.62313 10.7659 6.31238 12.0749C5.00338 13.3856 4.42238 15.0464 4.14588 17.0974C3.87988 19.0924 3.87988 21.6386 3.87988 24.8551V25.0511C3.87988 28.2676 3.87988 30.8156 4.14763 32.8089C4.42413 34.8599 5.00513 36.5206 6.31413 37.8314C7.62488 39.1404 9.28563 39.7214 11.3366 39.9979C13.3316 40.2656 15.8779 40.2656 19.0944 40.2656H22.7904C26.0069 40.2656 28.5549 40.2656 30.5481 39.9979C32.5991 39.7214 34.2599 39.1404 35.5706 37.8314C35.9193 37.4816 36.228 37.0943 36.4911 36.6764C37.2786 35.4164 37.3731 33.8729 37.3731 32.3889L37.1106 32.3906H32.2561C28.2819 32.3906 24.8799 29.3526 24.8799 25.3906C24.8799 21.4286 28.2819 18.3906 32.2561 18.3906H37.1089C37.1999 18.3906 37.2909 18.3906 37.3749 18.3941Z" fill="#7A23D3"/>
<path d="M18.0567 5.39176L14.3799 7.87676L11.3472 9.90676C13.3387 9.64076 15.8832 9.64076 19.0944 9.64076H22.7904C26.0069 9.64076 28.5549 9.64076 30.5482 9.90851C30.9507 9.96101 31.3357 10.0275 31.7067 10.108L28.3799 7.89076L24.6822 5.39176C23.7007 4.73892 22.5482 4.39063 21.3694 4.39062C20.1906 4.39063 19.0381 4.73892 18.0567 5.39176Z" fill="#7A23D3"/>
</g>
<defs>
<clipPath id="clip0_2667_1869">
<rect width="42" height="42" fill="white" transform="translate(0.379883 0.890625)"/>
</clipPath>
</defs>
</svg>
