<svg width="28" height="27" viewBox="0 0 28 27" fill="none" xmlns="http://www.w3.org/2000/svg">
<path d="M0 8.275C0 8.02825 2.6077e-07 7.904 0.0770003 7.827C0.154 7.75 0.27825 7.75 0.525 7.75H27.475C27.7218 7.75 27.846 7.75 27.923 7.827C28 7.904 28 8.02825 28 8.275V20C28 23.3005 28 24.949 26.9745 25.9745C25.949 27 24.3005 27 21 27H7C3.6995 27 2.051 27 1.0255 25.9745C-1.04308e-07 24.949 0 23.3005 0 20V8.275ZM1.267 6C0.728 6 0.4585 6 0.392 5.83725C0.32375 5.67625 0.5145 5.4855 0.896 5.10225L3.199 2.801C4.2105 1.7895 4.718 1.282 5.36025 1.016C6.00425 0.75 6.72 0.75 8.14975 0.75H19.8503C21.2818 0.75 21.9958 0.75 22.6398 1.016C23.282 1.282 23.7878 1.7895 24.801 2.801L27.104 5.104C27.4855 5.4855 27.6762 5.67625 27.608 5.839C27.5415 6 27.272 6 26.733 6H1.267Z" fill="#7A23D3" fill-opacity="0.25"/>
<path d="M9.625 13.875C9.625 15.0353 10.0859 16.1481 10.9064 16.9686C11.7269 17.7891 12.8397 18.25 14 18.25C15.1603 18.25 16.2731 17.7891 17.0936 16.9686C17.9141 16.1481 18.375 15.0353 18.375 13.875" stroke="#7A23D3" stroke-width="1.75" stroke-linecap="round"/>
</svg>
