<svg width="42" height="42" viewBox="0 0 42 42" fill="none" xmlns="http://www.w3.org/2000/svg">
<path fill-rule="evenodd" clip-rule="evenodd" d="M1.75488 3.9375C1.75488 3.21263 2.34251 2.625 3.06738 2.625H6.39463C7.70529 2.625 8.87065 3.45904 9.29343 4.69963L10.113 7.10457H31.9417C36.5326 7.10457 40.2542 10.8262 40.2542 15.4171V22.6663C40.2542 27.2572 36.5326 30.9788 31.9417 30.9788H18.8449C14.8208 30.9788 11.3746 28.0964 10.6633 24.1357L7.89934 8.74663L6.80875 5.54638C6.74835 5.36915 6.58187 5.25 6.39463 5.25H3.06738C2.34251 5.25 1.75488 4.66237 1.75488 3.9375Z" fill="#7A23D3" fill-opacity="0.3"/>
<path fill-rule="evenodd" clip-rule="evenodd" d="M19.9502 15.6621C20.6751 15.6621 21.2627 16.2497 21.2627 16.9746C21.2627 17.4917 21.3645 18.0037 21.5624 18.4814C21.7603 18.9591 22.0503 19.3932 22.416 19.7588C22.7816 20.1245 23.2157 20.4145 23.6934 20.6124C24.1711 20.8103 24.6831 20.9121 25.2002 20.9121C25.7173 20.9121 26.2293 20.8103 26.707 20.6124C27.1847 20.4145 27.6188 20.1245 27.9844 19.7588C28.3501 19.3932 28.6401 18.9591 28.838 18.4814C29.0358 18.0037 29.1377 17.4917 29.1377 16.9746C29.1377 16.2497 29.7253 15.6621 30.4502 15.6621C31.1751 15.6621 31.7627 16.2497 31.7627 16.9746C31.7627 17.8364 31.593 18.6898 31.2632 19.486C30.9334 20.2822 30.45 21.0056 29.8406 21.615C29.2312 22.2244 28.5078 22.7078 27.7116 23.0376C26.9154 23.3674 26.062 23.5371 25.2002 23.5371C24.3384 23.5371 23.485 23.3674 22.6888 23.0376C21.8926 22.7078 21.1692 22.2244 20.5598 21.615C19.9504 21.0056 19.467 20.2822 19.1372 19.486C18.8074 18.6898 18.6377 17.8364 18.6377 16.9746C18.6377 16.2497 19.2253 15.6621 19.9502 15.6621Z" fill="#7A23D3"/>
<path fill-rule="evenodd" clip-rule="evenodd" d="M16.625 35.875C16.625 34.4253 17.8003 33.25 19.25 33.25H19.2675C20.7172 33.25 21.8925 34.4253 21.8925 35.875C21.8925 37.3247 20.7172 38.5 19.2675 38.5H19.25C17.8003 38.5 16.625 37.3247 16.625 35.875Z" fill="#7A23D3"/>
<path fill-rule="evenodd" clip-rule="evenodd" d="M30.625 35.875C30.625 34.4253 31.8003 33.25 33.25 33.25H33.2675C34.7172 33.25 35.8925 34.4253 35.8925 35.875C35.8925 37.3247 34.7172 38.5 33.2675 38.5H33.25C31.8003 38.5 30.625 37.3247 30.625 35.875Z" fill="#7A23D3"/>
</svg>
