<svg width="42" height="45" viewBox="0 0 42 45" fill="none" xmlns="http://www.w3.org/2000/svg">
<path d="M2.625 12.9375H39.375V33.9375C39.375 38.8883 39.375 41.361 37.8367 42.8992C36.2985 44.4375 33.8258 44.4375 28.875 44.4375H13.125C8.17425 44.4375 5.7015 44.4375 4.16325 42.8992C2.625 41.361 2.625 38.8883 2.625 33.9375V12.9375Z" fill="#7A23D3" fill-opacity="0.25"/>
<path d="M14.4375 16.875L9.6075 13.6568C7.70437 12.3863 6.5625 10.2495 6.5625 7.96575C6.5625 4.18837 9.66787 1.125 13.4505 1.125C15.1586 1.12512 16.8071 1.75272 18.0828 2.88855C19.3584 4.02438 20.1724 5.58928 20.37 7.28588L21 12.9375L21.63 7.28588C21.8276 5.58928 22.6416 4.02438 23.9172 2.88855C25.1929 1.75272 26.8414 1.12512 28.5495 1.125C32.3295 1.125 35.4349 4.18837 35.4349 7.96575C35.4349 10.2495 34.293 12.3863 32.3899 13.6568L27.5625 16.875" stroke="#7A23D3" stroke-width="0.5" stroke-linecap="round"/>
<path d="M39.375 12.9375H2.625C1.17525 12.9375 0 14.1128 0 15.5625V18.1875C0 19.6372 1.17525 20.8125 2.625 20.8125H39.375C40.8247 20.8125 42 19.6372 42 18.1875V15.5625C42 14.1128 40.8247 12.9375 39.375 12.9375Z" fill="#7A23D3"/>
<path d="M21 20.8125V31.3125" stroke="#7A23D3" stroke-width="0.5" stroke-linecap="round"/>
</svg>
