<svg width="21" height="20" viewBox="0 0 21 20" fill="none" xmlns="http://www.w3.org/2000/svg">
<path d="M19.9052 8.74L18.5638 7.16C18.3074 6.86 18.1002 6.3 18.1002 5.9V4.2C18.1002 3.14 17.2422 2.27 16.1967 2.27H14.52C14.1353 2.27 13.5731 2.06 13.2773 1.8L11.7189 0.440001C11.0384 -0.149999 9.92386 -0.149999 9.23345 0.440001L7.68497 1.81C7.38908 2.06 6.82689 2.27 6.44223 2.27H4.73594C3.69047 2.27 2.8324 3.14 2.8324 4.2V5.91C2.8324 6.3 2.62527 6.86 2.3787 7.16L1.0472 8.75C0.475151 9.44 0.475151 10.56 1.0472 11.25L2.3787 12.84C2.62527 13.14 2.8324 13.7 2.8324 14.09V15.8C2.8324 16.86 3.69047 17.73 4.73594 17.73H6.44223C6.82689 17.73 7.38908 17.94 7.68497 18.2L9.24331 19.56C9.92386 20.15 11.0384 20.15 11.7288 19.56L13.2871 18.2C13.583 17.94 14.1353 17.73 14.5299 17.73H16.2066C17.252 17.73 18.1101 16.86 18.1101 15.8V14.1C18.1101 13.71 18.3172 13.14 18.5737 12.84L19.915 11.26C20.4871 10.57 20.4871 9.43 19.9052 8.74ZM14.5792 8.11L9.81536 12.94C9.67728 13.08 9.48989 13.16 9.29263 13.16C9.09537 13.16 8.90797 13.08 8.76989 12.94L6.38306 10.52C6.09703 10.23 6.09703 9.75 6.38306 9.46C6.66908 9.17 7.1425 9.17 7.42853 9.46L9.29263 11.35L13.5337 7.05C13.8197 6.76 14.2931 6.76 14.5792 7.05C14.8652 7.34 14.8652 7.82 14.5792 8.11Z" fill="#FEC21A"/>
</svg>
