<svg width="20" height="21" viewBox="0 0 20 21" fill="none" xmlns="http://www.w3.org/2000/svg">
<path d="M8.54999 12.39L6.38764 10.1062C6.20537 9.91375 5.98168 9.8175 5.71657 9.8175C5.45145 9.8175 5.21947 9.9225 5.02064 10.1325C4.83837 10.325 4.74723 10.57 4.74723 10.8675C4.74723 11.165 4.83837 11.41 5.02064 11.6025L7.85406 14.595C8.03633 14.7875 8.26831 14.8837 8.54999 14.8837C8.83168 14.8837 9.06366 14.7875 9.24592 14.595L14.8879 8.63625C15.0702 8.44375 15.1613 8.2075 15.1613 7.9275C15.1613 7.6475 15.0619 7.4025 14.8631 7.1925C14.6808 7 14.4488 6.90375 14.1671 6.90375C13.8855 6.90375 13.6535 7 13.4712 7.1925L8.54999 12.39ZM9.94185 21C8.56656 21 7.27412 20.7242 6.06453 20.1726C4.85494 19.6217 3.80276 18.8738 2.90799 17.9287C2.01323 16.9837 1.30503 15.8725 0.783418 14.595C0.261139 13.3175 0 11.9525 0 10.5C0 9.0475 0.261139 7.6825 0.783418 6.405C1.30503 5.1275 2.01323 4.01625 2.90799 3.07125C3.80276 2.12625 4.85494 1.37795 6.06453 0.82635C7.27412 0.27545 8.56656 0 9.94185 0C11.3171 0 12.6096 0.27545 13.8192 0.82635C15.0288 1.37795 16.0809 2.12625 16.9757 3.07125C17.8705 4.01625 18.5787 5.1275 19.1003 6.405C19.6226 7.6825 19.8837 9.0475 19.8837 10.5C19.8837 11.9525 19.6226 13.3175 19.1003 14.595C18.5787 15.8725 17.8705 16.9837 16.9757 17.9287C16.0809 18.8738 15.0288 19.6217 13.8192 20.1726C12.6096 20.7242 11.3171 21 9.94185 21Z" fill="#AE83DA"/>
</svg>
