<svg width="21" height="21" viewBox="0 0 21 21" fill="none" xmlns="http://www.w3.org/2000/svg">
<path d="M9.26438 12.3518L7.10869 10.0751C6.92698 9.88322 6.70398 9.78726 6.43968 9.78726C6.17538 9.78726 5.94412 9.89194 5.7459 10.1013C5.56419 10.2932 5.47334 10.5374 5.47334 10.834C5.47334 11.1306 5.56419 11.3749 5.7459 11.5668L8.5706 14.55C8.7523 14.742 8.98357 14.8379 9.26438 14.8379C9.5452 14.8379 9.77646 14.742 9.95817 14.55L15.5828 8.60965C15.7645 8.41774 15.8554 8.18222 15.8554 7.90308C15.8554 7.62395 15.7562 7.3797 15.558 7.17035C15.3763 6.97844 15.145 6.88249 14.8642 6.88249C14.5834 6.88249 14.3522 6.97844 14.1704 7.17035L9.26438 12.3518ZM10.652 20.9353C9.2809 20.9353 7.99244 20.6604 6.78658 20.1105C5.58071 19.5613 4.53177 18.8156 3.63976 17.8735C2.74775 16.9314 2.04174 15.8236 1.52173 14.55C1.00106 13.2765 0.740723 11.9157 0.740723 10.4677C0.740723 9.01964 1.00106 7.65884 1.52173 6.38527C2.04174 5.11171 2.74775 4.00388 3.63976 3.06179C4.53177 2.1197 5.58071 1.37371 6.78658 0.823805C7.99244 0.274602 9.2809 0 10.652 0C12.023 0 13.3115 0.274602 14.5173 0.823805C15.7232 1.37371 16.7721 2.1197 17.6642 3.06179C18.5562 4.00388 19.2622 5.11171 19.7822 6.38527C20.3029 7.65884 20.5632 9.01964 20.5632 10.4677C20.5632 11.9157 20.3029 13.2765 19.7822 14.55C19.2622 15.8236 18.5562 16.9314 17.6642 17.8735C16.7721 18.8156 15.7232 19.5613 14.5173 20.1105C13.3115 20.6604 12.023 20.9353 10.652 20.9353Z" fill="#1A6FEE"/>
</svg>
