<svg width="16" height="16" viewBox="0 0 16 16" fill="none" xmlns="http://www.w3.org/2000/svg">
<g clip-path="url(#clip0_2324_2077)">
<path d="M7.99902 14.998C6.14251 14.998 4.36203 14.2605 3.04928 12.9478C1.73652 11.635 0.999023 9.85456 0.999023 7.99805C0.999023 6.14153 1.73652 4.36105 3.04928 3.0483C4.36203 1.73554 6.14251 0.998047 7.99902 0.998047C9.85554 0.998047 11.636 1.73554 12.9488 3.0483C14.2615 4.36105 14.999 6.14153 14.999 7.99805C14.999 9.85456 14.2615 11.635 12.9488 12.9478C11.636 14.2605 9.85554 14.998 7.99902 14.998ZM7.99902 15.998C10.1208 15.998 12.1556 15.1552 13.6559 13.6549C15.1562 12.1546 15.999 10.1198 15.999 7.99805C15.999 5.87632 15.1562 3.84148 13.6559 2.34119C12.1556 0.840902 10.1208 -0.00195312 7.99902 -0.00195312C5.87729 -0.00195312 3.84246 0.840902 2.34217 2.34119C0.841878 3.84148 -0.000976562 5.87632 -0.000976562 7.99805C-0.000976562 10.1198 0.841878 12.1546 2.34217 13.6549C3.84246 15.1552 5.87729 15.998 7.99902 15.998Z" fill="black"/>
<path d="M8.92888 6.58397L6.63897 6.87095L6.55697 7.25094L7.00695 7.33393C7.30094 7.40393 7.35894 7.50993 7.29494 7.80292L6.55697 11.2708C6.36298 12.1677 6.66197 12.5897 7.36494 12.5897C7.90992 12.5897 8.54289 12.3377 8.82988 11.9917L8.91788 11.5758C8.71788 11.7518 8.4259 11.8217 8.2319 11.8217C7.95692 11.8217 7.85692 11.6288 7.92792 11.2888L8.92888 6.58397ZM8.99887 4.49605C8.99887 4.76126 8.89352 5.0156 8.70599 5.20313C8.51846 5.39066 8.26412 5.49601 7.99891 5.49601C7.73371 5.49601 7.47936 5.39066 7.29184 5.20313C7.10431 5.0156 6.99895 4.76126 6.99895 4.49605C6.99895 4.23085 7.10431 3.9765 7.29184 3.78897C7.47936 3.60145 7.73371 3.49609 7.99891 3.49609C8.26412 3.49609 8.51846 3.60145 8.70599 3.78897C8.89352 3.9765 8.99887 4.23085 8.99887 4.49605Z" fill="black"/>
</g>
<defs>
<clipPath id="clip0_2324_2077">
<rect width="16" height="16" fill="white"/>
</clipPath>
</defs>
</svg>
