<svg width="17" height="16" viewBox="0 0 17 16" fill="none" xmlns="http://www.w3.org/2000/svg">
<path d="M6.43172 10.3867L4.10498 8.07385C3.84469 7.81511 3.42455 7.81437 3.16334 8.07218V8.07218C2.89859 8.3335 2.89784 8.76059 3.16166 9.02284L6.43172 12.2733L12.4163 6.25893C12.6761 5.99787 12.6749 5.57564 12.4137 5.31601V5.31601C12.1527 5.05651 11.7307 5.05774 11.4711 5.31875L6.43172 10.3867Z" fill="white"/>
<mask id="mask0_129_176792" style="mask-type:luminance" maskUnits="userSpaceOnUse" x="2" y="5" width="11" height="8">
<path d="M6.43172 10.3867L4.10498 8.07385C3.84469 7.81511 3.42455 7.81437 3.16334 8.07218V8.07218C2.89859 8.3335 2.89784 8.76059 3.16166 9.02284L6.43172 12.2733L12.4163 6.25893C12.6761 5.99787 12.6749 5.57564 12.4137 5.31601V5.31601C12.1527 5.05651 11.7307 5.05774 11.4711 5.31875L6.43172 10.3867Z" fill="white"/>
</mask>
<g mask="url(#mask0_129_176792)">
<rect width="16.0963" height="16" fill="#AE83DA"/>
</g>
</svg>
