<svg width="11" height="9" viewBox="0 0 11 9" fill="none" xmlns="http://www.w3.org/2000/svg">
<path d="M3.825 5.92495L1.65 3.74995C1.46667 3.56662 1.24167 3.47495 0.975 3.47495C0.708333 3.47495 0.475 3.57495 0.275 3.77495C0.0916666 3.95828 0 4.19162 0 4.47495C0 4.75828 0.0916666 4.99162 0.275 5.17495L3.125 8.02495C3.30833 8.20828 3.54167 8.29995 3.825 8.29995C4.10834 8.29995 4.34167 8.20828 4.525 8.02495L10.2 2.34995C10.3833 2.16662 10.475 1.94162 10.475 1.67495C10.475 1.40828 10.375 1.17495 10.175 0.974952C9.99167 0.791619 9.75833 0.699951 9.475 0.699951C9.19167 0.699951 8.95833 0.791619 8.775 0.974952L3.825 5.92495Z" fill="#7A23D3"/>
</svg>
