<svg width="16" height="17" viewBox="0 0 16 17" fill="none" xmlns="http://www.w3.org/2000/svg">
<path d="M7.99954 9.43385L4.73288 12.7005C4.61066 12.8227 4.4551 12.8839 4.26621 12.8839C4.07732 12.8839 3.92177 12.8227 3.79954 12.7005C3.67732 12.5783 3.61621 12.4227 3.61621 12.2339C3.61621 12.045 3.67732 11.8894 3.79954 11.7672L7.06621 8.50052L3.79954 5.23385C3.67732 5.11163 3.61621 4.95608 3.61621 4.76719C3.61621 4.5783 3.67732 4.42274 3.79954 4.30052C3.92177 4.1783 4.07732 4.11719 4.26621 4.11719C4.4551 4.11719 4.61066 4.1783 4.73288 4.30052L7.99954 7.56719L11.2662 4.30052C11.3884 4.1783 11.544 4.11719 11.7329 4.11719C11.9218 4.11719 12.0773 4.1783 12.1995 4.30052C12.3218 4.42274 12.3829 4.5783 12.3829 4.76719C12.3829 4.95608 12.3218 5.11163 12.1995 5.23385L8.93288 8.50052L12.1995 11.7672C12.3218 11.8894 12.3829 12.045 12.3829 12.2339C12.3829 12.4227 12.3218 12.5783 12.1995 12.7005C12.0773 12.8227 11.9218 12.8839 11.7329 12.8839C11.544 12.8839 11.3884 12.8227 11.2662 12.7005L7.99954 9.43385Z" fill="white"/>
</svg>
