<svg width="32" height="32" viewBox="0 0 32 32" fill="none" xmlns="http://www.w3.org/2000/svg">
<path fill-rule="evenodd" clip-rule="evenodd" d="M24.0001 18.6667C24.0001 24.5577 19.2245 29.3333 13.3334 29.3333C11.6861 29.3333 10.126 28.9599 8.73309 28.2931C8.25436 28.0639 7.71199 27.9834 7.19926 28.1206L5.56455 28.558C4.2761 28.9027 3.09735 27.724 3.4421 26.4355L3.87949 24.8008C4.01668 24.2881 3.93621 23.7457 3.70701 23.267C3.04018 21.8741 2.66675 20.314 2.66675 18.6667C2.66675 12.7756 7.44238 8 13.3334 8C19.2245 8 24.0001 12.7756 24.0001 18.6667ZM8.66675 20C9.40313 20 10.0001 19.403 10.0001 18.6667C10.0001 17.9303 9.40313 17.3333 8.66675 17.3333C7.93037 17.3333 7.33342 17.9303 7.33342 18.6667C7.33342 19.403 7.93037 20 8.66675 20ZM13.3334 20C14.0698 20 14.6667 19.403 14.6667 18.6667C14.6667 17.9303 14.0698 17.3333 13.3334 17.3333C12.597 17.3333 12.0001 17.9303 12.0001 18.6667C12.0001 19.403 12.597 20 13.3334 20ZM18.0001 20C18.7365 20 19.3334 19.403 19.3334 18.6667C19.3334 17.9303 18.7365 17.3333 18.0001 17.3333C17.2637 17.3333 16.6667 17.9303 16.6667 18.6667C16.6667 19.403 17.2637 20 18.0001 20Z" fill="white" fill-opacity="0.75"/>
<path opacity="0.6" d="M23.9789 19.3447C24.1228 19.2851 24.2647 19.2218 24.4045 19.1549C24.7935 18.9686 25.2342 18.9033 25.6508 19.0147L26.979 19.3701C28.0258 19.6502 28.9836 18.6925 28.7035 17.6456L28.3481 16.3174C28.2366 15.9008 28.302 15.4601 28.4882 15.0712C29.03 13.9395 29.3334 12.6719 29.3334 11.3334C29.3334 6.54695 25.4532 2.66675 20.6668 2.66675C17.0534 2.66675 13.9565 4.87808 12.6555 8.02128C12.8797 8.00722 13.1057 8.00008 13.3334 8.00008C19.2245 8.00008 24.0001 12.7757 24.0001 18.6667C24.0001 18.8945 23.993 19.1205 23.9789 19.3447Z" fill="white" fill-opacity="0.75"/>
</svg>
