<svg width="32" height="32" viewBox="0 0 32 32" fill="none" xmlns="http://www.w3.org/2000/svg">
<path fill-rule="evenodd" clip-rule="evenodd" d="M24 18.6667C24 24.5577 19.2244 29.3333 13.3333 29.3333C11.686 29.3333 10.1259 28.9599 8.733 28.2931C8.25427 28.0639 7.7119 27.9834 7.19917 28.1206L5.56445 28.558C4.27601 28.9027 3.09726 27.724 3.442 26.4355L3.8794 24.8008C4.01658 24.2881 3.93611 23.7457 3.70692 23.267C3.04009 21.8741 2.66666 20.314 2.66666 18.6667C2.66666 12.7756 7.44229 8 13.3333 8C19.2244 8 24 12.7756 24 18.6667ZM8.66666 20C9.40304 20 9.99999 19.403 9.99999 18.6667C9.99999 17.9303 9.40304 17.3333 8.66666 17.3333C7.93028 17.3333 7.33332 17.9303 7.33332 18.6667C7.33332 19.403 7.93028 20 8.66666 20ZM13.3333 20C14.0697 20 14.6667 19.403 14.6667 18.6667C14.6667 17.9303 14.0697 17.3333 13.3333 17.3333C12.5969 17.3333 12 17.9303 12 18.6667C12 19.403 12.5969 20 13.3333 20ZM18 20C18.7364 20 19.3333 19.403 19.3333 18.6667C19.3333 17.9303 18.7364 17.3333 18 17.3333C17.2636 17.3333 16.6667 17.9303 16.6667 18.6667C16.6667 19.403 17.2636 20 18 20Z" fill="#AE83DA"/>
<path opacity="0.6" d="M23.9788 19.3444C24.1227 19.2849 24.2646 19.2216 24.4044 19.1546C24.7934 18.9684 25.2341 18.903 25.6507 19.0145L26.9789 19.3699C28.0257 19.65 28.9835 18.6922 28.7033 17.6454L28.348 16.3172C28.2365 15.9006 28.3019 15.4599 28.4881 15.0709C29.0299 13.9392 29.3333 12.6716 29.3333 11.3332C29.3333 6.5467 25.4531 2.6665 20.6667 2.6665C17.0533 2.6665 13.9563 4.87784 12.6554 8.02104C12.8796 8.00698 13.1056 7.99984 13.3333 7.99984C19.2244 7.99984 24 12.7755 24 18.6665C24 18.8942 23.9928 19.1203 23.9788 19.3444Z" fill="#AE83DA"/>
</svg>
