<svg width="21" height="24" viewBox="0 0 21 24" fill="none" xmlns="http://www.w3.org/2000/svg">
<path opacity="0.5" d="M5.46048 21.3884H5.23375C4.41139 21.3884 4.00021 21.3884 3.74473 21.0955C3.48926 20.8026 3.48926 20.3312 3.48926 19.3884V18.2764C3.48926 17.7579 3.48926 17.4987 3.60542 17.2672C3.72159 17.0356 3.89683 16.9188 4.24733 16.6851C6.55483 15.1464 9.83184 14.2803 12.019 15.7759C12.166 15.8764 12.2981 15.9977 12.4111 16.1431C12.8979 16.77 12.8624 17.7161 12.3014 18.2775C12.1829 18.396 12.0566 18.486 11.9294 18.5172C12.0339 18.5033 12.1341 18.4874 12.2297 18.4699C13.0246 18.3245 13.692 17.8375 14.3029 17.3084L15.8792 15.9433C16.4349 15.462 17.2597 15.4619 17.8155 15.943C18.3159 16.3762 18.4689 17.0894 18.1525 17.6707C17.7836 18.3487 17.2639 19.216 16.7648 19.7459C16.265 20.2766 15.5209 20.7504 14.9135 21.0865C14.2406 21.4589 13.4972 21.6734 12.7411 21.8138C11.2076 22.0983 9.60944 22.0549 8.09152 21.6964C7.2334 21.4937 6.3422 21.3884 5.46048 21.3884Z" fill="#AE83DA"/>
<path d="M5.74435 2.58579C5.42443 2.95256 5.30482 3.4593 5.2601 4.2498C6.32279 4.23355 7.1816 3.24896 7.19578 2.03061C6.50627 2.08188 6.06427 2.21901 5.74435 2.58579Z" fill="#AE83DA"/>
<path d="M15.1894 2.58579C14.8695 2.21901 14.4275 2.08188 13.738 2.03061C13.7521 3.24895 14.611 4.23355 15.6737 4.2498C15.6289 3.4593 15.5093 2.95256 15.1894 2.58579Z" fill="#AE83DA"/>
<path d="M15.1894 9.41421C14.8695 9.78099 14.4275 9.91812 13.738 9.96939C13.7522 8.75104 14.611 7.76645 15.6737 7.7502C15.6289 8.5407 15.5093 9.04744 15.1894 9.41421Z" fill="#AE83DA"/>
<path d="M5.74435 9.41421C6.06427 9.78099 6.50627 9.91812 7.19578 9.96939C7.1816 8.75105 6.3228 7.76645 5.2601 7.7502C5.30482 8.5407 5.42443 9.04744 5.74435 9.41421Z" fill="#AE83DA"/>
<path fill-rule="evenodd" clip-rule="evenodd" d="M5.2334 5.75C7.03988 5.75 8.50432 4.07107 8.50432 2H12.4294C12.4294 4.07107 13.8939 5.75 15.7004 5.75V6.25C13.8939 6.25 12.4294 7.92893 12.4294 10H8.50432C8.50432 7.92893 7.03988 6.25 5.2334 6.25V5.75ZM10.4669 7C10.9486 7 11.3391 6.55228 11.3391 6C11.3391 5.44772 10.9486 5 10.4669 5C9.98515 5 9.59463 5.44772 9.59463 6C9.59463 6.55228 9.98515 7 10.4669 7Z" fill="#AE83DA"/>
</svg>
