<svg width="32" height="32" viewBox="0 0 32 32" fill="none" xmlns="http://www.w3.org/2000/svg">
<path opacity="0.5" d="M22.6102 4.02798C21.5414 4 20.3249 4 18.9333 4H13.0667C7.53553 4 4.76996 4 3.05165 5.75736C1.33334 7.51472 1.33334 10.3431 1.33334 16C1.33334 21.6569 1.33334 24.4853 3.05165 26.2426C4.76996 28 7.53553 28 13.0667 28H18.9333C24.4645 28 27.2301 28 28.9484 26.2426C30.6667 24.4853 30.6667 21.6569 30.6667 16C30.6667 14.5768 30.6667 13.3327 30.6393 12.2396C29.8428 12.6392 28.947 12.8636 28 12.8636C24.6863 12.8636 22 10.1163 22 6.72727C22 5.75872 22.2194 4.84257 22.6102 4.02798Z" fill="#AE83DA"/>
<path d="M22.9785 9.95192L20.9297 11.6593C19.5614 12.7995 18.6113 13.5887 17.8093 14.1045C17.0329 14.6039 16.5064 14.7715 16.0003 14.7715C15.4942 14.7715 14.9677 14.6039 14.1913 14.1045C13.3892 13.5887 12.4392 12.7995 11.0709 11.6593L7.90448 9.02061C7.43778 8.63169 6.74416 8.69475 6.35523 9.16145C5.96631 9.62815 6.02937 10.3218 6.49608 10.7107L9.7176 13.3953C11.0176 14.4787 12.0712 15.3567 13.0012 15.9548C13.9699 16.5779 14.9134 16.9715 16.0003 16.9715C17.0872 16.9715 18.0306 16.5779 18.9994 15.9548C19.9293 15.3567 20.983 14.4787 22.283 13.3953L24.5046 11.5439C23.9032 11.1122 23.385 10.572 22.9785 9.95192Z" fill="#49494C"/>
<path d="M24.605 8.78293C24.9816 8.71537 25.3829 8.8465 25.6453 9.16145C25.862 9.42152 25.9384 9.75205 25.8828 10.061C25.3658 9.73792 24.928 9.29998 24.605 8.78293Z" fill="#49494C"/>
<path d="M32 6.6665C32 8.87564 30.2091 10.6665 28 10.6665C25.7909 10.6665 24 8.87564 24 6.6665C24 4.45736 25.7909 2.6665 28 2.6665C30.2091 2.6665 32 4.45736 32 6.6665Z" fill="#AE83DA"/>
</svg>
