<svg width="32" height="32" viewBox="0 0 32 32" fill="none" xmlns="http://www.w3.org/2000/svg">
<path opacity="0.5" d="M22.6101 4.02798C21.5413 4 20.3248 4 18.9333 4H13.0666C7.53544 4 4.76987 4 3.05156 5.75736C1.33325 7.51472 1.33325 10.3431 1.33325 16C1.33325 21.6569 1.33325 24.4853 3.05156 26.2426C4.76987 28 7.53544 28 13.0666 28H18.9333C24.4644 28 27.23 28 28.9483 26.2426C30.6666 24.4853 30.6666 21.6569 30.6666 16C30.6666 14.5768 30.6666 13.3327 30.6392 12.2396C29.8427 12.6392 28.947 12.8636 27.9999 12.8636C24.6862 12.8636 21.9999 10.1163 21.9999 6.72727C21.9999 5.75872 22.2193 4.84257 22.6101 4.02798Z" fill="white" fill-opacity="0.75"/>
<path d="M22.9786 9.95192L20.9298 11.6593C19.5614 12.7995 18.6114 13.5887 17.8094 14.1045C17.033 14.6039 16.5065 14.7715 16.0004 14.7715C15.4943 14.7715 14.9678 14.6039 14.1914 14.1045C13.3893 13.5887 12.4393 12.7995 11.071 11.6593L7.90457 9.02061C7.43787 8.63169 6.74425 8.69475 6.35533 9.16145C5.96641 9.62815 6.02946 10.3218 6.49617 10.7107L9.71769 13.3953C11.0177 14.4787 12.0713 15.3567 13.0013 15.9548C13.97 16.5779 14.9135 16.9715 16.0004 16.9715C17.0873 16.9715 18.0307 16.5779 18.9994 15.9548C19.9294 15.3567 20.9831 14.4787 22.2831 13.3953L24.5047 11.5439C23.9033 11.1122 23.3851 10.572 22.9786 9.95192Z" fill="white" fill-opacity="0.75"/>
<path d="M24.6051 8.78293C24.9817 8.71537 25.383 8.8465 25.6454 9.16145C25.8621 9.42152 25.9385 9.75205 25.8829 10.061C25.3659 9.73792 24.9281 9.29998 24.6051 8.78293Z" fill="white" fill-opacity="0.75"/>
<path d="M32 6.6665C32 8.87564 30.2091 10.6665 28 10.6665C25.7909 10.6665 24 8.87564 24 6.6665C24 4.45736 25.7909 2.6665 28 2.6665C30.2091 2.6665 32 4.45736 32 6.6665Z" fill="white" fill-opacity="0.75"/>
</svg>
