<svg width="31" height="32" viewBox="0 0 31 32" fill="none" xmlns="http://www.w3.org/2000/svg">
<path opacity="0.5" d="M25.467 26.8015C27.3097 25.7968 28.4166 24.5087 28.4166 23.1042C28.4166 21.6156 27.1729 20.2576 25.1276 19.2292C22.7625 18.0401 19.3254 17.2917 15.4999 17.2917C11.6744 17.2917 8.23737 18.0401 5.87224 19.2292C3.82693 20.2576 2.58325 21.6156 2.58325 23.1042C2.58325 24.5929 3.82693 25.9509 5.87224 26.9792C8.23737 28.1684 11.6744 28.9167 15.4999 28.9167C19.5126 28.9167 23.0979 28.0933 25.467 26.8015Z" fill="white" fill-opacity="0.75"/>
<path fill-rule="evenodd" clip-rule="evenodd" d="M6.45825 11.498C6.45825 6.85066 10.5063 3.08325 15.4999 3.08325C20.4935 3.08325 24.5416 6.85066 24.5416 11.498C24.5416 16.1089 21.6558 21.4894 17.1533 23.4135C16.1037 23.8621 14.8961 23.8621 13.8465 23.4135C9.34404 21.4894 6.45825 16.1089 6.45825 11.498ZM15.4999 14.7083C16.9267 14.7083 18.0833 13.5517 18.0833 12.1249C18.0833 10.6982 16.9267 9.54158 15.4999 9.54158C14.0732 9.54158 12.9166 10.6982 12.9166 12.1249C12.9166 13.5517 14.0732 14.7083 15.4999 14.7083Z" fill="white" fill-opacity="0.75"/>
</svg>
