<svg width="31" height="32" viewBox="0 0 31 32" fill="none" xmlns="http://www.w3.org/2000/svg">
<path opacity="0.5" d="M25.4671 26.8013C27.3097 25.7966 28.4166 24.5084 28.4166 23.104C28.4166 21.6153 27.173 20.2573 25.1277 19.229C22.7625 18.0399 19.3255 17.2915 15.5 17.2915C11.6745 17.2915 8.23743 18.0399 5.8723 19.229C3.82699 20.2573 2.58331 21.6153 2.58331 23.104C2.58331 24.5927 3.82699 25.9507 5.8723 26.979C8.23743 28.1681 11.6745 28.9165 15.5 28.9165C19.5127 28.9165 23.098 28.0931 25.4671 26.8013Z" fill="#AE83DA"/>
<path fill-rule="evenodd" clip-rule="evenodd" d="M6.45831 11.4982C6.45831 6.8509 10.5064 3.0835 15.5 3.0835C20.4936 3.0835 24.5416 6.8509 24.5416 11.4982C24.5416 16.1091 21.6559 21.4897 17.1534 23.4138C16.1038 23.8623 14.8962 23.8623 13.8466 23.4138C9.3441 21.4897 6.45831 16.1091 6.45831 11.4982ZM15.5 14.7085C16.9267 14.7085 18.0833 13.5519 18.0833 12.1252C18.0833 10.6984 16.9267 9.54183 15.5 9.54183C14.0732 9.54183 12.9166 10.6984 12.9166 12.1252C12.9166 13.5519 14.0732 14.7085 15.5 14.7085Z" fill="#AE83DA"/>
</svg>
