<svg width="24" height="24" viewBox="0 0 24 24" fill="none" xmlns="http://www.w3.org/2000/svg">
<path d="M3 6.52401C3 6.12901 3.327 5.81001 3.73 5.81001H8.518C8.524 4.96801 8.616 3.81501 9.45 3.01701C10.137 2.36178 11.0506 1.9974 12 2.00001C12.9494 1.9974 13.863 2.36178 14.55 3.01701C15.384 3.81501 15.476 4.96801 15.482 5.81001H20.27C20.673 5.81001 21 6.13001 21 6.52401C20.999 6.61883 20.9792 6.71251 20.942 6.79971C20.9047 6.88691 20.8507 6.96591 20.7829 7.03222C20.7151 7.09852 20.6349 7.15082 20.5469 7.18613C20.4589 7.22144 20.3648 7.23907 20.27 7.23801H3.73C3.63518 7.23907 3.54109 7.22144 3.45309 7.18613C3.36509 7.15082 3.2849 7.09852 3.21711 7.03222C3.14933 6.96591 3.09526 6.88691 3.05801 6.79971C3.02076 6.71251 3.00104 6.61883 3 6.52401Z" fill="white"/>
<path opacity="0.5" d="M11.5962 22H12.4042C15.1872 22 16.5782 22 17.4842 21.114C18.3882 20.228 18.4802 18.775 18.6652 15.869L18.9322 11.681C19.0322 10.104 19.0822 9.31504 18.6292 8.81604C18.1752 8.31604 17.4092 8.31604 15.8762 8.31604H8.12422C6.59122 8.31604 5.82422 8.31604 5.37122 8.81604C4.91722 9.31604 4.96722 10.104 5.06822 11.681L5.33522 15.869C5.52022 18.775 5.61222 20.229 6.51722 21.114C7.42222 22 8.81322 22 11.5962 22Z" fill="white"/>
<path fill-rule="evenodd" clip-rule="evenodd" d="M9.42474 11.482C9.83774 11.438 10.2047 11.755 10.2457 12.189L10.7457 17.452C10.7867 17.885 10.4857 18.272 10.0747 18.316C9.66274 18.359 9.29474 18.043 9.25374 17.609L8.75374 12.346C8.71274 11.912 9.01374 11.525 9.42474 11.482ZM14.5747 11.482C14.9867 11.525 15.2877 11.912 15.2457 12.346L14.7457 17.609C14.7057 18.043 14.3377 18.359 13.9257 18.316C13.5127 18.272 13.2127 17.886 13.2537 17.452L13.7537 12.188C13.7947 11.755 14.1627 11.438 14.5737 11.481" fill="white"/>
</svg>
