<svg width="24" height="25" viewBox="0 0 24 25" fill="none" xmlns="http://www.w3.org/2000/svg">
<path d="M12 16.5C11.7167 16.5 11.4793 16.404 11.288 16.212C11.096 16.0207 11 15.7834 11 15.5V8.35005L9.125 10.225C8.925 10.425 8.69167 10.525 8.425 10.525C8.15833 10.525 7.91667 10.4167 7.7 10.2C7.5 10 7.40433 9.76238 7.413 9.48705C7.421 9.21238 7.51667 8.98338 7.7 8.80005L11.3 5.20005C11.4 5.10005 11.5083 5.02905 11.625 4.98705C11.7417 4.94572 11.8667 4.92505 12 4.92505C12.1333 4.92505 12.2583 4.94572 12.375 4.98705C12.4917 5.02905 12.6 5.10005 12.7 5.20005L16.3 8.80005C16.5 9.00005 16.5957 9.23738 16.587 9.51205C16.579 9.78738 16.4833 10.0167 16.3 10.2C16.1 10.4 15.8627 10.504 15.588 10.512C15.3127 10.5207 15.075 10.425 14.875 10.225L13 8.35005V15.5C13 15.7834 12.9043 16.0207 12.713 16.212C12.521 16.404 12.2833 16.5 12 16.5ZM6 20.5C5.45 20.5 4.97933 20.3044 4.588 19.913C4.196 19.521 4 19.05 4 18.5V16.5C4 16.2167 4.09567 15.979 4.287 15.787C4.479 15.5957 4.71667 15.5 5 15.5C5.28333 15.5 5.521 15.5957 5.713 15.787C5.90433 15.979 6 16.2167 6 16.5V18.5H18V16.5C18 16.2167 18.096 15.979 18.288 15.787C18.4793 15.5957 18.7167 15.5 19 15.5C19.2833 15.5 19.5207 15.5957 19.712 15.787C19.904 15.979 20 16.2167 20 16.5V18.5C20 19.05 19.8043 19.521 19.413 19.913C19.021 20.3044 18.55 20.5 18 20.5H6Z" fill="#033E5D"/>
</svg>
