<svg width="77" height="38" viewBox="0 0 77 38" fill="none" xmlns="http://www.w3.org/2000/svg">
<path d="M28.1457 12.0646H29.3695C29.1415 10.7402 28.6856 9.3796 28.0018 7.98289C27.3179 6.57415 26.3941 5.26774 25.2304 4.06369C24.0666 2.84759 22.657 1.86629 21.0013 1.11977C19.3457 0.373258 17.4321 0 15.2606 0C12.2373 0 9.57987 0.794677 7.28838 2.38403C4.99689 3.97338 3.20929 6.19487 1.92557 9.04848C0.641857 11.9021 0 15.2193 0 19C0 22.7807 0.641857 26.0979 1.92557 28.9515C3.20929 31.8051 4.99689 34.0266 7.28838 35.616C9.57987 37.2053 12.2373 38 15.2606 38C17.4321 38 19.3457 37.6267 21.0013 36.8802C22.657 36.1217 24.0666 35.1343 25.2304 33.9183C26.3941 32.7022 27.3179 31.3958 28.0018 29.9991C28.6856 28.5903 29.1415 27.2357 29.3695 25.9354H28.1457C27.9178 27.1755 27.4739 28.4398 26.814 29.7281C26.1542 31.0044 25.2784 32.1844 24.1866 33.2681C23.0949 34.3397 21.8051 35.2066 20.3175 35.8688C18.8298 36.519 17.1442 36.8441 15.2606 36.8441C12.7412 36.8441 10.4077 36.1638 8.26016 34.8032C6.12464 33.4427 4.40302 31.4379 3.09531 28.789C1.7996 26.1401 1.15174 22.8771 1.15174 19C1.15174 15.1711 1.7996 11.9322 3.09531 9.28327C4.40302 6.62231 6.12464 4.60551 8.26016 3.23289C10.4077 1.84823 12.7412 1.15589 15.2606 1.15589C17.1442 1.15589 18.8298 1.48701 20.3175 2.14924C21.8051 2.81147 23.0949 3.68441 24.1866 4.76806C25.2784 5.85171 26.1542 7.03169 26.814 8.30799C27.4739 9.58428 27.9178 10.8365 28.1457 12.0646Z" fill="#FDFDFD"/>
<path d="M33.1349 0.505704V37.4943H34.2867V19.5779H51.2029V18.4221H34.2867V1.6616H52.9305V0.505704H33.1349Z" fill="#FDFDFD"/>
<path fill-rule="evenodd" clip-rule="evenodd" d="M57.2044 0.505704V37.4943H58.3561V21.5202C58.5653 21.8688 58.8242 22.1979 59.1329 22.5077C60.0885 23.4668 61.2284 23.9461 62.5527 23.9456C63.877 23.9451 65.0173 23.465 65.9736 22.5052C66.3676 22.1098 66.6943 21.6363 66.9535 21.0848C67.1837 20.5948 67.3281 20.0925 67.3865 19.5779H75.2724V18.4221H67.3704C67.3097 17.9978 67.1811 17.5638 66.9846 17.1201C66.7357 16.5582 66.3987 16.0639 65.9736 15.6373C65.0173 14.6775 63.8762 14.1982 62.5502 14.1995C61.2242 14.2007 60.0834 14.6808 59.1278 15.6398C58.8214 15.9474 58.5641 16.274 58.3561 16.6198V1.6616H77V0.505704H57.2044ZM58.3561 19.7435C58.4902 20.6185 58.8934 21.3933 59.5658 22.0682C60.4057 22.911 61.4011 23.3325 62.552 23.3325C63.7029 23.3325 64.6983 22.911 65.5381 22.0682C66.2527 21.3511 66.6632 20.521 66.7699 19.5779H58.3561V19.7435ZM66.7513 18.4221H58.3561V18.3989C58.4902 17.524 58.8934 16.7491 59.5658 16.0743C60.4057 15.2314 61.4011 14.81 62.552 14.81C63.7029 14.81 64.6983 15.2314 65.5381 16.0743C66.2165 16.7551 66.6209 17.5377 66.7513 18.4221Z" fill="#FDFDFD"/>
</svg>
