<svg width="21" height="18" viewBox="0 0 21 18" fill="none" xmlns="http://www.w3.org/2000/svg">
<path fill-rule="evenodd" clip-rule="evenodd" d="M3.4773 7.76149C6.54158 2.58716 8.07372 0 10.5 0C12.9263 0 14.4584 2.58716 17.5227 7.76149L17.9045 8.40626C20.4509 12.7061 21.7241 14.856 20.5734 16.428C19.4227 18 16.5758 18 10.8818 18H10.1182C4.42424 18 1.57728 18 0.42657 16.428C-0.724141 14.856 0.549058 12.7061 3.09545 8.40627L3.4773 7.76149ZM10.5 4.25C10.9349 4.25 11.2875 4.58579 11.2875 5V10C11.2875 10.4142 10.9349 10.75 10.5 10.75C10.0651 10.75 9.7125 10.4142 9.7125 10V5C9.7125 4.58579 10.0651 4.25 10.5 4.25ZM10.5 14C11.0799 14 11.55 13.5523 11.55 13C11.55 12.4477 11.0799 12 10.5 12C9.9201 12 9.45 12.4477 9.45 13C9.45 13.5523 9.9201 14 10.5 14Z" fill="#E05C6A"/>
</svg>
