<svg width="17" height="17" viewBox="0 0 17 17" fill="none" xmlns="http://www.w3.org/2000/svg">
<g clip-path="url(#clip0_2670_1906)">
<path fill-rule="evenodd" clip-rule="evenodd" d="M0.862305 2.39648C0.862305 2.12034 1.08616 1.89648 1.3623 1.89648H2.62983C3.12913 1.89648 3.57307 2.21421 3.73413 2.68682L4.04635 3.60299H12.3621C14.111 3.60299 15.5287 5.02075 15.5287 6.76965V9.53127C15.5287 11.2802 14.111 12.6979 12.3621 12.6979H7.37277C5.8398 12.6979 4.52696 11.5999 4.25598 10.091L3.20305 4.22853L2.78759 3.00939C2.76458 2.94187 2.70116 2.89648 2.62983 2.89648H1.3623C1.08616 2.89648 0.862305 2.67263 0.862305 2.39648Z" fill="#0E1C36" fill-opacity="0.3"/>
<path fill-rule="evenodd" clip-rule="evenodd" d="M10.1938 6.60359C10.1938 6.32745 9.96999 6.10359 9.69385 6.10359C9.41771 6.10359 9.19385 6.32745 9.19385 6.60359L9.19385 7.75518L8.04226 7.75518C7.76612 7.75518 7.54226 7.97904 7.54226 8.25518C7.54226 8.53133 7.76612 8.75518 8.04226 8.75518L9.19384 8.75518L9.19384 9.90676C9.19384 10.1829 9.4177 10.4068 9.69384 10.4068C9.96998 10.4068 10.1938 10.1829 10.1938 9.90676L10.1938 8.75518L11.3454 8.75518C11.6216 8.75518 11.8454 8.53132 11.8454 8.25517C11.8454 7.97903 11.6216 7.75518 11.3454 7.75518L10.1938 7.75518L10.1938 6.60359Z" fill="#0E1C36"/>
<path fill-rule="evenodd" clip-rule="evenodd" d="M6.52734 14.5625C6.52734 14.0102 6.97506 13.5625 7.52734 13.5625H7.53401C8.0863 13.5625 8.53401 14.0102 8.53401 14.5625C8.53401 15.1148 8.0863 15.5625 7.53401 15.5625H7.52734C6.97506 15.5625 6.52734 15.1148 6.52734 14.5625Z" fill="#0E1C36"/>
<path fill-rule="evenodd" clip-rule="evenodd" d="M11.8604 14.5625C11.8604 14.0102 12.3081 13.5625 12.8604 13.5625H12.867C13.4193 13.5625 13.867 14.0102 13.867 14.5625C13.867 15.1148 13.4193 15.5625 12.867 15.5625H12.8604C12.3081 15.5625 11.8604 15.1148 11.8604 14.5625Z" fill="#0E1C36"/>
</g>
<defs>
<clipPath id="clip0_2670_1906">
<rect width="16" height="16" fill="white" transform="translate(0.193848 0.896484)"/>
</clipPath>
</defs>
</svg>
