<svg width="17" height="17" viewBox="0 0 17 17" fill="none" xmlns="http://www.w3.org/2000/svg">
<g clip-path="url(#clip0_2670_1932)">
<path fill-rule="evenodd" clip-rule="evenodd" d="M1.3623 2.39648C1.3623 2.12034 1.58616 1.89648 1.8623 1.89648H3.12983C3.62913 1.89648 4.07307 2.21421 4.23413 2.68682L4.54635 3.60299H12.8621C14.611 3.60299 16.0287 5.02075 16.0287 6.76965V9.53127C16.0287 11.2802 14.611 12.6979 12.8621 12.6979H7.87277C6.3398 12.6979 5.02696 11.5999 4.75598 10.091L3.70305 4.22853L3.28759 3.00939C3.26458 2.94187 3.20116 2.89648 3.12983 2.89648H1.8623C1.58616 2.89648 1.3623 2.67263 1.3623 2.39648Z" fill="white" fill-opacity="0.3"/>
<path fill-rule="evenodd" clip-rule="evenodd" d="M10.6938 6.60359C10.6938 6.32745 10.47 6.10359 10.1938 6.10359C9.91771 6.10359 9.69385 6.32745 9.69385 6.60359L9.69385 7.75518L8.54226 7.75518C8.26612 7.75518 8.04226 7.97904 8.04226 8.25518C8.04226 8.53133 8.26612 8.75518 8.54226 8.75518L9.69384 8.75518L9.69384 9.90676C9.69384 10.1829 9.9177 10.4068 10.1938 10.4068C10.47 10.4068 10.6938 10.1829 10.6938 9.90676L10.6938 8.75518L11.8454 8.75518C12.1216 8.75518 12.3454 8.53132 12.3454 8.25517C12.3454 7.97903 12.1216 7.75518 11.8454 7.75518L10.6938 7.75518L10.6938 6.60359Z" fill="white"/>
<path fill-rule="evenodd" clip-rule="evenodd" d="M7.02734 14.5625C7.02734 14.0102 7.47506 13.5625 8.02734 13.5625H8.03401C8.5863 13.5625 9.03401 14.0102 9.03401 14.5625C9.03401 15.1148 8.5863 15.5625 8.03401 15.5625H8.02734C7.47506 15.5625 7.02734 15.1148 7.02734 14.5625Z" fill="white"/>
<path fill-rule="evenodd" clip-rule="evenodd" d="M12.3604 14.5625C12.3604 14.0102 12.8081 13.5625 13.3604 13.5625H13.367C13.9193 13.5625 14.367 14.0102 14.367 14.5625C14.367 15.1148 13.9193 15.5625 13.367 15.5625H13.3604C12.8081 15.5625 12.3604 15.1148 12.3604 14.5625Z" fill="white"/>
</g>
<defs>
<clipPath id="clip0_2670_1932">
<rect width="16" height="16" fill="white" transform="translate(0.693848 0.896484)"/>
</clipPath>
</defs>
</svg>
