<svg width="25" height="24" viewBox="0 0 25 24" fill="none" xmlns="http://www.w3.org/2000/svg">
<path opacity="0.35" d="M22.79 12C22.79 17.5228 18.3129 22 12.79 22C7.26719 22 2.79004 17.5228 2.79004 12C2.79004 6.47715 7.26719 2 12.79 2C18.3129 2 22.79 6.47715 22.79 12Z" fill="#00B428" fill-opacity="0.3"/>
<path d="M16.8204 8.96967C17.1133 9.26256 17.1133 9.73744 16.8204 10.0303L11.8204 15.0303C11.5275 15.3232 11.0526 15.3232 10.7597 15.0303L8.75971 13.0303C8.46682 12.7374 8.46682 12.2626 8.75971 11.9697C9.0526 11.6768 9.52748 11.6768 9.82037 11.9697L11.29 13.4393L13.5249 11.2045L15.7597 8.96967C16.0526 8.67678 16.5275 8.67678 16.8204 8.96967Z" fill="#00B428"/>
</svg>
