<svg width="28" height="28" viewBox="0 0 28 28" fill="none" xmlns="http://www.w3.org/2000/svg">
<path d="M13.1039 7.50397V6.99997C13.1039 6.55197 13.2159 6.21597 13.3839 5.87997C13.5519 5.54397 13.8879 5.20797 14.3919 4.87197C14.8399 4.53597 15.1759 4.25597 15.3439 4.03197C15.5119 3.80797 15.5679 3.58397 15.5679 3.30397C15.5679 3.02397 15.4559 2.79997 15.2319 2.63197C15.0079 2.46397 14.7279 2.40797 14.3359 2.40797C13.6639 2.40797 12.8799 2.63197 12.0399 3.07997L11.2559 1.67997C12.2639 1.11997 13.3279 0.839966 14.3919 0.839966C15.2879 0.839966 16.0159 1.06397 16.5759 1.51197C17.1359 1.95997 17.3599 2.51997 17.3599 3.30397C17.3599 3.80797 17.2479 4.19997 17.0239 4.59197C16.7999 4.92797 16.3519 5.37597 15.7359 5.82397C15.2879 6.15997 15.0639 6.38397 14.9519 6.55197C14.8399 6.71997 14.7839 6.94397 14.7839 7.22397V7.61597H13.1039V7.50397ZM12.8799 9.79997C12.8799 9.40797 12.9919 9.12797 13.1599 8.95997C13.3839 8.79197 13.6639 8.67997 14.0559 8.67997C14.4479 8.67997 14.7279 8.79197 14.8959 8.95997C15.1199 9.18397 15.1759 9.46397 15.1759 9.79997C15.1759 10.136 15.0639 10.416 14.8959 10.64C14.6719 10.864 14.3919 10.92 14.0559 10.92C13.6639 10.92 13.3839 10.808 13.1599 10.64C12.9919 10.472 12.8799 10.192 12.8799 9.79997ZM23.0719 12.432L19.6559 9.91197V11.368H18.4239C15.3999 11.368 12.9359 13.832 12.9359 16.856V17.248C12.9359 17.808 13.3839 18.312 13.9999 18.312C14.5599 18.312 15.0639 17.864 15.0639 17.248V16.856C15.0639 15.008 16.5759 13.44 18.4239 13.44H19.6559V14.896L23.0719 12.432Z" stroke="#0E1C36" stroke-miterlimit="10" stroke-linecap="round" stroke-linejoin="round"/>
<path d="M8.34422 13.496V12.996C8.06808 12.996 7.84422 13.2198 7.84422 13.496H8.34422ZM8.34422 14.952L8.0474 15.3543C8.19923 15.4664 8.40118 15.4834 8.5696 15.3983C8.73802 15.3133 8.84422 15.1407 8.84422 14.952H8.34422ZM4.92822 12.432L4.6314 12.0296C4.50363 12.1239 4.42822 12.2732 4.42822 12.432C4.42822 12.5908 4.50363 12.7401 4.6314 12.8343L4.92822 12.432ZM8.34422 9.91199H8.84422C8.84422 9.72331 8.73802 9.55071 8.5696 9.46566C8.40118 9.38062 8.19923 9.39762 8.0474 9.50963L8.34422 9.91199ZM8.34422 11.368H7.84422C7.84422 11.6441 8.06808 11.868 8.34422 11.868V11.368ZM13.5945 13.9561C13.7558 14.1802 14.0683 14.2311 14.2924 14.0698C14.5165 13.9084 14.5673 13.5959 14.406 13.3718L13.5945 13.9561ZM12.2642 18.76L12.6431 18.4337C12.5398 18.3138 12.3858 18.2498 12.228 18.2613L12.2642 18.76ZM14.0002 20.776L13.6213 21.1022C13.7163 21.2126 13.8547 21.276 14.0002 21.276C14.1458 21.276 14.2841 21.2126 14.3791 21.1022L14.0002 20.776ZM15.7362 18.76L15.7815 18.262C15.6207 18.2474 15.4627 18.3114 15.3573 18.4337L15.7362 18.76ZM17.4722 18.984L17.5727 18.4942L17.5703 18.4937L17.4722 18.984ZM13.4362 16.912C13.4362 14.7986 11.711 12.996 9.57622 12.996V13.996C11.1374 13.996 12.4362 15.3294 12.4362 16.912H13.4362ZM9.57622 12.996H8.34422V13.996H9.57622V12.996ZM7.84422 13.496V14.952H8.84422V13.496H7.84422ZM8.64105 14.5496L5.22505 12.0296L4.6314 12.8343L8.0474 15.3543L8.64105 14.5496ZM5.22505 12.8343L8.64105 10.3143L8.0474 9.50963L4.6314 12.0296L5.22505 12.8343ZM7.84422 9.91199V11.368H8.84422V9.91199H7.84422ZM8.34422 11.868H9.57622V10.868H8.34422V11.868ZM9.57622 11.868C11.2516 11.868 12.6733 12.6767 13.5945 13.9561L14.406 13.3718C13.3112 11.8513 11.5969 10.868 9.57622 10.868V11.868ZM20.6682 23.296C20.6682 25.1809 19.0676 26.66 17.1922 26.66V27.66C19.5729 27.66 21.6682 25.7791 21.6682 23.296H20.6682ZM17.1922 26.66H10.8082V27.66H17.1922V26.66ZM10.8082 26.66C8.87663 26.66 7.33222 25.1807 7.33222 23.352H6.33222C6.33222 25.7793 8.37182 27.66 10.8082 27.66V26.66ZM7.33222 23.352V23.296H6.33222V23.352H7.33222ZM7.33222 23.296C7.33222 21.7516 7.86178 20.8384 8.68133 20.2606C9.53976 19.6554 10.7842 19.3689 12.3005 19.2587L12.228 18.2613C10.6643 18.375 9.19268 18.6766 8.10511 19.4433C6.97866 20.2375 6.33222 21.4804 6.33222 23.296H7.33222ZM11.8853 19.0862L13.6213 21.1022L14.3791 20.4497L12.6431 18.4337L11.8853 19.0862ZM14.3791 21.1022L16.1151 19.0862L15.3573 18.4337L13.6213 20.4497L14.3791 21.1022ZM15.691 19.2579C16.3075 19.314 16.8433 19.3681 17.3742 19.4743L17.5703 18.4937C16.9811 18.3759 16.3969 18.318 15.7815 18.262L15.691 19.2579ZM17.3718 19.4738C18.4083 19.6864 19.222 20.0598 19.7765 20.6442C20.3213 21.2182 20.6682 22.0512 20.6682 23.296H21.6682C21.6682 21.8528 21.2591 20.7537 20.5019 19.9558C19.7544 19.1682 18.7201 18.7296 17.5727 18.4942L17.3718 19.4738Z" fill="#0E1C36"/>
<path d="M14.5038 21.168L15.1758 25.424L13.9438 26.376L12.6558 25.424L13.3278 21.336" stroke="#0E1C36" stroke-miterlimit="10" stroke-linecap="round" stroke-linejoin="round"/>
</svg>
