<svg width="28" height="28" viewBox="0 0 28 28" fill="none" xmlns="http://www.w3.org/2000/svg">
<g clip-path="url(#clip0_2339_1685)">
<path d="M11.3752 25.3246L10.5899 16.6249C10.6725 16.4939 10.7172 16.3424 10.7189 16.1874V13.2584L11.7996 12.7465L12.0489 13.3328C12.1424 13.545 12.3164 13.7115 12.5325 13.7956C12.7487 13.8797 12.9894 13.8745 13.2018 13.7812L17.0627 12.0312C17.2726 11.935 17.4369 11.7609 17.5206 11.5457C17.6043 11.3305 17.6009 11.0911 17.5111 10.8784L15.9514 7.22526C15.8572 7.01376 15.6829 6.84827 15.4668 6.76503C15.2507 6.6818 15.0104 6.68761 14.7986 6.7812L10.9377 8.5312C10.7277 8.62735 10.5635 8.80149 10.4798 9.0167C10.3961 9.23191 10.3995 9.47126 10.4893 9.68401L10.6883 10.1499L9.09582 10.9068L7.63676 8.31245C7.60804 8.26246 7.56974 8.21863 7.52408 8.18344C7.47841 8.14825 7.42626 8.12241 7.3706 8.10737C7.31494 8.09234 7.25687 8.08842 7.1997 8.09583C7.14252 8.10324 7.08737 8.12184 7.03739 8.15057C6.9874 8.1793 6.94357 8.21759 6.90838 8.26326C6.87319 8.30892 6.84735 8.36108 6.83231 8.41673C6.81728 8.47239 6.81336 8.53046 6.82077 8.58764C6.82819 8.64481 6.84679 8.69996 6.87551 8.74995L8.4352 11.5128C8.51267 11.6587 8.64368 11.769 8.80073 11.8204C8.95777 11.8718 9.12862 11.8603 9.27739 11.7884L13.4796 9.78901C13.5441 9.75203 13.6183 9.73538 13.6925 9.74124C13.7666 9.74709 13.8373 9.77518 13.8952 9.82182L14.2124 10.4781C14.2174 10.4883 14.22 10.4995 14.22 10.5109C14.22 10.5223 14.2174 10.5335 14.2124 10.5437C14.1906 10.5887 14.16 10.6289 14.1224 10.662C14.0848 10.695 14.0411 10.7203 13.9936 10.7362L8.50082 13.3437C8.28207 13.3437 8.03489 13.2824 7.97582 13.1534L5.84082 9.67307C5.81127 9.62314 5.77208 9.57959 5.72554 9.54495C5.67899 9.51031 5.62602 9.48527 5.56971 9.4713C5.5134 9.45732 5.45487 9.45469 5.39753 9.46355C5.34019 9.47241 5.28518 9.49258 5.23571 9.5229C5.18624 9.55322 5.1433 9.59308 5.10938 9.64015C5.07546 9.68723 5.05124 9.74058 5.03814 9.7971C5.02503 9.85362 5.0233 9.91218 5.03304 9.96938C5.04279 10.0266 5.06381 10.0813 5.09489 10.1303L7.18832 13.5384C7.42239 14.0174 7.96489 14.2187 8.46364 14.2187C8.52921 14.2223 8.59494 14.2223 8.66051 14.2187H8.73489L9.84395 13.674V16.1721C9.83104 16.1827 9.81469 16.1882 9.79801 16.1874H4.20239C4.18571 16.1882 4.16936 16.1827 4.15645 16.1721V7.78963C4.15645 6.82713 4.89801 6.01557 5.90645 5.7662C5.58531 5.60867 5.29022 5.40284 5.03145 5.15588C4.52157 5.38343 4.08659 5.75076 3.77687 6.21533C3.46716 6.67991 3.29539 7.22271 3.28145 7.78088V16.1874C3.28256 16.3302 3.32021 16.4703 3.39083 16.5943L1.3302 26.3943C1.30596 26.5066 1.3047 26.6226 1.32651 26.7354C1.34831 26.8482 1.39273 26.9554 1.45708 27.0506C1.60317 27.2667 1.8289 27.4161 2.08489 27.4662C2.08489 27.4662 4.8127 27.9999 5.0052 27.9999C5.74457 27.9999 5.8802 27.3765 5.91739 27.1709C5.95043 27.0252 5.95371 26.8744 5.92702 26.7274C5.90033 26.5804 5.84423 26.4403 5.76207 26.3156C5.51624 25.9862 5.16234 25.7539 4.76239 25.6593L7.05489 19.3156L8.66051 27.2343C8.6913 27.4488 8.79905 27.6447 8.96367 27.7856C9.1283 27.9265 9.33854 28.0027 9.5552 27.9999H9.6252L11.3118 27.8862C11.8083 27.8578 12.3705 27.8228 12.6943 27.4487C12.778 27.351 12.8407 27.237 12.8784 27.1139C12.916 26.9908 12.9278 26.8613 12.913 26.7334C12.8233 25.8124 12.1124 25.4143 11.3752 25.3246ZM14.3611 11.5303C14.5153 11.466 14.6547 11.3709 14.771 11.251C14.8872 11.131 14.9777 10.9886 15.0371 10.8324C15.0818 10.7116 15.1011 10.5828 15.094 10.4541C15.0868 10.3254 15.0533 10.1995 14.9955 10.0843L14.6783 9.42807C14.4136 8.9162 13.7333 8.7237 13.1164 8.99057L11.4846 9.76495L11.2964 9.32745L15.1464 7.57745L16.7018 11.2415L12.8496 12.9915L12.5914 12.3812L14.3611 11.5303ZM3.59864 26.3024L4.30739 26.4446C4.58244 26.474 4.83857 26.5986 5.03145 26.7968C5.0504 26.8251 5.06296 26.8572 5.06825 26.8908C5.07354 26.9244 5.07143 26.9588 5.06207 26.9915C5.05588 27.0368 5.04563 27.0815 5.03145 27.1249H5.01395C4.90239 27.1249 2.2052 26.5671 2.19864 26.5671L4.18489 17.0624H6.59114L6.71145 17.6574L3.59864 26.3024ZM12.0314 26.8734C11.9549 26.9674 9.56176 27.1249 9.56176 27.1249H9.53551L7.49457 17.0624H9.75208L10.5811 26.204L11.0033 26.1799H11.0514C11.3971 26.1799 11.9833 26.2609 12.0293 26.8056C12.034 26.8279 12.0348 26.8508 12.0314 26.8734Z" fill="#0E1C36"/>
<path d="M26.25 14.6563H25.5062L23.5747 11.2329L24.2572 10.8916C24.361 10.8397 24.44 10.7486 24.4767 10.6385C24.5134 10.5283 24.5049 10.4081 24.453 10.3043C24.4273 10.2528 24.3917 10.207 24.3482 10.1693C24.3048 10.1317 24.2544 10.1029 24.1998 10.0847C24.0897 10.048 23.9695 10.0566 23.8656 10.1085L23.1438 10.4694L20.9431 6.56254C20.8851 6.4616 20.7894 6.38783 20.677 6.35747C20.5646 6.32711 20.4447 6.34265 20.3438 6.40067C20.2428 6.45868 20.169 6.55443 20.1387 6.66683C20.1083 6.77924 20.1239 6.8991 20.1819 7.00004L24.5 14.6563H13.5625C13.4465 14.6563 13.3352 14.7024 13.2531 14.7844C13.1711 14.8665 13.125 14.9778 13.125 15.0938C13.125 15.2098 13.1711 15.3211 13.2531 15.4032C13.3352 15.4852 13.4465 15.5313 13.5625 15.5313H14.0678L15.9534 26.7641C16.0141 27.1076 16.1929 27.4192 16.4589 27.6449C16.725 27.8705 17.0615 27.9962 17.4103 28H22.4C22.748 27.9969 23.084 27.8723 23.35 27.6479C23.616 27.4234 23.7952 27.1132 23.8569 26.7707L25.7425 15.5466V15.5313H26.25C26.366 15.5313 26.4773 15.4852 26.5594 15.4032C26.6414 15.3211 26.6875 15.2098 26.6875 15.0938C26.6875 14.9778 26.6414 14.8665 26.5594 14.7844C26.4773 14.7024 26.366 14.6563 26.25 14.6563ZM22.9928 26.6307C22.9632 26.7673 22.8888 26.8902 22.7814 26.9797C22.674 27.0693 22.5398 27.1204 22.4 27.125H17.4103C17.2698 27.1197 17.135 27.0675 17.0276 26.9767C16.9202 26.8859 16.8462 26.7618 16.8175 26.6241L15.2862 17.5H24.5284L22.9928 26.6307ZM24.675 16.625H15.1375L14.9538 15.5313H24.8566L24.675 16.625Z" fill="#0E1C36"/>
<path d="M8.68438 6.20156C8.6212 6.36207 8.59079 6.53359 8.59492 6.70603C8.59905 6.87847 8.63765 7.04833 8.70844 7.20563L9.56156 9.11094C9.6134 8.7264 9.78928 8.36927 10.0625 8.09375L9.50688 6.85344C9.48399 6.80205 9.47149 6.74663 9.4701 6.69039C9.46872 6.63415 9.47847 6.57819 9.49881 6.52573C9.51914 6.47327 9.54965 6.42536 9.58857 6.38474C9.6275 6.34412 9.67408 6.3116 9.72563 6.28906L14.9516 4.02938C15.0062 4.0061 15.065 3.99419 15.1244 3.99438C15.2103 3.99533 15.2942 4.02073 15.3663 4.0676C15.4383 4.11447 15.4955 4.18088 15.5313 4.25906L16.5747 6.5625C16.6461 6.66085 16.7069 6.76643 16.7563 6.8775L17.5853 8.82L17.6181 8.89219V8.9075L18.095 10.0253C18.3004 9.8432 18.442 9.60007 18.4991 9.33157C18.5562 9.06308 18.5257 8.78335 18.4122 8.53344L16.3406 3.9025C16.2352 3.66886 16.0646 3.47065 15.8492 3.33172C15.6338 3.19279 15.3829 3.11905 15.1266 3.11938C14.9475 3.11922 14.7704 3.1557 14.6059 3.22656L9.38 5.47969C9.22183 5.54764 9.07882 5.64649 8.95937 5.77045C8.83992 5.89442 8.74642 6.04099 8.68438 6.20156ZM7.4375 5.25C7.95668 5.25 8.46419 5.09605 8.89587 4.80761C9.32755 4.51917 9.664 4.1092 9.86268 3.62954C10.0614 3.14989 10.1133 2.62209 10.0121 2.11289C9.91078 1.60369 9.66077 1.13596 9.29366 0.768846C8.92654 0.401733 8.45881 0.151726 7.94961 0.0504398C7.44041 -0.0508464 6.91261 0.00113738 6.43296 0.199817C5.9533 0.398497 5.54333 0.73495 5.25489 1.16663C4.96645 1.59831 4.8125 2.10583 4.8125 2.625C4.8125 3.32119 5.08906 3.98887 5.58134 4.48116C6.07363 4.97344 6.74131 5.25 7.4375 5.25ZM7.4375 0.875001C7.78362 0.875001 8.12196 0.977637 8.40975 1.16993C8.69753 1.36222 8.92184 1.63553 9.05429 1.95531C9.18674 2.27508 9.2214 2.62694 9.15387 2.96641C9.08635 3.30588 8.91968 3.6177 8.67494 3.86244C8.43019 4.10718 8.11838 4.27385 7.77891 4.34138C7.43944 4.4089 7.08757 4.37424 6.7678 4.24179C6.44803 4.10934 6.17472 3.88503 5.98243 3.59725C5.79014 3.30946 5.6875 2.97112 5.6875 2.625C5.6875 2.16087 5.87187 1.71575 6.20006 1.38756C6.52825 1.05938 6.97337 0.875001 7.4375 0.875001Z" fill="#0E1C36"/>
</g>
<defs>
<clipPath id="clip0_2339_1685">
<rect width="28" height="28" fill="white"/>
</clipPath>
</defs>
</svg>
