<svg width="11" height="8" viewBox="0 0 11 8" fill="none" xmlns="http://www.w3.org/2000/svg">
<path d="M5.40172 7.05C5.27505 7.05 5.1525 7.025 5.03407 6.975C4.915 6.925 4.81589 6.85833 4.73672 6.775L0.366718 2.175C0.192552 1.99167 0.105469 1.75833 0.105469 1.475C0.105469 1.19167 0.192552 0.958333 0.366718 0.775C0.540885 0.591666 0.762552 0.5 1.03172 0.5C1.30089 0.5 1.52255 0.591666 1.69672 0.775L5.40172 4.675L9.10672 0.775C9.28088 0.591666 9.50255 0.5 9.77172 0.5C10.0409 0.5 10.2626 0.591666 10.4367 0.775C10.6109 0.958333 10.698 1.19167 10.698 1.475C10.698 1.75833 10.6109 1.99167 10.4367 2.175L6.06672 6.775C5.97172 6.875 5.8688 6.94567 5.75797 6.987C5.64713 7.029 5.52838 7.05 5.40172 7.05Z" fill="#0E1C36" fill-opacity="0.8"/>
</svg>
