<svg width="12" height="7" viewBox="0 0 12 7" fill="none" xmlns="http://www.w3.org/2000/svg">
<path d="M5.94162 6.55C5.81781 6.55 5.69802 6.525 5.58226 6.475C5.46588 6.425 5.369 6.35833 5.29162 6.275L1.02019 1.675C0.84995 1.49167 0.764832 1.25833 0.764832 0.974999C0.764832 0.691666 0.84995 0.458333 1.02019 0.275C1.19043 0.0916663 1.40709 0 1.67019 0C1.93328 0 2.14995 0.0916663 2.32019 0.275L5.94162 4.175L9.56304 0.275C9.73328 0.0916663 9.94995 0 10.213 0C10.4761 0 10.6928 0.0916663 10.863 0.275C11.0333 0.458333 11.1184 0.691666 11.1184 0.974999C11.1184 1.25833 11.0333 1.49167 10.863 1.675L6.59162 6.275C6.49876 6.375 6.39816 6.44567 6.28983 6.487C6.1815 6.529 6.06543 6.55 5.94162 6.55Z" fill="#7A23D3"/>
</svg>
