<svg width="28" height="28" viewBox="0 0 28 28" fill="none" xmlns="http://www.w3.org/2000/svg">
<path d="M21.7358 0.242188H6.26475C5.93333 0.242535 5.61558 0.374338 5.38122 0.608679C5.14686 0.843019 5.01502 1.16076 5.01465 1.49218V24.4117C5.01508 24.6905 5.10853 24.9612 5.2802 25.1809C5.45188 25.4006 5.69195 25.5567 5.96238 25.6245V27.3748C5.96238 27.4764 6.00271 27.5737 6.07451 27.6455C6.1463 27.7173 6.24367 27.7577 6.3452 27.7577H7.5702C7.65939 27.7577 7.74578 27.7265 7.81445 27.6696C7.88313 27.6127 7.92977 27.5336 7.94634 27.4459L8.2843 25.6615H19.716L20.0539 27.4459C20.0705 27.5336 20.1171 27.6127 20.1858 27.6696C20.2545 27.7265 20.3409 27.7577 20.4301 27.7577H21.6551C21.7566 27.7577 21.854 27.7173 21.9258 27.6455C21.9976 27.5737 22.0379 27.4764 22.0379 27.3748V25.6246C22.3083 25.5568 22.5484 25.4007 22.7201 25.181C22.8917 24.9613 22.9852 24.6906 22.9856 24.4118V1.49218C22.9852 1.16081 22.8535 0.843126 22.6192 0.608795C22.3849 0.374463 22.0672 0.242622 21.7358 0.242188ZM7.25328 26.9921H6.72801V25.6618H7.50523L7.25328 26.9921ZM20.7472 26.9921L20.4953 25.6618H21.2725V26.9921H20.7472ZM22.2202 24.4118C22.2201 24.5402 22.169 24.6633 22.0782 24.7541C21.9874 24.8449 21.8643 24.896 21.7358 24.8961H6.26475C6.13634 24.896 6.01323 24.8449 5.92243 24.7541C5.83163 24.6633 5.78054 24.5402 5.78038 24.4118V1.49218C5.78053 1.36376 5.83161 1.24065 5.92241 1.14984C6.01322 1.05904 6.13633 1.00796 6.26475 1.00781H21.7358C21.8643 1.00796 21.9874 1.05904 22.0782 1.14984C22.169 1.24065 22.2201 1.36376 22.2202 1.49218V24.4118ZM20.9018 1.9433H7.09868C6.99715 1.9433 6.89978 1.98363 6.82799 2.05542C6.7562 2.12721 6.71587 2.22458 6.71587 2.32611V23.5777C6.71587 23.6792 6.7562 23.7766 6.82799 23.8484C6.89978 23.9202 6.99715 23.9605 7.09868 23.9605H20.9018C21.0033 23.9605 21.1007 23.9202 21.1725 23.8484C21.2443 23.7766 21.2846 23.6792 21.2846 23.5777V2.32611C21.2846 2.22458 21.2443 2.12721 21.1725 2.05542C21.1007 1.98363 21.0033 1.9433 20.9018 1.9433ZM20.519 2.70892V8.72575H15.0574V3.51917C15.0574 3.41764 15.017 3.32027 14.9452 3.24848C14.8734 3.17669 14.7761 3.13636 14.6745 3.13636H8.49595C8.39442 3.13636 8.29705 3.17669 8.22526 3.24848C8.15346 3.32027 8.11313 3.41764 8.11313 3.51917V8.72575H7.48149V2.70892H20.519ZM17.7638 14.3027C17.6623 14.3027 17.5649 14.343 17.4931 14.4148C17.4214 14.4866 17.381 14.584 17.381 14.6855V16.3551H17.1169V11.5142H18.4108V16.3551H18.1466V14.6855C18.1466 14.584 18.1063 14.4866 18.0346 14.4148C17.9628 14.343 17.8655 14.3027 17.7639 14.3027H17.7638ZM15.7043 14.3027C15.6028 14.3027 15.5054 14.343 15.4336 14.4148C15.3618 14.4866 15.3215 14.584 15.3215 14.6855V16.3551H15.0574V11.5142H16.3513V16.3551H16.0871V14.6855C16.0871 14.584 16.0468 14.4866 15.975 14.4148C15.9033 14.343 15.8059 14.3027 15.7044 14.3027H15.7043ZM13.6447 14.3027C13.5432 14.3027 13.4458 14.343 13.374 14.4148C13.3022 14.4866 13.2619 14.584 13.2619 14.6855V16.3551H12.9978V11.5142H14.2917V16.3551H14.0276V14.6855C14.0276 14.584 13.9873 14.4866 13.9155 14.4148C13.8437 14.343 13.7463 14.3027 13.6448 14.3027H13.6447ZM18.7936 10.7486H12.6151C12.5135 10.7486 12.4162 10.7889 12.3444 10.8607C12.2726 10.9325 12.2323 11.0299 12.2323 11.1314V16.3551H7.48149V9.49137H20.519V16.3551H19.1764V11.1314C19.1764 11.0299 19.1361 10.9325 19.0643 10.8607C18.9926 10.789 18.8952 10.7486 18.7937 10.7486H18.7936ZM10.9383 3.90198H12.2323V8.72575H11.9681V7.07331C11.9681 6.97178 11.9277 6.87441 11.8559 6.80262C11.7841 6.73083 11.6868 6.6905 11.5852 6.6905C11.4837 6.6905 11.3863 6.73083 11.3146 6.80262C11.2428 6.87441 11.2024 6.97178 11.2024 7.07331V8.72575H10.9383V3.90198ZM14.2918 8.72575H14.0276V7.07331C14.0276 6.97178 13.9873 6.87441 13.9155 6.80262C13.8437 6.73083 13.7463 6.6905 13.6448 6.6905C13.5432 6.6905 13.4459 6.73083 13.3741 6.80262C13.3023 6.87441 13.262 6.97178 13.262 7.07331V8.72575H12.9978V3.90198H14.2918L14.2918 8.72575ZM10.1727 8.72575H9.90852V7.07331C9.90852 6.97178 9.86819 6.87441 9.7964 6.80262C9.72461 6.73083 9.62724 6.6905 9.52571 6.6905C9.42418 6.6905 9.32681 6.73083 9.25502 6.80262C9.18323 6.87441 9.1429 6.97178 9.1429 7.07331V8.72575H8.87876V3.90198H10.1727V8.72575ZM10.9383 18.3713H12.2323V23.1947H11.9681V21.5426C11.9681 21.4411 11.9277 21.3437 11.8559 21.2719C11.7841 21.2001 11.6868 21.1598 11.5852 21.1598C11.4837 21.1598 11.3863 21.2001 11.3146 21.2719C11.2428 21.3437 11.2024 21.4411 11.2024 21.5426V23.195H10.9383V18.3713ZM14.2918 23.1947H14.0276V21.5426C14.0276 21.4411 13.9873 21.3437 13.9155 21.2719C13.8437 21.2001 13.7463 21.1598 13.6448 21.1598C13.5432 21.1598 13.4459 21.2001 13.3741 21.2719C13.3023 21.3437 13.262 21.4411 13.262 21.5426V23.195H12.9978V18.3716H14.2918L14.2918 23.1947ZM10.1727 23.1947H9.90852V21.5426C9.90852 21.4411 9.86819 21.3437 9.7964 21.2719C9.72461 21.2001 9.62724 21.1598 9.52571 21.1598C9.42418 21.1598 9.32681 21.2001 9.25502 21.2719C9.18323 21.3437 9.1429 21.4411 9.1429 21.5426V23.195H8.87876V18.3716H10.1727V23.1947ZM15.0575 23.1947V17.9885C15.0575 17.887 15.0171 17.7896 14.9453 17.7178C14.8735 17.646 14.7762 17.6057 14.6746 17.6057H8.49595C8.39442 17.6057 8.29705 17.646 8.22526 17.7178C8.15346 17.7896 8.11313 17.887 8.11313 17.9885V23.1947H7.48149V17.1208H20.519V23.195L15.0575 23.1947Z" fill="#0E1C36"/>
</svg>
