<svg width="25" height="24" viewBox="0 0 25 24" fill="none" xmlns="http://www.w3.org/2000/svg">
<path d="M12.4998 13.4L7.5998 18.3C7.41647 18.4833 7.18314 18.575 6.8998 18.575C6.61647 18.575 6.38314 18.4833 6.1998 18.3C6.01647 18.1167 5.9248 17.8833 5.9248 17.6C5.9248 17.3167 6.01647 17.0833 6.1998 16.9L11.0998 12L6.1998 7.09999C6.01647 6.91665 5.9248 6.68332 5.9248 6.39999C5.9248 6.11665 6.01647 5.88332 6.1998 5.69999C6.38314 5.51665 6.61647 5.42499 6.8998 5.42499C7.18314 5.42499 7.41647 5.51665 7.5998 5.69999L12.4998 10.6L17.3998 5.69999C17.5831 5.51665 17.8165 5.42499 18.0998 5.42499C18.3831 5.42499 18.6165 5.51665 18.7998 5.69999C18.9831 5.88332 19.0748 6.11665 19.0748 6.39999C19.0748 6.68332 18.9831 6.91665 18.7998 7.09999L13.8998 12L18.7998 16.9C18.9831 17.0833 19.0748 17.3167 19.0748 17.6C19.0748 17.8833 18.9831 18.1167 18.7998 18.3C18.6165 18.4833 18.3831 18.575 18.0998 18.575C17.8165 18.575 17.5831 18.4833 17.3998 18.3L12.4998 13.4Z" fill="#EB0F26"/>
</svg>
