<svg width="90" height="90" viewBox="0 0 90 90" fill="none" xmlns="http://www.w3.org/2000/svg">
<path d="M11.25 24.4651C11.25 22.9838 12.4763 21.7876 13.9875 21.7876H31.9425C31.965 18.6301 32.31 14.3063 35.4375 11.3138C38.0137 8.85668 41.4399 7.49025 45 7.50005C48.5601 7.49025 51.9863 8.85668 54.5625 11.3138C57.69 14.3063 58.035 18.6301 58.0575 21.7876H76.0125C77.5238 21.7876 78.75 22.9876 78.75 24.4651C78.7461 24.8206 78.6722 25.1719 78.5325 25.4989C78.3928 25.8259 78.19 26.1222 77.9358 26.3708C77.6816 26.6194 77.3809 26.8156 77.0509 26.948C76.7209 27.0804 76.3681 27.1465 76.0125 27.1426H13.9875C13.6319 27.1465 13.2791 27.0804 12.9491 26.948C12.6191 26.8156 12.3184 26.6194 12.0642 26.3708C11.81 26.1222 11.6072 25.8259 11.4675 25.4989C11.3278 25.1719 11.2539 24.8206 11.25 24.4651Z" fill="white"/>
<path opacity="0.5" d="M43.4849 82.5005H46.5149C56.9511 82.5005 62.1674 82.5005 65.5649 79.178C68.9549 75.8555 69.2999 70.4068 69.9936 59.5093L70.9949 43.8043C71.3699 37.8905 71.5574 34.9318 69.8586 33.0605C68.1561 31.1855 65.2836 31.1855 59.5349 31.1855H30.4649C24.7161 31.1855 21.8399 31.1855 20.1411 33.0605C18.4386 34.9355 18.6261 37.8905 19.0049 43.8043L20.0061 59.5093C20.6999 70.4068 21.0449 75.8593 24.4386 79.178C27.8324 82.5005 33.0486 82.5005 43.4849 82.5005Z" fill="white"/>
<path fill-rule="evenodd" clip-rule="evenodd" d="M35.3437 43.0575C36.8925 42.8925 38.2687 44.0812 38.4225 45.7087L40.2975 65.445C40.4512 67.0687 39.3225 68.52 37.7812 68.685C36.2362 68.8462 34.8562 67.6612 34.7025 66.0337L32.8275 46.2975C32.6737 44.67 33.8025 43.2187 35.3437 43.0575ZM54.6562 43.0575C56.2012 43.2187 57.33 44.67 57.1725 46.2975L55.2975 66.0337C55.1475 67.6612 53.7675 68.8462 52.2225 68.685C50.6737 68.52 49.5487 67.0725 49.7025 65.445L51.5775 45.705C51.7312 44.0812 53.1112 42.8925 54.6525 43.0537" fill="white"/>
</svg>
