<svg width="91" height="90" viewBox="0 0 91 90" fill="none" xmlns="http://www.w3.org/2000/svg">
<path d="M11.75 24.4651C11.75 22.9838 12.9763 21.7876 14.4875 21.7876H32.4425C32.465 18.6301 32.81 14.3063 35.9375 11.3138C38.5137 8.85668 41.9399 7.49025 45.5 7.50005C49.0601 7.49025 52.4863 8.85668 55.0625 11.3138C58.19 14.3063 58.535 18.6301 58.5575 21.7876H76.5125C78.0238 21.7876 79.25 22.9876 79.25 24.4651C79.2461 24.8206 79.1722 25.1719 79.0325 25.4989C78.8928 25.8259 78.69 26.1222 78.4358 26.3708C78.1816 26.6194 77.8809 26.8156 77.5509 26.948C77.2209 27.0804 76.8681 27.1465 76.5125 27.1426H14.4875C14.1319 27.1465 13.7791 27.0804 13.4491 26.948C13.1191 26.8156 12.8184 26.6194 12.5642 26.3708C12.31 26.1222 12.1072 25.8259 11.9675 25.4989C11.8278 25.1719 11.7539 24.8206 11.75 24.4651Z" fill="#EB0F26"/>
<path opacity="0.5" d="M43.9849 82.5005H47.0149C57.4511 82.5005 62.6674 82.5005 66.0649 79.178C69.4549 75.8555 69.7999 70.4068 70.4936 59.5093L71.4949 43.8043C71.8699 37.8905 72.0574 34.9318 70.3586 33.0605C68.6561 31.1855 65.7836 31.1855 60.0349 31.1855H30.9649C25.2161 31.1855 22.3399 31.1855 20.6411 33.0605C18.9386 34.9355 19.1261 37.8905 19.5049 43.8043L20.5061 59.5093C21.1999 70.4068 21.5449 75.8593 24.9386 79.178C28.3324 82.5005 33.5486 82.5005 43.9849 82.5005Z" fill="#EB0F26"/>
<path fill-rule="evenodd" clip-rule="evenodd" d="M35.8437 43.0575C37.3925 42.8925 38.7687 44.0812 38.9225 45.7087L40.7975 65.445C40.9512 67.0687 39.8225 68.52 38.2812 68.685C36.7362 68.8462 35.3562 67.6612 35.2025 66.0337L33.3275 46.2975C33.1737 44.67 34.3025 43.2187 35.8437 43.0575ZM55.1562 43.0575C56.7012 43.2187 57.83 44.67 57.6725 46.2975L55.7975 66.0337C55.6475 67.6612 54.2675 68.8462 52.7225 68.685C51.1737 68.52 50.0487 67.0725 50.2025 65.445L52.0775 45.705C52.2312 44.0812 53.6112 42.8925 55.1525 43.0537" fill="#EB0F26"/>
</svg>
