<svg width="28" height="28" viewBox="0 0 28 28" fill="none" xmlns="http://www.w3.org/2000/svg">
<path fill-rule="evenodd" clip-rule="evenodd" d="M10.5002 8.45837C10.5775 8.45837 10.6517 8.4891 10.7064 8.5438C10.7611 8.5985 10.7918 8.67269 10.7918 8.75004C10.7918 9.60094 11.1298 10.417 11.7315 11.0187C12.3332 11.6204 13.1493 11.9584 14.0002 11.9584C14.8511 11.9584 15.6671 11.6204 16.2688 11.0187C16.8705 10.417 17.2085 9.60094 17.2085 8.75004C17.2085 8.67269 17.2392 8.5985 17.2939 8.5438C17.3486 8.4891 17.4228 8.45837 17.5002 8.45837C17.5775 8.45837 17.6517 8.4891 17.7064 8.5438C17.7611 8.5985 17.7918 8.67269 17.7918 8.75004C17.7918 9.75565 17.3924 10.7201 16.6813 11.4312C15.9702 12.1422 15.0058 12.5417 14.0002 12.5417C12.9945 12.5417 12.0301 12.1422 11.319 11.4312C10.608 10.7201 10.2085 9.75565 10.2085 8.75004C10.2085 8.67269 10.2392 8.5985 10.2939 8.5438C10.3486 8.4891 10.4228 8.45837 10.5002 8.45837ZM6.7085 18.6667C6.7085 18.4346 6.80068 18.2121 6.96478 18.048C7.12887 17.8839 7.35143 17.7917 7.5835 17.7917H20.4168C20.6489 17.7917 20.8715 17.8839 21.0355 18.048C21.1996 18.2121 21.2918 18.4346 21.2918 18.6667V24.5C21.2918 24.7321 21.1996 24.9547 21.0355 25.1188C20.8715 25.2829 20.6489 25.375 20.4168 25.375H7.5835C7.35143 25.375 7.12887 25.2829 6.96478 25.1188C6.80068 24.9547 6.7085 24.7321 6.7085 24.5V18.6667ZM7.5835 18.375C7.50614 18.375 7.43195 18.4058 7.37726 18.4605C7.32256 18.5152 7.29183 18.5894 7.29183 18.6667V24.5C7.29183 24.5774 7.32256 24.6516 7.37726 24.7063C7.43195 24.761 7.50614 24.7917 7.5835 24.7917H20.4168C20.4942 24.7917 20.5684 24.761 20.6231 24.7063C20.6778 24.6516 20.7085 24.5774 20.7085 24.5V18.6667C20.7085 18.5894 20.6778 18.5152 20.6231 18.4605C20.5684 18.4058 20.4942 18.375 20.4168 18.375H7.5835Z" stroke="#0E1C36"/>
<path fill-rule="evenodd" clip-rule="evenodd" d="M10.1285 15.7617C10.2028 15.7404 10.2825 15.7496 10.3501 15.7871C10.4177 15.8246 10.4677 15.8874 10.489 15.9618L11.0723 18.0034C11.0828 18.0403 11.0859 18.0788 11.0815 18.1169C11.0771 18.1549 11.0653 18.1918 11.0466 18.2252C11.028 18.2587 11.0029 18.2882 10.9729 18.312C10.9429 18.3358 10.9085 18.3534 10.8716 18.3639C10.8348 18.3744 10.7962 18.3775 10.7582 18.3731C10.7201 18.3687 10.6833 18.3569 10.6498 18.3383C10.6163 18.3196 10.5869 18.2946 10.5631 18.2645C10.5393 18.2345 10.5216 18.2001 10.5111 18.1633L9.92779 16.1216C9.91729 16.0847 9.91415 16.0462 9.91855 16.0081C9.92295 15.9701 9.9348 15.9332 9.95344 15.8998C9.97207 15.8663 9.99712 15.8368 10.0272 15.813C10.0572 15.7892 10.0916 15.7716 10.1285 15.7611V15.7617ZM17.58 15.7617C17.5056 15.7404 17.4259 15.7496 17.3583 15.7871C17.2907 15.8246 17.2408 15.8874 17.2195 15.9618L16.6361 18.0034C16.6256 18.0403 16.6225 18.0788 16.6269 18.1169C16.6313 18.1549 16.6432 18.1918 16.6618 18.2252C16.6804 18.2587 16.7055 18.2882 16.7355 18.312C16.7655 18.3358 16.7999 18.3534 16.8368 18.3639C16.8736 18.3744 16.9122 18.3775 16.9503 18.3731C16.9883 18.3687 17.0251 18.3569 17.0586 18.3383C17.0921 18.3196 17.1216 18.2946 17.1454 18.2645C17.1691 18.2345 17.1868 18.2001 17.1973 18.1633L17.7806 16.1216C17.7911 16.0847 17.7943 16.0462 17.7899 16.0081C17.7855 15.9701 17.7736 15.9332 17.755 15.8998C17.7363 15.8663 17.7113 15.8368 17.6813 15.813C17.6512 15.7892 17.6168 15.7716 17.58 15.7611V15.7617ZM24.724 14.98C24.6745 14.9206 24.6034 14.8833 24.5264 14.8763C24.4494 14.8693 24.3728 14.8932 24.3134 14.9427L20.8134 17.8593C20.7561 17.9095 20.7206 17.98 20.7147 18.0559C20.7087 18.1318 20.7326 18.2071 20.7814 18.2656C20.8301 18.3241 20.8998 18.3612 20.9755 18.369C21.0513 18.3768 21.1271 18.3547 21.1867 18.3073L24.6867 15.3907C24.7461 15.3412 24.7834 15.2701 24.7904 15.1931C24.7974 15.1161 24.7735 15.0394 24.724 14.98ZM3.27605 14.98C3.32557 14.9206 3.39664 14.8833 3.47365 14.8763C3.55066 14.8693 3.62729 14.8932 3.68671 14.9427L7.18671 17.8593C7.24402 17.9095 7.27945 17.98 7.28543 18.0559C7.29142 18.1318 7.26748 18.2071 7.21873 18.2656C7.16999 18.3241 7.1003 18.3612 7.02456 18.369C6.94882 18.3768 6.87303 18.3547 6.81338 18.3073L3.31338 15.3907C3.25399 15.3412 3.2167 15.2701 3.20969 15.1931C3.20269 15.1161 3.22656 15.0394 3.27605 14.98Z" stroke="#0E1C36"/>
<path fill-rule="evenodd" clip-rule="evenodd" d="M9.06289 14.2369L9.17372 14.1622C10.0627 13.566 11.5905 12.5417 14.2201 12.5417C16.9781 12.5417 18.5916 13.671 19.2076 14.2182C19.5576 14.5285 19.9724 15.0868 20.0914 15.7372C20.2063 16.3625 20.0558 17.1121 19.2076 17.8652L19.595 18.3015C20.5866 17.4207 20.8188 16.4699 20.6654 15.6316C20.5161 14.819 20.0121 14.1523 19.595 13.7824C18.8973 13.1624 17.152 11.9584 14.2201 11.9584C11.412 11.9584 9.7623 13.0649 8.85172 13.6763L8.73039 13.7574L8.72164 13.7632L8.71289 13.7696C8.24272 14.1348 7.6588 14.7928 7.40272 15.5954C7.13905 16.422 7.23064 17.3863 8.09864 18.2858L8.51864 17.8809C7.80989 17.1465 7.75505 16.4098 7.95864 15.7734C8.16747 15.1171 8.65864 14.553 9.06289 14.2369ZM17.8526 5.29086C18.1419 5.41686 18.3163 5.66769 18.4056 5.95119C18.5094 6.28136 18.5088 6.67803 18.4598 7.06069C18.3618 7.82194 18.0538 8.65961 17.7656 9.06444C17.7353 9.10721 17.6941 9.14101 17.6462 9.16231C17.5983 9.1836 17.5455 9.19159 17.4935 9.18544C17.4414 9.1793 17.392 9.15923 17.3504 9.12737C17.3087 9.0955 17.2765 9.05301 17.257 9.00436C16.8271 7.93803 16.1743 7.49644 15.5443 7.08753L15.486 7.04903C14.9668 6.71361 14.4278 6.36419 14.1647 5.66653C13.7115 5.96403 13.2226 6.21369 12.7478 6.40036C12.2263 6.60511 11.7066 6.73986 11.2603 6.77019C11.2306 6.83028 11.195 6.90553 11.1571 6.98894C11.0585 7.20653 10.9529 7.46378 10.901 7.66503C10.8374 7.9112 10.8088 8.25244 10.7971 8.54586C10.7911 8.70192 10.7892 8.85812 10.7913 9.01428V9.05103C10.793 9.11315 10.7747 9.17417 10.7393 9.22521C10.7038 9.27624 10.653 9.31461 10.5942 9.33473C10.5354 9.35485 10.4717 9.35567 10.4124 9.33706C10.3531 9.31845 10.3013 9.28139 10.2646 9.23128C9.27289 7.87094 9.18189 6.50128 9.57505 5.48336C9.93789 4.54361 10.7464 3.8652 11.6237 3.91595C12.3412 3.24161 13.0727 2.8817 13.7803 2.7592C14.5194 2.63086 15.2106 2.76678 15.8021 3.03978C16.3602 3.30134 16.8533 3.68347 17.2459 4.15861C17.5457 4.52203 17.7662 4.92336 17.8526 5.29086ZM10.2471 8.05003C9.84805 7.14878 9.8778 6.31928 10.1187 5.69336C10.4436 4.85336 11.1162 4.4217 11.6844 4.50861C11.7292 4.51543 11.775 4.51171 11.8182 4.49774C11.8613 4.48376 11.9006 4.45992 11.9329 4.42811C12.6113 3.76078 13.2746 3.43878 13.8795 3.33436C14.4861 3.22936 15.0566 3.33845 15.5577 3.56945C16.0361 3.79429 16.4588 4.12218 16.7956 4.52961C17.1094 4.90995 17.278 5.28328 17.3054 5.54461C17.3118 5.60629 17.3377 5.66431 17.3794 5.71025C17.421 5.7562 17.4762 5.78767 17.537 5.80011C17.6846 5.82986 17.7861 5.92494 17.8491 6.12619C17.9161 6.34028 17.9249 6.6407 17.8811 6.98661C17.8214 7.4194 17.7067 7.84281 17.5399 8.24661C17.0528 7.38211 16.4117 6.95511 15.8622 6.59811L15.8488 6.58936C15.2042 6.17169 14.7574 5.88119 14.6226 5.13861C14.6138 5.08981 14.5926 5.04409 14.5611 5.00575C14.5297 4.96741 14.4889 4.93773 14.4428 4.91951C14.3967 4.90129 14.3467 4.89514 14.2975 4.90163C14.2483 4.90812 14.2016 4.92705 14.1618 4.95661C13.6606 5.32602 13.1135 5.62878 12.5343 5.85728C11.9772 6.07661 11.461 6.19328 11.076 6.19328C11.0228 6.19343 10.9706 6.20813 10.9252 6.23579C10.8797 6.26345 10.8427 6.30301 10.8181 6.35019L10.8164 6.35253L10.8135 6.35836L10.8018 6.38169C10.7405 6.50255 10.6818 6.62469 10.6256 6.74803C10.5247 6.97086 10.4016 7.2672 10.3363 7.5192C10.2938 7.69376 10.264 7.87117 10.2471 8.05003Z" stroke="#0E1C36"/>
</svg>
