<svg width="24" height="24" viewBox="0 0 24 24" fill="none" xmlns="http://www.w3.org/2000/svg">
<path fill-rule="evenodd" clip-rule="evenodd" d="M7.90296 0.379318C7.64346 0.272644 7.31449 0.272644 6.65656 0.272644C5.99863 0.272644 5.66966 0.272644 5.41017 0.379318C5.06417 0.52155 4.78928 0.794362 4.64597 1.13774C4.58055 1.29449 4.55494 1.47678 4.54493 1.74269C4.5302 2.13345 4.32828 2.49516 3.98705 2.69068C3.64582 2.88619 3.22923 2.87889 2.88088 2.69616C2.64383 2.57182 2.47196 2.50268 2.30246 2.48053C1.93117 2.43202 1.55566 2.53188 1.25855 2.75813C1.03572 2.92783 0.871233 3.21057 0.542267 3.77605C0.2133 4.34153 0.0488164 4.62427 0.0121549 4.90064C-0.036727 5.26913 0.0638897 5.6418 0.29187 5.93666C0.395929 6.07125 0.542176 6.18439 0.769151 6.32593C1.10283 6.534 1.31752 6.88847 1.3175 7.27957C1.31748 7.67062 1.10279 8.02503 0.769149 8.23308C0.542136 8.37464 0.39587 8.48779 0.291801 8.62239C0.0638206 8.91726 -0.0367961 9.28992 0.0120858 9.65841C0.0487473 9.93478 0.213231 10.2175 0.542197 10.783C0.871164 11.3485 1.03565 11.6312 1.25848 11.8009C1.55559 12.0272 1.9311 12.127 2.30239 12.0785C2.47188 12.0564 2.64374 11.9872 2.88077 11.8629C3.22915 11.6802 3.64576 11.6729 3.98701 11.8684C4.32826 12.0639 4.5302 12.4257 4.54493 12.8165C4.55495 13.0823 4.58055 13.2646 4.64597 13.4214C4.78928 13.7647 5.06417 14.0376 5.41017 14.1798C5.66966 14.2865 5.99863 14.2865 6.65656 14.2865C7.31449 14.2865 7.64346 14.2865 7.90296 14.1798C8.24895 14.0376 8.52384 13.7647 8.66715 13.4214C8.73258 13.2646 8.75818 13.0823 8.7682 12.8164C8.78292 12.4256 8.98483 12.0639 9.32604 11.8684C9.66728 11.6728 10.0839 11.6801 10.4323 11.8629C10.6693 11.9872 10.8412 12.0563 11.0107 12.0785C11.382 12.127 11.7575 12.0271 12.0546 11.8009C12.2774 11.6312 12.4419 11.3484 12.7709 10.783C13.0998 10.2175 13.2643 9.93473 13.301 9.65837C13.3498 9.28988 13.2492 8.91721 13.0213 8.62234C12.9172 8.48775 12.7709 8.3746 12.5439 8.23305C12.2103 8.02499 11.9956 7.67056 11.9956 7.27949C11.9956 6.88846 12.2103 6.53407 12.5439 6.32604C12.771 6.18447 12.9172 6.07132 13.0213 5.93671C13.2493 5.64185 13.3499 5.26918 13.301 4.90069C13.2644 4.62432 13.0999 4.34158 12.7709 3.7761C12.442 3.21062 12.2775 2.92788 12.0546 2.75818C11.7575 2.53192 11.382 2.43207 11.0107 2.48058C10.8412 2.50272 10.6694 2.57186 10.4324 2.69619C10.084 2.87893 9.66736 2.88623 9.32611 2.6907C8.98486 2.49517 8.78292 2.13344 8.7682 1.74265C8.75817 1.47676 8.73257 1.29448 8.66715 1.13774C8.52384 0.794362 8.24895 0.52155 7.90296 0.379318Z" fill="url(#paint0_linear_2334_1961)"/>
<path d="M8.77326 7.28011C8.77326 8.44105 7.82497 9.38218 6.65519 9.38218C5.48541 9.38218 4.53711 8.44105 4.53711 7.28011C4.53711 6.11917 5.48541 5.17804 6.65519 5.17804C7.82497 5.17804 8.77326 6.11917 8.77326 7.28011Z" fill="white"/>
<path fill-rule="evenodd" clip-rule="evenodd" d="M19.6705 3.86366C19.4629 3.77832 19.1997 3.77832 18.6734 3.77832C18.147 3.77832 17.8839 3.77832 17.6763 3.86366C17.3995 3.97744 17.1796 4.19569 17.0649 4.4704C17.0126 4.5958 16.9921 4.74163 16.9841 4.95435C16.9723 5.26697 16.8108 5.55633 16.5378 5.71275C16.2648 5.86916 15.9315 5.86332 15.6528 5.71714C15.4632 5.61766 15.3257 5.56235 15.1901 5.54463C14.8931 5.50582 14.5927 5.58571 14.355 5.76671C14.1767 5.90247 14.0451 6.12866 13.782 6.58104C13.5188 7.03343 13.3872 7.25962 13.3579 7.48072C13.3188 7.77551 13.3993 8.07364 13.5816 8.30954C13.6649 8.4172 13.7819 8.50772 13.9635 8.62095C14.2304 8.78741 14.4022 9.07098 14.4021 9.38386C14.4021 9.6967 14.2304 9.98023 13.9635 10.1467C13.7819 10.2599 13.6648 10.3504 13.5816 10.4581C13.3992 10.694 13.3187 10.9921 13.3578 11.2869C13.3871 11.508 13.5187 11.7342 13.7819 12.1866C14.0451 12.639 14.1767 12.8652 14.3549 13.0009C14.5926 13.1819 14.893 13.2618 15.1901 13.223C15.3256 13.2053 15.4631 13.15 15.6528 13.0505C15.9315 12.9043 16.2648 12.8985 16.5378 13.0549C16.8108 13.2114 16.9723 13.5007 16.9841 13.8134C16.9921 14.0261 17.0126 14.1719 17.0649 14.2973C17.1796 14.572 17.3995 14.7902 17.6763 14.904C17.8839 14.9894 18.147 14.9894 18.6734 14.9894C19.1997 14.9894 19.4629 14.9894 19.6705 14.904C19.9473 14.7902 20.1672 14.572 20.2819 14.2973C20.3342 14.1719 20.3547 14.0261 20.3627 13.8133C20.3745 13.5007 20.536 13.2114 20.809 13.0549C21.082 12.8985 21.4153 12.9043 21.694 13.0505C21.8836 13.15 22.0211 13.2053 22.1567 13.223C22.4537 13.2618 22.7541 13.1819 22.9918 13.0009C23.1701 12.8651 23.3017 12.639 23.5648 12.1866C23.828 11.7342 23.9596 11.508 23.9889 11.2869C24.028 10.9921 23.9475 10.694 23.7651 10.4581C23.6819 10.3504 23.5649 10.2599 23.3833 10.1466C23.1164 9.9802 22.9446 9.69665 22.9446 9.38379C22.9447 9.07097 23.1164 8.78746 23.3833 8.62104C23.5649 8.50778 23.6819 8.41726 23.7652 8.30957C23.9476 8.07368 24.0281 7.77555 23.989 7.48075C23.9596 7.25966 23.8281 7.03347 23.5649 6.58108C23.3017 6.1287 23.1701 5.90251 22.9919 5.76675C22.7542 5.58574 22.4538 5.50586 22.1567 5.54467C22.0211 5.56238 21.8836 5.61769 21.694 5.71716C21.4153 5.86335 21.082 5.86919 20.809 5.71277C20.536 5.55634 20.3745 5.26696 20.3627 4.95432C20.3547 4.74162 20.3342 4.59579 20.2819 4.4704C20.1672 4.19569 19.9473 3.97744 19.6705 3.86366Z" fill="url(#paint1_linear_2334_1961)"/>
<path d="M20.3688 9.38564C20.3688 10.3144 19.6101 11.0673 18.6743 11.0673C17.7385 11.0673 16.9799 10.3144 16.9799 9.38564C16.9799 8.45688 17.7385 7.70398 18.6743 7.70398C19.6101 7.70398 20.3688 8.45688 20.3688 9.38564Z" fill="white"/>
<path fill-rule="evenodd" clip-rule="evenodd" d="M12.4177 12.9676C12.217 12.8851 11.9625 12.8851 11.4534 12.8851C10.9444 12.8851 10.6899 12.8851 10.4891 12.9676C10.2214 13.0776 10.0087 13.2887 9.89786 13.5544C9.84724 13.6757 9.82743 13.8167 9.81968 14.0224C9.80829 14.3248 9.65206 14.6046 9.38806 14.7559C9.12406 14.9071 8.80175 14.9015 8.53224 14.7601C8.34884 14.6639 8.21586 14.6104 8.08472 14.5933C7.79746 14.5557 7.50693 14.633 7.27706 14.8081C7.10466 14.9393 6.9774 15.1581 6.72289 15.5956C6.46837 16.0331 6.34111 16.2519 6.31275 16.4657C6.27493 16.7508 6.35278 17.0391 6.52916 17.2672C6.60967 17.3714 6.72282 17.4589 6.89842 17.5684C7.15658 17.7294 7.32269 18.0036 7.32268 18.3062C7.32266 18.6088 7.15656 18.883 6.89842 19.0439C6.72279 19.1535 6.60962 19.241 6.52911 19.3451C6.35272 19.5733 6.27488 19.8616 6.3127 20.1467C6.34106 20.3605 6.46832 20.5793 6.72283 21.0168C6.97735 21.4543 7.10461 21.673 7.27701 21.8043C7.50688 21.9794 7.7974 22.0566 8.08467 22.0191C8.2158 22.002 8.34877 21.9485 8.53215 21.8523C8.80168 21.7109 9.12401 21.7052 9.38803 21.8565C9.65206 22.0078 9.80829 22.2877 9.81968 22.59C9.82744 22.7957 9.84724 22.9368 9.89786 23.058C10.0087 23.3237 10.2214 23.5348 10.4891 23.6448C10.6899 23.7273 10.9444 23.7273 11.4534 23.7273C11.9625 23.7273 12.217 23.7273 12.4177 23.6448C12.6854 23.5348 12.8981 23.3237 13.009 23.058C13.0596 22.9367 13.0794 22.7957 13.0872 22.59C13.0986 22.2876 13.2548 22.0078 13.5188 21.8565C13.7828 21.7052 14.1051 21.7109 14.3747 21.8522C14.558 21.9484 14.691 22.0019 14.8221 22.0191C15.1094 22.0566 15.3999 21.9793 15.6298 21.8043C15.8022 21.673 15.9294 21.4542 16.184 21.0167C16.4385 20.5792 16.5657 20.3605 16.5941 20.1467C16.6319 19.8616 16.5541 19.5732 16.3777 19.3451C16.2972 19.241 16.184 19.1534 16.0084 19.0439C15.7502 18.8829 15.5842 18.6087 15.5842 18.3062C15.5842 18.0036 15.7503 17.7294 16.0084 17.5685C16.184 17.459 16.2972 17.3714 16.3777 17.2673C16.5541 17.0391 16.632 16.7508 16.5941 16.4657C16.5658 16.2519 16.4385 16.0331 16.184 15.5956C15.9295 15.1581 15.8022 14.9394 15.6298 14.8081C15.4 14.633 15.1094 14.5558 14.8222 14.5933C14.691 14.6104 14.5581 14.6639 14.3747 14.7601C14.1052 14.9015 13.7828 14.9072 13.5188 14.7559C13.2548 14.6046 13.0986 14.3247 13.0872 14.0224C13.0794 13.8167 13.0596 13.6757 13.009 13.5544C12.8981 13.2887 12.6854 13.0776 12.4177 12.9676Z" fill="url(#paint2_linear_2334_1961)"/>
<path d="M13.0909 18.3019C13.0909 19.2001 12.3572 19.9283 11.4522 19.9283C10.5472 19.9283 9.81348 19.2001 9.81348 18.3019C9.81348 17.4037 10.5472 16.6756 11.4522 16.6756C12.3572 16.6756 13.0909 17.4037 13.0909 18.3019Z" fill="white"/>
<defs>
<linearGradient id="paint0_linear_2334_1961" x1="-2.40876e-07" y1="1.67403" x2="11.9117" y2="14.2865" gradientUnits="userSpaceOnUse">
<stop stop-color="#85B6FF"/>
<stop offset="1" stop-color="#095FE1"/>
</linearGradient>
<linearGradient id="paint1_linear_2334_1961" x1="18.6734" y1="3.77832" x2="18.6734" y2="14.9894" gradientUnits="userSpaceOnUse">
<stop stop-color="#C89EFF"/>
<stop offset="1" stop-color="#621EBB"/>
</linearGradient>
<linearGradient id="paint2_linear_2334_1961" x1="8.40542" y1="12.8851" x2="14.3613" y2="23.3954" gradientUnits="userSpaceOnUse">
<stop stop-color="#29BAFF"/>
<stop offset="1" stop-color="#00496C"/>
</linearGradient>
</defs>
</svg>
