<svg width="64" height="64" viewBox="0 0 64 64" fill="none" xmlns="http://www.w3.org/2000/svg">
<path d="M0 25H64V39H0V25Z" fill="#EC1C24"/>
<path d="M0 22H64V25H0V22ZM0 39H64V42H0V39Z" fill="#E6E7E8"/>
<path d="M54 10H10C3.373 10 0 14.925 0 21V22H64V21C64 14.925 60.627 10 54 10Z" fill="#25333A"/>
<path d="M0 43C0 49.075 3.373 54 10 54H54C60.627 54 64 49.075 64 43V42H0V43Z" fill="#137A08"/>
<path d="M22.8359 47.787L38.5459 21.429C38.6585 20.2174 39.0653 19.0516 39.7309 18.033C40.5509 16.776 41.7119 15.84 43.0699 15.239C43.0619 16.726 42.6649 18.161 41.8419 19.419C41.2307 20.3504 40.4185 21.1329 39.4649 21.709L23.6389 48.264L22.8359 47.787Z" fill="white"/>
<path d="M43.0699 47.787L27.3609 21.429C27.2484 20.2174 26.8416 19.0516 26.1759 18.033C25.3539 16.776 24.1949 15.84 22.8359 15.239C22.8449 16.726 23.2359 18.161 24.0629 19.419C24.6753 20.3498 25.4878 21.1321 26.4409 21.709L42.2639 48.265L43.0699 47.787Z" fill="white"/>
<path d="M32.9531 17.9829C28.9131 20.3149 26.0991 25.5999 26.0991 31.7499C26.0991 37.8999 28.9181 43.1819 32.9531 45.5209C36.9831 43.1809 39.8071 37.8999 39.8071 31.7499C39.8071 25.6009 36.9881 20.3149 32.9531 17.9829Z" fill="#D9271E"/>
<path d="M27.3629 38.615C28.1749 36.557 28.6299 34.222 28.6299 31.75C28.6299 29.276 28.1749 26.944 27.3629 24.887C26.5579 26.945 26.0979 29.277 26.0979 31.75C26.0989 34.223 26.5589 36.558 27.3629 38.615ZM38.5429 38.615C39.3479 36.557 39.8069 34.222 39.8069 31.75C39.8069 29.276 39.3479 26.944 38.5429 24.887C37.7309 26.945 37.2759 29.277 37.2759 31.75C37.2759 34.223 37.7309 36.558 38.5429 38.615Z" fill="#25333A"/>
<path d="M32.953 34.0279C34.0145 34.0279 34.875 33.008 34.875 31.7499C34.875 30.4918 34.0145 29.4719 32.953 29.4719C31.8915 29.4719 31.031 30.4918 31.031 31.7499C31.031 33.008 31.8915 34.0279 32.953 34.0279Z" fill="white"/>
<path d="M32.4889 34.8409C31.6249 36.1119 31.0769 37.9169 31.0769 39.9239C31.0769 41.9339 31.6249 43.7359 32.4889 45.0059V34.8409ZM33.3499 45.0099C34.2139 43.7389 34.7589 41.9339 34.7589 39.9279C34.7589 37.9179 34.2139 36.1149 33.3499 34.8449V45.0099ZM32.5219 18.5649C31.6539 19.8349 31.1129 21.6409 31.1129 23.6419C31.1129 25.6519 31.6539 27.4589 32.5219 28.7299V18.5649ZM33.3839 28.7299C34.2519 27.4559 34.7929 25.6489 34.7929 23.6419C34.7929 21.6419 34.2519 19.8339 33.3839 18.5649V28.7299Z" fill="white"/>
</svg>
