<?xml version="1.0" standalone="no"?>
<!DOCTYPE svg PUBLIC "-//W3C//DTD SVG 20010904//EN"
 "http://www.w3.org/TR/2001/REC-SVG-20010904/DTD/svg10.dtd">
<svg version="1.0" xmlns="http://www.w3.org/2000/svg"
 width="700.000000pt" height="700.000000pt" viewBox="0 0 700.000000 700.000000"
 preserveAspectRatio="xMidYMid meet">
<metadata>
Created by potrace 1.14, written by Peter Selinger 2001-2017
</metadata>
<g transform="translate(0.000000,700.000000) scale(0.100000,-0.100000)"
fill="#000000" stroke="none">
<path d="M3279 6815 c-2 -1 -40 -6 -84 -9 -44 -3 -94 -8 -110 -10 -17 -3 -50
-7 -75 -10 -25 -3 -54 -7 -65 -10 -11 -2 -40 -7 -65 -11 -25 -4 -70 -13 -100
-20 -30 -8 -69 -16 -85 -19 -39 -7 -221 -60 -300 -88 -159 -55 -430 -176 -550
-246 -153 -89 -413 -265 -445 -302 -3 -3 -18 -16 -35 -29 -89 -68 -322 -295
-392 -381 -15 -19 -36 -44 -47 -55 -29 -31 -127 -162 -187 -250 -104 -151
-240 -398 -299 -545 -12 -30 -26 -64 -31 -75 -40 -95 -118 -333 -133 -407 -3
-13 -7 -33 -10 -45 -38 -155 -62 -312 -81 -528 -7 -76 -7 -352 -1 -420 3 -33
8 -89 11 -125 3 -36 10 -94 16 -130 6 -36 13 -83 15 -105 3 -22 21 -105 41
-185 113 -472 304 -867 609 -1260 102 -131 351 -386 469 -480 44 -36 82 -67
85 -70 16 -18 293 -210 304 -210 2 0 33 -18 69 -40 138 -83 350 -182 542 -252
76 -28 292 -93 338 -102 12 -3 63 -14 112 -24 126 -28 289 -54 415 -67 36 -3
76 -8 90 -10 175 -26 1037 -26 1353 0 23 2 103 7 177 10 138 7 149 8 280 20
134 12 219 19 370 30 165 13 212 17 229 20 10 2 42 6 72 10 30 3 95 16 144 27
50 11 101 22 115 25 107 22 460 147 585 208 165 80 266 233 262 396 -4 139
-68 230 -330 464 -181 161 -256 308 -289 560 -27 214 -14 350 57 590 15 50 29
99 32 110 3 11 17 58 30 105 14 47 31 108 38 135 7 28 23 85 34 127 12 43 24
85 26 95 1 10 10 45 18 78 41 159 80 381 102 575 12 110 13 478 1 529 -3 12
-8 43 -11 68 -2 25 -9 62 -14 82 -6 20 -13 50 -15 66 -29 160 -139 411 -284
645 -194 311 -422 569 -733 825 -336 278 -856 534 -1279 630 -13 3 -139 29
-195 41 -11 2 -40 7 -65 10 -25 3 -54 8 -65 10 -11 2 -47 7 -80 10 -33 3 -67
8 -75 11 -16 6 -505 14 -511 8z"/>
</g>
</svg>
