<?xml version="1.0" standalone="no"?>
<!DOCTYPE svg PUBLIC "-//W3C//DTD SVG 20010904//EN"
 "http://www.w3.org/TR/2001/REC-SVG-20010904/DTD/svg10.dtd">
<svg version="1.0" xmlns="http://www.w3.org/2000/svg"
 width="78.000000pt" height="78.000000pt" viewBox="0 0 78.000000 78.000000"
 preserveAspectRatio="xMidYMid meet">
<metadata>
Created by potrace 1.14, written by Peter Selinger 2001-2017
</metadata>
<g transform="translate(0.000000,78.000000) scale(0.100000,-0.100000)"
fill="#000000" stroke="none">
<path d="M251 708 c-110 -54 -151 -203 -86 -314 96 -164 339 -151 411 22 21
50 19 131 -4 143 -28 15 -45 -3 -48 -52 -5 -101 -66 -161 -160 -160 -94 1
-164 73 -164 170 0 63 61 138 119 146 52 8 55 67 4 67 -15 -1 -48 -11 -72 -22z"/>
<path d="M310 622 c-124 -67 -74 -258 65 -248 104 8 159 113 105 201 -34 56
-113 77 -170 47z m50 -37 c0 -3 -12 -16 -27 -29 -14 -12 -27 -34 -29 -47 -1
-13 -3 -28 -3 -32 -1 -5 -5 -5 -11 -2 -20 12 -10 57 19 86 27 26 51 38 51 24z"/>
<path d="M570 336 c-15 -19 -105 -71 -140 -81 -40 -12 -51 -24 -40 -45 10 -18
13 -18 61 -4 28 9 52 14 54 12 1 -2 23 -42 49 -91 57 -105 72 -122 92 -106 21
17 18 25 -40 129 l-53 95 39 37 c22 20 38 43 36 50 -7 19 -43 21 -58 4z"/>
</g>
</svg>
