<?xml version="1.0" standalone="no"?>
<!DOCTYPE svg PUBLIC "-//W3C//DTD SVG 20010904//EN"
 "http://www.w3.org/TR/2001/REC-SVG-20010904/DTD/svg10.dtd">
<svg version="1.0" xmlns="http://www.w3.org/2000/svg"
 width="700.000000pt" height="700.000000pt" viewBox="0 0 700.000000 700.000000"
 preserveAspectRatio="xMidYMid meet">
<metadata>
Created by potrace 1.14, written by Peter Selinger 2001-2017
</metadata>
<g transform="translate(0.000000,700.000000) scale(0.100000,-0.100000)"
fill="#000000" stroke="none">
<path d="M0 3500 l0 -3500 3500 0 3500 0 0 3500 0 3500 -3500 0 -3500 0 0
-3500z m3189 2247 c64 -43 95 -97 99 -177 8 -130 -65 -211 -218 -239 -227 -43
-430 -147 -581 -300 -186 -189 -284 -417 -296 -692 -20 -458 230 -877 640
-1069 425 -199 931 -117 1253 204 161 161 247 325 290 555 13 69 15 122 11
271 -7 214 -1 239 73 302 112 96 287 53 344 -83 42 -100 45 -410 7 -600 -60
-298 -189 -538 -405 -755 -296 -295 -661 -444 -1091 -445 -275 -1 -518 60
-751 187 -599 325 -923 1009 -794 1679 99 511 447 922 936 1106 239 90 402
109 483 56z m331 -592 c288 -61 536 -267 645 -538 205 -506 -90 -1084 -616
-1206 -179 -42 -327 -36 -494 20 -404 135 -665 549 -606 963 29 203 110 365
256 511 133 133 276 214 440 249 93 19 285 20 375 1z m1460 -1961 c34 -17 77
-63 89 -97 15 -39 14 -101 -3 -140 -25 -60 -257 -261 -429 -372 -42 -27 -76
-53 -74 -56 1 -3 166 -307 367 -675 344 -629 365 -672 365 -719 -1 -102 -67
-174 -169 -183 -64 -5 -122 21 -159 70 -13 18 -182 324 -376 681 -194 356
-355 647 -358 647 -2 0 -66 -24 -141 -54 -220 -88 -364 -129 -453 -130 -68 -1
-79 2 -113 28 -21 16 -47 47 -57 70 -51 113 9 226 139 261 448 123 775 297
1107 589 120 105 180 124 265 80z"/>
<path d="M3130 4838 c-270 -103 -430 -384 -379 -664 6 -34 20 -69 32 -81 41
-45 120 -16 119 43 0 16 -3 63 -7 104 -13 136 29 254 127 353 53 53 92 77 211
125 55 23 56 106 1 131 -33 14 -39 14 -104 -11z"/>
</g>
</svg>
