<svg width="24" height="24" viewBox="0 0 24 24" fill="none" xmlns="http://www.w3.org/2000/svg">
<circle cx="12" cy="12" r="12" fill="#AE83DA"/>
<path d="M9.59 15.58L6.12461 12.1146C5.73506 11.7251 5.10343 11.7243 4.71251 12.1125C4.31963 12.5026 4.31811 13.1381 4.70961 13.5296L9.59 18.41L18.5174 9.38411C18.9031 8.99421 18.9013 8.36602 18.5135 7.97824C18.1227 7.58735 17.4883 7.58919 17.0997 7.98236L9.59 15.58Z" fill="white"/>
<mask id="mask0_9_300" style="mask-type:luminance" maskUnits="userSpaceOnUse" x="4" y="7" width="15" height="12">
<path d="M9.59 15.58L6.12461 12.1146C5.73506 11.7251 5.10343 11.7243 4.71251 12.1125C4.31963 12.5026 4.31811 13.1381 4.70961 13.5296L9.59 18.41L18.5174 9.38411C18.9031 8.99421 18.9013 8.36602 18.5135 7.97824C18.1227 7.58735 17.4883 7.58919 17.0997 7.98236L9.59 15.58Z" fill="white"/>
</mask>
<g mask="url(#mask0_9_300)">
<rect width="24" height="24" fill="white"/>
</g>
</svg>
