<svg width="150" height="79" viewBox="0 0 150 79" fill="none" xmlns="http://www.w3.org/2000/svg">
<rect width="149.651" height="79" rx="8" fill="#F9F9F9"/>
<path d="M84.0211 22.9148H65.5811V56.0862H84.0211V22.9148Z" fill="#FF5F00"/>
<path d="M66.7517 39.5007C66.7488 36.3061 67.4719 33.1526 68.8665 30.2791C70.261 27.4056 72.2903 24.8874 74.8008 22.915C71.6919 20.4688 67.9582 18.9476 64.0265 18.5251C60.0947 18.1027 56.1236 18.7961 52.5669 20.5261C49.0102 22.2562 46.0115 24.953 43.9136 28.3084C41.8157 31.6638 40.7031 35.5423 40.7031 39.5007C40.7031 43.4591 41.8157 47.3376 43.9136 50.693C46.0115 54.0484 49.0102 56.7452 52.5669 58.4753C56.1236 60.2053 60.0947 60.8987 64.0265 60.4763C67.9582 60.0538 71.6919 58.5326 74.8008 56.0864C72.2903 54.114 70.261 51.5958 68.8665 48.7223C67.472 45.8488 66.7488 42.6953 66.7517 39.5007Z" fill="#EB001B"/>
<path d="M108.896 39.5007C108.897 43.4591 107.784 47.3376 105.686 50.693C103.589 54.0483 100.59 56.7452 97.0334 58.4752C93.4768 60.2053 89.5056 60.8987 85.574 60.4763C81.6423 60.0538 77.9086 58.5326 74.7998 56.0864C77.3081 54.1121 79.3358 51.5934 80.7301 48.7204C82.1244 45.8473 82.8489 42.6948 82.8489 39.5007C82.8489 36.3066 82.1244 33.1541 80.7301 30.2811C79.3358 27.408 77.3081 24.8893 74.7998 22.915C77.9086 20.4688 81.6423 18.9476 85.574 18.5251C89.5056 18.1027 93.4768 18.7962 97.0334 20.5262C100.59 22.2562 103.589 24.9531 105.686 28.3085C107.784 31.6638 108.897 35.5424 108.896 39.5007Z" fill="#F79E1B"/>
<path d="M106.886 52.5733V51.8942H107.16V51.7559H106.463V51.8942H106.737V52.5733H106.886ZM108.239 52.5733V51.7545H108.025L107.779 52.3177L107.534 51.7545H107.32V52.5733H107.471V51.9557L107.701 52.4882H107.858L108.088 51.9543V52.5733H108.239Z" fill="#F79E1B"/>
</svg>
