<svg width="149" height="79" viewBox="0 0 149 79" fill="none" xmlns="http://www.w3.org/2000/svg">
<rect width="149" height="79" rx="8" fill="white"/>
<path fill-rule="evenodd" clip-rule="evenodd" d="M52.5145 23.5534H60.3463C62.8371 23.5534 64.8753 25.5914 64.8753 28.0827V41.1042C64.8753 43.595 62.8371 45.6333 60.3463 45.6333H52.5145C50.0237 45.6333 47.9854 43.595 47.9854 41.1042V28.0827C47.9854 25.5914 50.0237 23.5534 52.5145 23.5534Z" fill="white"/>
<path fill-rule="evenodd" clip-rule="evenodd" d="M52.5131 23.5534H60.3447C62.8355 23.5534 64.8737 25.5919 64.8737 28.0828V41.1043C64.8737 43.5951 62.8355 45.6334 60.3447 45.6334H52.5131C50.022 45.6334 47.9837 43.5951 47.9837 41.1043V28.0828C47.9837 25.5919 50.022 23.5534 52.5131 23.5534ZM63.1753 65.071H49.6823C47.7102 65.071 46.0967 63.4571 46.0967 61.4852V21.9495C46.0967 19.9776 47.7102 18.364 49.6823 18.364H63.1753C63.3353 18.364 63.4925 18.3746 63.6472 18.3953V15.4859C63.6472 14.6297 64.3478 13.9291 65.2041 13.9291C66.0603 13.9291 66.7609 14.6297 66.7609 15.4859V20.3927C66.7609 20.6101 66.7154 20.8178 66.6338 21.0064C66.7167 21.3073 66.7609 21.6235 66.7609 21.9495V61.4852C66.7609 63.4571 65.1476 65.071 63.1753 65.071Z" fill="#CCE86E"/>
<path fill-rule="evenodd" clip-rule="evenodd" d="M74.5587 26.5308C76.6843 26.2261 78.316 26.8169 78.4272 30.1637C78.357 33.1517 76.7688 33.9079 74.5587 33.7493V26.5308ZM69.9336 24.3825L78.5443 24.3492C81.6837 24.748 83.1343 27.0975 83.0026 30.516C82.7633 33.9614 80.81 35.6454 77.5481 35.9407L74.4222 35.8785L74.51 45.3301H69.9336V24.3825Z" fill="#80CC28"/>
<path fill-rule="evenodd" clip-rule="evenodd" d="M91.0003 24.1225L96.4518 24.0976L96.4112 26.4374L92.1409 26.4182C89.677 26.8759 90.2288 29.5043 90.1093 31.4036L95.854 31.2961L95.8738 34.168L90.3082 34.1088L90.2812 41.0635C90.5 42.8665 91.4488 43.7733 93.0509 43.8784L96.1089 43.8448L97.041 43.865L97.0121 46.0363L96.057 46.0726L90.2455 46.0108C88.2428 45.9431 86.6258 44.9498 85.8818 41.8621L85.7393 28.3696C85.8209 25.6034 87.6477 24.2469 91.0003 24.1225Z" fill="#80CC28"/>
<path fill-rule="evenodd" clip-rule="evenodd" d="M98.4523 30.044C98.1087 25.5244 100.627 24.5035 103.689 24.1467C107.274 23.9343 109.525 25.4291 109.964 29.2429L105.733 29.2314C105.465 27.3077 103.968 26.5684 102.599 27.4838C100.647 29.8718 106.738 34.0744 108.564 35.6329C111.721 38.1298 111.187 45.0504 106.324 46.3334L103.359 46.4388C100.347 46.5098 98.5546 44.6076 98.0361 41.0808L102.299 41.0055C102.532 42.5116 103.174 43.4478 104.539 43.3811C106.661 42.978 107.245 41.1091 105.735 38.7242C102.575 36.0402 98.8323 33.5225 98.4523 30.044Z" fill="#80CC28"/>
<path fill-rule="evenodd" clip-rule="evenodd" d="M23.5 23.4391H27.9812L28.0283 24.8309C30.7363 23.6607 32.7783 22.8338 34.9174 24.7601C38.742 22.954 41.6342 23.1598 43.0684 26.5118L43.2681 45.3301H38.7493V27.3801C38.4148 25.8435 37.1981 25.5808 35.7299 25.6818V45.3301H31.1063V27.3801C30.7718 25.8435 29.5551 25.5808 28.0869 25.6818V45.3301H23.5V23.4391Z" fill="#80CC28"/>
<path fill-rule="evenodd" clip-rule="evenodd" d="M117.126 28.1883C117.279 26.9544 117.68 26.4576 119.037 26.3247C120.412 26.3602 120.901 27.1538 120.995 28.3769V31.7267H117.126V28.1883ZM112.479 45.8802H117.126V34.3215H120.995V45.8802H125.5V29.3678C125.41 26.0119 122.831 23.9088 119.178 23.8949C115.011 23.8582 112.635 25.8343 112.479 29.179V45.8802Z" fill="#80CC28"/>
<path fill-rule="evenodd" clip-rule="evenodd" d="M51.5934 32.3637C52.3682 34.1762 53.4229 35.0093 54.7008 35.0601C52.708 36.5488 50.5521 37.4536 48.3047 38.0314C46.8934 37.9409 45.5436 37.5817 44.2334 37.223C47.5439 36.5695 50.0126 34.9672 51.5934 32.3637Z" fill="#7F1D1E"/>
<path d="M51.5934 32.3637C52.3682 34.1762 53.4229 35.0093 54.7008 35.0601C52.708 36.5488 50.5521 37.4536 48.3047 38.0314C46.8934 37.9409 45.5436 37.5817 44.2334 37.223C47.5439 36.5695 50.0126 34.9672 51.5934 32.3637Z" stroke="#CD7F4B" stroke-width="2.28757" stroke-miterlimit="2.61313"/>
<path fill-rule="evenodd" clip-rule="evenodd" d="M60.2754 27.6929L69.6169 32.4109C64.8593 38.6704 56.8368 38.8351 48.292 38.0252C54.0045 36.6176 57.9597 33.1267 60.2754 27.6929Z" fill="#EC1D27"/>
<path d="M60.2754 27.6929L69.6169 32.4109C64.8593 38.6704 56.8368 38.8351 48.292 38.0252C54.0045 36.6176 57.9597 33.1267 60.2754 27.6929Z" stroke="#CD7F4B" stroke-width="2.28758" stroke-miterlimit="2.61313"/>
</svg>
