<svg width="150" height="80" viewBox="0 0 150 80" fill="none" xmlns="http://www.w3.org/2000/svg">
<rect width="149.651" height="79.4872" rx="8" fill="#F9F9F9"/>
<path d="M117.647 31.8877L115.193 47.0568C115.184 47.1125 115.187 47.1695 115.203 47.2238C115.219 47.2781 115.246 47.3284 115.283 47.3712C115.321 47.414 115.367 47.4482 115.42 47.4714C115.472 47.4946 115.529 47.5063 115.586 47.5057H118.49C118.593 47.5066 118.692 47.4713 118.771 47.4063C118.849 47.3413 118.901 47.2508 118.917 47.1513L121.372 31.9822C121.381 31.9265 121.377 31.8695 121.362 31.8152C121.346 31.7609 121.319 31.7106 121.281 31.6678C121.244 31.625 121.198 31.5908 121.145 31.5676C121.093 31.5444 121.036 31.5326 120.979 31.5333H118.074C117.972 31.5313 117.872 31.5662 117.793 31.6314C117.715 31.6966 117.663 31.7877 117.647 31.8877ZM114.546 36.3144H111.79C111.688 36.3134 111.589 36.3486 111.511 36.4135C111.432 36.4785 111.38 36.5688 111.364 36.6683L111.273 37.2267C111.273 37.2267 109.133 34.9436 105.343 36.4865C103.169 37.3699 102.126 39.1951 101.681 40.5323C101.681 40.5323 100.272 44.5961 103.46 46.8329C103.46 46.8329 106.415 48.9843 109.744 46.7005L109.686 47.0568C109.673 47.1405 109.688 47.2261 109.729 47.3007C109.77 47.3753 109.834 47.4346 109.913 47.4696C109.965 47.4937 110.021 47.5057 110.079 47.5057H112.836C112.939 47.5077 113.039 47.4728 113.118 47.4076C113.196 47.3424 113.248 47.2513 113.263 47.1513L114.941 36.7633C114.95 36.7077 114.947 36.6507 114.931 36.5965C114.915 36.5423 114.887 36.4922 114.85 36.4498C114.812 36.4067 114.766 36.3721 114.713 36.3486C114.661 36.3251 114.604 36.3138 114.546 36.3144ZM110.491 42.0554C110.384 42.7812 110.011 43.4434 109.442 43.9179C108.871 44.3941 108.144 44.6512 107.396 44.6418C107.102 44.6452 106.81 44.6034 106.53 44.5179C105.34 44.1448 104.661 43.0291 104.856 41.8195C104.965 41.0941 105.338 40.4323 105.906 39.9582C106.477 39.4817 107.203 39.2238 107.951 39.2318C108.245 39.2289 108.537 39.2711 108.818 39.357C110.015 39.7277 110.691 40.8452 110.494 42.056H110.491V42.0554ZM95.7761 42.3424C97.2705 42.3424 98.7159 41.8201 99.8512 40.8705C100.984 39.9241 101.734 38.6091 101.965 37.1647C102.448 34.1601 100.045 31.5375 96.6374 31.5375H91.1486C91.0461 31.5365 90.9467 31.5718 90.8685 31.6368C90.7902 31.7019 90.7383 31.7924 90.7222 31.8919L88.2674 47.061C88.2541 47.1447 88.269 47.2304 88.3099 47.3049C88.3508 47.3795 88.4154 47.4388 88.4938 47.4738C88.5464 47.4979 88.6026 47.5099 88.6601 47.5099H91.5663C91.6688 47.5109 91.7682 47.4756 91.8464 47.4106C91.9247 47.3455 91.9766 47.255 91.9927 47.1555L92.7133 42.7011C92.7284 42.601 92.7801 42.5097 92.8587 42.4444C92.9373 42.379 93.0374 42.3441 93.1403 42.3461L95.7761 42.3424ZM98.207 37.0281C98.0278 38.139 97.1481 38.9568 95.4653 38.9568H93.314L93.9673 34.9171H96.0801C97.8198 34.9201 98.3862 35.9221 98.207 37.0311V37.0281Z" fill="#0070E0"/>
<path d="M84.9639 36.573L81.6399 42.0522L79.9528 36.6133C79.9264 36.5265 79.872 36.4505 79.7979 36.3968C79.7237 36.343 79.6338 36.3145 79.5417 36.3154H76.542C76.4644 36.3144 76.389 36.341 76.3297 36.3903C76.2705 36.4396 76.2314 36.5083 76.2196 36.5838C76.2123 36.6338 76.2175 36.6849 76.2349 36.7324L79.2579 45.8939L76.5236 50.2111C76.5004 50.2466 76.4848 50.2865 76.4778 50.3281C76.4707 50.3698 76.4724 50.4125 76.4827 50.4535C76.4931 50.4945 76.5118 50.533 76.5377 50.5666C76.5637 50.6003 76.5963 50.6284 76.6337 50.6492C76.6837 50.6775 76.7406 50.692 76.7983 50.6913H80.0293C80.1215 50.6916 80.2122 50.6685 80.2927 50.6242C80.3732 50.58 80.4407 50.516 80.4887 50.4386L88.9326 36.798C88.9632 36.7505 88.98 36.6957 88.9812 36.6395C88.9824 36.5833 88.9679 36.5278 88.9393 36.4791C88.9108 36.4302 88.8695 36.3898 88.8197 36.3619C88.7699 36.3341 88.7134 36.3199 88.6561 36.3208H85.4263C85.3337 36.32 85.2424 36.3428 85.1613 36.387C85.0803 36.4311 85.0123 36.4952 84.9639 36.573ZM74.8414 36.3154H72.0833C71.9807 36.3144 71.8811 36.3498 71.8027 36.4149C71.7244 36.4801 71.6724 36.5708 71.6563 36.6705L71.567 37.2283C71.567 37.2283 69.4248 34.9452 65.6353 36.4881C63.4619 37.3715 62.4178 39.1967 61.9755 40.5339C61.9755 40.5339 60.5649 44.5977 63.7519 46.8345C63.7519 46.8345 66.7082 48.9859 70.0365 46.7021L69.979 47.0584C69.9655 47.1421 69.9803 47.2278 70.0212 47.3024C70.0621 47.377 70.1268 47.4363 70.2053 47.4712C70.2573 47.4953 70.3142 47.5073 70.3717 47.5073H73.1293C73.2316 47.508 73.3309 47.4727 73.4091 47.4077C73.4873 47.3427 73.5393 47.2523 73.5556 47.1528L75.2335 36.7649C75.2472 36.6811 75.2324 36.5952 75.1915 36.5205C75.1506 36.4458 75.0858 36.3864 75.0072 36.3515C74.955 36.3279 74.8989 36.3156 74.8414 36.3154ZM70.7858 42.0576C70.6773 42.7825 70.3041 43.4437 69.7362 43.9177C69.1655 44.3938 68.4394 44.6515 67.6912 44.6434C67.3981 44.6466 67.1063 44.6048 66.8263 44.5195C65.6371 44.1464 64.9588 43.0307 65.1539 41.8205C65.2626 41.0935 65.6374 40.4305 66.2079 39.9562C66.7805 39.4797 67.509 39.2231 68.2589 39.2334C68.5525 39.2304 68.8455 39.2725 69.1257 39.3586C70.3105 39.7293 70.9853 40.8462 70.7895 42.0576H70.7858ZM56.0713 42.344C57.5632 42.3433 59.0062 41.8209 60.1428 40.8703C61.2747 39.9239 62.024 38.6094 62.2544 37.1657C62.7377 34.1616 60.3337 31.5391 56.9277 31.5391H51.4383C51.3359 31.5381 51.2365 31.5732 51.1581 31.6381C51.0798 31.7031 51.0277 31.7935 51.0113 31.8929L48.5645 47.0578C48.5509 47.1416 48.5656 47.2275 48.6065 47.3022C48.6474 47.3769 48.7122 47.4363 48.7909 47.4712C48.8429 47.4947 48.8997 47.5073 48.9572 47.5073H51.8616C51.9642 47.5083 52.0638 47.4729 52.1421 47.4078C52.2205 47.3426 52.2725 47.2519 52.2886 47.1522L53.0079 42.6979C53.0232 42.5979 53.075 42.5067 53.1535 42.4415C53.2321 42.3763 53.3321 42.3414 53.4349 42.3434L56.0713 42.344ZM58.5022 37.0291C58.323 38.14 57.444 38.9578 55.7612 38.9578H53.6099L54.2619 34.9181H56.3747C58.115 34.9211 58.6809 35.9236 58.5022 37.0321V37.0291Z" fill="#003087"/>
<path d="M37.2881 32.3175C37.3536 28.968 34.5453 26.3984 30.6836 26.3984H22.696C22.5099 26.3984 22.3298 26.4637 22.1883 26.5826C22.0467 26.7015 21.953 26.8663 21.924 27.0472L18.7236 46.7211C18.7093 46.8103 18.7148 46.9014 18.7397 46.9883C18.7646 47.0752 18.8084 47.1557 18.868 47.2243C18.9276 47.2929 19.0016 47.348 19.0849 47.3858C19.1682 47.4236 19.2588 47.4432 19.3506 47.4433H24.0827L23.3432 51.9987C23.3289 52.0879 23.3343 52.179 23.3593 52.2659C23.3842 52.3528 23.428 52.4333 23.4875 52.5019C23.5471 52.5705 23.6211 52.6257 23.7045 52.6635C23.7878 52.7012 23.8784 52.7208 23.9702 52.7209H27.8251C28.0111 52.7209 28.1768 52.6553 28.3188 52.5367C28.4595 52.4176 28.4827 52.2533 28.5121 52.0721L29.6437 45.5224C29.6725 45.3418 29.766 45.1071 29.9073 44.988C30.0487 44.8688 30.1722 44.8039 30.3588 44.8039H32.7175C36.4997 44.8039 39.708 42.159 40.2947 38.481C40.71 35.8704 39.5722 33.4952 37.2881 32.3175Z" fill="#001C64"/>
<path d="M25.1112 40.1871L23.9324 47.5396L23.1923 52.1516C23.178 52.2408 23.1836 52.3319 23.2086 52.4188C23.2336 52.5056 23.2774 52.5861 23.3371 52.6547C23.3967 52.7232 23.4708 52.7783 23.5541 52.816C23.6375 52.8537 23.7281 52.8732 23.8199 52.8732H27.8999C28.0859 52.8731 28.2657 52.8077 28.407 52.6888C28.5483 52.5698 28.6418 52.4052 28.6707 52.2245L29.746 45.5212C29.775 45.3405 29.8686 45.1758 30.01 45.0569C30.1514 44.938 30.3314 44.8726 30.5174 44.8725H32.9189C36.7011 44.8725 39.9095 42.1585 40.4967 38.4804C40.9127 35.8699 39.5767 33.4941 37.2926 32.3164C37.2865 32.5944 37.262 32.8718 37.2186 33.1469C36.632 36.8237 33.4224 39.5384 29.6414 39.5384H25.8825C25.6964 39.5386 25.5165 39.6041 25.3751 39.7231C25.2337 39.8421 25.1401 40.0062 25.1112 40.1871Z" fill="#0070E0"/>
<path d="M23.925 47.5398H19.1782C19.0865 47.5398 18.9958 47.5202 18.9126 47.4824C18.8293 47.4446 18.7553 47.3895 18.6958 47.3208C18.6362 47.2522 18.5925 47.1717 18.5677 47.0848C18.5428 46.9979 18.5374 46.9068 18.5518 46.8177L21.7523 26.8518C21.7812 26.6711 21.8749 26.5064 22.0163 26.3875C22.1577 26.2686 22.3376 26.2032 22.5236 26.2031H30.6813C34.5429 26.2031 37.3513 28.9677 37.2858 32.3166C36.3248 31.8207 35.1956 31.5373 33.9588 31.5373H27.1579C26.9717 31.5372 26.7917 31.6025 26.6501 31.7215C26.5086 31.8404 26.4149 32.0051 26.3859 32.186L25.105 40.1873L23.9244 47.5398H23.925Z" fill="#003087"/>
</svg>
