<svg width="150" height="79" viewBox="0 0 150 79" fill="none" xmlns="http://www.w3.org/2000/svg">
<rect width="149.651" height="79" rx="8" fill="#F9F9F9"/>
<path d="M90.2615 23C83.0191 23 76.547 26.7483 76.547 33.6737C76.547 41.6157 88.0256 42.1643 88.0256 46.1541C88.0256 47.8341 86.0975 49.3379 82.8044 49.3379C78.1309 49.3379 74.6379 47.2366 74.6379 47.2366L73.1433 54.225C73.1433 54.225 77.1671 56 82.5095 56C90.4277 56 96.6584 52.0676 96.6584 45.0239C96.6584 36.6317 85.132 36.0994 85.132 32.3962C85.132 31.0802 86.7148 29.6382 89.9985 29.6382C93.7034 29.6382 96.7262 31.1664 96.7262 31.1664L98.1889 24.4168C98.1889 24.4168 94.8999 23 90.2615 23ZM24.0006 23.5094L23.8252 24.5282C23.8252 24.5282 26.8721 25.085 29.6163 26.1957C33.1497 27.4694 33.4014 28.2108 33.9965 30.5137L40.4811 55.4747H49.1737L62.5654 23.5094H53.8927L45.2878 45.2428L41.7764 26.8206C41.4544 24.7121 39.8233 23.5094 37.8267 23.5094H24.0006ZM66.0528 23.5094L59.2494 55.4747H67.5196L74.2991 23.5094H66.0528ZM112.178 23.5094C110.184 23.5094 109.128 24.5755 108.352 26.4385L96.2359 55.4747H104.909L106.587 50.6353H117.152L118.173 55.4747H125.825L119.149 23.5094H112.178ZM113.306 32.1454L115.877 44.1404H108.99L113.306 32.1454Z" fill="#1434CB"/>
</svg>
